M48
; DRILL file {KiCad 8.0.5} date 2024-10-29T20:03:04+0100
; FORMAT={-:-/ absolute / inch / decimal}
; #@! TF.CreationDate,2024-10-29T20:03:04+01:00
; #@! TF.GenerationSoftware,Kicad,Pcbnew,8.0.5
; #@! TF.FileFunction,Plated,1,2,PTH
FMAT,2
INCH
; #@! TA.AperFunction,Plated,PTH,ViaDrill
T1C0.0118
; #@! TA.AperFunction,Plated,PTH,ComponentDrill
T2C0.0197
; #@! TA.AperFunction,Plated,PTH,ComponentDrill
T3C0.0315
; #@! TA.AperFunction,Plated,PTH,ComponentDrill
T4C0.0354
; #@! TA.AperFunction,Plated,PTH,ComponentDrill
T5C0.0394
; #@! TA.AperFunction,Plated,PTH,ComponentDrill
T6C0.0400
; #@! TA.AperFunction,Plated,PTH,ComponentDrill
T7C0.0437
; #@! TA.AperFunction,Plated,PTH,ComponentDrill
T8C0.0709
; #@! TA.AperFunction,Plated,PTH,ComponentDrill
T9C0.1083
%
G90
G05
T1
X2.3031Y-13.7402
X6.4173Y-3.9646
X6.4173Y-4.0984
X6.9685Y-7.5276
X6.9685Y-8.2283
X6.9724Y-7.3268
X7.0039Y-7.2677
X7.0039Y-7.5276
X7.0039Y-8.2283
X7.2638Y-8.248
X8.3858Y-9.3898
X8.3976Y-9.0748
X8.4213Y-9.3307
X8.5Y-8.9724
X8.9724Y-3.5591
X8.9724Y-3.689
X9.1535Y-6.0354
X9.1732Y-9.8622
X9.2717Y-9.7638
X9.2756Y-6.0354
X9.5079Y-8.8583
X9.8622Y-7.4921
X9.8858Y-7.4685
X9.9094Y-7.4449
X10.0197Y-10.6299
X10.0748Y-6.7717
X10.0866Y-7.4921
X10.1102Y-7.4685
X10.1181Y-10.5906
X10.1339Y-7.4449
X10.1732Y-6.7717
X10.2165Y-10.5512
X10.2756Y-6.7717
X10.315Y-10.5118
X10.374Y-6.7717
X10.374Y-8.8583
X10.4173Y-10.4724
X10.4724Y-6.7717
X10.7087Y-10.6693
X10.752Y-9.3504
X10.8104Y-6.3745
X10.811Y-6.1713
X10.8346Y-6.3543
X10.8386Y-6.1457
X10.8622Y-6.122
X10.8622Y-6.3346
X10.872Y-9.2874
X10.8858Y-6.0984
X10.8898Y-6.315
X10.9016Y-9.2008
X10.9081Y-6.0762
X10.9134Y-6.2895
X10.9252Y-7.3661
X11.062Y-10.629
X11.0669Y-6.6654
X11.1142Y-6.7126
X11.122Y-10.5669
X11.126Y-7.2835
X11.126Y-7.3436
X11.1575Y-10.5315
X11.189Y-10.4961
X11.2244Y-10.4606
X11.2598Y-11.2756
X11.2756Y-8.4921
X11.315Y-8.4921
X11.3228Y-6.6654
X11.3465Y-8.563
X11.3701Y-6.7126
X11.378Y-10.4409
X11.3858Y-8.563
X11.4055Y-10.4685
X11.4173Y-11.4331
X11.4291Y-10.5
X11.4567Y-10.5276
X11.4685Y-8.6811
X11.4803Y-10.5537
X11.4961Y-7.8465
X11.4961Y-9.3937
X11.5118Y-8.685
X11.5315Y-9.2402
X11.5709Y-9.2362
X11.5748Y-7.2827
X11.5748Y-7.3436
X11.5748Y-7.9488
X11.6063Y-5.9055
X11.6138Y-10.0748
X11.6142Y-7.378
X11.6142Y-9.8937
X11.6496Y-7.4094
X11.6693Y-7.8858
X11.685Y-7.437
X11.7138Y-10.4134
X11.7244Y-7.4685
X11.7244Y-7.8858
X11.7244Y-9.5945
X11.7598Y-7.5
X11.7638Y-11.1417
X11.8138Y-10.4134
X11.8307Y-9.5945
X11.8374Y-9.8346
X11.8494Y-7.9459
X11.8622Y-11.1417
X11.9138Y-10.4134
X11.9262Y-9.5945
X11.9262Y-9.7362
X11.9469Y-7.9429
X11.9646Y-11.1417
X12.0138Y-9.9409
X12.0138Y-10.4173
X12.0236Y-9.4882
X12.0246Y-9.5797
X12.0468Y-7.9493
X12.063Y-11.1378
X12.1102Y-9.4016
X12.1102Y-9.5197
X12.1138Y-10.4173
X12.1614Y-11.1378
X12.4035Y-9.5965
X12.4203Y-8.1506
X12.4213Y-8.2992
X12.4488Y-9.5984
X12.5394Y-6.437
X12.6181Y-6.3583
X12.6378Y-6.1969
X12.8819Y-3.0906
X12.8819Y-3.7008
X12.9409Y-7.5787
X13.0197Y-10.437
X13.0197Y-10.5472
X13.1535Y-10.5197
X13.1535Y-11.0816
X13.2047Y-10.5197
X13.2047Y-11.0827
X14.1339Y-9.5157
X14.2402Y-2.1063
X17.4409Y-2.5984
X17.5443Y-2.6969
T2
X6.8701Y-10.3839
X6.8701Y-10.6693
X7.0276Y-10.3839
X7.0276Y-10.6693
T3
X6.252Y-9.0512
X6.252Y-9.4512
X7.9055Y-3.4252
X7.9843Y-3.4252
X8.063Y-3.4252
X8.1417Y-3.4252
X8.2205Y-3.4252
X8.2992Y-3.4252
X8.378Y-3.4252
X8.4567Y-3.4252
X8.5354Y-3.4252
X8.6142Y-3.4252
X8.6929Y-3.4252
X8.7717Y-3.4252
T4
X5.7569Y-8.7283
X5.8569Y-8.7283
T5
X1.7323Y-3.9429
X1.7323Y-6.1476
X1.8307Y-3.9429
X1.8307Y-6.1476
X1.9291Y-3.9429
X1.9291Y-6.1476
X2.1063Y-8.5098
X2.1063Y-9.8878
X2.1063Y-11.2264
X2.1063Y-12.565
X2.1063Y-13.9035
X2.1063Y-15.2421
X2.2047Y-8.5098
X2.2047Y-9.8878
X2.2047Y-11.2264
X2.2047Y-12.565
X2.2047Y-13.9035
X2.2047Y-15.2421
X2.3031Y-8.5098
X2.3031Y-9.8878
X2.3031Y-11.2264
X2.3031Y-12.565
X2.3031Y-13.9035
X2.3031Y-15.2421
X2.5197Y-5.0453
X2.6181Y-5.0453
X2.7165Y-5.0453
X3.622Y-3.9429
X3.622Y-6.1516
X3.7205Y-3.9429
X3.7205Y-6.1516
X3.8189Y-3.9429
X3.8189Y-6.1516
X3.9016Y-15.3996
X4.0Y-15.3996
X4.0354Y-8.5098
X4.0354Y-9.8878
X4.0354Y-11.2264
X4.0354Y-12.5689
X4.0354Y-13.9035
X4.0984Y-15.3996
X4.1339Y-8.5098
X4.1339Y-9.8878
X4.1339Y-11.2264
X4.1339Y-12.5689
X4.1339Y-13.9035
X4.2323Y-8.5098
X4.2323Y-9.8878
X4.2323Y-11.2264
X4.2323Y-12.5689
X4.2323Y-13.9035
X4.4094Y-5.0453
X4.5079Y-5.0453
X4.6063Y-5.0453
X5.3937Y-15.4035
X5.4921Y-15.4035
X5.5906Y-15.4035
X5.6299Y-4.0217
X5.6299Y-6.1469
X5.6299Y-12.3681
X5.7283Y-4.0217
X5.7283Y-6.1469
X5.7283Y-12.3681
X5.7874Y-10.3602
X5.7874Y-13.7854
X5.8268Y-4.0217
X5.8268Y-6.1469
X5.8268Y-12.3681
X5.8858Y-10.3602
X5.8858Y-13.7854
X5.9843Y-10.3602
X5.9843Y-13.7854
X6.2598Y-7.3681
X6.3583Y-7.3681
X6.4173Y-5.0846
X6.4567Y-7.3681
X6.5157Y-5.0846
X6.6142Y-5.0846
X6.9685Y-11.6988
X7.0079Y-15.4035
X7.0472Y-9.0217
X7.0669Y-11.6988
X7.1063Y-15.4035
X7.1457Y-9.0217
X7.1654Y-11.6988
X7.2047Y-13.7854
X7.2047Y-15.4035
X7.2441Y-9.0217
X7.3031Y-13.7854
X7.4016Y-13.7854
X7.7165Y-8.8354
X7.7165Y-8.9354
X7.7165Y-9.0354
X7.7165Y-9.1354
X7.7165Y-9.2354
X7.7165Y-9.3354
X7.7165Y-9.4354
X7.7165Y-9.5354
X7.7165Y-9.6354
X7.7165Y-9.7354
X7.7165Y-9.8354
X7.7165Y-9.9354
X7.7165Y-10.0354
X7.7165Y-10.1354
X7.7165Y-10.2354
X7.7165Y-10.3354
X7.7165Y-10.4354
X7.7165Y-10.5354
X7.7165Y-10.6354
X7.7165Y-10.7354
X7.8165Y-8.8354
X7.8165Y-8.9354
X7.8165Y-9.0354
X7.8165Y-9.1354
X7.8165Y-9.2354
X7.8165Y-9.3354
X7.8165Y-9.4354
X7.8165Y-9.5354
X7.8165Y-9.6354
X7.8165Y-9.7354
X7.8165Y-9.8354
X7.8165Y-9.9354
X7.8165Y-10.0354
X7.8165Y-10.1354
X7.8165Y-10.2354
X7.8165Y-10.3354
X7.8165Y-10.4354
X7.8165Y-10.5354
X7.8165Y-10.6354
X7.8165Y-10.7354
X8.2283Y-12.3681
X8.3268Y-12.3681
X8.3465Y-10.3602
X8.4252Y-12.3681
X8.4252Y-15.3996
X8.4449Y-10.3602
X8.5236Y-15.3996
X8.5433Y-10.3602
X8.622Y-15.3996
X8.7795Y-13.7894
X8.8189Y-9.4685
X8.8189Y-9.5685
X8.874Y-4.0217
X8.874Y-6.1476
X8.878Y-13.7894
X8.9189Y-9.4685
X8.9189Y-9.5685
X8.9724Y-4.0217
X8.9724Y-6.1476
X8.9764Y-13.7894
X9.0189Y-9.4685
X9.0189Y-9.5685
X9.0709Y-4.0217
X9.0709Y-6.1476
X9.1189Y-9.4685
X9.1189Y-9.5685
X9.2189Y-9.4685
X9.2189Y-9.5685
X9.3189Y-9.4685
X9.3189Y-9.5685
X9.4189Y-9.4685
X9.4189Y-9.5685
X9.5Y-7.3681
X9.5189Y-9.4685
X9.5189Y-9.5685
X9.5669Y-11.6988
X9.5984Y-7.3681
X9.6063Y-9.0217
X9.6189Y-9.4685
X9.6189Y-9.5685
X9.6614Y-5.0846
X9.6654Y-11.6988
X9.6969Y-7.3681
X9.7047Y-9.0217
X9.7189Y-9.4685
X9.7189Y-9.5685
X9.7598Y-5.0846
X9.7638Y-11.6988
X9.8031Y-9.0217
X9.8189Y-9.4685
X9.8189Y-9.5685
X9.8425Y-15.3996
X9.8583Y-5.0846
X9.9189Y-9.4685
X9.9189Y-9.5685
X9.9409Y-15.3996
X10.0189Y-9.4685
X10.0189Y-9.5685
X10.0394Y-15.3996
X10.1189Y-9.4685
X10.1189Y-9.5685
X10.1969Y-13.7854
X10.2189Y-9.4685
X10.2189Y-9.5685
X10.2953Y-13.7854
X10.3189Y-9.4685
X10.3189Y-9.5685
X10.3937Y-13.7854
X10.4189Y-9.4685
X10.4189Y-9.5685
X10.8268Y-12.3681
X10.9252Y-12.3681
X10.9449Y-10.3602
X11.0236Y-12.3681
X11.0433Y-10.3602
X11.1417Y-10.3602
X11.4567Y-15.3996
X11.5551Y-15.3996
X11.6142Y-13.7854
X11.6535Y-15.3996
X11.7126Y-13.7854
X11.811Y-13.7854
X12.1142Y-4.0217
X12.1142Y-6.1476
X12.1654Y-11.6988
X12.2126Y-4.0217
X12.2126Y-6.1476
X12.2638Y-11.6988
X12.311Y-4.0217
X12.311Y-6.1476
X12.3622Y-9.0217
X12.3622Y-10.3602
X12.3622Y-11.6988
X12.4606Y-9.0217
X12.4606Y-10.3602
X12.5591Y-9.0217
X12.5591Y-10.3602
X12.7441Y-7.3681
X12.8425Y-7.3681
X12.874Y-15.3996
X12.9016Y-5.0846
X12.9409Y-7.3681
X12.9724Y-15.3996
X13.0Y-5.0846
X13.0709Y-15.3996
X13.0984Y-5.0846
X13.189Y-13.7854
X13.2677Y-2.565
X13.2874Y-13.7854
X13.3071Y-12.3681
X13.3661Y-2.565
X13.3858Y-13.7854
X13.4055Y-12.3681
X13.4646Y-2.565
X13.5039Y-12.3681
X14.1339Y-9.0256
X14.1339Y-10.3602
X14.2323Y-9.0256
X14.2323Y-10.3602
X14.2913Y-15.3996
X14.3307Y-9.0256
X14.3307Y-10.3602
X14.3898Y-15.3996
X14.4488Y-13.7894
X14.4882Y-15.3996
X14.5472Y-13.7894
X14.6457Y-11.6988
X14.6457Y-13.7894
X14.7441Y-11.6988
X14.8425Y-11.6988
X14.8819Y-2.565
X14.9803Y-2.565
X15.0787Y-2.565
X15.3543Y-4.0217
X15.3543Y-6.1476
X15.4528Y-4.0217
X15.4528Y-6.1476
X15.5512Y-4.0217
X15.5512Y-6.1476
X15.689Y-1.3445
X15.7087Y-9.0217
X15.7087Y-10.3602
X15.7087Y-13.7854
X15.7087Y-15.3996
X15.7874Y-1.3445
X15.8071Y-9.0217
X15.8071Y-10.3602
X15.8071Y-13.7854
X15.8071Y-15.3996
X15.8858Y-1.3445
X15.9055Y-9.0217
X15.9055Y-10.3602
X15.9055Y-13.7854
X15.9055Y-15.3996
X15.9843Y-7.372
X16.0827Y-7.372
X16.1417Y-5.0846
X16.1811Y-7.372
X16.2402Y-5.0846
X16.3386Y-5.0846
X16.4961Y-2.565
X16.5945Y-2.565
X16.6929Y-2.565
X16.9685Y-9.0256
X17.0669Y-9.0256
X17.1654Y-9.0256
X17.2047Y-1.3484
X17.2638Y-12.3681
X17.2638Y-13.7854
X17.2638Y-15.3996
X17.3031Y-1.3484
X17.3622Y-12.3681
X17.3622Y-13.7854
X17.3622Y-15.3996
X17.4016Y-1.3484
X17.4606Y-12.3681
X17.4606Y-13.7854
X17.4606Y-15.3996
T6
X2.9528Y-10.9748
X2.9528Y-11.0748
X2.9528Y-11.1748
X2.9528Y-11.2748
X2.9528Y-11.3748
X2.9528Y-11.4748
X2.9528Y-11.5748
X2.9528Y-11.6748
X2.9528Y-11.7748
X2.9528Y-11.8748
X2.9528Y-11.9748
X2.9528Y-12.0748
X2.9528Y-12.1748
X2.9528Y-12.2748
X2.9528Y-12.3748
X2.9528Y-12.4748
X3.5528Y-11.3748
X3.5528Y-11.4748
X3.5528Y-11.5748
X3.5528Y-11.6748
X3.5528Y-11.7748
X3.5528Y-11.8748
X3.5528Y-11.9748
X3.5528Y-12.0748
X8.9736Y-6.4815
X9.0736Y-6.4815
X9.1736Y-6.4815
X9.2736Y-6.4815
X9.3736Y-5.8815
X9.3736Y-6.4815
X9.4736Y-5.8815
X9.4736Y-6.4815
X9.5736Y-5.8815
X9.5736Y-6.4815
X9.6736Y-5.8815
X9.6736Y-6.4815
X9.7736Y-5.8815
X9.7736Y-6.4815
X9.8736Y-5.8815
X9.8736Y-6.4815
X9.9736Y-5.8815
X9.9736Y-6.4815
X10.0736Y-5.8815
X10.0736Y-6.4815
X10.1736Y-6.4815
X10.2736Y-6.4815
X10.3736Y-6.4815
X10.4736Y-6.4815
X11.0138Y-10.8317
X11.1138Y-10.8317
X11.2138Y-10.8317
X11.3138Y-10.8317
X11.4138Y-10.2317
X11.4138Y-10.8317
X11.5138Y-10.2317
X11.5138Y-10.8317
X11.6138Y-10.2317
X11.6138Y-10.8317
X11.698Y-14.4776
X11.7138Y-10.2317
X11.7138Y-10.8317
X11.798Y-14.4776
X11.8138Y-10.2317
X11.8138Y-10.8317
X11.898Y-14.4776
X11.9138Y-10.2317
X11.9138Y-10.8317
X11.998Y-14.4776
X12.0138Y-10.2317
X12.0138Y-10.8317
X12.098Y-13.8776
X12.098Y-14.4776
X12.1138Y-10.2317
X12.1138Y-10.8317
X12.198Y-13.8776
X12.198Y-14.4776
X12.2138Y-10.8317
X12.298Y-13.8776
X12.298Y-14.4776
X12.3138Y-10.8317
X12.398Y-13.8776
X12.398Y-14.4776
X12.4138Y-10.8317
X12.498Y-13.8776
X12.498Y-14.4776
X12.5138Y-10.8317
X12.598Y-13.8776
X12.598Y-14.4776
X12.698Y-13.8776
X12.698Y-14.4776
X12.798Y-13.8776
X12.798Y-14.4776
X12.898Y-14.4776
X12.998Y-14.4776
X13.098Y-14.4776
X13.198Y-14.4776
X13.4388Y-2.8398
X13.5388Y-2.8398
X13.6388Y-2.8398
X13.7388Y-2.8398
X13.8388Y-2.2398
X13.8388Y-2.8398
X13.9388Y-2.2398
X13.9388Y-2.8398
X14.0388Y-2.2398
X14.0388Y-2.8398
X14.1388Y-2.2398
X14.1388Y-2.8398
X14.2388Y-2.2398
X14.2388Y-2.8398
X14.3388Y-2.2398
X14.3388Y-2.8398
X14.4388Y-2.2398
X14.4388Y-2.8398
X14.5388Y-2.2398
X14.5388Y-2.8398
X14.6388Y-2.8398
X14.7388Y-2.8398
X14.8388Y-2.8398
X14.9388Y-2.8398
T7
X10.0248Y-7.6815
X10.0248Y-8.2815
X10.1248Y-7.6815
X10.1248Y-8.2815
X10.2248Y-7.6815
X10.2248Y-8.2815
X10.3248Y-7.6815
X10.3248Y-8.2815
X10.4248Y-7.6815
X10.4248Y-8.2815
X10.5248Y-7.6815
X10.5248Y-8.2815
X10.6248Y-7.6815
X10.6248Y-8.2815
X10.7248Y-7.6815
X10.7248Y-8.2815
X10.8248Y-7.6815
X10.8248Y-8.2815
X10.9248Y-7.6815
X10.9248Y-8.2815
X11.0248Y-7.6815
X11.0248Y-8.2815
X11.1248Y-7.6815
X11.1248Y-8.2815
X11.2248Y-7.6815
X11.2248Y-8.2815
X11.3248Y-7.6815
X11.3248Y-8.2815
X11.4248Y-7.6815
X11.4248Y-8.2815
X11.5248Y-7.6815
X11.5248Y-8.2815
X11.6248Y-7.6815
X11.6248Y-8.2815
X11.7248Y-7.6815
X11.7248Y-8.2815
X11.8248Y-7.6815
X11.8248Y-8.2815
X11.9248Y-7.6815
X11.9248Y-8.2815
X12.0248Y-7.6815
X12.0248Y-8.2815
X12.1248Y-7.6815
X12.1248Y-8.2815
X12.2248Y-7.6815
X12.2248Y-8.2815
X12.3248Y-7.6815
X12.3248Y-8.2815
T9
X4.5866Y-8.6417
X4.5866Y-10.9252
X6.5157Y-8.6417
X6.5157Y-10.9252
T4
G00X11.0197Y-8.6594
M15
G01X11.0669Y-8.6594
M16
G05
G00X11.0197Y-8.7972
M15
G01X11.0669Y-8.7972
M16
G05
G00X14.1496Y-0.9823
M15
G01X14.1969Y-0.9823
M16
G05
G00X14.1496Y-1.1201
M15
G01X14.1969Y-1.1201
M16
G05
T5
G00X2.5906Y-6.2992
M15
G01X2.6457Y-6.2992
M16
G05
G00X2.5906Y-6.4843
M15
G01X2.6457Y-6.4843
M16
G05
G00X2.5906Y-6.6693
M15
G01X2.6457Y-6.6693
M16
G05
G00X4.4803Y-6.2992
M15
G01X4.5354Y-6.2992
M16
G05
G00X4.4803Y-6.4843
M15
G01X4.5354Y-6.4843
M16
G05
G00X4.4803Y-6.6693
M15
G01X4.5354Y-6.6693
M16
G05
G00X7.5118Y-6.8898
M15
G01X7.5669Y-6.8898
M16
G05
G00X7.5118Y-7.0748
M15
G01X7.5669Y-7.0748
M16
G05
G00X7.5118Y-7.2598
M15
G01X7.5669Y-7.2598
M16
G05
G00X7.5965Y-7.9732
M15
G01X7.5965Y-7.9181
M16
G05
G00X7.7815Y-7.9732
M15
G01X7.7815Y-7.9181
M16
G05
G00X7.9665Y-7.9732
M15
G01X7.9665Y-7.9181
M16
G05
G00X10.752Y-6.8898
M15
G01X10.8071Y-6.8898
M16
G05
G00X10.752Y-7.0748
M15
G01X10.8071Y-7.0748
M16
G05
G00X10.752Y-7.2598
M15
G01X10.8071Y-7.2598
M16
G05
G00X13.9961Y-6.8898
M15
G01X14.0512Y-6.8898
M16
G05
G00X13.9961Y-7.0748
M15
G01X14.0512Y-7.0748
M16
G05
G00X13.9961Y-7.2598
M15
G01X14.0512Y-7.2598
M16
G05
G00X15.8189Y-12.0472
M15
G01X15.874Y-12.0472
M16
G05
G00X15.8189Y-12.2323
M15
G01X15.874Y-12.2323
M16
G05
G00X15.8189Y-12.4173
M15
G01X15.874Y-12.4173
M16
G05
G00X16.4488Y-11.2992
M15
G01X16.5039Y-11.2992
M16
G05
G00X16.4488Y-11.4843
M15
G01X16.5039Y-11.4843
M16
G05
G00X16.4488Y-11.6693
M15
G01X16.5039Y-11.6693
M16
G05
G00X17.0394Y-9.8819
M15
G01X17.0945Y-9.8819
M16
G05
G00X17.0394Y-10.0669
M15
G01X17.0945Y-10.0669
M16
G05
G00X17.0394Y-10.252
M15
G01X17.0945Y-10.252
M16
G05
G00X17.2375Y-6.8898
M15
G01X17.2926Y-6.8898
M16
G05
G00X17.2375Y-7.0748
M15
G01X17.2926Y-7.0748
M16
G05
G00X17.2375Y-7.2599
M15
G01X17.2926Y-7.2599
M16
G05
T8
G00X1.6575Y-3.6732
M15
G01X1.6575Y-3.6614
M16
G05
G00X1.6575Y-5.878
M15
G01X1.6575Y-5.8661
M16
G05
G00X2.0039Y-3.6732
M15
G01X2.0039Y-3.6614
M16
G05
G00X2.0039Y-5.878
M15
G01X2.0039Y-5.8661
M16
G05
G00X2.0315Y-8.2402
M15
G01X2.0315Y-8.2283
M16
G05
G00X2.0315Y-9.6181
M15
G01X2.0315Y-9.6063
M16
G05
G00X2.0315Y-10.9567
M15
G01X2.0315Y-10.9449
M16
G05
G00X2.0315Y-12.2953
M15
G01X2.0315Y-12.2835
M16
G05
G00X2.0315Y-13.6339
M15
G01X2.0315Y-13.622
M16
G05
G00X2.0315Y-14.9724
M15
G01X2.0315Y-14.9606
M16
G05
G00X2.378Y-8.2402
M15
G01X2.378Y-8.2283
M16
G05
G00X2.378Y-9.6181
M15
G01X2.378Y-9.6063
M16
G05
G00X2.378Y-10.9567
M15
G01X2.378Y-10.9449
M16
G05
G00X2.378Y-12.2953
M15
G01X2.378Y-12.2835
M16
G05
G00X2.378Y-13.6339
M15
G01X2.378Y-13.622
M16
G05
G00X2.378Y-14.9724
M15
G01X2.378Y-14.9606
M16
G05
G00X2.4449Y-4.7756
M15
G01X2.4449Y-4.7638
M16
G05
G00X2.7913Y-4.7756
M15
G01X2.7913Y-4.7638
M16
G05
G00X3.5472Y-3.6732
M15
G01X3.5472Y-3.6614
M16
G05
G00X3.5472Y-5.8819
M15
G01X3.5472Y-5.8701
M16
G05
G00X3.8268Y-15.1299
M15
G01X3.8268Y-15.1181
M16
G05
G00X3.8937Y-3.6732
M15
G01X3.8937Y-3.6614
M16
G05
G00X3.8937Y-5.8819
M15
G01X3.8937Y-5.8701
M16
G05
G00X3.9606Y-8.2402
M15
G01X3.9606Y-8.2283
M16
G05
G00X3.9606Y-9.6181
M15
G01X3.9606Y-9.6063
M16
G05
G00X3.9606Y-10.9567
M15
G01X3.9606Y-10.9449
M16
G05
G00X3.9606Y-12.2992
M15
G01X3.9606Y-12.2874
M16
G05
G00X3.9606Y-13.6339
M15
G01X3.9606Y-13.622
M16
G05
G00X4.1732Y-15.1299
M15
G01X4.1732Y-15.1181
M16
G05
G00X4.3071Y-8.2402
M15
G01X4.3071Y-8.2283
M16
G05
G00X4.3071Y-9.6181
M15
G01X4.3071Y-9.6063
M16
G05
G00X4.3071Y-10.9567
M15
G01X4.3071Y-10.9449
M16
G05
G00X4.3071Y-12.2992
M15
G01X4.3071Y-12.2874
M16
G05
G00X4.3071Y-13.6339
M15
G01X4.3071Y-13.622
M16
G05
G00X4.3346Y-4.7756
M15
G01X4.3346Y-4.7638
M16
G05
G00X4.6811Y-4.7756
M15
G01X4.6811Y-4.7638
M16
G05
G00X5.3189Y-15.1339
M15
G01X5.3189Y-15.122
M16
G05
G00X5.5551Y-3.752
M15
G01X5.5551Y-3.7402
M16
G05
G00X5.5551Y-5.8772
M15
G01X5.5551Y-5.8654
M16
G05
G00X5.5551Y-12.0984
M15
G01X5.5551Y-12.0866
M16
G05
G00X5.6654Y-15.1339
M15
G01X5.6654Y-15.122
M16
G05
G00X5.7126Y-10.0906
M15
G01X5.7126Y-10.0787
M16
G05
G00X5.7126Y-13.5157
M15
G01X5.7126Y-13.5039
M16
G05
G00X5.9016Y-3.752
M15
G01X5.9016Y-3.7402
M16
G05
G00X5.9016Y-5.8772
M15
G01X5.9016Y-5.8654
M16
G05
G00X5.9016Y-12.0984
M15
G01X5.9016Y-12.0866
M16
G05
G00X6.0591Y-10.0906
M15
G01X6.0591Y-10.0787
M16
G05
G00X6.0591Y-13.5157
M15
G01X6.0591Y-13.5039
M16
G05
G00X6.185Y-7.0984
M15
G01X6.185Y-7.0866
M16
G05
G00X6.3425Y-4.815
M15
G01X6.3425Y-4.8031
M16
G05
G00X6.5315Y-7.0984
M15
G01X6.5315Y-7.0866
M16
G05
G00X6.689Y-4.815
M15
G01X6.689Y-4.8031
M16
G05
G00X6.8937Y-11.4291
M15
G01X6.8937Y-11.4173
M16
G05
G00X6.9331Y-15.1339
M15
G01X6.9331Y-15.122
M16
G05
G00X6.9724Y-8.752
M15
G01X6.9724Y-8.7402
M16
G05
G00X7.1299Y-13.5157
M15
G01X7.1299Y-13.5039
M16
G05
G00X7.2402Y-11.4291
M15
G01X7.2402Y-11.4173
M16
G05
G00X7.2795Y-15.1339
M15
G01X7.2795Y-15.122
M16
G05
G00X7.3189Y-8.752
M15
G01X7.3189Y-8.7402
M16
G05
G00X7.4764Y-13.5157
M15
G01X7.4764Y-13.5039
M16
G05
G00X8.1535Y-12.0984
M15
G01X8.1535Y-12.0866
M16
G05
G00X8.2717Y-10.0906
M15
G01X8.2717Y-10.0787
M16
G05
G00X8.3504Y-15.1299
M15
G01X8.3504Y-15.1181
M16
G05
G00X8.5Y-12.0984
M15
G01X8.5Y-12.0866
M16
G05
G00X8.6181Y-10.0906
M15
G01X8.6181Y-10.0787
M16
G05
G00X8.6969Y-15.1299
M15
G01X8.6969Y-15.1181
M16
G05
G00X8.7047Y-13.5197
M15
G01X8.7047Y-13.5079
M16
G05
G00X8.7992Y-3.752
M15
G01X8.7992Y-3.7402
M16
G05
G00X8.7992Y-5.878
M15
G01X8.7992Y-5.8661
M16
G05
G00X9.0512Y-13.5197
M15
G01X9.0512Y-13.5079
M16
G05
G00X9.1457Y-3.752
M15
G01X9.1457Y-3.7402
M16
G05
G00X9.1457Y-5.878
M15
G01X9.1457Y-5.8661
M16
G05
G00X9.4252Y-7.0984
M15
G01X9.4252Y-7.0866
M16
G05
G00X9.4921Y-11.4291
M15
G01X9.4921Y-11.4173
M16
G05
G00X9.5315Y-8.752
M15
G01X9.5315Y-8.7402
M16
G05
G00X9.5866Y-4.815
M15
G01X9.5866Y-4.8031
M16
G05
G00X9.7677Y-15.1299
M15
G01X9.7677Y-15.1181
M16
G05
G00X9.7717Y-7.0984
M15
G01X9.7717Y-7.0866
M16
G05
G00X9.8386Y-11.4291
M15
G01X9.8386Y-11.4173
M16
G05
G00X9.878Y-8.752
M15
G01X9.878Y-8.7402
M16
G05
G00X9.9331Y-4.815
M15
G01X9.9331Y-4.8031
M16
G05
G00X10.1142Y-15.1299
M15
G01X10.1142Y-15.1181
M16
G05
G00X10.122Y-13.5157
M15
G01X10.122Y-13.5039
M16
G05
G00X10.4685Y-13.5157
M15
G01X10.4685Y-13.5039
M16
G05
G00X10.752Y-12.0984
M15
G01X10.752Y-12.0866
M16
G05
G00X10.8701Y-10.0906
M15
G01X10.8701Y-10.0787
M16
G05
G00X11.0984Y-12.0984
M15
G01X11.0984Y-12.0866
M16
G05
G00X11.2165Y-10.0906
M15
G01X11.2165Y-10.0787
M16
G05
G00X11.3819Y-15.1299
M15
G01X11.3819Y-15.1181
M16
G05
G00X11.5394Y-13.5157
M15
G01X11.5394Y-13.5039
M16
G05
G00X11.7283Y-15.1299
M15
G01X11.7283Y-15.1181
M16
G05
G00X11.8858Y-13.5157
M15
G01X11.8858Y-13.5039
M16
G05
G00X12.0394Y-3.752
M15
G01X12.0394Y-3.7402
M16
G05
G00X12.0394Y-5.878
M15
G01X12.0394Y-5.8661
M16
G05
G00X12.0906Y-11.4291
M15
G01X12.0906Y-11.4173
M16
G05
G00X12.2874Y-8.752
M15
G01X12.2874Y-8.7402
M16
G05
G00X12.2874Y-10.0906
M15
G01X12.2874Y-10.0787
M16
G05
G00X12.3858Y-3.752
M15
G01X12.3858Y-3.7402
M16
G05
G00X12.3858Y-5.878
M15
G01X12.3858Y-5.8661
M16
G05
G00X12.437Y-11.4291
M15
G01X12.437Y-11.4173
M16
G05
G00X12.6339Y-8.752
M15
G01X12.6339Y-8.7402
M16
G05
G00X12.6339Y-10.0906
M15
G01X12.6339Y-10.0787
M16
G05
G00X12.6693Y-7.0984
M15
G01X12.6693Y-7.0866
M16
G05
G00X12.7992Y-15.1299
M15
G01X12.7992Y-15.1181
M16
G05
G00X12.8268Y-4.815
M15
G01X12.8268Y-4.8031
M16
G05
G00X13.0157Y-7.0984
M15
G01X13.0157Y-7.0866
M16
G05
G00X13.1142Y-13.5157
M15
G01X13.1142Y-13.5039
M16
G05
G00X13.1457Y-15.1299
M15
G01X13.1457Y-15.1181
M16
G05
G00X13.1732Y-4.815
M15
G01X13.1732Y-4.8031
M16
G05
G00X13.1929Y-2.2953
M15
G01X13.1929Y-2.2835
M16
G05
G00X13.2323Y-12.0984
M15
G01X13.2323Y-12.0866
M16
G05
G00X13.4606Y-13.5157
M15
G01X13.4606Y-13.5039
M16
G05
G00X13.5394Y-2.2953
M15
G01X13.5394Y-2.2835
M16
G05
G00X13.5787Y-12.0984
M15
G01X13.5787Y-12.0866
M16
G05
G00X14.0591Y-8.7559
M15
G01X14.0591Y-8.7441
M16
G05
G00X14.0591Y-10.0906
M15
G01X14.0591Y-10.0787
M16
G05
G00X14.2165Y-15.1299
M15
G01X14.2165Y-15.1181
M16
G05
G00X14.374Y-13.5197
M15
G01X14.374Y-13.5079
M16
G05
G00X14.4055Y-8.7559
M15
G01X14.4055Y-8.7441
M16
G05
G00X14.4055Y-10.0906
M15
G01X14.4055Y-10.0787
M16
G05
G00X14.563Y-15.1299
M15
G01X14.563Y-15.1181
M16
G05
G00X14.5709Y-11.4291
M15
G01X14.5709Y-11.4173
M16
G05
G00X14.7205Y-13.5197
M15
G01X14.7205Y-13.5079
M16
G05
G00X14.8071Y-2.2953
M15
G01X14.8071Y-2.2835
M16
G05
G00X14.9173Y-11.4291
M15
G01X14.9173Y-11.4173
M16
G05
G00X15.1535Y-2.2953
M15
G01X15.1535Y-2.2835
M16
G05
G00X15.2795Y-3.752
M15
G01X15.2795Y-3.7402
M16
G05
G00X15.2795Y-5.878
M15
G01X15.2795Y-5.8661
M16
G05
G00X15.6142Y-1.0748
M15
G01X15.6142Y-1.063
M16
G05
G00X15.626Y-3.752
M15
G01X15.626Y-3.7402
M16
G05
G00X15.626Y-5.878
M15
G01X15.626Y-5.8661
M16
G05
G00X15.6339Y-8.752
M15
G01X15.6339Y-8.7402
M16
G05
G00X15.6339Y-10.0906
M15
G01X15.6339Y-10.0787
M16
G05
G00X15.6339Y-13.5157
M15
G01X15.6339Y-13.5039
M16
G05
G00X15.6339Y-15.1299
M15
G01X15.6339Y-15.1181
M16
G05
G00X15.9094Y-7.1024
M15
G01X15.9094Y-7.0906
M16
G05
G00X15.9606Y-1.0748
M15
G01X15.9606Y-1.063
M16
G05
G00X15.9803Y-8.752
M15
G01X15.9803Y-8.7402
M16
G05
G00X15.9803Y-10.0906
M15
G01X15.9803Y-10.0787
M16
G05
G00X15.9803Y-13.5157
M15
G01X15.9803Y-13.5039
M16
G05
G00X15.9803Y-15.1299
M15
G01X15.9803Y-15.1181
M16
G05
G00X16.0669Y-4.815
M15
G01X16.0669Y-4.8031
M16
G05
G00X16.2559Y-7.1024
M15
G01X16.2559Y-7.0906
M16
G05
G00X16.4134Y-4.815
M15
G01X16.4134Y-4.8031
M16
G05
G00X16.4213Y-2.2953
M15
G01X16.4213Y-2.2835
M16
G05
G00X16.7677Y-2.2953
M15
G01X16.7677Y-2.2835
M16
G05
G00X16.8937Y-8.7559
M15
G01X16.8937Y-8.7441
M16
G05
G00X17.1299Y-1.0787
M15
G01X17.1299Y-1.0669
M16
G05
G00X17.189Y-12.0984
M15
G01X17.189Y-12.0866
M16
G05
G00X17.189Y-13.5157
M15
G01X17.189Y-13.5039
M16
G05
G00X17.189Y-15.1299
M15
G01X17.189Y-15.1181
M16
G05
G00X17.2402Y-8.7559
M15
G01X17.2402Y-8.7441
M16
G05
G00X17.4764Y-1.0787
M15
G01X17.4764Y-1.0669
M16
G05
G00X17.5354Y-12.0984
M15
G01X17.5354Y-12.0866
M16
G05
G00X17.5354Y-13.5157
M15
G01X17.5354Y-13.5039
M16
G05
G00X17.5354Y-15.1299
M15
G01X17.5354Y-15.1181
M16
G05
M30
