%TF.GenerationSoftware,KiCad,Pcbnew,8.0.5*%
%TF.CreationDate,2024-10-29T20:02:02+01:00*%
%TF.ProjectId,troublemaker,74726f75-626c-4656-9d61-6b65722e6b69,rev?*%
%TF.SameCoordinates,Original*%
%TF.FileFunction,Soldermask,Bot*%
%TF.FilePolarity,Negative*%
%FSLAX46Y46*%
G04 Gerber Fmt 4.6, Leading zero omitted, Abs format (unit mm)*
G04 Created by KiCad (PCBNEW 8.0.5) date 2024-10-29 20:02:02*
%MOMM*%
%LPD*%
G01*
G04 APERTURE LIST*
G04 Aperture macros list*
%AMRoundRect*
0 Rectangle with rounded corners*
0 $1 Rounding radius*
0 $2 $3 $4 $5 $6 $7 $8 $9 X,Y pos of 4 corners*
0 Add a 4 corners polygon primitive as box body*
4,1,4,$2,$3,$4,$5,$6,$7,$8,$9,$2,$3,0*
0 Add four circle primitives for the rounded corners*
1,1,$1+$1,$2,$3*
1,1,$1+$1,$4,$5*
1,1,$1+$1,$6,$7*
1,1,$1+$1,$8,$9*
0 Add four rect primitives between the rounded corners*
20,1,$1+$1,$2,$3,$4,$5,0*
20,1,$1+$1,$4,$5,$6,$7,0*
20,1,$1+$1,$6,$7,$8,$9,0*
20,1,$1+$1,$8,$9,$2,$3,0*%
G04 Aperture macros list end*
%ADD10C,1.600000*%
%ADD11O,1.600000X1.600000*%
%ADD12R,1.800000X1.800000*%
%ADD13C,1.800000*%
%ADD14RoundRect,0.750000X0.750000X-1.250000X0.750000X1.250000X-0.750000X1.250000X-0.750000X-1.250000X0*%
%ADD15O,3.500000X2.300000*%
%ADD16O,2.900000X1.600000*%
%ADD17R,1.350000X1.350000*%
%ADD18O,1.350000X1.350000*%
%ADD19RoundRect,0.250000X-0.600000X-0.600000X0.600000X-0.600000X0.600000X0.600000X-0.600000X0.600000X0*%
%ADD20C,1.700000*%
%ADD21C,1.869000*%
%ADD22C,2.082800*%
%ADD23RoundRect,0.101600X0.939800X0.939800X-0.939800X0.939800X-0.939800X-0.939800X0.939800X-0.939800X0*%
%ADD24R,0.850000X0.850000*%
%ADD25RoundRect,0.101600X-0.939800X0.939800X-0.939800X-0.939800X0.939800X-0.939800X0.939800X0.939800X0*%
%ADD26O,2.300000X3.500000*%
%ADD27C,6.404000*%
%ADD28RoundRect,0.250000X0.600000X-0.600000X0.600000X0.600000X-0.600000X0.600000X-0.600000X-0.600000X0*%
G04 APERTURE END LIST*
D10*
%TO.C,R1*%
X158800000Y-240060000D03*
D11*
X158800000Y-229900000D03*
%TD*%
D12*
%TO.C,RV5*%
X437000000Y-34250000D03*
D13*
X439500000Y-34250000D03*
X442000000Y-34250000D03*
D14*
X435100000Y-27250000D03*
X443900000Y-27250000D03*
%TD*%
D15*
%TO.C,SW10*%
X418500000Y-296400000D03*
X418500000Y-291700000D03*
X418500000Y-287000000D03*
%TD*%
D12*
%TO.C,RV33*%
X307700000Y-156150000D03*
D13*
X310200000Y-156150000D03*
X312700000Y-156150000D03*
D14*
X305800000Y-149150000D03*
X314600000Y-149150000D03*
%TD*%
D12*
%TO.C,RV31*%
X307700000Y-102150000D03*
D13*
X310200000Y-102150000D03*
X312700000Y-102150000D03*
D14*
X305800000Y-95150000D03*
X314600000Y-95150000D03*
%TD*%
D12*
%TO.C,RV74*%
X399000000Y-350150000D03*
D13*
X401500000Y-350150000D03*
X404000000Y-350150000D03*
D14*
X397100000Y-343150000D03*
X405900000Y-343150000D03*
%TD*%
D12*
%TO.C,RV52*%
X314000000Y-263150000D03*
D13*
X316500000Y-263150000D03*
X319000000Y-263150000D03*
D14*
X312100000Y-256150000D03*
X320900000Y-256150000D03*
%TD*%
D12*
%TO.C,RV4*%
X419000000Y-65150000D03*
D13*
X421500000Y-65150000D03*
X424000000Y-65150000D03*
D14*
X417100000Y-58150000D03*
X425900000Y-58150000D03*
%TD*%
D12*
%TO.C,RV65*%
X372000000Y-297150000D03*
D13*
X374500000Y-297150000D03*
X377000000Y-297150000D03*
D14*
X370100000Y-290150000D03*
X378900000Y-290150000D03*
%TD*%
D12*
%TO.C,RV1*%
X337000000Y-65150000D03*
D13*
X339500000Y-65150000D03*
X342000000Y-65150000D03*
D14*
X335100000Y-58150000D03*
X343900000Y-58150000D03*
%TD*%
D12*
%TO.C,RV53*%
X359000000Y-229250000D03*
D13*
X361500000Y-229250000D03*
X364000000Y-229250000D03*
D14*
X357100000Y-222250000D03*
X365900000Y-222250000D03*
%TD*%
D12*
%TO.C,RV26*%
X159000000Y-187150000D03*
D13*
X161500000Y-187150000D03*
X164000000Y-187150000D03*
D14*
X157100000Y-180150000D03*
X165900000Y-180150000D03*
%TD*%
D12*
%TO.C,RV78*%
X178000000Y-391250000D03*
D13*
X180500000Y-391250000D03*
X183000000Y-391250000D03*
D14*
X176100000Y-384250000D03*
X184900000Y-384250000D03*
%TD*%
D12*
%TO.C,RV51*%
X314000000Y-229150000D03*
D13*
X316500000Y-229150000D03*
X319000000Y-229150000D03*
D14*
X312100000Y-222150000D03*
X320900000Y-222150000D03*
%TD*%
D12*
%TO.C,RV39*%
X212000000Y-263150000D03*
D13*
X214500000Y-263150000D03*
X217000000Y-263150000D03*
D14*
X210100000Y-256150000D03*
X218900000Y-256150000D03*
%TD*%
D12*
%TO.C,RV80*%
X250000000Y-391150000D03*
D13*
X252500000Y-391150000D03*
X255000000Y-391150000D03*
D14*
X248100000Y-384150000D03*
X256900000Y-384150000D03*
%TD*%
D12*
%TO.C,RV49*%
X244000000Y-229150000D03*
D13*
X246500000Y-229150000D03*
X249000000Y-229150000D03*
D14*
X242100000Y-222150000D03*
X250900000Y-222150000D03*
%TD*%
D12*
%TO.C,taptempo_led1*%
X146225000Y-221700000D03*
D13*
X148765000Y-221700000D03*
%TD*%
D12*
%TO.C,RV57*%
X431000000Y-229250000D03*
D13*
X433500000Y-229250000D03*
X436000000Y-229250000D03*
D14*
X429100000Y-222250000D03*
X437900000Y-222250000D03*
%TD*%
D12*
%TO.C,RV61*%
X243000000Y-297150000D03*
D13*
X245500000Y-297150000D03*
X248000000Y-297150000D03*
D14*
X241100000Y-290150000D03*
X249900000Y-290150000D03*
%TD*%
D12*
%TO.C,RV64*%
X338000000Y-314150000D03*
D13*
X340500000Y-314150000D03*
X343000000Y-314150000D03*
D14*
X336100000Y-307150000D03*
X344900000Y-307150000D03*
%TD*%
D12*
%TO.C,RV81*%
X291000000Y-391150000D03*
D13*
X293500000Y-391150000D03*
X296000000Y-391150000D03*
D14*
X289100000Y-384150000D03*
X297900000Y-384150000D03*
%TD*%
D12*
%TO.C,RV59*%
X177000000Y-297150000D03*
D13*
X179500000Y-297150000D03*
X182000000Y-297150000D03*
D14*
X175100000Y-290150000D03*
X183900000Y-290150000D03*
%TD*%
D12*
%TO.C,RV24*%
X163000000Y-129150000D03*
D13*
X165500000Y-129150000D03*
X168000000Y-129150000D03*
D14*
X161100000Y-122150000D03*
X169900000Y-122150000D03*
%TD*%
D15*
%TO.C,SW9*%
X402500000Y-315400000D03*
X402500000Y-310700000D03*
X402500000Y-306000000D03*
%TD*%
D12*
%TO.C,RV9*%
X92000000Y-100150000D03*
D13*
X94500000Y-100150000D03*
X97000000Y-100150000D03*
D14*
X90100000Y-93150000D03*
X98900000Y-93150000D03*
%TD*%
D12*
%TO.C,RV14*%
X53500000Y-285150000D03*
D13*
X56000000Y-285150000D03*
X58500000Y-285150000D03*
D14*
X51600000Y-278150000D03*
X60400000Y-278150000D03*
%TD*%
D16*
%TO.C,SW7*%
X280500000Y-223450000D03*
X280500000Y-219950000D03*
%TD*%
D12*
%TO.C,RV54*%
X359000000Y-263150000D03*
D13*
X361500000Y-263150000D03*
X364000000Y-263150000D03*
D14*
X357100000Y-256150000D03*
X365900000Y-256150000D03*
%TD*%
D12*
%TO.C,RV32*%
X327700000Y-129150000D03*
D13*
X330200000Y-129150000D03*
X332700000Y-129150000D03*
D14*
X325800000Y-122150000D03*
X334600000Y-122150000D03*
%TD*%
D12*
%TO.C,RV8*%
X44000000Y-156150000D03*
D13*
X46500000Y-156150000D03*
X49000000Y-156150000D03*
D14*
X42100000Y-149150000D03*
X50900000Y-149150000D03*
%TD*%
D15*
%TO.C,SW1*%
X114500000Y-169400000D03*
X114500000Y-164700000D03*
X114500000Y-160000000D03*
%TD*%
D12*
%TO.C,RV25*%
X143000000Y-156130000D03*
D13*
X145500000Y-156130000D03*
X148000000Y-156130000D03*
D14*
X141100000Y-149130000D03*
X149900000Y-149130000D03*
%TD*%
D12*
%TO.C,RV68*%
X183000000Y-350150000D03*
D13*
X185500000Y-350150000D03*
X188000000Y-350150000D03*
D14*
X181100000Y-343150000D03*
X189900000Y-343150000D03*
%TD*%
D15*
%TO.C,SW3*%
X191500000Y-184400000D03*
X191500000Y-179700000D03*
X191500000Y-175000000D03*
%TD*%
%TO.C,SW2*%
X66500000Y-169400000D03*
X66500000Y-164700000D03*
X66500000Y-160000000D03*
%TD*%
D12*
%TO.C,RV73*%
X367000000Y-350250000D03*
D13*
X369500000Y-350250000D03*
X372000000Y-350250000D03*
D14*
X365100000Y-343250000D03*
X373900000Y-343250000D03*
%TD*%
D12*
%TO.C,RV47*%
X147000000Y-263150000D03*
D13*
X149500000Y-263150000D03*
X152000000Y-263150000D03*
D14*
X145100000Y-256150000D03*
X153900000Y-256150000D03*
%TD*%
D12*
%TO.C,RV66*%
X438500000Y-314150000D03*
D13*
X441000000Y-314150000D03*
X443500000Y-314150000D03*
D14*
X436600000Y-307150000D03*
X445400000Y-307150000D03*
%TD*%
D12*
%TO.C,RV16*%
X53500000Y-353150000D03*
D13*
X56000000Y-353150000D03*
X58500000Y-353150000D03*
D14*
X51600000Y-346150000D03*
X60400000Y-346150000D03*
%TD*%
D12*
%TO.C,RV58*%
X143000000Y-314150000D03*
D13*
X145500000Y-314150000D03*
X148000000Y-314150000D03*
D14*
X141100000Y-307150000D03*
X149900000Y-307150000D03*
%TD*%
D12*
%TO.C,RV6*%
X44000000Y-100150000D03*
D13*
X46500000Y-100150000D03*
X49000000Y-100150000D03*
D14*
X42100000Y-93150000D03*
X50900000Y-93150000D03*
%TD*%
D12*
%TO.C,RV23*%
X143000000Y-102150000D03*
D13*
X145500000Y-102150000D03*
X148000000Y-102150000D03*
D14*
X141100000Y-95150000D03*
X149900000Y-95150000D03*
%TD*%
D12*
%TO.C,RV34*%
X323700000Y-187150000D03*
D13*
X326200000Y-187150000D03*
X328700000Y-187150000D03*
D14*
X321800000Y-180150000D03*
X330600000Y-180150000D03*
%TD*%
D12*
%TO.C,RV70*%
X259000000Y-350150000D03*
D13*
X261500000Y-350150000D03*
X264000000Y-350150000D03*
D14*
X257100000Y-343150000D03*
X265900000Y-343150000D03*
%TD*%
D12*
%TO.C,RV17*%
X53500000Y-387150000D03*
D13*
X56000000Y-387150000D03*
X58500000Y-387150000D03*
D14*
X51600000Y-380150000D03*
X60400000Y-380150000D03*
%TD*%
D12*
%TO.C,RV62*%
X275000000Y-314150000D03*
D13*
X277500000Y-314150000D03*
X280000000Y-314150000D03*
D14*
X273100000Y-307150000D03*
X281900000Y-307150000D03*
%TD*%
D16*
%TO.C,SW11*%
X360000000Y-28450000D03*
X360000000Y-24950000D03*
%TD*%
D12*
%TO.C,RV50*%
X278000000Y-263150000D03*
D13*
X280500000Y-263150000D03*
X283000000Y-263150000D03*
D14*
X276100000Y-256150000D03*
X284900000Y-256150000D03*
%TD*%
D12*
%TO.C,RV83*%
X363000000Y-391150000D03*
D13*
X365500000Y-391150000D03*
X368000000Y-391150000D03*
D14*
X361100000Y-384150000D03*
X369900000Y-384150000D03*
%TD*%
D12*
%TO.C,RV69*%
X223000000Y-350250000D03*
D13*
X225500000Y-350250000D03*
X228000000Y-350250000D03*
D14*
X221100000Y-343250000D03*
X229900000Y-343250000D03*
%TD*%
D12*
%TO.C,RV13*%
X53500000Y-251150000D03*
D13*
X56000000Y-251150000D03*
X58500000Y-251150000D03*
D14*
X51600000Y-244150000D03*
X60400000Y-244150000D03*
%TD*%
D12*
%TO.C,RV28*%
X245400000Y-129150000D03*
D13*
X247900000Y-129150000D03*
X250400000Y-129150000D03*
D14*
X243500000Y-122150000D03*
X252300000Y-122150000D03*
%TD*%
D12*
%TO.C,RV82*%
X327000000Y-391150000D03*
D13*
X329500000Y-391150000D03*
X332000000Y-391150000D03*
D14*
X325100000Y-384150000D03*
X333900000Y-384150000D03*
%TD*%
D12*
%TO.C,RV2*%
X378000000Y-65150000D03*
D13*
X380500000Y-65150000D03*
X383000000Y-65150000D03*
D14*
X376100000Y-58150000D03*
X384900000Y-58150000D03*
%TD*%
D12*
%TO.C,RV71*%
X295000000Y-350150000D03*
D13*
X297500000Y-350150000D03*
X300000000Y-350150000D03*
D14*
X293100000Y-343150000D03*
X301900000Y-343150000D03*
%TD*%
D12*
%TO.C,RV18*%
X102500000Y-216150000D03*
D13*
X105000000Y-216150000D03*
X107500000Y-216150000D03*
D14*
X100600000Y-209150000D03*
X109400000Y-209150000D03*
%TD*%
D12*
%TO.C,RV10*%
X112000000Y-128150000D03*
D13*
X114500000Y-128150000D03*
X117000000Y-128150000D03*
D14*
X110100000Y-121150000D03*
X118900000Y-121150000D03*
%TD*%
D15*
%TO.C,SW5*%
X356200000Y-184400000D03*
X356200000Y-179700000D03*
X356200000Y-175000000D03*
%TD*%
%TO.C,SW8*%
X433500000Y-260400000D03*
X433500000Y-255700000D03*
X433500000Y-251000000D03*
%TD*%
D12*
%TO.C,RV79*%
X214000000Y-391150000D03*
D13*
X216500000Y-391150000D03*
X219000000Y-391150000D03*
D14*
X212100000Y-384150000D03*
X220900000Y-384150000D03*
%TD*%
D12*
%TO.C,RV22*%
X102500000Y-353150000D03*
D13*
X105000000Y-353150000D03*
X107500000Y-353150000D03*
D14*
X100600000Y-346150000D03*
X109400000Y-346150000D03*
%TD*%
D12*
%TO.C,RV75*%
X438500000Y-350150000D03*
D13*
X441000000Y-350150000D03*
X443500000Y-350150000D03*
D14*
X436600000Y-343150000D03*
X445400000Y-343150000D03*
%TD*%
D12*
%TO.C,RV77*%
X137000000Y-391250000D03*
D13*
X139500000Y-391250000D03*
X142000000Y-391250000D03*
D14*
X135100000Y-384250000D03*
X143900000Y-384250000D03*
%TD*%
D12*
%TO.C,RV76*%
X99100000Y-391150000D03*
D13*
X101600000Y-391150000D03*
X104100000Y-391150000D03*
D14*
X97200000Y-384150000D03*
X106000000Y-384150000D03*
%TD*%
D12*
%TO.C,RV19*%
X102500000Y-251150000D03*
D13*
X105000000Y-251150000D03*
X107500000Y-251150000D03*
D14*
X100600000Y-244150000D03*
X109400000Y-244150000D03*
%TD*%
D12*
%TO.C,RV55*%
X399000000Y-229150000D03*
D13*
X401500000Y-229150000D03*
X404000000Y-229150000D03*
D14*
X397100000Y-222150000D03*
X405900000Y-222150000D03*
%TD*%
D12*
%TO.C,RV15*%
X53500000Y-319150000D03*
D13*
X56000000Y-319150000D03*
X58500000Y-319150000D03*
D14*
X51600000Y-312150000D03*
X60400000Y-312150000D03*
%TD*%
D12*
%TO.C,RV48*%
X179000000Y-229150000D03*
D13*
X181500000Y-229150000D03*
X184000000Y-229150000D03*
D14*
X177100000Y-222150000D03*
X185900000Y-222150000D03*
%TD*%
D12*
%TO.C,RV72*%
X335000000Y-350150000D03*
D13*
X337500000Y-350150000D03*
X340000000Y-350150000D03*
D14*
X333100000Y-343150000D03*
X341900000Y-343150000D03*
%TD*%
D12*
%TO.C,RV63*%
X309000000Y-297150000D03*
D13*
X311500000Y-297150000D03*
X314000000Y-297150000D03*
D14*
X307100000Y-290150000D03*
X315900000Y-290150000D03*
%TD*%
D12*
%TO.C,RV11*%
X92000000Y-156250000D03*
D13*
X94500000Y-156250000D03*
X97000000Y-156250000D03*
D14*
X90100000Y-149250000D03*
X98900000Y-149250000D03*
%TD*%
D12*
%TO.C,RV27*%
X225400000Y-102150000D03*
D13*
X227900000Y-102150000D03*
X230400000Y-102150000D03*
D14*
X223500000Y-95150000D03*
X232300000Y-95150000D03*
%TD*%
D12*
%TO.C,RV84*%
X399000000Y-391150000D03*
D13*
X401500000Y-391150000D03*
X404000000Y-391150000D03*
D14*
X397100000Y-384150000D03*
X405900000Y-384150000D03*
%TD*%
D12*
%TO.C,RV38*%
X406000000Y-187250000D03*
D13*
X408500000Y-187250000D03*
X411000000Y-187250000D03*
D14*
X404100000Y-180250000D03*
X412900000Y-180250000D03*
%TD*%
D12*
%TO.C,RV7*%
X64000000Y-128150000D03*
D13*
X66500000Y-128150000D03*
X69000000Y-128150000D03*
D14*
X62100000Y-121150000D03*
X70900000Y-121150000D03*
%TD*%
D12*
%TO.C,RV37*%
X390000000Y-156150000D03*
D13*
X392500000Y-156150000D03*
X395000000Y-156150000D03*
D14*
X388100000Y-149150000D03*
X396900000Y-149150000D03*
%TD*%
D12*
%TO.C,RV3*%
X398500000Y-34150000D03*
D13*
X401000000Y-34150000D03*
X403500000Y-34150000D03*
D14*
X396600000Y-27150000D03*
X405400000Y-27150000D03*
%TD*%
D12*
%TO.C,RV36*%
X410000000Y-129150000D03*
D13*
X412500000Y-129150000D03*
X415000000Y-129150000D03*
D14*
X408100000Y-122150000D03*
X416900000Y-122150000D03*
%TD*%
D12*
%TO.C,RV35*%
X390000000Y-102150000D03*
D13*
X392500000Y-102150000D03*
X395000000Y-102150000D03*
D14*
X388100000Y-95150000D03*
X396900000Y-95150000D03*
%TD*%
D12*
%TO.C,RV67*%
X147000000Y-350150000D03*
D13*
X149500000Y-350150000D03*
X152000000Y-350150000D03*
D14*
X145100000Y-343150000D03*
X153900000Y-343150000D03*
%TD*%
D12*
%TO.C,RV85*%
X438500000Y-391150000D03*
D13*
X441000000Y-391150000D03*
X443500000Y-391150000D03*
D14*
X436600000Y-384150000D03*
X445400000Y-384150000D03*
%TD*%
D12*
%TO.C,RV29*%
X225400000Y-156150000D03*
D13*
X227900000Y-156150000D03*
X230400000Y-156150000D03*
D14*
X223500000Y-149150000D03*
X232300000Y-149150000D03*
%TD*%
D12*
%TO.C,RV21*%
X102500000Y-319250000D03*
D13*
X105000000Y-319250000D03*
X107500000Y-319250000D03*
D14*
X100600000Y-312250000D03*
X109400000Y-312250000D03*
%TD*%
D12*
%TO.C,RV56*%
X399000000Y-263150000D03*
D13*
X401500000Y-263150000D03*
X404000000Y-263150000D03*
D14*
X397100000Y-256150000D03*
X405900000Y-256150000D03*
%TD*%
D15*
%TO.C,SW4*%
X273800000Y-184400000D03*
X273800000Y-179700000D03*
X273800000Y-175000000D03*
%TD*%
%TO.C,SW6*%
X438533202Y-184400197D03*
X438533202Y-179700197D03*
X438533202Y-175000197D03*
%TD*%
D12*
%TO.C,RV30*%
X241300000Y-187150000D03*
D13*
X243800000Y-187150000D03*
X246300000Y-187150000D03*
D14*
X239400000Y-180150000D03*
X248200000Y-180150000D03*
%TD*%
D12*
%TO.C,RV12*%
X53500000Y-216150000D03*
D13*
X56000000Y-216150000D03*
X58500000Y-216150000D03*
D14*
X51600000Y-209150000D03*
X60400000Y-209150000D03*
%TD*%
D12*
%TO.C,RV20*%
X102500000Y-285150000D03*
D13*
X105000000Y-285150000D03*
X107500000Y-285150000D03*
D14*
X100600000Y-278150000D03*
X109400000Y-278150000D03*
%TD*%
D12*
%TO.C,RV60*%
X209000000Y-314150000D03*
D13*
X211500000Y-314150000D03*
X214000000Y-314150000D03*
D14*
X207100000Y-307150000D03*
X215900000Y-307150000D03*
%TD*%
D17*
%TO.C,J5*%
X222800000Y-87000000D03*
D18*
X220800000Y-87000000D03*
X218800000Y-87000000D03*
X216800000Y-87000000D03*
X214800000Y-87000000D03*
X212800000Y-87000000D03*
X210800000Y-87000000D03*
X208800000Y-87000000D03*
X206800000Y-87000000D03*
X204800000Y-87000000D03*
X202800000Y-87000000D03*
X200800000Y-87000000D03*
%TD*%
D19*
%TO.C,J1*%
X196000000Y-272680000D03*
D20*
X198540000Y-272680000D03*
X196000000Y-270140000D03*
X198540000Y-270140000D03*
X196000000Y-267600000D03*
X198540000Y-267600000D03*
X196000000Y-265060000D03*
X198540000Y-265060000D03*
X196000000Y-262520000D03*
X198540000Y-262520000D03*
X196000000Y-259980000D03*
X198540000Y-259980000D03*
X196000000Y-257440000D03*
X198540000Y-257440000D03*
X196000000Y-254900000D03*
X198540000Y-254900000D03*
X196000000Y-252360000D03*
X198540000Y-252360000D03*
X196000000Y-249820000D03*
X198540000Y-249820000D03*
X196000000Y-247280000D03*
X198540000Y-247280000D03*
X196000000Y-244740000D03*
X198540000Y-244740000D03*
X196000000Y-242200000D03*
X198540000Y-242200000D03*
X196000000Y-239660000D03*
X198540000Y-239660000D03*
X196000000Y-237120000D03*
X198540000Y-237120000D03*
X196000000Y-234580000D03*
X198540000Y-234580000D03*
X196000000Y-232040000D03*
X198540000Y-232040000D03*
X196000000Y-229500000D03*
X198540000Y-229500000D03*
X196000000Y-226960000D03*
X198540000Y-226960000D03*
X196000000Y-224420000D03*
X198540000Y-224420000D03*
%TD*%
D21*
%TO.C,IC1*%
X307970000Y-210350000D03*
X305430000Y-210350000D03*
X302890000Y-210350000D03*
X300350000Y-210350000D03*
X297810000Y-210350000D03*
X295270000Y-210350000D03*
X292730000Y-210350000D03*
X290190000Y-210350000D03*
X287650000Y-210350000D03*
X285110000Y-210350000D03*
X282570000Y-210350000D03*
X280030000Y-210350000D03*
X280030000Y-195110000D03*
X282570000Y-195110000D03*
X285110000Y-195110000D03*
X287650000Y-195110000D03*
X290190000Y-195110000D03*
X292730000Y-195110000D03*
X295270000Y-195110000D03*
X297810000Y-195110000D03*
X300350000Y-195110000D03*
X302890000Y-195110000D03*
X305430000Y-195110000D03*
X274950000Y-210350000D03*
X272410000Y-210350000D03*
X269870000Y-210350000D03*
X267330000Y-210350000D03*
X264790000Y-210350000D03*
X262250000Y-210350000D03*
X259710000Y-210350000D03*
X257170000Y-210350000D03*
X254630000Y-210350000D03*
X254630000Y-195110000D03*
X257170000Y-195110000D03*
X259710000Y-195110000D03*
X262250000Y-195110000D03*
X264790000Y-195110000D03*
X267330000Y-195110000D03*
X269870000Y-195110000D03*
X272410000Y-195110000D03*
X274950000Y-195110000D03*
X277490000Y-210350000D03*
X307970000Y-195110000D03*
X313050000Y-195110000D03*
X310510000Y-210350000D03*
X277490000Y-195110000D03*
X310510000Y-195110000D03*
X313050000Y-210350000D03*
%TD*%
D22*
%TO.C,U5*%
X90240000Y-306700000D03*
X75000000Y-296540000D03*
X75000000Y-294000000D03*
X75000000Y-291460000D03*
X75000000Y-288920000D03*
X75000000Y-286380000D03*
X75000000Y-283840000D03*
X75000000Y-281300000D03*
X75000000Y-278760000D03*
X90240000Y-296540000D03*
X90240000Y-299080000D03*
D23*
X90240000Y-288920000D03*
D22*
X90240000Y-304160000D03*
X90240000Y-301620000D03*
X90240000Y-294000000D03*
X75000000Y-316860000D03*
X75000000Y-314320000D03*
X75000000Y-311780000D03*
X75000000Y-309240000D03*
X75000000Y-306700000D03*
X75000000Y-304160000D03*
X75000000Y-301620000D03*
X75000000Y-299080000D03*
X90240000Y-291460000D03*
%TD*%
D24*
%TO.C,J4*%
X174500000Y-263750000D03*
%TD*%
D22*
%TO.C,U4*%
X307690000Y-259885000D03*
X297530000Y-275125000D03*
X294990000Y-275125000D03*
X292450000Y-275125000D03*
X289910000Y-275125000D03*
X287370000Y-275125000D03*
X284830000Y-275125000D03*
X282290000Y-275125000D03*
X279750000Y-275125000D03*
X297530000Y-259885000D03*
X300070000Y-259885000D03*
D25*
X289910000Y-259885000D03*
D22*
X305150000Y-259885000D03*
X302610000Y-259885000D03*
X294990000Y-259885000D03*
X317850000Y-275125000D03*
X315310000Y-275125000D03*
X312770000Y-275125000D03*
X310230000Y-275125000D03*
X307690000Y-275125000D03*
X305150000Y-275125000D03*
X302610000Y-275125000D03*
X300070000Y-275125000D03*
X292450000Y-259885000D03*
%TD*%
D24*
%TO.C,J3*%
X178500000Y-271000000D03*
%TD*%
D26*
%TO.C,SW12*%
X192950000Y-201820000D03*
X197650000Y-201820000D03*
X202350000Y-201820000D03*
%TD*%
D22*
%TO.C,U2*%
X369285113Y-56890000D03*
X359125113Y-72130000D03*
X356585113Y-72130000D03*
X354045113Y-72130000D03*
X351505113Y-72130000D03*
X348965113Y-72130000D03*
X346425113Y-72130000D03*
X343885113Y-72130000D03*
X341345113Y-72130000D03*
X359125113Y-56890000D03*
X361665113Y-56890000D03*
D25*
X351505113Y-56890000D03*
D22*
X366745113Y-56890000D03*
X364205113Y-56890000D03*
X356585113Y-56890000D03*
X379445113Y-72130000D03*
X376905113Y-72130000D03*
X374365113Y-72130000D03*
X371825113Y-72130000D03*
X369285113Y-72130000D03*
X366745113Y-72130000D03*
X364205113Y-72130000D03*
X361665113Y-72130000D03*
X354045113Y-56890000D03*
%TD*%
D27*
%TO.C,RASPBERRY PI 4*%
X165500000Y-277500000D03*
X165500000Y-219500000D03*
X116500000Y-219500000D03*
X116500000Y-277500000D03*
%TD*%
D24*
%TO.C,J4*%
X178500000Y-263750000D03*
%TD*%
D22*
%TO.C,U3*%
X255870000Y-149390000D03*
X245710000Y-164630000D03*
X243170000Y-164630000D03*
X240630000Y-164630000D03*
X238090000Y-164630000D03*
X235550000Y-164630000D03*
X233010000Y-164630000D03*
X230470000Y-164630000D03*
X227930000Y-164630000D03*
X245710000Y-149390000D03*
X248250000Y-149390000D03*
D25*
X238090000Y-149390000D03*
D22*
X253330000Y-149390000D03*
X250790000Y-149390000D03*
X243170000Y-149390000D03*
X266030000Y-164630000D03*
X263490000Y-164630000D03*
X260950000Y-164630000D03*
X258410000Y-164630000D03*
X255870000Y-164630000D03*
X253330000Y-164630000D03*
X250790000Y-164630000D03*
X248250000Y-164630000D03*
X240630000Y-149390000D03*
%TD*%
D24*
%TO.C,J3*%
X174500000Y-271000000D03*
%TD*%
D22*
%TO.C,U6*%
X325070000Y-352490000D03*
X314910000Y-367730000D03*
X312370000Y-367730000D03*
X309830000Y-367730000D03*
X307290000Y-367730000D03*
X304750000Y-367730000D03*
X302210000Y-367730000D03*
X299670000Y-367730000D03*
X297130000Y-367730000D03*
X314910000Y-352490000D03*
X317450000Y-352490000D03*
D25*
X307290000Y-352490000D03*
D22*
X322530000Y-352490000D03*
X319990000Y-352490000D03*
X312370000Y-352490000D03*
X335230000Y-367730000D03*
X332690000Y-367730000D03*
X330150000Y-367730000D03*
X327610000Y-367730000D03*
X325070000Y-367730000D03*
X322530000Y-367730000D03*
X319990000Y-367730000D03*
X317450000Y-367730000D03*
X309830000Y-352490000D03*
%TD*%
D28*
%TO.C,J25*%
X264640000Y-243040000D03*
D20*
X264640000Y-240500000D03*
X262100000Y-243040000D03*
X262100000Y-240500000D03*
X259560000Y-243040000D03*
X259560000Y-240500000D03*
X257020000Y-243040000D03*
X257020000Y-240500000D03*
X254480000Y-243040000D03*
X254480000Y-240500000D03*
X251940000Y-243040000D03*
X251940000Y-240500000D03*
X249400000Y-243040000D03*
X249400000Y-240500000D03*
X246860000Y-243040000D03*
X246860000Y-240500000D03*
X244320000Y-243040000D03*
X244320000Y-240500000D03*
X241780000Y-243040000D03*
X241780000Y-240500000D03*
X239240000Y-243040000D03*
X239240000Y-240500000D03*
X236700000Y-243040000D03*
X236700000Y-240500000D03*
X234160000Y-243040000D03*
X234160000Y-240500000D03*
X231620000Y-243040000D03*
X231620000Y-240500000D03*
X229080000Y-243040000D03*
X229080000Y-240500000D03*
X226540000Y-243040000D03*
X226540000Y-240500000D03*
X224000000Y-243040000D03*
X224000000Y-240500000D03*
%TD*%
M02*
