%TF.GenerationSoftware,KiCad,Pcbnew,8.0.5*%
%TF.CreationDate,2024-10-29T20:02:02+01:00*%
%TF.ProjectId,troublemaker,74726f75-626c-4656-9d61-6b65722e6b69,rev?*%
%TF.SameCoordinates,Original*%
%TF.FileFunction,Copper,L2,Bot*%
%TF.FilePolarity,Positive*%
%FSLAX46Y46*%
G04 Gerber Fmt 4.6, Leading zero omitted, Abs format (unit mm)*
G04 Created by KiCad (PCBNEW 8.0.5) date 2024-10-29 20:02:02*
%MOMM*%
%LPD*%
G01*
G04 APERTURE LIST*
G04 Aperture macros list*
%AMRoundRect*
0 Rectangle with rounded corners*
0 $1 Rounding radius*
0 $2 $3 $4 $5 $6 $7 $8 $9 X,Y pos of 4 corners*
0 Add a 4 corners polygon primitive as box body*
4,1,4,$2,$3,$4,$5,$6,$7,$8,$9,$2,$3,0*
0 Add four circle primitives for the rounded corners*
1,1,$1+$1,$2,$3*
1,1,$1+$1,$4,$5*
1,1,$1+$1,$6,$7*
1,1,$1+$1,$8,$9*
0 Add four rect primitives between the rounded corners*
20,1,$1+$1,$2,$3,$4,$5,0*
20,1,$1+$1,$4,$5,$6,$7,0*
20,1,$1+$1,$6,$7,$8,$9,0*
20,1,$1+$1,$8,$9,$2,$3,0*%
G04 Aperture macros list end*
%TA.AperFunction,ComponentPad*%
%ADD10C,1.600000*%
%TD*%
%TA.AperFunction,ComponentPad*%
%ADD11O,1.600000X1.600000*%
%TD*%
%TA.AperFunction,ComponentPad*%
%ADD12R,1.800000X1.800000*%
%TD*%
%TA.AperFunction,ComponentPad*%
%ADD13C,1.800000*%
%TD*%
%TA.AperFunction,ComponentPad*%
%ADD14RoundRect,0.750000X0.750000X-1.250000X0.750000X1.250000X-0.750000X1.250000X-0.750000X-1.250000X0*%
%TD*%
%TA.AperFunction,ComponentPad*%
%ADD15O,3.500000X2.300000*%
%TD*%
%TA.AperFunction,ComponentPad*%
%ADD16O,2.900000X1.600000*%
%TD*%
%TA.AperFunction,ComponentPad*%
%ADD17R,1.350000X1.350000*%
%TD*%
%TA.AperFunction,ComponentPad*%
%ADD18O,1.350000X1.350000*%
%TD*%
%TA.AperFunction,ComponentPad*%
%ADD19RoundRect,0.250000X-0.600000X-0.600000X0.600000X-0.600000X0.600000X0.600000X-0.600000X0.600000X0*%
%TD*%
%TA.AperFunction,ComponentPad*%
%ADD20C,1.700000*%
%TD*%
%TA.AperFunction,ComponentPad*%
%ADD21C,1.665000*%
%TD*%
%TA.AperFunction,ComponentPad*%
%ADD22C,1.879600*%
%TD*%
%TA.AperFunction,ComponentPad*%
%ADD23R,1.879600X1.879600*%
%TD*%
%TA.AperFunction,ComponentPad*%
%ADD24R,0.850000X0.850000*%
%TD*%
%TA.AperFunction,ComponentPad*%
%ADD25O,2.300000X3.500000*%
%TD*%
%TA.AperFunction,ComponentPad*%
%ADD26C,6.200000*%
%TD*%
%TA.AperFunction,ComponentPad*%
%ADD27RoundRect,0.250000X0.600000X-0.600000X0.600000X0.600000X-0.600000X0.600000X-0.600000X-0.600000X0*%
%TD*%
%TA.AperFunction,ViaPad*%
%ADD28C,0.600000*%
%TD*%
%TA.AperFunction,Conductor*%
%ADD29C,0.200000*%
%TD*%
%TA.AperFunction,Conductor*%
%ADD30C,0.256000*%
%TD*%
G04 APERTURE END LIST*
D10*
%TO.P,R1,1*%
%TO.N,taptempo_LED_RPi16*%
X158800000Y-240060000D03*
D11*
%TO.P,R1,2*%
%TO.N,Net-(taptempo_led1-A)*%
X158800000Y-229900000D03*
%TD*%
D12*
%TO.P,RV5,1,1*%
%TO.N,3v3*%
X437000000Y-34250000D03*
D13*
%TO.P,RV5,2,2*%
%TO.N,Net-(U2-I4)*%
X439500000Y-34250000D03*
%TO.P,RV5,3,3*%
%TO.N,XT_GND*%
X442000000Y-34250000D03*
D14*
%TO.P,RV5,MP*%
%TO.N,N/C*%
X435100000Y-27250000D03*
X443900000Y-27250000D03*
%TD*%
D15*
%TO.P,SW10,1,A*%
%TO.N,sw_grain_playback*%
X418500000Y-296400000D03*
%TO.P,SW10,2,B*%
%TO.N,XT_GND*%
X418500000Y-291700000D03*
%TO.P,SW10,3,C*%
%TO.N,unconnected-(SW10-C-Pad3)*%
X418500000Y-287000000D03*
%TD*%
D12*
%TO.P,RV33,1,1*%
%TO.N,3v3*%
X307700000Y-156150000D03*
D13*
%TO.P,RV33,2,2*%
%TO.N,Net-(U3-I5)*%
X310200000Y-156150000D03*
%TO.P,RV33,3,3*%
%TO.N,XT_GND*%
X312700000Y-156150000D03*
D14*
%TO.P,RV33,MP*%
%TO.N,N/C*%
X305800000Y-149150000D03*
X314600000Y-149150000D03*
%TD*%
D12*
%TO.P,RV31,1,1*%
%TO.N,3v3*%
X307700000Y-102150000D03*
D13*
%TO.P,RV31,2,2*%
%TO.N,Net-(U3-I3)*%
X310200000Y-102150000D03*
%TO.P,RV31,3,3*%
%TO.N,XT_GND*%
X312700000Y-102150000D03*
D14*
%TO.P,RV31,MP*%
%TO.N,N/C*%
X305800000Y-95150000D03*
X314600000Y-95150000D03*
%TD*%
D12*
%TO.P,RV74,1,1*%
%TO.N,3v3*%
X399000000Y-350150000D03*
D13*
%TO.P,RV74,2,2*%
%TO.N,Net-(U6-I4)*%
X401500000Y-350150000D03*
%TO.P,RV74,3,3*%
%TO.N,XT_GND*%
X404000000Y-350150000D03*
D14*
%TO.P,RV74,MP*%
%TO.N,N/C*%
X397100000Y-343150000D03*
X405900000Y-343150000D03*
%TD*%
D12*
%TO.P,RV52,1,1*%
%TO.N,3v3*%
X314000000Y-263150000D03*
D13*
%TO.P,RV52,2,2*%
%TO.N,Net-(U4-I1)*%
X316500000Y-263150000D03*
%TO.P,RV52,3,3*%
%TO.N,XT_GND*%
X319000000Y-263150000D03*
D14*
%TO.P,RV52,MP*%
%TO.N,N/C*%
X312100000Y-256150000D03*
X320900000Y-256150000D03*
%TD*%
D12*
%TO.P,RV4,1,1*%
%TO.N,3v3*%
X419000000Y-65150000D03*
D13*
%TO.P,RV4,2,2*%
%TO.N,Net-(U2-I3)*%
X421500000Y-65150000D03*
%TO.P,RV4,3,3*%
%TO.N,XT_GND*%
X424000000Y-65150000D03*
D14*
%TO.P,RV4,MP*%
%TO.N,N/C*%
X417100000Y-58150000D03*
X425900000Y-58150000D03*
%TD*%
D12*
%TO.P,RV65,1,1*%
%TO.N,3v3*%
X372000000Y-297150000D03*
D13*
%TO.P,RV65,2,2*%
%TO.N,Net-(U4-I14)*%
X374500000Y-297150000D03*
%TO.P,RV65,3,3*%
%TO.N,XT_GND*%
X377000000Y-297150000D03*
D14*
%TO.P,RV65,MP*%
%TO.N,N/C*%
X370100000Y-290150000D03*
X378900000Y-290150000D03*
%TD*%
D12*
%TO.P,RV1,1,1*%
%TO.N,3v3*%
X337000000Y-65150000D03*
D13*
%TO.P,RV1,2,2*%
%TO.N,Net-(U2-I0)*%
X339500000Y-65150000D03*
%TO.P,RV1,3,3*%
%TO.N,XT_GND*%
X342000000Y-65150000D03*
D14*
%TO.P,RV1,MP*%
%TO.N,N/C*%
X335100000Y-58150000D03*
X343900000Y-58150000D03*
%TD*%
D12*
%TO.P,RV53,1,1*%
%TO.N,3v3*%
X359000000Y-229250000D03*
D13*
%TO.P,RV53,2,2*%
%TO.N,Net-(U4-I2)*%
X361500000Y-229250000D03*
%TO.P,RV53,3,3*%
%TO.N,XT_GND*%
X364000000Y-229250000D03*
D14*
%TO.P,RV53,MP*%
%TO.N,N/C*%
X357100000Y-222250000D03*
X365900000Y-222250000D03*
%TD*%
D12*
%TO.P,RV26,1,1*%
%TO.N,3v3*%
X159000000Y-187150000D03*
D13*
%TO.P,RV26,2,2*%
%TO.N,Net-(U2-I14)*%
X161500000Y-187150000D03*
%TO.P,RV26,3,3*%
%TO.N,XT_GND*%
X164000000Y-187150000D03*
D14*
%TO.P,RV26,MP*%
%TO.N,N/C*%
X157100000Y-180150000D03*
X165900000Y-180150000D03*
%TD*%
D12*
%TO.P,RV78,1,1*%
%TO.N,3v3*%
X178000000Y-391250000D03*
D13*
%TO.P,RV78,2,2*%
%TO.N,Net-(U6-I8)*%
X180500000Y-391250000D03*
%TO.P,RV78,3,3*%
%TO.N,XT_GND*%
X183000000Y-391250000D03*
D14*
%TO.P,RV78,MP*%
%TO.N,N/C*%
X176100000Y-384250000D03*
X184900000Y-384250000D03*
%TD*%
D12*
%TO.P,RV51,1,1*%
%TO.N,3v3*%
X314000000Y-229150000D03*
D13*
%TO.P,RV51,2,2*%
%TO.N,Net-(U4-I0)*%
X316500000Y-229150000D03*
%TO.P,RV51,3,3*%
%TO.N,XT_GND*%
X319000000Y-229150000D03*
D14*
%TO.P,RV51,MP*%
%TO.N,N/C*%
X312100000Y-222150000D03*
X320900000Y-222150000D03*
%TD*%
D12*
%TO.P,RV39,1,1*%
%TO.N,3v3*%
X212000000Y-263150000D03*
D13*
%TO.P,RV39,2,2*%
%TO.N,Net-(U3-I12)*%
X214500000Y-263150000D03*
%TO.P,RV39,3,3*%
%TO.N,XT_GND*%
X217000000Y-263150000D03*
D14*
%TO.P,RV39,MP*%
%TO.N,N/C*%
X210100000Y-256150000D03*
X218900000Y-256150000D03*
%TD*%
D12*
%TO.P,RV80,1,1*%
%TO.N,3v3*%
X250000000Y-391150000D03*
D13*
%TO.P,RV80,2,2*%
%TO.N,Net-(U6-I10)*%
X252500000Y-391150000D03*
%TO.P,RV80,3,3*%
%TO.N,XT_GND*%
X255000000Y-391150000D03*
D14*
%TO.P,RV80,MP*%
%TO.N,N/C*%
X248100000Y-384150000D03*
X256900000Y-384150000D03*
%TD*%
D12*
%TO.P,RV49,1,1*%
%TO.N,3v3*%
X244000000Y-229150000D03*
D13*
%TO.P,RV49,2,2*%
%TO.N,Net-(U3-I14)*%
X246500000Y-229150000D03*
%TO.P,RV49,3,3*%
%TO.N,XT_GND*%
X249000000Y-229150000D03*
D14*
%TO.P,RV49,MP*%
%TO.N,N/C*%
X242100000Y-222150000D03*
X250900000Y-222150000D03*
%TD*%
D12*
%TO.P,taptempo_led1,1,K*%
%TO.N,XT_GND*%
X146225000Y-221700000D03*
D13*
%TO.P,taptempo_led1,2,A*%
%TO.N,Net-(taptempo_led1-A)*%
X148765000Y-221700000D03*
%TD*%
D12*
%TO.P,RV57,1,1*%
%TO.N,3v3*%
X431000000Y-229250000D03*
D13*
%TO.P,RV57,2,2*%
%TO.N,Net-(U4-I6)*%
X433500000Y-229250000D03*
%TO.P,RV57,3,3*%
%TO.N,XT_GND*%
X436000000Y-229250000D03*
D14*
%TO.P,RV57,MP*%
%TO.N,N/C*%
X429100000Y-222250000D03*
X437900000Y-222250000D03*
%TD*%
D12*
%TO.P,RV61,1,1*%
%TO.N,3v3*%
X243000000Y-297150000D03*
D13*
%TO.P,RV61,2,2*%
%TO.N,Net-(U4-I10)*%
X245500000Y-297150000D03*
%TO.P,RV61,3,3*%
%TO.N,XT_GND*%
X248000000Y-297150000D03*
D14*
%TO.P,RV61,MP*%
%TO.N,N/C*%
X241100000Y-290150000D03*
X249900000Y-290150000D03*
%TD*%
D12*
%TO.P,RV64,1,1*%
%TO.N,3v3*%
X338000000Y-314150000D03*
D13*
%TO.P,RV64,2,2*%
%TO.N,Net-(U4-I13)*%
X340500000Y-314150000D03*
%TO.P,RV64,3,3*%
%TO.N,XT_GND*%
X343000000Y-314150000D03*
D14*
%TO.P,RV64,MP*%
%TO.N,N/C*%
X336100000Y-307150000D03*
X344900000Y-307150000D03*
%TD*%
D12*
%TO.P,RV81,1,1*%
%TO.N,3v3*%
X291000000Y-391150000D03*
D13*
%TO.P,RV81,2,2*%
%TO.N,Net-(U6-I11)*%
X293500000Y-391150000D03*
%TO.P,RV81,3,3*%
%TO.N,XT_GND*%
X296000000Y-391150000D03*
D14*
%TO.P,RV81,MP*%
%TO.N,N/C*%
X289100000Y-384150000D03*
X297900000Y-384150000D03*
%TD*%
D12*
%TO.P,RV59,1,1*%
%TO.N,3v3*%
X177000000Y-297150000D03*
D13*
%TO.P,RV59,2,2*%
%TO.N,Net-(U4-I8)*%
X179500000Y-297150000D03*
%TO.P,RV59,3,3*%
%TO.N,XT_GND*%
X182000000Y-297150000D03*
D14*
%TO.P,RV59,MP*%
%TO.N,N/C*%
X175100000Y-290150000D03*
X183900000Y-290150000D03*
%TD*%
D12*
%TO.P,RV24,1,1*%
%TO.N,3v3*%
X163000000Y-129150000D03*
D13*
%TO.P,RV24,2,2*%
%TO.N,Net-(U2-I12)*%
X165500000Y-129150000D03*
%TO.P,RV24,3,3*%
%TO.N,XT_GND*%
X168000000Y-129150000D03*
D14*
%TO.P,RV24,MP*%
%TO.N,N/C*%
X161100000Y-122150000D03*
X169900000Y-122150000D03*
%TD*%
D15*
%TO.P,SW9,1,A*%
%TO.N,sw_grain_type*%
X402500000Y-315400000D03*
%TO.P,SW9,2,B*%
%TO.N,XT_GND*%
X402500000Y-310700000D03*
%TO.P,SW9,3,C*%
%TO.N,unconnected-(SW9-C-Pad3)*%
X402500000Y-306000000D03*
%TD*%
D12*
%TO.P,RV9,1,1*%
%TO.N,3v3*%
X92000000Y-100150000D03*
D13*
%TO.P,RV9,2,2*%
%TO.N,Net-(U2-I8)*%
X94500000Y-100150000D03*
%TO.P,RV9,3,3*%
%TO.N,XT_GND*%
X97000000Y-100150000D03*
D14*
%TO.P,RV9,MP*%
%TO.N,N/C*%
X90100000Y-93150000D03*
X98900000Y-93150000D03*
%TD*%
D12*
%TO.P,RV14,1,1*%
%TO.N,3v3*%
X53500000Y-285150000D03*
D13*
%TO.P,RV14,2,2*%
%TO.N,Net-(U5-I4)*%
X56000000Y-285150000D03*
%TO.P,RV14,3,3*%
%TO.N,XT_GND*%
X58500000Y-285150000D03*
D14*
%TO.P,RV14,MP*%
%TO.N,N/C*%
X51600000Y-278150000D03*
X60400000Y-278150000D03*
%TD*%
D16*
%TO.P,SW7,1,1*%
%TO.N,XT_GND*%
X280500000Y-223450000D03*
%TO.P,SW7,2,2*%
%TO.N,btn_delay_taptempo*%
X280500000Y-219950000D03*
%TD*%
D12*
%TO.P,RV54,1,1*%
%TO.N,3v3*%
X359000000Y-263150000D03*
D13*
%TO.P,RV54,2,2*%
%TO.N,Net-(U4-I3)*%
X361500000Y-263150000D03*
%TO.P,RV54,3,3*%
%TO.N,XT_GND*%
X364000000Y-263150000D03*
D14*
%TO.P,RV54,MP*%
%TO.N,N/C*%
X357100000Y-256150000D03*
X365900000Y-256150000D03*
%TD*%
D12*
%TO.P,RV32,1,1*%
%TO.N,3v3*%
X327700000Y-129150000D03*
D13*
%TO.P,RV32,2,2*%
%TO.N,Net-(U3-I4)*%
X330200000Y-129150000D03*
%TO.P,RV32,3,3*%
%TO.N,XT_GND*%
X332700000Y-129150000D03*
D14*
%TO.P,RV32,MP*%
%TO.N,N/C*%
X325800000Y-122150000D03*
X334600000Y-122150000D03*
%TD*%
D12*
%TO.P,RV8,1,1*%
%TO.N,3v3*%
X44000000Y-156150000D03*
D13*
%TO.P,RV8,2,2*%
%TO.N,Net-(U2-I7)*%
X46500000Y-156150000D03*
%TO.P,RV8,3,3*%
%TO.N,XT_GND*%
X49000000Y-156150000D03*
D14*
%TO.P,RV8,MP*%
%TO.N,N/C*%
X42100000Y-149150000D03*
X50900000Y-149150000D03*
%TD*%
D15*
%TO.P,SW1,1,A*%
%TO.N,sw_eq2*%
X114500000Y-169400000D03*
%TO.P,SW1,2,B*%
%TO.N,XT_GND*%
X114500000Y-164700000D03*
%TO.P,SW1,3,C*%
%TO.N,unconnected-(SW1-C-Pad3)*%
X114500000Y-160000000D03*
%TD*%
D12*
%TO.P,RV25,1,1*%
%TO.N,3v3*%
X143000000Y-156130000D03*
D13*
%TO.P,RV25,2,2*%
%TO.N,Net-(U2-I13)*%
X145500000Y-156130000D03*
%TO.P,RV25,3,3*%
%TO.N,XT_GND*%
X148000000Y-156130000D03*
D14*
%TO.P,RV25,MP*%
%TO.N,N/C*%
X141100000Y-149130000D03*
X149900000Y-149130000D03*
%TD*%
D12*
%TO.P,RV68,1,1*%
%TO.N,3v3*%
X183000000Y-350150000D03*
D13*
%TO.P,RV68,2,2*%
%TO.N,Net-(U5-I12)*%
X185500000Y-350150000D03*
%TO.P,RV68,3,3*%
%TO.N,XT_GND*%
X188000000Y-350150000D03*
D14*
%TO.P,RV68,MP*%
%TO.N,N/C*%
X181100000Y-343150000D03*
X189900000Y-343150000D03*
%TD*%
D15*
%TO.P,SW3,1,A*%
%TO.N,sw_sub*%
X191500000Y-184400000D03*
%TO.P,SW3,2,B*%
%TO.N,XT_GND*%
X191500000Y-179700000D03*
%TO.P,SW3,3,C*%
%TO.N,unconnected-(SW3-C-Pad3)*%
X191500000Y-175000000D03*
%TD*%
%TO.P,SW2,1,A*%
%TO.N,sw_eq1*%
X66500000Y-169400000D03*
%TO.P,SW2,2,B*%
%TO.N,XT_GND*%
X66500000Y-164700000D03*
%TO.P,SW2,3,C*%
%TO.N,unconnected-(SW2-C-Pad3)*%
X66500000Y-160000000D03*
%TD*%
D12*
%TO.P,RV73,1,1*%
%TO.N,3v3*%
X367000000Y-350250000D03*
D13*
%TO.P,RV73,2,2*%
%TO.N,Net-(U6-I3)*%
X369500000Y-350250000D03*
%TO.P,RV73,3,3*%
%TO.N,XT_GND*%
X372000000Y-350250000D03*
D14*
%TO.P,RV73,MP*%
%TO.N,N/C*%
X365100000Y-343250000D03*
X373900000Y-343250000D03*
%TD*%
D12*
%TO.P,RV47,1,1*%
%TO.N,3v3*%
X147000000Y-263150000D03*
D13*
%TO.P,RV47,2,2*%
%TO.N,Net-(U3-I11)*%
X149500000Y-263150000D03*
%TO.P,RV47,3,3*%
%TO.N,XT_GND*%
X152000000Y-263150000D03*
D14*
%TO.P,RV47,MP*%
%TO.N,N/C*%
X145100000Y-256150000D03*
X153900000Y-256150000D03*
%TD*%
D12*
%TO.P,RV66,1,1*%
%TO.N,3v3*%
X438500000Y-314150000D03*
D13*
%TO.P,RV66,2,2*%
%TO.N,Net-(U4-I15)*%
X441000000Y-314150000D03*
%TO.P,RV66,3,3*%
%TO.N,XT_GND*%
X443500000Y-314150000D03*
D14*
%TO.P,RV66,MP*%
%TO.N,N/C*%
X436600000Y-307150000D03*
X445400000Y-307150000D03*
%TD*%
D12*
%TO.P,RV16,1,1*%
%TO.N,3v3*%
X53500000Y-353150000D03*
D13*
%TO.P,RV16,2,2*%
%TO.N,Net-(U5-I8)*%
X56000000Y-353150000D03*
%TO.P,RV16,3,3*%
%TO.N,XT_GND*%
X58500000Y-353150000D03*
D14*
%TO.P,RV16,MP*%
%TO.N,N/C*%
X51600000Y-346150000D03*
X60400000Y-346150000D03*
%TD*%
D12*
%TO.P,RV58,1,1*%
%TO.N,3v3*%
X143000000Y-314150000D03*
D13*
%TO.P,RV58,2,2*%
%TO.N,Net-(U4-I7)*%
X145500000Y-314150000D03*
%TO.P,RV58,3,3*%
%TO.N,XT_GND*%
X148000000Y-314150000D03*
D14*
%TO.P,RV58,MP*%
%TO.N,N/C*%
X141100000Y-307150000D03*
X149900000Y-307150000D03*
%TD*%
D12*
%TO.P,RV6,1,1*%
%TO.N,3v3*%
X44000000Y-100150000D03*
D13*
%TO.P,RV6,2,2*%
%TO.N,Net-(U2-I5)*%
X46500000Y-100150000D03*
%TO.P,RV6,3,3*%
%TO.N,XT_GND*%
X49000000Y-100150000D03*
D14*
%TO.P,RV6,MP*%
%TO.N,N/C*%
X42100000Y-93150000D03*
X50900000Y-93150000D03*
%TD*%
D12*
%TO.P,RV23,1,1*%
%TO.N,3v3*%
X143000000Y-102150000D03*
D13*
%TO.P,RV23,2,2*%
%TO.N,Net-(U2-I11)*%
X145500000Y-102150000D03*
%TO.P,RV23,3,3*%
%TO.N,XT_GND*%
X148000000Y-102150000D03*
D14*
%TO.P,RV23,MP*%
%TO.N,N/C*%
X141100000Y-95150000D03*
X149900000Y-95150000D03*
%TD*%
D12*
%TO.P,RV34,1,1*%
%TO.N,3v3*%
X323700000Y-187150000D03*
D13*
%TO.P,RV34,2,2*%
%TO.N,Net-(U3-I6)*%
X326200000Y-187150000D03*
%TO.P,RV34,3,3*%
%TO.N,XT_GND*%
X328700000Y-187150000D03*
D14*
%TO.P,RV34,MP*%
%TO.N,N/C*%
X321800000Y-180150000D03*
X330600000Y-180150000D03*
%TD*%
D12*
%TO.P,RV70,1,1*%
%TO.N,3v3*%
X259000000Y-350150000D03*
D13*
%TO.P,RV70,2,2*%
%TO.N,Net-(U6-I0)*%
X261500000Y-350150000D03*
%TO.P,RV70,3,3*%
%TO.N,XT_GND*%
X264000000Y-350150000D03*
D14*
%TO.P,RV70,MP*%
%TO.N,N/C*%
X257100000Y-343150000D03*
X265900000Y-343150000D03*
%TD*%
D12*
%TO.P,RV17,1,1*%
%TO.N,3v3*%
X53500000Y-387150000D03*
D13*
%TO.P,RV17,2,2*%
%TO.N,Net-(U5-I10)*%
X56000000Y-387150000D03*
%TO.P,RV17,3,3*%
%TO.N,XT_GND*%
X58500000Y-387150000D03*
D14*
%TO.P,RV17,MP*%
%TO.N,N/C*%
X51600000Y-380150000D03*
X60400000Y-380150000D03*
%TD*%
D12*
%TO.P,RV62,1,1*%
%TO.N,3v3*%
X275000000Y-314150000D03*
D13*
%TO.P,RV62,2,2*%
%TO.N,Net-(U4-I11)*%
X277500000Y-314150000D03*
%TO.P,RV62,3,3*%
%TO.N,XT_GND*%
X280000000Y-314150000D03*
D14*
%TO.P,RV62,MP*%
%TO.N,N/C*%
X273100000Y-307150000D03*
X281900000Y-307150000D03*
%TD*%
D16*
%TO.P,SW11,1,1*%
%TO.N,XT_GND*%
X360000000Y-28450000D03*
%TO.P,SW11,2,2*%
%TO.N,sampler_stop*%
X360000000Y-24950000D03*
%TD*%
D12*
%TO.P,RV50,1,1*%
%TO.N,3v3*%
X278000000Y-263150000D03*
D13*
%TO.P,RV50,2,2*%
%TO.N,Net-(U3-I15)*%
X280500000Y-263150000D03*
%TO.P,RV50,3,3*%
%TO.N,XT_GND*%
X283000000Y-263150000D03*
D14*
%TO.P,RV50,MP*%
%TO.N,N/C*%
X276100000Y-256150000D03*
X284900000Y-256150000D03*
%TD*%
D12*
%TO.P,RV83,1,1*%
%TO.N,3v3*%
X363000000Y-391150000D03*
D13*
%TO.P,RV83,2,2*%
%TO.N,Net-(U6-I13)*%
X365500000Y-391150000D03*
%TO.P,RV83,3,3*%
%TO.N,XT_GND*%
X368000000Y-391150000D03*
D14*
%TO.P,RV83,MP*%
%TO.N,N/C*%
X361100000Y-384150000D03*
X369900000Y-384150000D03*
%TD*%
D12*
%TO.P,RV69,1,1*%
%TO.N,3v3*%
X223000000Y-350250000D03*
D13*
%TO.P,RV69,2,2*%
%TO.N,Net-(U5-I13)*%
X225500000Y-350250000D03*
%TO.P,RV69,3,3*%
%TO.N,XT_GND*%
X228000000Y-350250000D03*
D14*
%TO.P,RV69,MP*%
%TO.N,N/C*%
X221100000Y-343250000D03*
X229900000Y-343250000D03*
%TD*%
D12*
%TO.P,RV13,1,1*%
%TO.N,3v3*%
X53500000Y-251150000D03*
D13*
%TO.P,RV13,2,2*%
%TO.N,Net-(U5-I2)*%
X56000000Y-251150000D03*
%TO.P,RV13,3,3*%
%TO.N,XT_GND*%
X58500000Y-251150000D03*
D14*
%TO.P,RV13,MP*%
%TO.N,N/C*%
X51600000Y-244150000D03*
X60400000Y-244150000D03*
%TD*%
D12*
%TO.P,RV28,1,1*%
%TO.N,3v3*%
X245400000Y-129150000D03*
D13*
%TO.P,RV28,2,2*%
%TO.N,Net-(U3-I0)*%
X247900000Y-129150000D03*
%TO.P,RV28,3,3*%
%TO.N,XT_GND*%
X250400000Y-129150000D03*
D14*
%TO.P,RV28,MP*%
%TO.N,N/C*%
X243500000Y-122150000D03*
X252300000Y-122150000D03*
%TD*%
D12*
%TO.P,RV82,1,1*%
%TO.N,3v3*%
X327000000Y-391150000D03*
D13*
%TO.P,RV82,2,2*%
%TO.N,Net-(U6-I12)*%
X329500000Y-391150000D03*
%TO.P,RV82,3,3*%
%TO.N,XT_GND*%
X332000000Y-391150000D03*
D14*
%TO.P,RV82,MP*%
%TO.N,N/C*%
X325100000Y-384150000D03*
X333900000Y-384150000D03*
%TD*%
D12*
%TO.P,RV2,1,1*%
%TO.N,3v3*%
X378000000Y-65150000D03*
D13*
%TO.P,RV2,2,2*%
%TO.N,Net-(U2-I1)*%
X380500000Y-65150000D03*
%TO.P,RV2,3,3*%
%TO.N,XT_GND*%
X383000000Y-65150000D03*
D14*
%TO.P,RV2,MP*%
%TO.N,N/C*%
X376100000Y-58150000D03*
X384900000Y-58150000D03*
%TD*%
D12*
%TO.P,RV71,1,1*%
%TO.N,3v3*%
X295000000Y-350150000D03*
D13*
%TO.P,RV71,2,2*%
%TO.N,Net-(U6-I1)*%
X297500000Y-350150000D03*
%TO.P,RV71,3,3*%
%TO.N,XT_GND*%
X300000000Y-350150000D03*
D14*
%TO.P,RV71,MP*%
%TO.N,N/C*%
X293100000Y-343150000D03*
X301900000Y-343150000D03*
%TD*%
D12*
%TO.P,RV18,1,1*%
%TO.N,3v3*%
X102500000Y-216150000D03*
D13*
%TO.P,RV18,2,2*%
%TO.N,Net-(U5-I1)*%
X105000000Y-216150000D03*
%TO.P,RV18,3,3*%
%TO.N,XT_GND*%
X107500000Y-216150000D03*
D14*
%TO.P,RV18,MP*%
%TO.N,N/C*%
X100600000Y-209150000D03*
X109400000Y-209150000D03*
%TD*%
D12*
%TO.P,RV10,1,1*%
%TO.N,3v3*%
X112000000Y-128150000D03*
D13*
%TO.P,RV10,2,2*%
%TO.N,Net-(U2-I9)*%
X114500000Y-128150000D03*
%TO.P,RV10,3,3*%
%TO.N,XT_GND*%
X117000000Y-128150000D03*
D14*
%TO.P,RV10,MP*%
%TO.N,N/C*%
X110100000Y-121150000D03*
X118900000Y-121150000D03*
%TD*%
D15*
%TO.P,SW5,1,A*%
%TO.N,sw_mid*%
X356200000Y-184400000D03*
%TO.P,SW5,2,B*%
%TO.N,XT_GND*%
X356200000Y-179700000D03*
%TO.P,SW5,3,C*%
%TO.N,unconnected-(SW5-C-Pad3)*%
X356200000Y-175000000D03*
%TD*%
%TO.P,SW8,1,A*%
%TO.N,sw_delay_type*%
X433500000Y-260400000D03*
%TO.P,SW8,2,B*%
%TO.N,XT_GND*%
X433500000Y-255700000D03*
%TO.P,SW8,3,C*%
%TO.N,unconnected-(SW8-C-Pad3)*%
X433500000Y-251000000D03*
%TD*%
D12*
%TO.P,RV79,1,1*%
%TO.N,3v3*%
X214000000Y-391150000D03*
D13*
%TO.P,RV79,2,2*%
%TO.N,Net-(U6-I9)*%
X216500000Y-391150000D03*
%TO.P,RV79,3,3*%
%TO.N,XT_GND*%
X219000000Y-391150000D03*
D14*
%TO.P,RV79,MP*%
%TO.N,N/C*%
X212100000Y-384150000D03*
X220900000Y-384150000D03*
%TD*%
D12*
%TO.P,RV22,1,1*%
%TO.N,3v3*%
X102500000Y-353150000D03*
D13*
%TO.P,RV22,2,2*%
%TO.N,Net-(U5-I9)*%
X105000000Y-353150000D03*
%TO.P,RV22,3,3*%
%TO.N,XT_GND*%
X107500000Y-353150000D03*
D14*
%TO.P,RV22,MP*%
%TO.N,N/C*%
X100600000Y-346150000D03*
X109400000Y-346150000D03*
%TD*%
D12*
%TO.P,RV75,1,1*%
%TO.N,3v3*%
X438500000Y-350150000D03*
D13*
%TO.P,RV75,2,2*%
%TO.N,Net-(U6-I5)*%
X441000000Y-350150000D03*
%TO.P,RV75,3,3*%
%TO.N,XT_GND*%
X443500000Y-350150000D03*
D14*
%TO.P,RV75,MP*%
%TO.N,N/C*%
X436600000Y-343150000D03*
X445400000Y-343150000D03*
%TD*%
D12*
%TO.P,RV77,1,1*%
%TO.N,3v3*%
X137000000Y-391250000D03*
D13*
%TO.P,RV77,2,2*%
%TO.N,Net-(U6-I7)*%
X139500000Y-391250000D03*
%TO.P,RV77,3,3*%
%TO.N,XT_GND*%
X142000000Y-391250000D03*
D14*
%TO.P,RV77,MP*%
%TO.N,N/C*%
X135100000Y-384250000D03*
X143900000Y-384250000D03*
%TD*%
D12*
%TO.P,RV76,1,1*%
%TO.N,3v3*%
X99100000Y-391150000D03*
D13*
%TO.P,RV76,2,2*%
%TO.N,Net-(U6-I6)*%
X101600000Y-391150000D03*
%TO.P,RV76,3,3*%
%TO.N,XT_GND*%
X104100000Y-391150000D03*
D14*
%TO.P,RV76,MP*%
%TO.N,N/C*%
X97200000Y-384150000D03*
X106000000Y-384150000D03*
%TD*%
D12*
%TO.P,RV19,1,1*%
%TO.N,3v3*%
X102500000Y-251150000D03*
D13*
%TO.P,RV19,2,2*%
%TO.N,Net-(U5-I3)*%
X105000000Y-251150000D03*
%TO.P,RV19,3,3*%
%TO.N,XT_GND*%
X107500000Y-251150000D03*
D14*
%TO.P,RV19,MP*%
%TO.N,N/C*%
X100600000Y-244150000D03*
X109400000Y-244150000D03*
%TD*%
D12*
%TO.P,RV55,1,1*%
%TO.N,3v3*%
X399000000Y-229150000D03*
D13*
%TO.P,RV55,2,2*%
%TO.N,Net-(U4-I4)*%
X401500000Y-229150000D03*
%TO.P,RV55,3,3*%
%TO.N,XT_GND*%
X404000000Y-229150000D03*
D14*
%TO.P,RV55,MP*%
%TO.N,N/C*%
X397100000Y-222150000D03*
X405900000Y-222150000D03*
%TD*%
D12*
%TO.P,RV15,1,1*%
%TO.N,3v3*%
X53500000Y-319150000D03*
D13*
%TO.P,RV15,2,2*%
%TO.N,Net-(U5-I6)*%
X56000000Y-319150000D03*
%TO.P,RV15,3,3*%
%TO.N,XT_GND*%
X58500000Y-319150000D03*
D14*
%TO.P,RV15,MP*%
%TO.N,N/C*%
X51600000Y-312150000D03*
X60400000Y-312150000D03*
%TD*%
D12*
%TO.P,RV48,1,1*%
%TO.N,3v3*%
X179000000Y-229150000D03*
D13*
%TO.P,RV48,2,2*%
%TO.N,Net-(U3-I13)*%
X181500000Y-229150000D03*
%TO.P,RV48,3,3*%
%TO.N,XT_GND*%
X184000000Y-229150000D03*
D14*
%TO.P,RV48,MP*%
%TO.N,N/C*%
X177100000Y-222150000D03*
X185900000Y-222150000D03*
%TD*%
D12*
%TO.P,RV72,1,1*%
%TO.N,3v3*%
X335000000Y-350150000D03*
D13*
%TO.P,RV72,2,2*%
%TO.N,Net-(U6-I2)*%
X337500000Y-350150000D03*
%TO.P,RV72,3,3*%
%TO.N,XT_GND*%
X340000000Y-350150000D03*
D14*
%TO.P,RV72,MP*%
%TO.N,N/C*%
X333100000Y-343150000D03*
X341900000Y-343150000D03*
%TD*%
D12*
%TO.P,RV63,1,1*%
%TO.N,3v3*%
X309000000Y-297150000D03*
D13*
%TO.P,RV63,2,2*%
%TO.N,Net-(U4-I12)*%
X311500000Y-297150000D03*
%TO.P,RV63,3,3*%
%TO.N,XT_GND*%
X314000000Y-297150000D03*
D14*
%TO.P,RV63,MP*%
%TO.N,N/C*%
X307100000Y-290150000D03*
X315900000Y-290150000D03*
%TD*%
D12*
%TO.P,RV11,1,1*%
%TO.N,3v3*%
X92000000Y-156250000D03*
D13*
%TO.P,RV11,2,2*%
%TO.N,Net-(U2-I10)*%
X94500000Y-156250000D03*
%TO.P,RV11,3,3*%
%TO.N,XT_GND*%
X97000000Y-156250000D03*
D14*
%TO.P,RV11,MP*%
%TO.N,N/C*%
X90100000Y-149250000D03*
X98900000Y-149250000D03*
%TD*%
D12*
%TO.P,RV27,1,1*%
%TO.N,3v3*%
X225400000Y-102150000D03*
D13*
%TO.P,RV27,2,2*%
%TO.N,Net-(U2-I15)*%
X227900000Y-102150000D03*
%TO.P,RV27,3,3*%
%TO.N,XT_GND*%
X230400000Y-102150000D03*
D14*
%TO.P,RV27,MP*%
%TO.N,N/C*%
X223500000Y-95150000D03*
X232300000Y-95150000D03*
%TD*%
D12*
%TO.P,RV84,1,1*%
%TO.N,3v3*%
X399000000Y-391150000D03*
D13*
%TO.P,RV84,2,2*%
%TO.N,Net-(U6-I14)*%
X401500000Y-391150000D03*
%TO.P,RV84,3,3*%
%TO.N,XT_GND*%
X404000000Y-391150000D03*
D14*
%TO.P,RV84,MP*%
%TO.N,N/C*%
X397100000Y-384150000D03*
X405900000Y-384150000D03*
%TD*%
D12*
%TO.P,RV38,1,1*%
%TO.N,3v3*%
X406000000Y-187250000D03*
D13*
%TO.P,RV38,2,2*%
%TO.N,Net-(U3-I10)*%
X408500000Y-187250000D03*
%TO.P,RV38,3,3*%
%TO.N,XT_GND*%
X411000000Y-187250000D03*
D14*
%TO.P,RV38,MP*%
%TO.N,N/C*%
X404100000Y-180250000D03*
X412900000Y-180250000D03*
%TD*%
D12*
%TO.P,RV7,1,1*%
%TO.N,3v3*%
X64000000Y-128150000D03*
D13*
%TO.P,RV7,2,2*%
%TO.N,Net-(U2-I6)*%
X66500000Y-128150000D03*
%TO.P,RV7,3,3*%
%TO.N,XT_GND*%
X69000000Y-128150000D03*
D14*
%TO.P,RV7,MP*%
%TO.N,N/C*%
X62100000Y-121150000D03*
X70900000Y-121150000D03*
%TD*%
D12*
%TO.P,RV37,1,1*%
%TO.N,3v3*%
X390000000Y-156150000D03*
D13*
%TO.P,RV37,2,2*%
%TO.N,Net-(U3-I9)*%
X392500000Y-156150000D03*
%TO.P,RV37,3,3*%
%TO.N,XT_GND*%
X395000000Y-156150000D03*
D14*
%TO.P,RV37,MP*%
%TO.N,N/C*%
X388100000Y-149150000D03*
X396900000Y-149150000D03*
%TD*%
D12*
%TO.P,RV3,1,1*%
%TO.N,3v3*%
X398500000Y-34150000D03*
D13*
%TO.P,RV3,2,2*%
%TO.N,Net-(U2-I2)*%
X401000000Y-34150000D03*
%TO.P,RV3,3,3*%
%TO.N,XT_GND*%
X403500000Y-34150000D03*
D14*
%TO.P,RV3,MP*%
%TO.N,N/C*%
X396600000Y-27150000D03*
X405400000Y-27150000D03*
%TD*%
D12*
%TO.P,RV36,1,1*%
%TO.N,3v3*%
X410000000Y-129150000D03*
D13*
%TO.P,RV36,2,2*%
%TO.N,Net-(U3-I8)*%
X412500000Y-129150000D03*
%TO.P,RV36,3,3*%
%TO.N,XT_GND*%
X415000000Y-129150000D03*
D14*
%TO.P,RV36,MP*%
%TO.N,N/C*%
X408100000Y-122150000D03*
X416900000Y-122150000D03*
%TD*%
D12*
%TO.P,RV35,1,1*%
%TO.N,3v3*%
X390000000Y-102150000D03*
D13*
%TO.P,RV35,2,2*%
%TO.N,Net-(U3-I7)*%
X392500000Y-102150000D03*
%TO.P,RV35,3,3*%
%TO.N,XT_GND*%
X395000000Y-102150000D03*
D14*
%TO.P,RV35,MP*%
%TO.N,N/C*%
X388100000Y-95150000D03*
X396900000Y-95150000D03*
%TD*%
D12*
%TO.P,RV67,1,1*%
%TO.N,3v3*%
X147000000Y-350150000D03*
D13*
%TO.P,RV67,2,2*%
%TO.N,Net-(U5-I11)*%
X149500000Y-350150000D03*
%TO.P,RV67,3,3*%
%TO.N,XT_GND*%
X152000000Y-350150000D03*
D14*
%TO.P,RV67,MP*%
%TO.N,N/C*%
X145100000Y-343150000D03*
X153900000Y-343150000D03*
%TD*%
D12*
%TO.P,RV85,1,1*%
%TO.N,3v3*%
X438500000Y-391150000D03*
D13*
%TO.P,RV85,2,2*%
%TO.N,Net-(U6-I15)*%
X441000000Y-391150000D03*
%TO.P,RV85,3,3*%
%TO.N,XT_GND*%
X443500000Y-391150000D03*
D14*
%TO.P,RV85,MP*%
%TO.N,N/C*%
X436600000Y-384150000D03*
X445400000Y-384150000D03*
%TD*%
D12*
%TO.P,RV29,1,1*%
%TO.N,3v3*%
X225400000Y-156150000D03*
D13*
%TO.P,RV29,2,2*%
%TO.N,Net-(U3-I1)*%
X227900000Y-156150000D03*
%TO.P,RV29,3,3*%
%TO.N,XT_GND*%
X230400000Y-156150000D03*
D14*
%TO.P,RV29,MP*%
%TO.N,N/C*%
X223500000Y-149150000D03*
X232300000Y-149150000D03*
%TD*%
D12*
%TO.P,RV21,1,1*%
%TO.N,3v3*%
X102500000Y-319250000D03*
D13*
%TO.P,RV21,2,2*%
%TO.N,Net-(U5-I7)*%
X105000000Y-319250000D03*
%TO.P,RV21,3,3*%
%TO.N,XT_GND*%
X107500000Y-319250000D03*
D14*
%TO.P,RV21,MP*%
%TO.N,N/C*%
X100600000Y-312250000D03*
X109400000Y-312250000D03*
%TD*%
D12*
%TO.P,RV56,1,1*%
%TO.N,3v3*%
X399000000Y-263150000D03*
D13*
%TO.P,RV56,2,2*%
%TO.N,Net-(U4-I5)*%
X401500000Y-263150000D03*
%TO.P,RV56,3,3*%
%TO.N,XT_GND*%
X404000000Y-263150000D03*
D14*
%TO.P,RV56,MP*%
%TO.N,N/C*%
X397100000Y-256150000D03*
X405900000Y-256150000D03*
%TD*%
D15*
%TO.P,SW4,1,A*%
%TO.N,sw_bass*%
X273800000Y-184400000D03*
%TO.P,SW4,2,B*%
%TO.N,XT_GND*%
X273800000Y-179700000D03*
%TO.P,SW4,3,C*%
%TO.N,unconnected-(SW4-C-Pad3)*%
X273800000Y-175000000D03*
%TD*%
%TO.P,SW6,1,A*%
%TO.N,sw_high*%
X438533202Y-184400197D03*
%TO.P,SW6,2,B*%
%TO.N,XT_GND*%
X438533202Y-179700197D03*
%TO.P,SW6,3,C*%
%TO.N,unconnected-(SW6-C-Pad3)*%
X438533202Y-175000197D03*
%TD*%
D12*
%TO.P,RV30,1,1*%
%TO.N,3v3*%
X241300000Y-187150000D03*
D13*
%TO.P,RV30,2,2*%
%TO.N,Net-(U3-I2)*%
X243800000Y-187150000D03*
%TO.P,RV30,3,3*%
%TO.N,XT_GND*%
X246300000Y-187150000D03*
D14*
%TO.P,RV30,MP*%
%TO.N,N/C*%
X239400000Y-180150000D03*
X248200000Y-180150000D03*
%TD*%
D12*
%TO.P,RV12,1,1*%
%TO.N,3v3*%
X53500000Y-216150000D03*
D13*
%TO.P,RV12,2,2*%
%TO.N,Net-(U5-I0)*%
X56000000Y-216150000D03*
%TO.P,RV12,3,3*%
%TO.N,XT_GND*%
X58500000Y-216150000D03*
D14*
%TO.P,RV12,MP*%
%TO.N,N/C*%
X51600000Y-209150000D03*
X60400000Y-209150000D03*
%TD*%
D12*
%TO.P,RV20,1,1*%
%TO.N,3v3*%
X102500000Y-285150000D03*
D13*
%TO.P,RV20,2,2*%
%TO.N,Net-(U5-I5)*%
X105000000Y-285150000D03*
%TO.P,RV20,3,3*%
%TO.N,XT_GND*%
X107500000Y-285150000D03*
D14*
%TO.P,RV20,MP*%
%TO.N,N/C*%
X100600000Y-278150000D03*
X109400000Y-278150000D03*
%TD*%
D12*
%TO.P,RV60,1,1*%
%TO.N,3v3*%
X209000000Y-314150000D03*
D13*
%TO.P,RV60,2,2*%
%TO.N,Net-(U4-I9)*%
X211500000Y-314150000D03*
%TO.P,RV60,3,3*%
%TO.N,XT_GND*%
X214000000Y-314150000D03*
D14*
%TO.P,RV60,MP*%
%TO.N,N/C*%
X207100000Y-307150000D03*
X215900000Y-307150000D03*
%TD*%
D17*
%TO.P,J5,1,Pin_1*%
%TO.N,sampler_1*%
X222800000Y-87000000D03*
D18*
%TO.P,J5,2,Pin_2*%
%TO.N,sampler_2*%
X220800000Y-87000000D03*
%TO.P,J5,3,Pin_3*%
%TO.N,sampler_3*%
X218800000Y-87000000D03*
%TO.P,J5,4,Pin_4*%
%TO.N,sampler_4*%
X216800000Y-87000000D03*
%TO.P,J5,5,Pin_5*%
%TO.N,samlper_5*%
X214800000Y-87000000D03*
%TO.P,J5,6,Pin_6*%
%TO.N,sampler_6*%
X212800000Y-87000000D03*
%TO.P,J5,7,Pin_7*%
%TO.N,sampler_7*%
X210800000Y-87000000D03*
%TO.P,J5,8,Pin_8*%
%TO.N,sampler_8*%
X208800000Y-87000000D03*
%TO.P,J5,9,Pin_9*%
%TO.N,sampler_9*%
X206800000Y-87000000D03*
%TO.P,J5,10,Pin_10*%
%TO.N,sampler_10*%
X204800000Y-87000000D03*
%TO.P,J5,11,Pin_11*%
%TO.N,sampler_11*%
X202800000Y-87000000D03*
%TO.P,J5,12,Pin_12*%
%TO.N,XT_GND*%
X200800000Y-87000000D03*
%TD*%
D19*
%TO.P,J1,1,Pin_1*%
%TO.N,unconnected-(J1-Pin_1-Pad1)*%
X196000000Y-272680000D03*
D20*
%TO.P,J1,2,Pin_2*%
%TO.N,XT_RPi_5v*%
X198540000Y-272680000D03*
%TO.P,J1,3,Pin_3*%
%TO.N,unconnected-(J1-Pin_3-Pad3)*%
X196000000Y-270140000D03*
%TO.P,J1,4,Pin_4*%
%TO.N,XT_RPi_5v*%
X198540000Y-270140000D03*
%TO.P,J1,5,Pin_5*%
%TO.N,unconnected-(J1-Pin_5-Pad5)*%
X196000000Y-267600000D03*
%TO.P,J1,6,Pin_6*%
%TO.N,XT_GND*%
X198540000Y-267600000D03*
%TO.P,J1,7,Pin_7*%
%TO.N,XT_RPi7*%
X196000000Y-265060000D03*
%TO.P,J1,8,Pin_8*%
%TO.N,XT_RPi8*%
X198540000Y-265060000D03*
%TO.P,J1,9,Pin_9*%
%TO.N,XT_GND*%
X196000000Y-262520000D03*
%TO.P,J1,10,Pin_10*%
%TO.N,XT_RPi10*%
X198540000Y-262520000D03*
%TO.P,J1,11,Pin_11*%
%TO.N,XT_RPi11*%
X196000000Y-259980000D03*
%TO.P,J1,12,Pin_12*%
%TO.N,unconnected-(J1-Pin_12-Pad12)*%
X198540000Y-259980000D03*
%TO.P,J1,13,Pin_13*%
%TO.N,XT_RPi13*%
X196000000Y-257440000D03*
%TO.P,J1,14,Pin_14*%
%TO.N,XT_GND*%
X198540000Y-257440000D03*
%TO.P,J1,15,Pin_15*%
%TO.N,XT_RPi15*%
X196000000Y-254900000D03*
%TO.P,J1,16,Pin_16*%
%TO.N,taptempo_LED_RPi16*%
X198540000Y-254900000D03*
%TO.P,J1,17,Pin_17*%
%TO.N,unconnected-(J1-Pin_17-Pad17)*%
X196000000Y-252360000D03*
%TO.P,J1,18,Pin_18*%
%TO.N,XT_RPi18*%
X198540000Y-252360000D03*
%TO.P,J1,19,Pin_19*%
%TO.N,neopixel_data*%
X196000000Y-249820000D03*
%TO.P,J1,20,Pin_20*%
%TO.N,XT_GND*%
X198540000Y-249820000D03*
%TO.P,J1,21,Pin_21*%
%TO.N,sw_input_mode_RPi21*%
X196000000Y-247280000D03*
%TO.P,J1,22,Pin_22*%
%TO.N,unconnected-(J1-Pin_22-Pad22)*%
X198540000Y-247280000D03*
%TO.P,J1,23,Pin_23*%
%TO.N,XT_RPi23*%
X196000000Y-244740000D03*
%TO.P,J1,24,Pin_24*%
%TO.N,unconnected-(J1-Pin_24-Pad24)*%
X198540000Y-244740000D03*
%TO.P,J1,25,Pin_25*%
%TO.N,XT_GND*%
X196000000Y-242200000D03*
%TO.P,J1,26,Pin_26*%
%TO.N,unconnected-(J1-Pin_26-Pad26)*%
X198540000Y-242200000D03*
%TO.P,J1,27,Pin_27*%
%TO.N,unconnected-(J1-Pin_27-Pad27)*%
X196000000Y-239660000D03*
%TO.P,J1,28,Pin_28*%
%TO.N,unconnected-(J1-Pin_28-Pad28)*%
X198540000Y-239660000D03*
%TO.P,J1,29,Pin_29*%
%TO.N,XT_RPi29*%
X196000000Y-237120000D03*
%TO.P,J1,30,Pin_30*%
%TO.N,XT_GND*%
X198540000Y-237120000D03*
%TO.P,J1,31,Pin_31*%
%TO.N,XT_RPi31*%
X196000000Y-234580000D03*
%TO.P,J1,32,Pin_32*%
%TO.N,XT_RPi32*%
X198540000Y-234580000D03*
%TO.P,J1,33,Pin_33*%
%TO.N,XT_RPi33*%
X196000000Y-232040000D03*
%TO.P,J1,34,Pin_34*%
%TO.N,XT_GND*%
X198540000Y-232040000D03*
%TO.P,J1,35,Pin_35*%
%TO.N,unconnected-(J1-Pin_35-Pad35)*%
X196000000Y-229500000D03*
%TO.P,J1,36,Pin_36*%
%TO.N,XT_RPi36*%
X198540000Y-229500000D03*
%TO.P,J1,37,Pin_37*%
%TO.N,XT_RPi37*%
X196000000Y-226960000D03*
%TO.P,J1,38,Pin_38*%
%TO.N,unconnected-(J1-Pin_38-Pad38)*%
X198540000Y-226960000D03*
%TO.P,J1,39,Pin_39*%
%TO.N,XT_GND*%
X196000000Y-224420000D03*
%TO.P,J1,40,Pin_40*%
%TO.N,unconnected-(J1-Pin_40-Pad40)*%
X198540000Y-224420000D03*
%TD*%
D21*
%TO.P,IC1,1,TX1*%
%TO.N,unconnected-(IC1-TX1-Pad1)*%
X307970000Y-210350000D03*
%TO.P,IC1,2,OUT2*%
%TO.N,mux_s0*%
X305430000Y-210350000D03*
%TO.P,IC1,3,LRCLK2*%
%TO.N,mux_s1*%
X302890000Y-210350000D03*
%TO.P,IC1,4,BCLK2*%
%TO.N,mux_s2*%
X300350000Y-210350000D03*
%TO.P,IC1,5,IN2*%
%TO.N,mux_s3*%
X297810000Y-210350000D03*
%TO.P,IC1,6,OUT1D*%
%TO.N,mux1_enable*%
X295270000Y-210350000D03*
%TO.P,IC1,7,RX2*%
%TO.N,mux2_enable*%
X292730000Y-210350000D03*
%TO.P,IC1,8,TX2*%
%TO.N,mux3_enable*%
X290190000Y-210350000D03*
%TO.P,IC1,9,OUT1C*%
%TO.N,mux4_enable*%
X287650000Y-210350000D03*
%TO.P,IC1,10,CS_1*%
%TO.N,mux5_enable*%
X285110000Y-210350000D03*
%TO.P,IC1,11,MOSI*%
%TO.N,sampler_1*%
X282570000Y-210350000D03*
%TO.P,IC1,12,MISO*%
%TO.N,sampler_2*%
X280030000Y-210350000D03*
%TO.P,IC1,13,SCK*%
%TO.N,unconnected-(IC1-SCK-Pad13)*%
X280030000Y-195110000D03*
%TO.P,IC1,14,A0*%
%TO.N,mux_signal*%
X282570000Y-195110000D03*
%TO.P,IC1,15,A1*%
%TO.N,sw_eq1*%
X285110000Y-195110000D03*
%TO.P,IC1,16,A2*%
%TO.N,sw_eq2*%
X287650000Y-195110000D03*
%TO.P,IC1,17,A3*%
%TO.N,sw_sub*%
X290190000Y-195110000D03*
%TO.P,IC1,18,A4*%
%TO.N,sw_bass*%
X292730000Y-195110000D03*
%TO.P,IC1,19,A5*%
%TO.N,sw_mid*%
X295270000Y-195110000D03*
%TO.P,IC1,20,A6*%
%TO.N,sw_high*%
X297810000Y-195110000D03*
%TO.P,IC1,21,A7*%
%TO.N,btn_delay_taptempo*%
X300350000Y-195110000D03*
%TO.P,IC1,22,A8*%
%TO.N,sw_delay_type*%
X302890000Y-195110000D03*
%TO.P,IC1,23,A9*%
%TO.N,sampler_stop*%
X305430000Y-195110000D03*
%TO.P,IC1,24,A10*%
%TO.N,sampler_3*%
X274950000Y-210350000D03*
%TO.P,IC1,25,A11*%
%TO.N,sampler_4*%
X272410000Y-210350000D03*
%TO.P,IC1,26,A12*%
%TO.N,samlper_5*%
X269870000Y-210350000D03*
%TO.P,IC1,27,A13*%
%TO.N,sampler_6*%
X267330000Y-210350000D03*
%TO.P,IC1,28,RX7*%
%TO.N,sampler_7*%
X264790000Y-210350000D03*
%TO.P,IC1,29,TX7*%
%TO.N,sampler_8*%
X262250000Y-210350000D03*
%TO.P,IC1,30,CRX3*%
%TO.N,sampler_9*%
X259710000Y-210350000D03*
%TO.P,IC1,31,CTX3*%
%TO.N,sampler_10*%
X257170000Y-210350000D03*
%TO.P,IC1,32,OUT1B*%
%TO.N,sampler_11*%
X254630000Y-210350000D03*
%TO.P,IC1,33,MCLK2*%
%TO.N,XT_Teensy33*%
X254630000Y-195110000D03*
%TO.P,IC1,34,RX8*%
%TO.N,XT_Teensy34*%
X257170000Y-195110000D03*
%TO.P,IC1,35,TX8*%
%TO.N,XT_Teensy35*%
X259710000Y-195110000D03*
%TO.P,IC1,36,CS_2*%
%TO.N,XT_Teensy36*%
X262250000Y-195110000D03*
%TO.P,IC1,37,CS_3*%
%TO.N,XT_Teensy37*%
X264790000Y-195110000D03*
%TO.P,IC1,38,A14*%
%TO.N,sw_grain_type*%
X267330000Y-195110000D03*
%TO.P,IC1,39,A15*%
%TO.N,sw_grain_playback*%
X269870000Y-195110000D03*
%TO.P,IC1,40,A16*%
%TO.N,XT_Teensy40*%
X272410000Y-195110000D03*
%TO.P,IC1,41,A17*%
%TO.N,XT_Teensy41*%
X274950000Y-195110000D03*
%TO.P,IC1,42,3.3V_1*%
%TO.N,unconnected-(IC1-3.3V_1-Pad42)*%
X277490000Y-210350000D03*
%TO.P,IC1,53,3.3V_(250_M_A_MAX)*%
%TO.N,3v3*%
X307970000Y-195110000D03*
%TO.P,IC1,55,VIN_(3.6_TO_5.5_VOLTS)*%
%TO.N,unconnected-(IC1-VIN_(3.6_TO_5.5_VOLTS)-Pad55)*%
X313050000Y-195110000D03*
%TO.P,IC1,57,RX1*%
%TO.N,unconnected-(IC1-RX1-Pad57)*%
X310510000Y-210350000D03*
%TO.P,IC1,69,GND_4*%
%TO.N,XT_GND*%
X277490000Y-195110000D03*
%TO.P,IC1,70,GND_5*%
X310510000Y-195110000D03*
%TO.P,IC1,71,GND_6*%
X313050000Y-210350000D03*
%TD*%
D22*
%TO.P,U5,1,COM*%
%TO.N,mux_signal*%
X90240000Y-306700000D03*
%TO.P,U5,2,I7*%
%TO.N,Net-(U5-I7)*%
X75000000Y-296540000D03*
%TO.P,U5,3,I6*%
%TO.N,Net-(U5-I6)*%
X75000000Y-294000000D03*
%TO.P,U5,4,I5*%
%TO.N,Net-(U5-I5)*%
X75000000Y-291460000D03*
%TO.P,U5,5,I4*%
%TO.N,Net-(U5-I4)*%
X75000000Y-288920000D03*
%TO.P,U5,6,I3*%
%TO.N,Net-(U5-I3)*%
X75000000Y-286380000D03*
%TO.P,U5,7,I2*%
%TO.N,Net-(U5-I2)*%
X75000000Y-283840000D03*
%TO.P,U5,8,I1*%
%TO.N,Net-(U5-I1)*%
X75000000Y-281300000D03*
%TO.P,U5,9,I0*%
%TO.N,Net-(U5-I0)*%
X75000000Y-278760000D03*
%TO.P,U5,10,S0*%
%TO.N,mux_s0*%
X90240000Y-296540000D03*
%TO.P,U5,11,S1*%
%TO.N,mux_s1*%
X90240000Y-299080000D03*
D23*
%TO.P,U5,12,GND*%
%TO.N,XT_GND*%
X90240000Y-288920000D03*
D22*
%TO.P,U5,13,S3*%
%TO.N,mux_s3*%
X90240000Y-304160000D03*
%TO.P,U5,14,S2*%
%TO.N,mux_s2*%
X90240000Y-301620000D03*
%TO.P,U5,15,~{E}*%
%TO.N,mux4_enable*%
X90240000Y-294000000D03*
%TO.P,U5,16,I15*%
%TO.N,unconnected-(U5-I15-Pad16)*%
X75000000Y-316860000D03*
%TO.P,U5,17,I14*%
%TO.N,unconnected-(U5-I14-Pad17)*%
X75000000Y-314320000D03*
%TO.P,U5,18,I13*%
%TO.N,Net-(U5-I13)*%
X75000000Y-311780000D03*
%TO.P,U5,19,I12*%
%TO.N,Net-(U5-I12)*%
X75000000Y-309240000D03*
%TO.P,U5,20,I11*%
%TO.N,Net-(U5-I11)*%
X75000000Y-306700000D03*
%TO.P,U5,21,I10*%
%TO.N,Net-(U5-I10)*%
X75000000Y-304160000D03*
%TO.P,U5,22,I9*%
%TO.N,Net-(U5-I9)*%
X75000000Y-301620000D03*
%TO.P,U5,23,I8*%
%TO.N,Net-(U5-I8)*%
X75000000Y-299080000D03*
%TO.P,U5,24,VCC*%
%TO.N,3v3*%
X90240000Y-291460000D03*
%TD*%
D24*
%TO.P,J4,1,Pin_1*%
%TO.N,XT_GND*%
X174500000Y-263750000D03*
%TD*%
D22*
%TO.P,U4,1,COM*%
%TO.N,mux_signal*%
X307690000Y-259885000D03*
%TO.P,U4,2,I7*%
%TO.N,Net-(U4-I7)*%
X297530000Y-275125000D03*
%TO.P,U4,3,I6*%
%TO.N,Net-(U4-I6)*%
X294990000Y-275125000D03*
%TO.P,U4,4,I5*%
%TO.N,Net-(U4-I5)*%
X292450000Y-275125000D03*
%TO.P,U4,5,I4*%
%TO.N,Net-(U4-I4)*%
X289910000Y-275125000D03*
%TO.P,U4,6,I3*%
%TO.N,Net-(U4-I3)*%
X287370000Y-275125000D03*
%TO.P,U4,7,I2*%
%TO.N,Net-(U4-I2)*%
X284830000Y-275125000D03*
%TO.P,U4,8,I1*%
%TO.N,Net-(U4-I1)*%
X282290000Y-275125000D03*
%TO.P,U4,9,I0*%
%TO.N,Net-(U4-I0)*%
X279750000Y-275125000D03*
%TO.P,U4,10,S0*%
%TO.N,mux_s0*%
X297530000Y-259885000D03*
%TO.P,U4,11,S1*%
%TO.N,mux_s1*%
X300070000Y-259885000D03*
D23*
%TO.P,U4,12,GND*%
%TO.N,XT_GND*%
X289910000Y-259885000D03*
D22*
%TO.P,U4,13,S3*%
%TO.N,mux_s3*%
X305150000Y-259885000D03*
%TO.P,U4,14,S2*%
%TO.N,mux_s2*%
X302610000Y-259885000D03*
%TO.P,U4,15,~{E}*%
%TO.N,mux3_enable*%
X294990000Y-259885000D03*
%TO.P,U4,16,I15*%
%TO.N,Net-(U4-I15)*%
X317850000Y-275125000D03*
%TO.P,U4,17,I14*%
%TO.N,Net-(U4-I14)*%
X315310000Y-275125000D03*
%TO.P,U4,18,I13*%
%TO.N,Net-(U4-I13)*%
X312770000Y-275125000D03*
%TO.P,U4,19,I12*%
%TO.N,Net-(U4-I12)*%
X310230000Y-275125000D03*
%TO.P,U4,20,I11*%
%TO.N,Net-(U4-I11)*%
X307690000Y-275125000D03*
%TO.P,U4,21,I10*%
%TO.N,Net-(U4-I10)*%
X305150000Y-275125000D03*
%TO.P,U4,22,I9*%
%TO.N,Net-(U4-I9)*%
X302610000Y-275125000D03*
%TO.P,U4,23,I8*%
%TO.N,Net-(U4-I8)*%
X300070000Y-275125000D03*
%TO.P,U4,24,VCC*%
%TO.N,3v3*%
X292450000Y-259885000D03*
%TD*%
D24*
%TO.P,J3,1,Pin_1*%
%TO.N,XT_RPi_5v*%
X178500000Y-271000000D03*
%TD*%
D25*
%TO.P,SW12,1,A*%
%TO.N,sw_input_mode_RPi21*%
X192950000Y-201820000D03*
%TO.P,SW12,2,B*%
%TO.N,XT_GND*%
X197650000Y-201820000D03*
%TO.P,SW12,3,C*%
%TO.N,unconnected-(SW12-C-Pad3)*%
X202350000Y-201820000D03*
%TD*%
D22*
%TO.P,U2,1,COM*%
%TO.N,mux_signal*%
X369285113Y-56890000D03*
%TO.P,U2,2,I7*%
%TO.N,Net-(U2-I7)*%
X359125113Y-72130000D03*
%TO.P,U2,3,I6*%
%TO.N,Net-(U2-I6)*%
X356585113Y-72130000D03*
%TO.P,U2,4,I5*%
%TO.N,Net-(U2-I5)*%
X354045113Y-72130000D03*
%TO.P,U2,5,I4*%
%TO.N,Net-(U2-I4)*%
X351505113Y-72130000D03*
%TO.P,U2,6,I3*%
%TO.N,Net-(U2-I3)*%
X348965113Y-72130000D03*
%TO.P,U2,7,I2*%
%TO.N,Net-(U2-I2)*%
X346425113Y-72130000D03*
%TO.P,U2,8,I1*%
%TO.N,Net-(U2-I1)*%
X343885113Y-72130000D03*
%TO.P,U2,9,I0*%
%TO.N,Net-(U2-I0)*%
X341345113Y-72130000D03*
%TO.P,U2,10,S0*%
%TO.N,mux_s0*%
X359125113Y-56890000D03*
%TO.P,U2,11,S1*%
%TO.N,mux_s1*%
X361665113Y-56890000D03*
D23*
%TO.P,U2,12,GND*%
%TO.N,XT_GND*%
X351505113Y-56890000D03*
D22*
%TO.P,U2,13,S3*%
%TO.N,mux_s3*%
X366745113Y-56890000D03*
%TO.P,U2,14,S2*%
%TO.N,mux_s2*%
X364205113Y-56890000D03*
%TO.P,U2,15,~{E}*%
%TO.N,mux1_enable*%
X356585113Y-56890000D03*
%TO.P,U2,16,I15*%
%TO.N,Net-(U2-I15)*%
X379445113Y-72130000D03*
%TO.P,U2,17,I14*%
%TO.N,Net-(U2-I14)*%
X376905113Y-72130000D03*
%TO.P,U2,18,I13*%
%TO.N,Net-(U2-I13)*%
X374365113Y-72130000D03*
%TO.P,U2,19,I12*%
%TO.N,Net-(U2-I12)*%
X371825113Y-72130000D03*
%TO.P,U2,20,I11*%
%TO.N,Net-(U2-I11)*%
X369285113Y-72130000D03*
%TO.P,U2,21,I10*%
%TO.N,Net-(U2-I10)*%
X366745113Y-72130000D03*
%TO.P,U2,22,I9*%
%TO.N,Net-(U2-I9)*%
X364205113Y-72130000D03*
%TO.P,U2,23,I8*%
%TO.N,Net-(U2-I8)*%
X361665113Y-72130000D03*
%TO.P,U2,24,VCC*%
%TO.N,3v3*%
X354045113Y-56890000D03*
%TD*%
D26*
%TO.P,RASPBERRY PI 4,S1*%
%TO.N,N/C*%
X165500000Y-277500000D03*
%TO.P,RASPBERRY PI 4,S2*%
X165500000Y-219500000D03*
%TO.P,RASPBERRY PI 4,S3*%
X116500000Y-219500000D03*
%TO.P,RASPBERRY PI 4,S4*%
X116500000Y-277500000D03*
%TD*%
D24*
%TO.P,J4,1,Pin_1*%
%TO.N,XT_GND*%
X178500000Y-263750000D03*
%TD*%
D22*
%TO.P,U3,1,COM*%
%TO.N,mux_signal*%
X255870000Y-149390000D03*
%TO.P,U3,2,I7*%
%TO.N,Net-(U3-I7)*%
X245710000Y-164630000D03*
%TO.P,U3,3,I6*%
%TO.N,Net-(U3-I6)*%
X243170000Y-164630000D03*
%TO.P,U3,4,I5*%
%TO.N,Net-(U3-I5)*%
X240630000Y-164630000D03*
%TO.P,U3,5,I4*%
%TO.N,Net-(U3-I4)*%
X238090000Y-164630000D03*
%TO.P,U3,6,I3*%
%TO.N,Net-(U3-I3)*%
X235550000Y-164630000D03*
%TO.P,U3,7,I2*%
%TO.N,Net-(U3-I2)*%
X233010000Y-164630000D03*
%TO.P,U3,8,I1*%
%TO.N,Net-(U3-I1)*%
X230470000Y-164630000D03*
%TO.P,U3,9,I0*%
%TO.N,Net-(U3-I0)*%
X227930000Y-164630000D03*
%TO.P,U3,10,S0*%
%TO.N,mux_s0*%
X245710000Y-149390000D03*
%TO.P,U3,11,S1*%
%TO.N,mux_s1*%
X248250000Y-149390000D03*
D23*
%TO.P,U3,12,GND*%
%TO.N,XT_GND*%
X238090000Y-149390000D03*
D22*
%TO.P,U3,13,S3*%
%TO.N,mux_s3*%
X253330000Y-149390000D03*
%TO.P,U3,14,S2*%
%TO.N,mux_s2*%
X250790000Y-149390000D03*
%TO.P,U3,15,~{E}*%
%TO.N,mux2_enable*%
X243170000Y-149390000D03*
%TO.P,U3,16,I15*%
%TO.N,Net-(U3-I15)*%
X266030000Y-164630000D03*
%TO.P,U3,17,I14*%
%TO.N,Net-(U3-I14)*%
X263490000Y-164630000D03*
%TO.P,U3,18,I13*%
%TO.N,Net-(U3-I13)*%
X260950000Y-164630000D03*
%TO.P,U3,19,I12*%
%TO.N,Net-(U3-I12)*%
X258410000Y-164630000D03*
%TO.P,U3,20,I11*%
%TO.N,Net-(U3-I11)*%
X255870000Y-164630000D03*
%TO.P,U3,21,I10*%
%TO.N,Net-(U3-I10)*%
X253330000Y-164630000D03*
%TO.P,U3,22,I9*%
%TO.N,Net-(U3-I9)*%
X250790000Y-164630000D03*
%TO.P,U3,23,I8*%
%TO.N,Net-(U3-I8)*%
X248250000Y-164630000D03*
%TO.P,U3,24,VCC*%
%TO.N,3v3*%
X240630000Y-149390000D03*
%TD*%
D24*
%TO.P,J3,1,Pin_1*%
%TO.N,XT_RPi_5v*%
X174500000Y-271000000D03*
%TD*%
D22*
%TO.P,U6,1,COM*%
%TO.N,mux_signal*%
X325070000Y-352490000D03*
%TO.P,U6,2,I7*%
%TO.N,Net-(U6-I7)*%
X314910000Y-367730000D03*
%TO.P,U6,3,I6*%
%TO.N,Net-(U6-I6)*%
X312370000Y-367730000D03*
%TO.P,U6,4,I5*%
%TO.N,Net-(U6-I5)*%
X309830000Y-367730000D03*
%TO.P,U6,5,I4*%
%TO.N,Net-(U6-I4)*%
X307290000Y-367730000D03*
%TO.P,U6,6,I3*%
%TO.N,Net-(U6-I3)*%
X304750000Y-367730000D03*
%TO.P,U6,7,I2*%
%TO.N,Net-(U6-I2)*%
X302210000Y-367730000D03*
%TO.P,U6,8,I1*%
%TO.N,Net-(U6-I1)*%
X299670000Y-367730000D03*
%TO.P,U6,9,I0*%
%TO.N,Net-(U6-I0)*%
X297130000Y-367730000D03*
%TO.P,U6,10,S0*%
%TO.N,mux_s0*%
X314910000Y-352490000D03*
%TO.P,U6,11,S1*%
%TO.N,mux_s1*%
X317450000Y-352490000D03*
D23*
%TO.P,U6,12,GND*%
%TO.N,XT_GND*%
X307290000Y-352490000D03*
D22*
%TO.P,U6,13,S3*%
%TO.N,mux_s3*%
X322530000Y-352490000D03*
%TO.P,U6,14,S2*%
%TO.N,mux_s2*%
X319990000Y-352490000D03*
%TO.P,U6,15,~{E}*%
%TO.N,mux5_enable*%
X312370000Y-352490000D03*
%TO.P,U6,16,I15*%
%TO.N,Net-(U6-I15)*%
X335230000Y-367730000D03*
%TO.P,U6,17,I14*%
%TO.N,Net-(U6-I14)*%
X332690000Y-367730000D03*
%TO.P,U6,18,I13*%
%TO.N,Net-(U6-I13)*%
X330150000Y-367730000D03*
%TO.P,U6,19,I12*%
%TO.N,Net-(U6-I12)*%
X327610000Y-367730000D03*
%TO.P,U6,20,I11*%
%TO.N,Net-(U6-I11)*%
X325070000Y-367730000D03*
%TO.P,U6,21,I10*%
%TO.N,Net-(U6-I10)*%
X322530000Y-367730000D03*
%TO.P,U6,22,I9*%
%TO.N,Net-(U6-I9)*%
X319990000Y-367730000D03*
%TO.P,U6,23,I8*%
%TO.N,Net-(U6-I8)*%
X317450000Y-367730000D03*
%TO.P,U6,24,VCC*%
%TO.N,3v3*%
X309830000Y-352490000D03*
%TD*%
D27*
%TO.P,J25,1,Pin_1*%
%TO.N,mux_s0*%
X264640000Y-243040000D03*
D20*
%TO.P,J25,2,Pin_2*%
%TO.N,XT_GND*%
X264640000Y-240500000D03*
%TO.P,J25,3,Pin_3*%
%TO.N,mux_s1*%
X262100000Y-243040000D03*
%TO.P,J25,4,Pin_4*%
%TO.N,XT_GND*%
X262100000Y-240500000D03*
%TO.P,J25,5,Pin_5*%
%TO.N,mux_s2*%
X259560000Y-243040000D03*
%TO.P,J25,6,Pin_6*%
%TO.N,XT_RPi_5v*%
X259560000Y-240500000D03*
%TO.P,J25,7,Pin_7*%
%TO.N,mux_s3*%
X257020000Y-243040000D03*
%TO.P,J25,8,Pin_8*%
%TO.N,3v3*%
X257020000Y-240500000D03*
%TO.P,J25,9,Pin_9*%
%TO.N,mux_signal*%
X254480000Y-243040000D03*
%TO.P,J25,10,Pin_10*%
%TO.N,XT_Teensy41*%
X254480000Y-240500000D03*
%TO.P,J25,11,Pin_11*%
%TO.N,XT_RPi36*%
X251940000Y-243040000D03*
%TO.P,J25,12,Pin_12*%
%TO.N,XT_Teensy40*%
X251940000Y-240500000D03*
%TO.P,J25,13,Pin_13*%
%TO.N,XT_RPi33*%
X249400000Y-243040000D03*
%TO.P,J25,14,Pin_14*%
%TO.N,XT_Teensy37*%
X249400000Y-240500000D03*
%TO.P,J25,15,Pin_15*%
%TO.N,XT_RPi32*%
X246860000Y-243040000D03*
%TO.P,J25,16,Pin_16*%
%TO.N,XT_Teensy36*%
X246860000Y-240500000D03*
%TO.P,J25,17,Pin_17*%
%TO.N,XT_RPi31*%
X244320000Y-243040000D03*
%TO.P,J25,18,Pin_18*%
%TO.N,XT_Teensy35*%
X244320000Y-240500000D03*
%TO.P,J25,19,Pin_19*%
%TO.N,XT_RPi29*%
X241780000Y-243040000D03*
%TO.P,J25,20,Pin_20*%
%TO.N,XT_Teensy34*%
X241780000Y-240500000D03*
%TO.P,J25,21,Pin_21*%
%TO.N,XT_RPi10*%
X239240000Y-243040000D03*
%TO.P,J25,22,Pin_22*%
%TO.N,XT_Teensy33*%
X239240000Y-240500000D03*
%TO.P,J25,23,Pin_23*%
%TO.N,XT_RPi8*%
X236700000Y-243040000D03*
%TO.P,J25,24,Pin_24*%
%TO.N,XT_RPi37*%
X236700000Y-240500000D03*
%TO.P,J25,25,Pin_25*%
%TO.N,XT_RPi7*%
X234160000Y-243040000D03*
%TO.P,J25,26,Pin_26*%
%TO.N,sw_input_mode_RPi21*%
X234160000Y-240500000D03*
%TO.P,J25,27,Pin_27*%
%TO.N,XT_RPi11*%
X231620000Y-243040000D03*
%TO.P,J25,28,Pin_28*%
%TO.N,XT_RPi23*%
X231620000Y-240500000D03*
%TO.P,J25,29,Pin_29*%
%TO.N,XT_RPi13*%
X229080000Y-243040000D03*
%TO.P,J25,30,Pin_30*%
%TO.N,XT_RPi26*%
X229080000Y-240500000D03*
%TO.P,J25,31,Pin_31*%
%TO.N,XT_RPi15*%
X226540000Y-243040000D03*
%TO.P,J25,32,Pin_32*%
%TO.N,XT_RPi24*%
X226540000Y-240500000D03*
%TO.P,J25,33,Pin_33*%
%TO.N,XT_RPi18*%
X224000000Y-243040000D03*
%TO.P,J25,34,Pin_34*%
%TO.N,XT_RPi22*%
X224000000Y-240500000D03*
%TD*%
D28*
%TO.N,3v3*%
X315475735Y-207024265D03*
X232500000Y-153300000D03*
X359000000Y-241700000D03*
X294800000Y-150000000D03*
X163000000Y-104100000D03*
X163000000Y-100700000D03*
X315500000Y-210800000D03*
X235600000Y-153300000D03*
%TO.N,Net-(U2-I15)*%
X227900000Y-90400000D03*
X227900000Y-93700000D03*
%TO.N,Net-(U3-I6)*%
X282300000Y-170500000D03*
X288800000Y-170500000D03*
%TO.N,Net-(U3-I10)*%
X281100000Y-169300000D03*
X287600000Y-169300000D03*
%TO.N,Net-(U3-I11)*%
X255900000Y-172000000D03*
%TO.N,Net-(U3-I12)*%
X258400000Y-172000000D03*
%TO.N,Net-(U3-I13)*%
X261000000Y-172000000D03*
X215900000Y-227900000D03*
X213300000Y-230500000D03*
%TO.N,Net-(U3-I14)*%
X263500000Y-172000000D03*
%TO.N,Net-(U3-I15)*%
X263500000Y-225000000D03*
X266000000Y-172000000D03*
X241500000Y-225000000D03*
%TO.N,mux5_enable*%
X290000000Y-290400000D03*
X286000000Y-286400000D03*
X276150000Y-235900000D03*
X272000000Y-271000000D03*
%TO.N,mux3_enable*%
X294990000Y-255900000D03*
X292000000Y-238600000D03*
X295000000Y-251300000D03*
%TO.N,mux1_enable*%
X327200000Y-78500000D03*
X320500000Y-161500000D03*
X294000000Y-186527000D03*
X321000000Y-157400000D03*
X294000000Y-184981009D03*
X294000000Y-201900000D03*
X327200000Y-94000000D03*
X318500000Y-163500000D03*
%TO.N,sw_grain_playback*%
X293900000Y-234600000D03*
X292400000Y-220600000D03*
X287400000Y-215700000D03*
X289200000Y-217500000D03*
X316200000Y-243800000D03*
X335400000Y-267200000D03*
X335400000Y-281500000D03*
%TO.N,mux2_enable*%
X295000000Y-187400000D03*
X296400000Y-200300000D03*
X274600000Y-156751000D03*
X274585421Y-161912149D03*
%TO.N,mux4_enable*%
X276900000Y-233700000D03*
X273100000Y-237500000D03*
%TO.N,sw_eq2*%
X251100000Y-189700000D03*
X256800000Y-189700000D03*
%TO.N,mux_s0*%
X285100000Y-265700000D03*
X305987500Y-201912500D03*
X264600000Y-266000000D03*
X289000000Y-265200000D03*
X298800000Y-283000000D03*
X297530000Y-264500000D03*
X275200000Y-161400000D03*
X295900000Y-188200000D03*
X275300000Y-156100000D03*
X305400000Y-241000000D03*
X305424265Y-243324265D03*
%TO.N,mux_signal*%
X282600000Y-186527000D03*
X280975735Y-269975735D03*
X254500000Y-270000000D03*
X291600000Y-268065000D03*
X307690000Y-264600000D03*
X282600000Y-185000000D03*
X307600000Y-238800000D03*
X308900000Y-282900000D03*
X307600000Y-241800000D03*
X292000000Y-199300000D03*
%TO.N,sw_grain_type*%
X291300000Y-220500000D03*
X292900000Y-234700000D03*
X288200000Y-217500000D03*
X286400000Y-215700000D03*
X315050000Y-243750000D03*
X334100000Y-267200000D03*
X334100000Y-281472500D03*
%TO.N,mux_s2*%
X259500000Y-268000000D03*
X303900000Y-283000000D03*
X297800000Y-189700000D03*
X300670000Y-249800000D03*
X276600000Y-160400000D03*
X290300000Y-266700000D03*
X276500000Y-154900000D03*
X302610000Y-264500000D03*
X300500000Y-243700000D03*
X300975000Y-201825000D03*
X283400000Y-267500000D03*
%TO.N,mux_s1*%
X284200000Y-266600000D03*
X262000000Y-267000000D03*
X302924265Y-243700000D03*
X302924265Y-247300000D03*
X289700000Y-265900000D03*
X303450000Y-201750000D03*
X275900000Y-155500000D03*
X296800000Y-188900000D03*
X275900000Y-160900000D03*
X301300000Y-283000000D03*
X300070000Y-264500000D03*
%TO.N,sw_sub*%
X257400000Y-189100000D03*
X251700000Y-189100000D03*
%TO.N,mux_s3*%
X306400000Y-282900000D03*
X291000000Y-267400000D03*
X298700000Y-190500000D03*
X297800000Y-200300000D03*
X305150000Y-252500000D03*
X257000000Y-269000000D03*
X282500000Y-268400000D03*
X277200000Y-159754000D03*
X305150000Y-264600000D03*
X297800000Y-243700000D03*
X277065687Y-154334313D03*
%TO.N,sw_eq1*%
X256200000Y-190300000D03*
X250500000Y-190300000D03*
%TO.N,XT_RPi8*%
X233000000Y-250500000D03*
X235500000Y-248000000D03*
%TO.N,neopixel_data*%
X177900000Y-209000000D03*
X177900000Y-184600000D03*
X177900000Y-191200000D03*
%TO.N,XT_GND*%
X361700000Y-53500000D03*
X445625368Y-68500000D03*
X58500000Y-349000000D03*
X443000000Y-66000000D03*
X328700000Y-192500000D03*
X330700000Y-267900000D03*
X277500000Y-187100000D03*
X330700000Y-265100000D03*
%TO.N,XT_RPi_5v*%
X177100000Y-186100000D03*
X177000000Y-209000000D03*
X177000000Y-191200000D03*
%TO.N,sw_input_mode_RPi21*%
X184500000Y-209500000D03*
X213900000Y-237000000D03*
%TO.N,XT_RPi23*%
X213000000Y-238500000D03*
%TD*%
D29*
%TO.N,mux_s0*%
X264640000Y-265960000D02*
X264640000Y-243040000D01*
X264600000Y-266000000D02*
X264640000Y-265960000D01*
%TO.N,3v3*%
X437000000Y-34250000D02*
X437000000Y-37000000D01*
X220750000Y-348000000D02*
X223000000Y-350250000D01*
X179000000Y-229150000D02*
X179000000Y-249926346D01*
X89750000Y-97900000D02*
X92000000Y-100150000D01*
X356435113Y-54500000D02*
X354045113Y-56890000D01*
X227325000Y-154225000D02*
X225400000Y-156150000D01*
X307700000Y-156150000D02*
X307700000Y-152565074D01*
X334200000Y-347800000D02*
X366100000Y-347800000D01*
X112000000Y-128150000D02*
X112000000Y-136900000D01*
X247450000Y-393700000D02*
X246800000Y-393700000D01*
X440600000Y-189500000D02*
X443200000Y-192100000D01*
X367000000Y-350250000D02*
X367000000Y-348700000D01*
X406000000Y-187250000D02*
X406000000Y-188500000D01*
X369825000Y-299325000D02*
X371075000Y-298075000D01*
X442000000Y-38000000D02*
X444000000Y-40000000D01*
X53500000Y-319150000D02*
X53500000Y-349200000D01*
X323700000Y-192400000D02*
X316300000Y-199800000D01*
X390000000Y-79400000D02*
X390000000Y-102150000D01*
X102500000Y-205400000D02*
X120750000Y-187150000D01*
X437700000Y-347800000D02*
X438500000Y-348600000D01*
X398200000Y-347800000D02*
X399000000Y-348600000D01*
X228350000Y-311800000D02*
X209000000Y-311800000D01*
X211450000Y-393700000D02*
X210900000Y-393700000D01*
X335000000Y-348600000D02*
X335000000Y-350150000D01*
X135300000Y-393700000D02*
X137000000Y-392000000D01*
X309000000Y-297150000D02*
X309000000Y-288300000D01*
X225400000Y-102150000D02*
X227650000Y-104400000D01*
X324450000Y-393700000D02*
X324300000Y-393700000D01*
X421150000Y-63000000D02*
X441500000Y-63000000D01*
X294800000Y-150000000D02*
X300950000Y-156150000D01*
X210900000Y-393700000D02*
X246800000Y-393700000D01*
X240630000Y-149390000D02*
X236720000Y-153300000D01*
X243000000Y-297150000D02*
X214175000Y-268325000D01*
X366100000Y-347800000D02*
X398200000Y-347800000D01*
X337000000Y-65150000D02*
X340650000Y-61500000D01*
X410000000Y-132000000D02*
X390000000Y-152000000D01*
X314000000Y-264600000D02*
X315600000Y-266200000D01*
X102500000Y-353150000D02*
X100150000Y-350800000D01*
X101000000Y-291500000D02*
X99755113Y-291500000D01*
X44000000Y-206650000D02*
X53500000Y-216150000D01*
X378000000Y-55500000D02*
X377000000Y-54500000D01*
X288415074Y-297150000D02*
X309000000Y-297150000D01*
X147000000Y-263150000D02*
X147000000Y-267150000D01*
X109100000Y-284300000D02*
X108000000Y-283200000D01*
X288450000Y-393700000D02*
X287400000Y-393700000D01*
X246650000Y-226500000D02*
X315200000Y-226500000D01*
X292450000Y-259885000D02*
X295715000Y-263150000D01*
X251520000Y-235000000D02*
X249850000Y-235000000D01*
X386950000Y-99100000D02*
X390000000Y-102150000D01*
X275000000Y-314150000D02*
X260000000Y-314150000D01*
X327700000Y-129150000D02*
X307700000Y-109150000D01*
X112000000Y-136900000D02*
X109800000Y-139100000D01*
X163000000Y-129150000D02*
X163000000Y-104100000D01*
X260000000Y-314150000D02*
X243000000Y-297150000D01*
X388050000Y-313000000D02*
X437350000Y-313000000D01*
X315500000Y-200600000D02*
X316300000Y-199800000D01*
X395700000Y-266200000D02*
X426100000Y-266200000D01*
X100150000Y-350800000D02*
X100800000Y-350150000D01*
X395700000Y-266200000D02*
X395950000Y-266200000D01*
X141150000Y-316000000D02*
X104000000Y-316000000D01*
X402100000Y-226500000D02*
X401650000Y-226500000D01*
X147000000Y-350150000D02*
X149150000Y-348000000D01*
X323700000Y-187150000D02*
X323700000Y-192400000D01*
X311175000Y-299325000D02*
X369825000Y-299325000D01*
X363000000Y-391150000D02*
X360450000Y-393700000D01*
X295715000Y-263150000D02*
X314000000Y-263150000D01*
X180850000Y-348000000D02*
X220750000Y-348000000D01*
X360450000Y-393700000D02*
X360100000Y-393700000D01*
X315500000Y-210800000D02*
X315500000Y-226200000D01*
X431000000Y-225400000D02*
X431000000Y-229250000D01*
X307970000Y-191470000D02*
X307970000Y-195110000D01*
X55000000Y-350800000D02*
X53500000Y-349300000D01*
X102500000Y-216150000D02*
X102500000Y-205400000D01*
X51550000Y-128150000D02*
X44000000Y-135700000D01*
X437000000Y-37000000D02*
X438000000Y-38000000D01*
X377000000Y-54500000D02*
X356435113Y-54500000D01*
X143000000Y-143300000D02*
X138800000Y-139100000D01*
X120750000Y-187150000D02*
X159000000Y-187150000D01*
X55000000Y-350800000D02*
X100150000Y-350800000D01*
X429900000Y-226500000D02*
X402100000Y-226500000D01*
X315500000Y-207000000D02*
X315500000Y-200600000D01*
X245400000Y-129150000D02*
X245400000Y-132800000D01*
X410000000Y-129150000D02*
X410000000Y-132000000D01*
X44000000Y-100150000D02*
X44000000Y-135700000D01*
X102500000Y-293000000D02*
X101000000Y-291500000D01*
X315200000Y-226500000D02*
X362100000Y-226500000D01*
X435950000Y-393700000D02*
X438500000Y-391150000D01*
X53500000Y-216150000D02*
X53500000Y-251150000D01*
X287400000Y-393700000D02*
X324300000Y-393700000D01*
X102500000Y-251150000D02*
X102500000Y-285150000D01*
X232500000Y-153300000D02*
X228250000Y-153300000D01*
X321100000Y-268200000D02*
X319100000Y-266200000D01*
X212000000Y-266150000D02*
X212000000Y-263150000D01*
X315475735Y-207024265D02*
X315500000Y-207000000D01*
X390000000Y-102150000D02*
X390000000Y-103900000D01*
X209000000Y-311800000D02*
X206650000Y-311800000D01*
X354045113Y-56890000D02*
X374435113Y-36500000D01*
X291000000Y-391150000D02*
X288450000Y-393700000D01*
X438000000Y-38000000D02*
X442000000Y-38000000D01*
X307970000Y-197770000D02*
X307970000Y-195110000D01*
X102500000Y-317500000D02*
X102500000Y-319250000D01*
X309000000Y-297150000D02*
X311175000Y-299325000D01*
X53500000Y-251150000D02*
X53500000Y-285150000D01*
X390000000Y-103900000D02*
X390900000Y-104800000D01*
X191650000Y-311800000D02*
X177000000Y-297150000D01*
X53500000Y-353150000D02*
X53500000Y-387150000D01*
X437350000Y-313000000D02*
X438500000Y-314150000D01*
X309830000Y-352490000D02*
X314520000Y-347800000D01*
X137000000Y-392000000D02*
X137000000Y-391250000D01*
X175550000Y-393700000D02*
X174800000Y-393700000D01*
X324300000Y-393700000D02*
X360100000Y-393700000D01*
X378000000Y-67400000D02*
X390000000Y-79400000D01*
X390000000Y-152000000D02*
X390000000Y-156150000D01*
X378000000Y-65150000D02*
X378000000Y-67400000D01*
X268035448Y-185927000D02*
X302427000Y-185927000D01*
X243000000Y-297150000D02*
X228350000Y-311800000D01*
X327000000Y-391150000D02*
X324450000Y-393700000D01*
X265612448Y-188350000D02*
X268035448Y-185927000D01*
X279850000Y-265000000D02*
X287335000Y-265000000D01*
X99755113Y-291500000D02*
X104200000Y-291500000D01*
X398500000Y-36000000D02*
X398500000Y-34150000D01*
X307700000Y-152565074D02*
X327700000Y-132565074D01*
X245400000Y-132800000D02*
X232100000Y-146100000D01*
X443200000Y-192100000D02*
X443200000Y-213200000D01*
X44000000Y-100150000D02*
X46250000Y-97900000D01*
X53500000Y-387150000D02*
X53500000Y-388250000D01*
X92000000Y-156250000D02*
X92000000Y-152665074D01*
X437000000Y-34250000D02*
X434750000Y-36500000D01*
X138800000Y-139100000D02*
X156400000Y-139100000D01*
X314520000Y-347800000D02*
X334200000Y-347800000D01*
X53500000Y-388250000D02*
X58950000Y-393700000D01*
X163000000Y-132500000D02*
X163000000Y-129150000D01*
X163000000Y-100700000D02*
X160200000Y-97900000D01*
X232100000Y-146100000D02*
X229000000Y-146100000D01*
X287335000Y-265000000D02*
X292450000Y-259885000D01*
X138750000Y-97900000D02*
X143000000Y-102150000D01*
X246650000Y-226500000D02*
X244000000Y-229150000D01*
X349435113Y-61500000D02*
X354045113Y-56890000D01*
X195523654Y-266450000D02*
X212300000Y-266450000D01*
X156400000Y-139100000D02*
X163000000Y-132500000D01*
X360100000Y-393700000D02*
X395900000Y-393700000D01*
X209000000Y-311800000D02*
X191650000Y-311800000D01*
X143000000Y-314150000D02*
X141150000Y-316000000D01*
X310750000Y-99100000D02*
X386950000Y-99100000D01*
X438500000Y-314150000D02*
X438500000Y-350150000D01*
X402100000Y-226500000D02*
X362100000Y-226500000D01*
X102500000Y-216150000D02*
X102500000Y-251150000D01*
X109100000Y-286600000D02*
X109100000Y-284300000D01*
X275000000Y-310565074D02*
X288415074Y-297150000D01*
X372000000Y-297150000D02*
X371075000Y-298075000D01*
X102500000Y-319250000D02*
X102500000Y-293000000D01*
X387375000Y-312325000D02*
X339825000Y-312325000D01*
X362100000Y-226500000D02*
X361750000Y-226500000D01*
X319100000Y-266200000D02*
X355700000Y-266200000D01*
X355700000Y-266200000D02*
X355950000Y-266200000D01*
X53500000Y-349200000D02*
X53500000Y-353150000D01*
X315600000Y-200500000D02*
X310700000Y-200500000D01*
X160200000Y-97900000D02*
X138750000Y-97900000D01*
X229000000Y-146100000D02*
X227325000Y-147775000D01*
X275000000Y-314150000D02*
X275000000Y-310565074D01*
X340650000Y-61500000D02*
X349435113Y-61500000D01*
X244000000Y-104400000D02*
X247000000Y-107400000D01*
X426100000Y-266200000D02*
X438500000Y-278600000D01*
X355950000Y-266200000D02*
X359000000Y-263150000D01*
X104200000Y-291500000D02*
X109100000Y-286600000D01*
X400500000Y-36500000D02*
X399000000Y-36500000D01*
X378000000Y-65150000D02*
X378000000Y-55500000D01*
X399000000Y-391150000D02*
X396450000Y-393700000D01*
X214000000Y-391150000D02*
X211450000Y-393700000D01*
X399000000Y-348600000D02*
X399000000Y-350150000D01*
X399000000Y-36500000D02*
X398500000Y-36000000D01*
X302427000Y-185927000D02*
X307970000Y-191470000D01*
X315600000Y-266200000D02*
X319100000Y-266200000D01*
X395900000Y-393700000D02*
X435950000Y-393700000D01*
X44000000Y-156150000D02*
X44000000Y-206650000D01*
X179000000Y-249926346D02*
X195523654Y-266450000D01*
X444000000Y-191300000D02*
X443200000Y-192100000D01*
X438500000Y-278600000D02*
X438500000Y-314150000D01*
X314000000Y-229150000D02*
X314000000Y-227700000D01*
X407000000Y-189500000D02*
X440600000Y-189500000D01*
X374435113Y-36500000D02*
X400500000Y-36500000D01*
X339825000Y-312325000D02*
X338000000Y-314150000D01*
X256700000Y-348000000D02*
X256850000Y-348000000D01*
X96550000Y-393700000D02*
X99100000Y-391150000D01*
X419000000Y-65150000D02*
X421150000Y-63000000D01*
X394800000Y-104800000D02*
X410000000Y-120000000D01*
X149150000Y-348000000D02*
X180850000Y-348000000D01*
X90280000Y-291500000D02*
X99755113Y-291500000D01*
X410000000Y-120000000D02*
X410000000Y-129150000D01*
X228250000Y-153300000D02*
X227325000Y-154225000D01*
X395950000Y-266200000D02*
X399000000Y-263150000D01*
X89750000Y-97900000D02*
X138750000Y-97900000D01*
X438500000Y-348600000D02*
X438500000Y-350150000D01*
X227650000Y-104400000D02*
X244000000Y-104400000D01*
X242500000Y-188350000D02*
X265612448Y-188350000D01*
X227325000Y-147775000D02*
X227325000Y-154225000D01*
X146750000Y-310400000D02*
X143000000Y-314150000D01*
X241300000Y-187150000D02*
X242500000Y-188350000D01*
X387375000Y-312325000D02*
X388050000Y-313000000D01*
X307700000Y-109150000D02*
X307700000Y-102150000D01*
X278000000Y-263150000D02*
X279850000Y-265000000D01*
X46250000Y-97900000D02*
X89750000Y-97900000D01*
X147000000Y-267150000D02*
X177000000Y-297150000D01*
X367000000Y-348700000D02*
X366100000Y-347800000D01*
X92000000Y-152665074D02*
X105565074Y-139100000D01*
X53500000Y-349300000D02*
X53500000Y-349200000D01*
X220750000Y-348000000D02*
X256700000Y-348000000D01*
X390900000Y-104800000D02*
X394800000Y-104800000D01*
X398200000Y-347800000D02*
X437700000Y-347800000D01*
X44000000Y-135700000D02*
X44000000Y-156150000D01*
X104000000Y-316000000D02*
X102500000Y-317500000D01*
X334200000Y-347800000D02*
X335000000Y-348600000D01*
X434750000Y-36500000D02*
X400500000Y-36500000D01*
X214175000Y-268325000D02*
X212000000Y-266150000D01*
X250000000Y-391150000D02*
X247450000Y-393700000D01*
X321100000Y-276200000D02*
X321100000Y-268200000D01*
X257020000Y-240500000D02*
X251520000Y-235000000D01*
X315500000Y-226200000D02*
X315200000Y-226500000D01*
X177000000Y-297150000D02*
X163750000Y-310400000D01*
X310700000Y-200500000D02*
X307970000Y-197770000D01*
X58950000Y-393700000D02*
X135300000Y-393700000D01*
X307700000Y-102150000D02*
X310750000Y-99100000D01*
X406000000Y-188500000D02*
X407000000Y-189500000D01*
X361750000Y-226500000D02*
X359000000Y-229250000D01*
X314000000Y-263150000D02*
X314000000Y-264600000D01*
X441500000Y-63000000D02*
X444000000Y-65500000D01*
X212300000Y-266450000D02*
X214175000Y-268325000D01*
X444000000Y-40000000D02*
X444000000Y-65500000D01*
X355700000Y-266200000D02*
X395700000Y-266200000D01*
X109800000Y-139100000D02*
X138800000Y-139100000D01*
X256850000Y-348000000D02*
X259000000Y-350150000D01*
X292850000Y-348000000D02*
X295000000Y-350150000D01*
X108000000Y-283200000D02*
X104450000Y-283200000D01*
X247000000Y-107400000D02*
X247000000Y-123700000D01*
X64000000Y-128150000D02*
X51550000Y-128150000D01*
X206650000Y-311800000D02*
X209000000Y-314150000D01*
X246800000Y-393700000D02*
X287400000Y-393700000D01*
X444000000Y-65500000D02*
X444000000Y-191300000D01*
X96500000Y-393700000D02*
X96550000Y-393700000D01*
X431000000Y-225400000D02*
X429900000Y-226500000D01*
X314000000Y-227700000D02*
X315200000Y-226500000D01*
X105565074Y-139100000D02*
X109800000Y-139100000D01*
X53500000Y-319150000D02*
X53500000Y-285150000D01*
X236720000Y-153300000D02*
X235600000Y-153300000D01*
X327700000Y-132565074D02*
X327700000Y-129150000D01*
X90240000Y-291460000D02*
X90280000Y-291500000D01*
X443200000Y-213200000D02*
X431000000Y-225400000D01*
X359000000Y-241700000D02*
X359000000Y-263150000D01*
X249850000Y-235000000D02*
X244000000Y-229150000D01*
X174800000Y-393700000D02*
X210900000Y-393700000D01*
X178000000Y-391250000D02*
X175550000Y-393700000D01*
X163750000Y-310400000D02*
X146750000Y-310400000D01*
X316300000Y-199800000D02*
X315600000Y-200500000D01*
X143000000Y-156130000D02*
X143000000Y-143300000D01*
X100800000Y-350150000D02*
X147000000Y-350150000D01*
X104450000Y-283200000D02*
X102500000Y-285150000D01*
X396450000Y-393700000D02*
X395900000Y-393700000D01*
X180850000Y-348000000D02*
X183000000Y-350150000D01*
X245400000Y-125300000D02*
X245400000Y-129150000D01*
X135300000Y-393700000D02*
X174800000Y-393700000D01*
X300950000Y-156150000D02*
X307700000Y-156150000D01*
X247000000Y-123700000D02*
X245400000Y-125300000D01*
X256700000Y-348000000D02*
X292850000Y-348000000D01*
X401650000Y-226500000D02*
X399000000Y-229150000D01*
X309000000Y-288300000D02*
X321100000Y-276200000D01*
D30*
%TO.N,Net-(U2-I15)*%
X227900000Y-93700000D02*
X227900000Y-90400000D01*
D29*
%TO.N,Net-(U3-I6)*%
X288800000Y-170500000D02*
X282300000Y-170500000D01*
%TO.N,Net-(U3-I10)*%
X281100000Y-169300000D02*
X287600000Y-169300000D01*
D30*
%TO.N,Net-(U3-I11)*%
X255870000Y-164630000D02*
X255900000Y-164660000D01*
X255900000Y-164660000D02*
X255900000Y-172000000D01*
D29*
%TO.N,Net-(U3-I12)*%
X258400000Y-164640000D02*
X258400000Y-172000000D01*
X258410000Y-164630000D02*
X258400000Y-164640000D01*
%TO.N,Net-(U3-I13)*%
X260950000Y-164630000D02*
X261000000Y-164680000D01*
X213300000Y-230500000D02*
X215900000Y-227900000D01*
X261000000Y-164680000D02*
X261000000Y-172000000D01*
%TO.N,Net-(U3-I14)*%
X263500000Y-164640000D02*
X263500000Y-172000000D01*
X263490000Y-164630000D02*
X263500000Y-164640000D01*
%TO.N,Net-(U3-I15)*%
X266000000Y-164660000D02*
X266000000Y-172000000D01*
X266030000Y-164630000D02*
X266000000Y-164660000D01*
X241500000Y-225000000D02*
X263500000Y-225000000D01*
%TO.N,mux5_enable*%
X272000000Y-271000000D02*
X272000000Y-240050000D01*
X290000000Y-290400000D02*
X286000000Y-286400000D01*
X272000000Y-240050000D02*
X276150000Y-235900000D01*
%TO.N,sampler_4*%
X270000000Y-208000000D02*
X270060000Y-208000000D01*
X270060000Y-208000000D02*
X272410000Y-210350000D01*
X257362656Y-207000000D02*
X269000000Y-207000000D01*
X216800000Y-87000000D02*
X216800000Y-166437344D01*
X269000000Y-207000000D02*
X270000000Y-208000000D01*
X216800000Y-166437344D02*
X257362656Y-207000000D01*
%TO.N,samlper_5*%
X214800000Y-87000000D02*
X214800000Y-164899792D01*
X214800000Y-164899792D02*
X257246208Y-207346000D01*
X266866000Y-207346000D02*
X269870000Y-210350000D01*
X257246208Y-207346000D02*
X266866000Y-207346000D01*
%TO.N,sampler_10*%
X204800000Y-87000000D02*
X204800000Y-157212032D01*
X257170000Y-209582032D02*
X257170000Y-210350000D01*
X204800000Y-157212032D02*
X257170000Y-209582032D01*
%TO.N,sampler_1*%
X278220000Y-206000000D02*
X282570000Y-210350000D01*
X257750000Y-206000000D02*
X278220000Y-206000000D01*
X221700000Y-169950000D02*
X257750000Y-206000000D01*
X222800000Y-87000000D02*
X221700000Y-88100000D01*
X221700000Y-88100000D02*
X221700000Y-169950000D01*
%TO.N,sampler_9*%
X258060000Y-208700000D02*
X259710000Y-210350000D01*
X256750416Y-208700000D02*
X258060000Y-208700000D01*
X206800000Y-87000000D02*
X206800000Y-158749584D01*
X206800000Y-158749584D02*
X256750416Y-208700000D01*
%TO.N,mux3_enable*%
X294990000Y-255900000D02*
X294990000Y-259885000D01*
X295000000Y-241600000D02*
X295000000Y-251300000D01*
X292000000Y-238600000D02*
X295000000Y-241600000D01*
%TO.N,mux1_enable*%
X327200000Y-78500000D02*
X327200000Y-94000000D01*
X294000000Y-201900000D02*
X294000000Y-186527000D01*
X308900000Y-163500000D02*
X318500000Y-163500000D01*
X321000000Y-157400000D02*
X321000000Y-161000000D01*
X294000000Y-178400000D02*
X308900000Y-163500000D01*
X294000000Y-184981009D02*
X294000000Y-178400000D01*
X321000000Y-161000000D02*
X320500000Y-161500000D01*
%TO.N,sampler_11*%
X202800000Y-87000000D02*
X202800000Y-155674480D01*
X254630000Y-207504480D02*
X254630000Y-210350000D01*
X202800000Y-155674480D02*
X254630000Y-207504480D01*
%TO.N,sw_grain_playback*%
X307000000Y-234600000D02*
X293900000Y-234600000D01*
X287400000Y-214200000D02*
X286300000Y-213100000D01*
X286300000Y-213100000D02*
X286300000Y-209600000D01*
X283060000Y-208300000D02*
X269870000Y-195110000D01*
X316200000Y-243800000D02*
X307000000Y-234600000D01*
X287400000Y-215700000D02*
X287400000Y-214200000D01*
X335400000Y-281500000D02*
X335400000Y-267200000D01*
X285000000Y-208300000D02*
X283060000Y-208300000D01*
X292400000Y-220600000D02*
X289300000Y-217500000D01*
X286300000Y-209600000D02*
X285000000Y-208300000D01*
X289300000Y-217500000D02*
X289200000Y-217500000D01*
%TO.N,mux2_enable*%
X274600000Y-161897570D02*
X274585421Y-161912149D01*
X274600000Y-156751000D02*
X274600000Y-161897570D01*
X296402500Y-200297500D02*
X296400000Y-200300000D01*
X296402500Y-189902500D02*
X296402500Y-200297500D01*
X295000000Y-188500000D02*
X296402500Y-189902500D01*
X295000000Y-187400000D02*
X295000000Y-188500000D01*
%TO.N,mux4_enable*%
X273100000Y-237500000D02*
X276900000Y-233700000D01*
%TO.N,sampler_6*%
X264653000Y-207673000D02*
X267330000Y-210350000D01*
X257110760Y-207673000D02*
X264653000Y-207673000D01*
X212800000Y-163362240D02*
X257110760Y-207673000D01*
X212800000Y-87000000D02*
X212800000Y-163362240D01*
%TO.N,sw_eq2*%
X256800000Y-189700000D02*
X251100000Y-189700000D01*
%TO.N,mux_s0*%
X306562500Y-191562500D02*
X303100000Y-188100000D01*
X305400000Y-243300000D02*
X305424265Y-243324265D01*
X285100000Y-265700000D02*
X287100000Y-265700000D01*
X323900000Y-68000000D02*
X245710000Y-146190000D01*
X359125113Y-56890000D02*
X359125113Y-63174887D01*
X359125113Y-63174887D02*
X354300000Y-68000000D01*
X298769800Y-265739800D02*
X298769800Y-282969800D01*
X275200000Y-156200000D02*
X275300000Y-156100000D01*
X245710000Y-146190000D02*
X245710000Y-149390000D01*
X305400000Y-241000000D02*
X305400000Y-243300000D01*
X298769800Y-282969800D02*
X298800000Y-283000000D01*
X354300000Y-68000000D02*
X323900000Y-68000000D01*
X275200000Y-161400000D02*
X275200000Y-156200000D01*
X287600000Y-265200000D02*
X289000000Y-265200000D01*
X287100000Y-265700000D02*
X287600000Y-265200000D01*
X306562500Y-201337500D02*
X306562500Y-191562500D01*
X297530000Y-264500000D02*
X298769800Y-265739800D01*
X303100000Y-188100000D02*
X296000000Y-188100000D01*
X305987500Y-201912500D02*
X306562500Y-201337500D01*
X296000000Y-188100000D02*
X295900000Y-188200000D01*
%TO.N,mux_signal*%
X286659896Y-268065000D02*
X291600000Y-268065000D01*
X308929800Y-282870200D02*
X308900000Y-282900000D01*
X255870000Y-137879792D02*
X323749792Y-70000000D01*
X254500000Y-253400000D02*
X254480000Y-253380000D01*
X286760000Y-199300000D02*
X282570000Y-195110000D01*
X307690000Y-264600000D02*
X308929800Y-265839800D01*
X307600000Y-241800000D02*
X307600000Y-238800000D01*
X362600000Y-70000000D02*
X369285113Y-63314887D01*
X254500000Y-270000000D02*
X254500000Y-253400000D01*
X292000000Y-199300000D02*
X286760000Y-199300000D01*
X282570000Y-186557000D02*
X282570000Y-195110000D01*
X282600000Y-186527000D02*
X282570000Y-186557000D01*
X308929800Y-265839800D02*
X308929800Y-282870200D01*
X323749792Y-70000000D02*
X362600000Y-70000000D01*
X369285113Y-63314887D02*
X369285113Y-56890000D01*
X254480000Y-253380000D02*
X254480000Y-243040000D01*
X255870000Y-149390000D02*
X255870000Y-137879792D01*
X281000000Y-270000000D02*
X284724896Y-270000000D01*
X280975735Y-269975735D02*
X281000000Y-270000000D01*
X282600000Y-176120000D02*
X255870000Y-149390000D01*
X284724896Y-270000000D02*
X286659896Y-268065000D01*
X282600000Y-185000000D02*
X282600000Y-176120000D01*
%TO.N,sampler_3*%
X274950000Y-209950000D02*
X271673000Y-206673000D01*
X218800000Y-167974896D02*
X218800000Y-87000000D01*
X271673000Y-206673000D02*
X257498104Y-206673000D01*
X257498104Y-206673000D02*
X218800000Y-167974896D01*
X274950000Y-210350000D02*
X274950000Y-209950000D01*
%TO.N,sw_grain_type*%
X291200000Y-220500000D02*
X291300000Y-220500000D01*
X288200000Y-217500000D02*
X291200000Y-220500000D01*
X293700000Y-235500000D02*
X306700000Y-235500000D01*
X267230000Y-195010000D02*
X269220000Y-197000000D01*
X306700000Y-235500000D02*
X314950000Y-243750000D01*
X334100000Y-267200000D02*
X334100000Y-281472500D01*
X283800000Y-209800000D02*
X283800000Y-213100000D01*
X269220000Y-197000000D02*
X271000000Y-197000000D01*
X271000000Y-197000000D02*
X283800000Y-209800000D01*
X314950000Y-243750000D02*
X315050000Y-243750000D01*
X292900000Y-234700000D02*
X293700000Y-235500000D01*
X283800000Y-213100000D02*
X286400000Y-215700000D01*
%TO.N,mux_s2*%
X300975000Y-201825000D02*
X301600000Y-201200000D01*
X287100000Y-266700000D02*
X290300000Y-266700000D01*
X250790000Y-142034896D02*
X250790000Y-149390000D01*
X259500000Y-243100000D02*
X259560000Y-243040000D01*
X259500000Y-268000000D02*
X259500000Y-243100000D01*
X303900000Y-265790000D02*
X303900000Y-283000000D01*
X323824896Y-69000000D02*
X250790000Y-142034896D01*
X283400000Y-267500000D02*
X286300000Y-267500000D01*
X300700000Y-243900000D02*
X300500000Y-243700000D01*
X300848529Y-189700000D02*
X297800000Y-189700000D01*
X300700000Y-249770000D02*
X300700000Y-243900000D01*
X286300000Y-267500000D02*
X287100000Y-266700000D01*
D30*
X276572000Y-160372000D02*
X276572000Y-154972000D01*
D29*
X300670000Y-249800000D02*
X300700000Y-249770000D01*
D30*
X276572000Y-154972000D02*
X276500000Y-154900000D01*
D29*
X358300000Y-69000000D02*
X323824896Y-69000000D01*
X364205113Y-56890000D02*
X364205113Y-63094887D01*
D30*
X276600000Y-160400000D02*
X276572000Y-160372000D01*
D29*
X301600000Y-190451471D02*
X300848529Y-189700000D01*
X302610000Y-264500000D02*
X303900000Y-265790000D01*
X364205113Y-63094887D02*
X358300000Y-69000000D01*
X301600000Y-201200000D02*
X301600000Y-190451471D01*
%TO.N,mux_s1*%
X301400000Y-188900000D02*
X296800000Y-188900000D01*
X300100000Y-264500000D02*
X301309800Y-265709800D01*
X304100000Y-191600000D02*
X301400000Y-188900000D01*
X301309800Y-265709800D02*
X301309800Y-282990200D01*
X356300000Y-68500000D02*
X361665113Y-63134887D01*
X361665113Y-63134887D02*
X361665113Y-56890000D01*
X323862448Y-68500000D02*
X356300000Y-68500000D01*
X300070000Y-264500000D02*
X300100000Y-264500000D01*
X248250000Y-149390000D02*
X248250000Y-144112448D01*
X275900000Y-160900000D02*
X275900000Y-155500000D01*
X262000000Y-243140000D02*
X262100000Y-243040000D01*
X286700000Y-266600000D02*
X284200000Y-266600000D01*
X304100000Y-201100000D02*
X304100000Y-191600000D01*
X302924265Y-243700000D02*
X302924265Y-247300000D01*
X303450000Y-201750000D02*
X304100000Y-201100000D01*
X289700000Y-265900000D02*
X287400000Y-265900000D01*
X248250000Y-144112448D02*
X323862448Y-68500000D01*
X287400000Y-265900000D02*
X286700000Y-266600000D01*
X301309800Y-282990200D02*
X301300000Y-283000000D01*
X262000000Y-267000000D02*
X262000000Y-243140000D01*
%TO.N,sw_sub*%
X257400000Y-189100000D02*
X251700000Y-189100000D01*
%TO.N,sampler_2*%
X220800000Y-169512448D02*
X257633552Y-206346000D01*
X276026000Y-206346000D02*
X280030000Y-210350000D01*
X257633552Y-206346000D02*
X276026000Y-206346000D01*
X220800000Y-87000000D02*
X220800000Y-169512448D01*
%TO.N,sampler_7*%
X262440000Y-208000000D02*
X264790000Y-210350000D01*
X210800000Y-87000000D02*
X210800000Y-161824688D01*
X256975312Y-208000000D02*
X262440000Y-208000000D01*
X210800000Y-161824688D02*
X256975312Y-208000000D01*
%TO.N,mux_s3*%
X305150000Y-264600000D02*
X306400000Y-265850000D01*
X277065687Y-154334313D02*
X277200000Y-154468626D01*
X285862448Y-268400000D02*
X286862448Y-267400000D01*
X277200000Y-154468626D02*
X277200000Y-159754000D01*
X360600000Y-69500000D02*
X366745113Y-63354887D01*
X253330000Y-149390000D02*
X253330000Y-139957344D01*
X299600000Y-251800000D02*
X297800000Y-250000000D01*
X323787344Y-69500000D02*
X360600000Y-69500000D01*
X253330000Y-139957344D02*
X323787344Y-69500000D01*
X298700000Y-190500000D02*
X299100000Y-190900000D01*
X305150000Y-252500000D02*
X304450000Y-251800000D01*
X299100000Y-190900000D02*
X299100000Y-199000000D01*
X257000000Y-243060000D02*
X257020000Y-243040000D01*
X299100000Y-199000000D02*
X297800000Y-200300000D01*
X306400000Y-265850000D02*
X306400000Y-282900000D01*
X304450000Y-251800000D02*
X299600000Y-251800000D01*
X366745113Y-63354887D02*
X366745113Y-56890000D01*
X282500000Y-268400000D02*
X285862448Y-268400000D01*
X297800000Y-250000000D02*
X297800000Y-243700000D01*
X257000000Y-269000000D02*
X257000000Y-243060000D01*
X286862448Y-267400000D02*
X291000000Y-267400000D01*
%TO.N,sampler_8*%
X260227000Y-208327000D02*
X262250000Y-210350000D01*
X208800000Y-160287136D02*
X256839864Y-208327000D01*
X208800000Y-87000000D02*
X208800000Y-160287136D01*
X256839864Y-208327000D02*
X260227000Y-208327000D01*
%TO.N,sw_eq1*%
X256200000Y-190300000D02*
X250500000Y-190300000D01*
%TO.N,XT_RPi8*%
X233000000Y-250500000D02*
X235500000Y-248000000D01*
%TO.N,neopixel_data*%
X180200000Y-211300000D02*
X180200000Y-234020000D01*
X177900000Y-184600000D02*
X177900000Y-191200000D01*
X177900000Y-209000000D02*
X180200000Y-211300000D01*
X180200000Y-234020000D02*
X196000000Y-249820000D01*
%TO.N,XT_RPi29*%
X197390000Y-238510000D02*
X207087552Y-238510000D01*
X213077552Y-244500000D02*
X240320000Y-244500000D01*
X196000000Y-237120000D02*
X197390000Y-238510000D01*
X207087552Y-238510000D02*
X213077552Y-244500000D01*
X240320000Y-244500000D02*
X241780000Y-243040000D01*
%TO.N,XT_RPi31*%
X212942104Y-244827000D02*
X242533000Y-244827000D01*
X194850000Y-235730000D02*
X194850000Y-240350000D01*
X242533000Y-244827000D02*
X244320000Y-243040000D01*
X194850000Y-240350000D02*
X195550000Y-241050000D01*
X195550000Y-241050000D02*
X209165104Y-241050000D01*
X196000000Y-234580000D02*
X194850000Y-235730000D01*
X209165104Y-241050000D02*
X212942104Y-244827000D01*
%TO.N,XT_RPi32*%
X195523654Y-233430000D02*
X194500000Y-234453654D01*
X198540000Y-234580000D02*
X197390000Y-233430000D01*
X244400000Y-245500000D02*
X246860000Y-243040000D01*
X197390000Y-233430000D02*
X195523654Y-233430000D01*
X211152656Y-243500000D02*
X213152656Y-245500000D01*
X195500000Y-243500000D02*
X211152656Y-243500000D01*
X194500000Y-242500000D02*
X195500000Y-243500000D01*
X213152656Y-245500000D02*
X244400000Y-245500000D01*
X194500000Y-234453654D02*
X194500000Y-242500000D01*
%TO.N,XT_RPi33*%
X195523654Y-245890000D02*
X194173000Y-244539346D01*
X249400000Y-243040000D02*
X246550000Y-245890000D01*
X246550000Y-245890000D02*
X195523654Y-245890000D01*
X194173000Y-233867000D02*
X196000000Y-232040000D01*
X194173000Y-244539346D02*
X194173000Y-233867000D01*
%TO.N,XT_RPi36*%
X198540000Y-229500000D02*
X210690000Y-241650000D01*
X210690000Y-241650000D02*
X250550000Y-241650000D01*
X250550000Y-241650000D02*
X251940000Y-243040000D01*
%TO.N,XT_RPi37*%
X231200000Y-235000000D02*
X236700000Y-240500000D01*
X196000000Y-226960000D02*
X197150000Y-228110000D01*
X216951471Y-235000000D02*
X231200000Y-235000000D01*
X210061471Y-228110000D02*
X216951471Y-235000000D01*
X197150000Y-228110000D02*
X210061471Y-228110000D01*
%TO.N,XT_GND*%
X398500000Y-310700000D02*
X402500000Y-310700000D01*
X91500000Y-105400000D02*
X91750000Y-105400000D01*
X443500000Y-314150000D02*
X443500000Y-350150000D01*
X436000000Y-229250000D02*
X445625368Y-219624632D01*
X361700000Y-53500000D02*
X382000000Y-53500000D01*
X284855113Y-316600000D02*
X307290000Y-339034886D01*
X105050000Y-321700000D02*
X93500000Y-321700000D01*
X415000000Y-119200000D02*
X397950000Y-102150000D01*
X195300000Y-351900000D02*
X236100000Y-351900000D01*
X216600000Y-389100000D02*
X252950000Y-389100000D01*
X107500000Y-353150000D02*
X152500000Y-353150000D01*
X152000000Y-263150000D02*
X152000000Y-270534926D01*
X264000000Y-350150000D02*
X265750000Y-351900000D01*
X356200000Y-179700000D02*
X361000000Y-184500000D01*
X51900000Y-164700000D02*
X49000000Y-161800000D01*
X401600000Y-389100000D02*
X441450000Y-389100000D01*
X441750000Y-351900000D02*
X443500000Y-350150000D01*
X281600000Y-316600000D02*
X284855113Y-316600000D01*
X248800000Y-107400000D02*
X248800000Y-123800000D01*
X164000000Y-203925000D02*
X146225000Y-221700000D01*
X148000000Y-160200000D02*
X164000000Y-176200000D01*
X442150000Y-65150000D02*
X424000000Y-65150000D01*
X238455113Y-141094887D02*
X250400000Y-129150000D01*
X58500000Y-387150000D02*
X58500000Y-353150000D01*
X197750000Y-222670000D02*
X196000000Y-224420000D01*
X248000000Y-292400000D02*
X248000000Y-295300000D01*
X211850000Y-316300000D02*
X214000000Y-314150000D01*
X102050000Y-389100000D02*
X104100000Y-391150000D01*
X139850000Y-389100000D02*
X142000000Y-391250000D01*
X281100000Y-185600000D02*
X327150000Y-185600000D01*
X445625368Y-39625368D02*
X442000000Y-36000000D01*
X49000000Y-161800000D02*
X49000000Y-156150000D01*
X342600000Y-351900000D02*
X376100000Y-351900000D01*
X314000000Y-297150000D02*
X316350000Y-294800000D01*
X293600000Y-389100000D02*
X329950000Y-389100000D01*
X69000000Y-107500000D02*
X69000000Y-107400000D01*
X365950000Y-389100000D02*
X401600000Y-389100000D01*
X88300000Y-290860000D02*
X88300000Y-319700000D01*
X103494887Y-289155113D02*
X107500000Y-285150000D01*
X149250000Y-260400000D02*
X152000000Y-263150000D01*
X308500000Y-354000000D02*
X340500000Y-354000000D01*
X338100000Y-60800000D02*
X347595113Y-60800000D01*
X339350000Y-187150000D02*
X346800000Y-179700000D01*
X58500000Y-285150000D02*
X58500000Y-319150000D01*
X58500000Y-211400000D02*
X49000000Y-201900000D01*
X265350000Y-187150000D02*
X268000000Y-184500000D01*
X415000000Y-129150000D02*
X415000000Y-119200000D01*
X384950000Y-297150000D02*
X398500000Y-310700000D01*
X195523654Y-230890000D02*
X197390000Y-230890000D01*
X248000000Y-295300000D02*
X249900000Y-293400000D01*
X307290000Y-352490000D02*
X307290000Y-339034886D01*
X243550000Y-102150000D02*
X248800000Y-107400000D01*
X445625368Y-219624632D02*
X445625368Y-39625368D01*
X152000000Y-270534926D02*
X175465074Y-294000000D01*
X312700000Y-156150000D02*
X328700000Y-172150000D01*
X214150000Y-314150000D02*
X216600000Y-316600000D01*
X58500000Y-349000000D02*
X58500000Y-326500000D01*
X296295000Y-253500000D02*
X317000000Y-253500000D01*
X382000000Y-53500000D02*
X383000000Y-54500000D01*
X360000000Y-28450000D02*
X351505113Y-36944887D01*
X289000000Y-209400000D02*
X289700000Y-208700000D01*
X49000000Y-156150000D02*
X69000000Y-136150000D01*
X266500000Y-231475000D02*
X251325000Y-231475000D01*
X328700000Y-172150000D02*
X328700000Y-187150000D01*
X180850000Y-389100000D02*
X183000000Y-391250000D01*
X395000000Y-156150000D02*
X415000000Y-136150000D01*
X376100000Y-351900000D02*
X407550000Y-351900000D01*
X194000000Y-225650000D02*
X278300000Y-225650000D01*
X61050000Y-321700000D02*
X58500000Y-319150000D01*
X69000000Y-107400000D02*
X71000000Y-105400000D01*
X197650000Y-201820000D02*
X197750000Y-201920000D01*
X243200000Y-287600000D02*
X248000000Y-292400000D01*
X91500000Y-105400000D02*
X111900000Y-105400000D01*
X264640000Y-240500000D02*
X264640000Y-233335000D01*
X395000000Y-178300000D02*
X395000000Y-156150000D01*
X230400000Y-102150000D02*
X243550000Y-102150000D01*
X54250000Y-105400000D02*
X71000000Y-105400000D01*
X280500000Y-223450000D02*
X289000000Y-214950000D01*
X277490000Y-187110000D02*
X277500000Y-187100000D01*
X90300000Y-321700000D02*
X93500000Y-321700000D01*
X214000000Y-314150000D02*
X214150000Y-314150000D01*
X164000000Y-176200000D02*
X164000000Y-187150000D01*
X238455113Y-141094887D02*
X238455113Y-149024887D01*
X405750000Y-351900000D02*
X407550000Y-351900000D01*
X97000000Y-160700000D02*
X93000000Y-164700000D01*
X328700000Y-194700000D02*
X313050000Y-210350000D01*
X251325000Y-231475000D02*
X249000000Y-229150000D01*
X60450000Y-389100000D02*
X101900000Y-389100000D01*
X66500000Y-164700000D02*
X93000000Y-164700000D01*
X406325000Y-231475000D02*
X407700000Y-231475000D01*
X300000000Y-350150000D02*
X302340000Y-352490000D01*
X198540000Y-232040000D02*
X199690000Y-233190000D01*
X323000000Y-231475000D02*
X321325000Y-231475000D01*
X321325000Y-231475000D02*
X319000000Y-229150000D01*
X58500000Y-216150000D02*
X58500000Y-251150000D01*
X328700000Y-187150000D02*
X339350000Y-187150000D01*
X346800000Y-179700000D02*
X356200000Y-179700000D01*
X197390000Y-258590000D02*
X197390000Y-261130000D01*
X252950000Y-389100000D02*
X255000000Y-391150000D01*
X197390000Y-261130000D02*
X196000000Y-262520000D01*
X66500000Y-164700000D02*
X51900000Y-164700000D01*
X168000000Y-105650000D02*
X164500000Y-102150000D01*
X440100000Y-255700000D02*
X443500000Y-252300000D01*
D30*
X328750000Y-263150000D02*
X330700000Y-265100000D01*
D29*
X443500000Y-260300000D02*
X443500000Y-314150000D01*
X184000000Y-229150000D02*
X187500000Y-225650000D01*
X148000000Y-156130000D02*
X148000000Y-143500000D01*
X283000000Y-263150000D02*
X286645000Y-263150000D01*
X269300000Y-179700000D02*
X273800000Y-179700000D01*
X312700000Y-156150000D02*
X332700000Y-136150000D01*
X152000000Y-350150000D02*
X153750000Y-351900000D01*
X436000000Y-229250000D02*
X438225000Y-231475000D01*
X164500000Y-102150000D02*
X170450000Y-102150000D01*
X433500000Y-180500000D02*
X434299803Y-179700197D01*
X217000000Y-266300000D02*
X238300000Y-287600000D01*
X312700000Y-105300000D02*
X332700000Y-125300000D01*
X440800000Y-33050000D02*
X404600000Y-33050000D01*
X289000000Y-214950000D02*
X289000000Y-209400000D01*
X199690000Y-250970000D02*
X199690000Y-256290000D01*
X90475113Y-289155113D02*
X103494887Y-289155113D01*
X276300000Y-316600000D02*
X277550000Y-316600000D01*
X438225000Y-231475000D02*
X443500000Y-236750000D01*
X143500000Y-164700000D02*
X148000000Y-160200000D01*
X407700000Y-231475000D02*
X367300000Y-231475000D01*
X276800000Y-261400000D02*
X281250000Y-261400000D01*
X329950000Y-389100000D02*
X332000000Y-391150000D01*
X249900000Y-293400000D02*
X251750000Y-293400000D01*
X196000000Y-224420000D02*
X194770000Y-225650000D01*
X196000000Y-224420000D02*
X194850000Y-225570000D01*
X289700000Y-208700000D02*
X311400000Y-208700000D01*
X197750000Y-201920000D02*
X197750000Y-222670000D01*
X373650000Y-351900000D02*
X376100000Y-351900000D01*
X340500000Y-354000000D02*
X342600000Y-351900000D01*
X366225000Y-231475000D02*
X364000000Y-229250000D01*
X238300000Y-287600000D02*
X243200000Y-287600000D01*
X268000000Y-184500000D02*
X268000000Y-181000000D01*
X322800000Y-231475000D02*
X266500000Y-231475000D01*
X107500000Y-251150000D02*
X111150000Y-251150000D01*
X111900000Y-105400000D02*
X144750000Y-105400000D01*
X97000000Y-156250000D02*
X97000000Y-160700000D01*
X432250000Y-187250000D02*
X433500000Y-186000000D01*
X407000000Y-310700000D02*
X412300000Y-305400000D01*
X180700000Y-389100000D02*
X216600000Y-389100000D01*
X148000000Y-314150000D02*
X150150000Y-316300000D01*
X442000000Y-34250000D02*
X440800000Y-33050000D01*
X144750000Y-105400000D02*
X148000000Y-102150000D01*
X148000000Y-160200000D02*
X148000000Y-156130000D01*
X411000000Y-187250000D02*
X411000000Y-185500000D01*
X273800000Y-179700000D02*
X278700000Y-179700000D01*
X404000000Y-350150000D02*
X405750000Y-351900000D01*
X395000000Y-102150000D02*
X395000000Y-81600000D01*
X281250000Y-261400000D02*
X283000000Y-263150000D01*
X117000000Y-109400000D02*
X113000000Y-105400000D01*
X230400000Y-156150000D02*
X231330000Y-156150000D01*
X252950000Y-389100000D02*
X293600000Y-389100000D01*
X414700000Y-291700000D02*
X418500000Y-291700000D01*
X164500000Y-102150000D02*
X148000000Y-102150000D01*
X293950000Y-389100000D02*
X296000000Y-391150000D01*
X302340000Y-352490000D02*
X307290000Y-352490000D01*
X293600000Y-389100000D02*
X293950000Y-389100000D01*
X283200000Y-316600000D02*
X281600000Y-316600000D01*
X268000000Y-181000000D02*
X269300000Y-179700000D01*
D30*
X364000000Y-263150000D02*
X365950000Y-261200000D01*
D29*
X170450000Y-102150000D02*
X185550000Y-87050000D01*
X164000000Y-187150000D02*
X164000000Y-203925000D01*
X443000000Y-66000000D02*
X442150000Y-65150000D01*
X307290000Y-352490000D02*
X307290000Y-352790000D01*
X107500000Y-216150000D02*
X107500000Y-251150000D01*
X236100000Y-351900000D02*
X271100000Y-351900000D01*
X187500000Y-225650000D02*
X194000000Y-225650000D01*
X200800000Y-87000000D02*
X202400000Y-85400000D01*
X197390000Y-230890000D02*
X198540000Y-232040000D01*
X311400000Y-208700000D02*
X313050000Y-210350000D01*
X265750000Y-351900000D02*
X271100000Y-351900000D01*
X412300000Y-294100000D02*
X414700000Y-291700000D01*
X168000000Y-129150000D02*
X168000000Y-105650000D01*
X150150000Y-316300000D02*
X211850000Y-316300000D01*
X323000000Y-231475000D02*
X322800000Y-231475000D01*
X332700000Y-125300000D02*
X332700000Y-129150000D01*
X113500000Y-253500000D02*
X113500000Y-258000000D01*
X377000000Y-297150000D02*
X384950000Y-297150000D01*
X374650000Y-294800000D02*
X377000000Y-297150000D01*
X58500000Y-216150000D02*
X58500000Y-211400000D01*
X407700000Y-231475000D02*
X438225000Y-231475000D01*
X341750000Y-351900000D02*
X342600000Y-351900000D01*
X412300000Y-305400000D02*
X412300000Y-294100000D01*
X316350000Y-294800000D02*
X334200000Y-294800000D01*
X199690000Y-235970000D02*
X198540000Y-237120000D01*
X404000000Y-229150000D02*
X406325000Y-231475000D01*
X216950000Y-389100000D02*
X219000000Y-391150000D01*
X411000000Y-185500000D02*
X410000000Y-184500000D01*
X175465074Y-294000000D02*
X178850000Y-294000000D01*
X111150000Y-251150000D02*
X113500000Y-253500000D01*
X402500000Y-310700000D02*
X407000000Y-310700000D01*
X289910000Y-259885000D02*
X296295000Y-253500000D01*
X334900000Y-64000000D02*
X338100000Y-60800000D01*
X410000000Y-184500000D02*
X388800000Y-184500000D01*
X271100000Y-351900000D02*
X301750000Y-351900000D01*
X88300000Y-319700000D02*
X90300000Y-321700000D01*
X404000000Y-263150000D02*
X441050000Y-263150000D01*
X63300000Y-321700000D02*
X61050000Y-321700000D01*
X150500000Y-141000000D02*
X159750000Y-141000000D01*
X71000000Y-105400000D02*
X91500000Y-105400000D01*
X199690000Y-256290000D02*
X198540000Y-257440000D01*
X69000000Y-128150000D02*
X69000000Y-107500000D01*
X238455113Y-149024887D02*
X238090000Y-149390000D01*
X54250000Y-105400000D02*
X49000000Y-100150000D01*
D30*
X330700000Y-267900000D02*
X330700000Y-291300000D01*
D29*
X415000000Y-136150000D02*
X415000000Y-129150000D01*
D30*
X365950000Y-261200000D02*
X402050000Y-261200000D01*
D29*
X216600000Y-316600000D02*
X276300000Y-316600000D01*
X194850000Y-225570000D02*
X194850000Y-230216346D01*
D30*
X319000000Y-235275000D02*
X322800000Y-231475000D01*
D29*
X93500000Y-321700000D02*
X63300000Y-321700000D01*
X347595113Y-60800000D02*
X351505113Y-56890000D01*
X334200000Y-294800000D02*
X374650000Y-294800000D01*
X101900000Y-389100000D02*
X139500000Y-389100000D01*
X301750000Y-351900000D02*
X302225000Y-352375000D01*
X113000000Y-105400000D02*
X111900000Y-105400000D01*
X49000000Y-201900000D02*
X49000000Y-161800000D01*
X328700000Y-192500000D02*
X328700000Y-187150000D01*
X246300000Y-187150000D02*
X265350000Y-187150000D01*
X367300000Y-231475000D02*
X323000000Y-231475000D01*
X361000000Y-184500000D02*
X388800000Y-184500000D01*
X443500000Y-350150000D02*
X443500000Y-391150000D01*
X69000000Y-136150000D02*
X69000000Y-128150000D01*
X317000000Y-253500000D02*
X319000000Y-255500000D01*
X90475113Y-289155113D02*
X90240000Y-288920000D01*
X139500000Y-389100000D02*
X180700000Y-389100000D01*
X113500000Y-258000000D02*
X115900000Y-260400000D01*
X153750000Y-351900000D02*
X195300000Y-351900000D01*
X329950000Y-389100000D02*
X365950000Y-389100000D01*
X367300000Y-231475000D02*
X366225000Y-231475000D01*
X401950000Y-389100000D02*
X404000000Y-391150000D01*
X277550000Y-316600000D02*
X280000000Y-314150000D01*
X216600000Y-389100000D02*
X216950000Y-389100000D01*
X194770000Y-225650000D02*
X194000000Y-225650000D01*
X411000000Y-187250000D02*
X432250000Y-187250000D01*
X101900000Y-389100000D02*
X102050000Y-389100000D01*
X148000000Y-143500000D02*
X150500000Y-141000000D01*
X115900000Y-260400000D02*
X149250000Y-260400000D01*
X407550000Y-351900000D02*
X441750000Y-351900000D01*
X332700000Y-136150000D02*
X332700000Y-129150000D01*
X441450000Y-389100000D02*
X443500000Y-391150000D01*
X278700000Y-179700000D02*
X279500000Y-180500000D01*
X228000000Y-350250000D02*
X229650000Y-351900000D01*
X340550000Y-316600000D02*
X343000000Y-314150000D01*
D30*
X402050000Y-261200000D02*
X404000000Y-263150000D01*
D29*
X286645000Y-263150000D02*
X289910000Y-259885000D01*
X229650000Y-351900000D02*
X236100000Y-351900000D01*
X372000000Y-350250000D02*
X373650000Y-351900000D01*
X194850000Y-230216346D02*
X195523654Y-230890000D01*
D30*
X319000000Y-263150000D02*
X328750000Y-263150000D01*
D29*
X340150000Y-67000000D02*
X335300000Y-67000000D01*
X58500000Y-326500000D02*
X63300000Y-321700000D01*
X168000000Y-132750000D02*
X168000000Y-129150000D01*
X351505113Y-36944887D02*
X351505113Y-56890000D01*
X178850000Y-294000000D02*
X182000000Y-297150000D01*
X202400000Y-85400000D02*
X228000000Y-85400000D01*
X199690000Y-233190000D02*
X199690000Y-235970000D01*
X139500000Y-389100000D02*
X139850000Y-389100000D01*
X231330000Y-156150000D02*
X238090000Y-149390000D01*
X283200000Y-316600000D02*
X340550000Y-316600000D01*
X433500000Y-186000000D02*
X433500000Y-180500000D01*
X107500000Y-319250000D02*
X105050000Y-321700000D01*
X198540000Y-257440000D02*
X197390000Y-258590000D01*
X180700000Y-389100000D02*
X180850000Y-389100000D01*
X58500000Y-285150000D02*
X58500000Y-251150000D01*
X327150000Y-185600000D02*
X328700000Y-187150000D01*
X319000000Y-255500000D02*
X319000000Y-256000000D01*
X248800000Y-123800000D02*
X250400000Y-125400000D01*
X264640000Y-233335000D02*
X266500000Y-231475000D01*
X383000000Y-54500000D02*
X383000000Y-65150000D01*
X279500000Y-180500000D02*
X279500000Y-184000000D01*
X188000000Y-350150000D02*
X189750000Y-351900000D01*
X274725000Y-263475000D02*
X276800000Y-261400000D01*
X401600000Y-389100000D02*
X401950000Y-389100000D01*
X328700000Y-192500000D02*
X328700000Y-194700000D01*
X107500000Y-319250000D02*
X142900000Y-319250000D01*
X335300000Y-67000000D02*
X334900000Y-66600000D01*
X441050000Y-263150000D02*
X443500000Y-260700000D01*
D30*
X330700000Y-291300000D02*
X334200000Y-294800000D01*
X319000000Y-256000000D02*
X319000000Y-235275000D01*
D29*
X340000000Y-350150000D02*
X341750000Y-351900000D01*
X300000000Y-350150000D02*
X301750000Y-351900000D01*
X228000000Y-85400000D02*
X230400000Y-87800000D01*
X277490000Y-195110000D02*
X277490000Y-187110000D01*
X395000000Y-81600000D02*
X383000000Y-69600000D01*
X443500000Y-236750000D02*
X443500000Y-252300000D01*
X114500000Y-164700000D02*
X143500000Y-164700000D01*
X312700000Y-102150000D02*
X312700000Y-105300000D01*
X152500000Y-353150000D02*
X153750000Y-351900000D01*
X307290000Y-352790000D02*
X308500000Y-354000000D01*
D30*
X319000000Y-263150000D02*
X319000000Y-256000000D01*
D29*
X217000000Y-263150000D02*
X217000000Y-266300000D01*
X434299803Y-179700197D02*
X438533202Y-179700197D01*
X442000000Y-36000000D02*
X442000000Y-34250000D01*
X278300000Y-225650000D02*
X280500000Y-223450000D01*
X58500000Y-387150000D02*
X60450000Y-389100000D01*
X117000000Y-128150000D02*
X117000000Y-109400000D01*
X383000000Y-69600000D02*
X383000000Y-65150000D01*
X404600000Y-33050000D02*
X403500000Y-34150000D01*
X159750000Y-141000000D02*
X168000000Y-132750000D01*
X248000000Y-295300000D02*
X248000000Y-297150000D01*
X443500000Y-252300000D02*
X443500000Y-260300000D01*
X189750000Y-351900000D02*
X195300000Y-351900000D01*
X397950000Y-102150000D02*
X395000000Y-102150000D01*
X185600000Y-87000000D02*
X185550000Y-87050000D01*
X433500000Y-255700000D02*
X440100000Y-255700000D01*
X91750000Y-105400000D02*
X97000000Y-100150000D01*
X93000000Y-164700000D02*
X114500000Y-164700000D01*
X262100000Y-240500000D02*
X264640000Y-240500000D01*
X198540000Y-249820000D02*
X199690000Y-250970000D01*
X230400000Y-87800000D02*
X230400000Y-102150000D01*
X200800000Y-87000000D02*
X185600000Y-87000000D01*
X279500000Y-184000000D02*
X281100000Y-185600000D01*
X365950000Y-389100000D02*
X368000000Y-391150000D01*
X388800000Y-184500000D02*
X395000000Y-178300000D01*
X90240000Y-288920000D02*
X88300000Y-290860000D01*
X251750000Y-293400000D02*
X274725000Y-270425000D01*
X281600000Y-316600000D02*
X276300000Y-316600000D01*
X334900000Y-66600000D02*
X334900000Y-64000000D01*
X443500000Y-260700000D02*
X443500000Y-260300000D01*
X250400000Y-125400000D02*
X250400000Y-129150000D01*
X274725000Y-270425000D02*
X274725000Y-263475000D01*
X142900000Y-319250000D02*
X148000000Y-314150000D01*
X342000000Y-65150000D02*
X340150000Y-67000000D01*
%TO.N,XT_RPi_5v*%
X197150000Y-271290000D02*
X197000000Y-271290000D01*
X178790000Y-271290000D02*
X178500000Y-271000000D01*
X177000000Y-191200000D02*
X177000000Y-186200000D01*
X198540000Y-272680000D02*
X197150000Y-271290000D01*
X197000000Y-271290000D02*
X178790000Y-271290000D01*
X177000000Y-209000000D02*
X174000000Y-212000000D01*
X197390000Y-271290000D02*
X198540000Y-270140000D01*
X174000000Y-247466346D02*
X195283654Y-268750000D01*
X178500000Y-271000000D02*
X174500000Y-271000000D01*
X196476346Y-268750000D02*
X197866346Y-270140000D01*
X197000000Y-271290000D02*
X197390000Y-271290000D01*
X174000000Y-212000000D02*
X174000000Y-247466346D01*
X195283654Y-268750000D02*
X196476346Y-268750000D01*
X197866346Y-270140000D02*
X198540000Y-270140000D01*
X177000000Y-186200000D02*
X177100000Y-186100000D01*
%TO.N,sw_input_mode_RPi21*%
X229660000Y-236000000D02*
X234160000Y-240500000D01*
X182800000Y-234080000D02*
X196000000Y-247280000D01*
X184500000Y-209500000D02*
X182800000Y-211200000D01*
X213900000Y-237000000D02*
X214900000Y-236000000D01*
X182800000Y-211200000D02*
X182800000Y-234080000D01*
X214900000Y-236000000D02*
X229660000Y-236000000D01*
%TO.N,XT_RPi23*%
X229620000Y-238500000D02*
X231620000Y-240500000D01*
X213000000Y-238500000D02*
X229620000Y-238500000D01*
%TD*%
M02*
