%TF.GenerationSoftware,KiCad,Pcbnew,8.0.5*%
%TF.CreationDate,2024-10-29T20:03:30+01:00*%
%TF.ProjectId,troublemaker,74726f75-626c-4656-9d61-6b65722e6b69,rev?*%
%TF.SameCoordinates,Original*%
%TF.FileFunction,Plated,1,2,PTH,Mixed*%
%TF.FilePolarity,Positive*%
%FSLAX46Y46*%
G04 Gerber Fmt 4.6, Leading zero omitted, Abs format (unit mm)*
G04 Created by KiCad (PCBNEW 8.0.5) date 2024-10-29 20:03:30*
%MOMM*%
%LPD*%
G01*
G04 APERTURE LIST*
%TA.AperFunction,ViaDrill*%
%ADD10C,0.300000*%
%TD*%
%TA.AperFunction,ComponentDrill*%
%ADD11C,0.500000*%
%TD*%
%TA.AperFunction,ComponentDrill*%
%ADD12C,0.800000*%
%TD*%
%TA.AperFunction,ComponentDrill*%
%ADD13C,0.900000*%
%TD*%
G04 aperture for slot hole*
%TA.AperFunction,ComponentDrill*%
%ADD14C,0.900000*%
%TD*%
%TA.AperFunction,ComponentDrill*%
%ADD15C,1.000000*%
%TD*%
G04 aperture for slot hole*
%TA.AperFunction,ComponentDrill*%
%ADD16C,1.000000*%
%TD*%
%TA.AperFunction,ComponentDrill*%
%ADD17C,1.016000*%
%TD*%
%TA.AperFunction,ComponentDrill*%
%ADD18C,1.110000*%
%TD*%
G04 aperture for slot hole*
%TA.AperFunction,ComponentDrill*%
%ADD19C,1.800000*%
%TD*%
%TA.AperFunction,ComponentDrill*%
%ADD20C,2.750000*%
%TD*%
G04 APERTURE END LIST*
D10*
X58500000Y-349000000D03*
X163000000Y-100700000D03*
X163000000Y-104100000D03*
X177000000Y-191200000D03*
X177000000Y-209000000D03*
X177100000Y-186100000D03*
X177900000Y-184600000D03*
X177900000Y-191200000D03*
X177900000Y-209000000D03*
X184500000Y-209500000D03*
X213000000Y-238500000D03*
X213300000Y-230500000D03*
X213900000Y-237000000D03*
X215900000Y-227900000D03*
X227900000Y-90400000D03*
X227900000Y-93700000D03*
X232500000Y-153300000D03*
X233000000Y-250500000D03*
X235500000Y-248000000D03*
X235600000Y-153300000D03*
X241500000Y-225000000D03*
X250500000Y-190300000D03*
X251100000Y-189700000D03*
X251700000Y-189100000D03*
X254500000Y-270000000D03*
X255900000Y-172000000D03*
X256200000Y-190300000D03*
X256800000Y-189700000D03*
X257000000Y-269000000D03*
X257400000Y-189100000D03*
X258400000Y-172000000D03*
X259500000Y-268000000D03*
X261000000Y-172000000D03*
X262000000Y-267000000D03*
X263500000Y-172000000D03*
X263500000Y-225000000D03*
X264600000Y-266000000D03*
X266000000Y-172000000D03*
X272000000Y-271000000D03*
X273100000Y-237500000D03*
X274585421Y-161912149D03*
X274600000Y-156751000D03*
X275200000Y-161400000D03*
X275300000Y-156100000D03*
X275900000Y-155500000D03*
X275900000Y-160900000D03*
X276150000Y-235900000D03*
X276500000Y-154900000D03*
X276600000Y-160400000D03*
X276900000Y-233700000D03*
X277065687Y-154334313D03*
X277200000Y-159754000D03*
X277500000Y-187100000D03*
X280975735Y-269975735D03*
X281100000Y-169300000D03*
X282300000Y-170500000D03*
X282500000Y-268400000D03*
X282600000Y-185000000D03*
X282600000Y-186527000D03*
X283400000Y-267500000D03*
X284200000Y-266600000D03*
X285100000Y-265700000D03*
X286000000Y-286400000D03*
X286400000Y-215700000D03*
X287400000Y-215700000D03*
X287600000Y-169300000D03*
X288200000Y-217500000D03*
X288800000Y-170500000D03*
X289000000Y-265200000D03*
X289200000Y-217500000D03*
X289700000Y-265900000D03*
X290000000Y-290400000D03*
X290300000Y-266700000D03*
X291000000Y-267400000D03*
X291300000Y-220500000D03*
X291600000Y-268065000D03*
X292000000Y-199300000D03*
X292000000Y-238600000D03*
X292400000Y-220600000D03*
X292900000Y-234700000D03*
X293900000Y-234600000D03*
X294000000Y-184981009D03*
X294000000Y-186527000D03*
X294000000Y-201900000D03*
X294800000Y-150000000D03*
X294990000Y-255900000D03*
X295000000Y-187400000D03*
X295000000Y-251300000D03*
X295900000Y-188200000D03*
X296400000Y-200300000D03*
X296800000Y-188900000D03*
X297530000Y-264500000D03*
X297800000Y-189700000D03*
X297800000Y-200300000D03*
X297800000Y-243700000D03*
X298700000Y-190500000D03*
X298800000Y-283000000D03*
X300070000Y-264500000D03*
X300500000Y-243700000D03*
X300670000Y-249800000D03*
X300975000Y-201825000D03*
X301300000Y-283000000D03*
X302610000Y-264500000D03*
X302924265Y-243700000D03*
X302924265Y-247300000D03*
X303450000Y-201750000D03*
X303900000Y-283000000D03*
X305150000Y-252500000D03*
X305150000Y-264600000D03*
X305400000Y-241000000D03*
X305424265Y-243324265D03*
X305987500Y-201912500D03*
X306400000Y-282900000D03*
X307600000Y-238800000D03*
X307600000Y-241800000D03*
X307690000Y-264600000D03*
X308900000Y-282900000D03*
X315050000Y-243750000D03*
X315475735Y-207024265D03*
X315500000Y-210800000D03*
X316200000Y-243800000D03*
X318500000Y-163500000D03*
X320500000Y-161500000D03*
X321000000Y-157400000D03*
X327200000Y-78500000D03*
X327200000Y-94000000D03*
X328700000Y-192500000D03*
X330700000Y-265100000D03*
X330700000Y-267900000D03*
X334100000Y-267200000D03*
X334100000Y-281472500D03*
X335400000Y-267200000D03*
X335400000Y-281500000D03*
X359000000Y-241700000D03*
X361700000Y-53500000D03*
X443000000Y-66000000D03*
X445625368Y-68500000D03*
D11*
%TO.C,J4*%
X174500000Y-263750000D03*
%TO.C,J3*%
X174500000Y-271000000D03*
%TO.C,J4*%
X178500000Y-263750000D03*
%TO.C,J3*%
X178500000Y-271000000D03*
D12*
%TO.C,R1*%
X158800000Y-229900000D03*
X158800000Y-240060000D03*
%TO.C,J5*%
X200800000Y-87000000D03*
X202800000Y-87000000D03*
X204800000Y-87000000D03*
X206800000Y-87000000D03*
X208800000Y-87000000D03*
X210800000Y-87000000D03*
X212800000Y-87000000D03*
X214800000Y-87000000D03*
X216800000Y-87000000D03*
X218800000Y-87000000D03*
X220800000Y-87000000D03*
X222800000Y-87000000D03*
D13*
%TO.C,taptempo_led1*%
X146225000Y-221700000D03*
X148765000Y-221700000D03*
D14*
%TO.C,SW7*%
X281100000Y-219950000D02*
X279900000Y-219950000D01*
X281100000Y-223450000D02*
X279900000Y-223450000D01*
%TO.C,SW11*%
X360600000Y-24950000D02*
X359400000Y-24950000D01*
X360600000Y-28450000D02*
X359400000Y-28450000D01*
D15*
%TO.C,RV6*%
X44000000Y-100150000D03*
%TO.C,RV8*%
X44000000Y-156150000D03*
%TO.C,RV6*%
X46500000Y-100150000D03*
%TO.C,RV8*%
X46500000Y-156150000D03*
%TO.C,RV6*%
X49000000Y-100150000D03*
%TO.C,RV8*%
X49000000Y-156150000D03*
%TO.C,RV12*%
X53500000Y-216150000D03*
%TO.C,RV13*%
X53500000Y-251150000D03*
%TO.C,RV14*%
X53500000Y-285150000D03*
%TO.C,RV15*%
X53500000Y-319150000D03*
%TO.C,RV16*%
X53500000Y-353150000D03*
%TO.C,RV17*%
X53500000Y-387150000D03*
%TO.C,RV12*%
X56000000Y-216150000D03*
%TO.C,RV13*%
X56000000Y-251150000D03*
%TO.C,RV14*%
X56000000Y-285150000D03*
%TO.C,RV15*%
X56000000Y-319150000D03*
%TO.C,RV16*%
X56000000Y-353150000D03*
%TO.C,RV17*%
X56000000Y-387150000D03*
%TO.C,RV12*%
X58500000Y-216150000D03*
%TO.C,RV13*%
X58500000Y-251150000D03*
%TO.C,RV14*%
X58500000Y-285150000D03*
%TO.C,RV15*%
X58500000Y-319150000D03*
%TO.C,RV16*%
X58500000Y-353150000D03*
%TO.C,RV17*%
X58500000Y-387150000D03*
%TO.C,RV7*%
X64000000Y-128150000D03*
X66500000Y-128150000D03*
D16*
%TO.C,SW2*%
X67200000Y-160000000D02*
X65800000Y-160000000D01*
X67200000Y-164700000D02*
X65800000Y-164700000D01*
X67200000Y-169400000D02*
X65800000Y-169400000D01*
D15*
%TO.C,RV7*%
X69000000Y-128150000D03*
%TO.C,RV9*%
X92000000Y-100150000D03*
%TO.C,RV11*%
X92000000Y-156250000D03*
%TO.C,RV9*%
X94500000Y-100150000D03*
%TO.C,RV11*%
X94500000Y-156250000D03*
%TO.C,RV9*%
X97000000Y-100150000D03*
%TO.C,RV11*%
X97000000Y-156250000D03*
%TO.C,RV76*%
X99100000Y-391150000D03*
X101600000Y-391150000D03*
%TO.C,RV18*%
X102500000Y-216150000D03*
%TO.C,RV19*%
X102500000Y-251150000D03*
%TO.C,RV20*%
X102500000Y-285150000D03*
%TO.C,RV21*%
X102500000Y-319250000D03*
%TO.C,RV22*%
X102500000Y-353150000D03*
%TO.C,RV76*%
X104100000Y-391150000D03*
%TO.C,RV18*%
X105000000Y-216150000D03*
%TO.C,RV19*%
X105000000Y-251150000D03*
%TO.C,RV20*%
X105000000Y-285150000D03*
%TO.C,RV21*%
X105000000Y-319250000D03*
%TO.C,RV22*%
X105000000Y-353150000D03*
%TO.C,RV18*%
X107500000Y-216150000D03*
%TO.C,RV19*%
X107500000Y-251150000D03*
%TO.C,RV20*%
X107500000Y-285150000D03*
%TO.C,RV21*%
X107500000Y-319250000D03*
%TO.C,RV22*%
X107500000Y-353150000D03*
%TO.C,RV10*%
X112000000Y-128150000D03*
X114500000Y-128150000D03*
D16*
%TO.C,SW1*%
X115200000Y-160000000D02*
X113800000Y-160000000D01*
X115200000Y-164700000D02*
X113800000Y-164700000D01*
X115200000Y-169400000D02*
X113800000Y-169400000D01*
D15*
%TO.C,RV10*%
X117000000Y-128150000D03*
%TO.C,RV77*%
X137000000Y-391250000D03*
X139500000Y-391250000D03*
X142000000Y-391250000D03*
%TO.C,RV23*%
X143000000Y-102150000D03*
%TO.C,RV25*%
X143000000Y-156130000D03*
%TO.C,RV58*%
X143000000Y-314150000D03*
%TO.C,RV23*%
X145500000Y-102150000D03*
%TO.C,RV25*%
X145500000Y-156130000D03*
%TO.C,RV58*%
X145500000Y-314150000D03*
%TO.C,RV47*%
X147000000Y-263150000D03*
%TO.C,RV67*%
X147000000Y-350150000D03*
%TO.C,RV23*%
X148000000Y-102150000D03*
%TO.C,RV25*%
X148000000Y-156130000D03*
%TO.C,RV58*%
X148000000Y-314150000D03*
%TO.C,RV47*%
X149500000Y-263150000D03*
%TO.C,RV67*%
X149500000Y-350150000D03*
%TO.C,RV47*%
X152000000Y-263150000D03*
%TO.C,RV67*%
X152000000Y-350150000D03*
%TO.C,RV26*%
X159000000Y-187150000D03*
X161500000Y-187150000D03*
%TO.C,RV24*%
X163000000Y-129150000D03*
%TO.C,RV26*%
X164000000Y-187150000D03*
%TO.C,RV24*%
X165500000Y-129150000D03*
X168000000Y-129150000D03*
%TO.C,RV59*%
X177000000Y-297150000D03*
%TO.C,RV78*%
X178000000Y-391250000D03*
%TO.C,RV48*%
X179000000Y-229150000D03*
%TO.C,RV59*%
X179500000Y-297150000D03*
%TO.C,RV78*%
X180500000Y-391250000D03*
%TO.C,RV48*%
X181500000Y-229150000D03*
%TO.C,RV59*%
X182000000Y-297150000D03*
%TO.C,RV68*%
X183000000Y-350150000D03*
%TO.C,RV78*%
X183000000Y-391250000D03*
%TO.C,RV48*%
X184000000Y-229150000D03*
%TO.C,RV68*%
X185500000Y-350150000D03*
X188000000Y-350150000D03*
D16*
%TO.C,SW3*%
X192200000Y-175000000D02*
X190800000Y-175000000D01*
X192200000Y-179700000D02*
X190800000Y-179700000D01*
X192200000Y-184400000D02*
X190800000Y-184400000D01*
%TO.C,SW12*%
X192950000Y-201120000D02*
X192950000Y-202520000D01*
D15*
%TO.C,J1*%
X196000000Y-224420000D03*
X196000000Y-226960000D03*
X196000000Y-229500000D03*
X196000000Y-232040000D03*
X196000000Y-234580000D03*
X196000000Y-237120000D03*
X196000000Y-239660000D03*
X196000000Y-242200000D03*
X196000000Y-244740000D03*
X196000000Y-247280000D03*
X196000000Y-249820000D03*
X196000000Y-252360000D03*
X196000000Y-254900000D03*
X196000000Y-257440000D03*
X196000000Y-259980000D03*
X196000000Y-262520000D03*
X196000000Y-265060000D03*
X196000000Y-267600000D03*
X196000000Y-270140000D03*
X196000000Y-272680000D03*
D16*
%TO.C,SW12*%
X197650000Y-201120000D02*
X197650000Y-202520000D01*
D15*
%TO.C,J1*%
X198540000Y-224420000D03*
X198540000Y-226960000D03*
X198540000Y-229500000D03*
X198540000Y-232040000D03*
X198540000Y-234580000D03*
X198540000Y-237120000D03*
X198540000Y-239660000D03*
X198540000Y-242200000D03*
X198540000Y-244740000D03*
X198540000Y-247280000D03*
X198540000Y-249820000D03*
X198540000Y-252360000D03*
X198540000Y-254900000D03*
X198540000Y-257440000D03*
X198540000Y-259980000D03*
X198540000Y-262520000D03*
X198540000Y-265060000D03*
X198540000Y-267600000D03*
X198540000Y-270140000D03*
X198540000Y-272680000D03*
D16*
%TO.C,SW12*%
X202350000Y-201120000D02*
X202350000Y-202520000D01*
D15*
%TO.C,RV60*%
X209000000Y-314150000D03*
X211500000Y-314150000D03*
%TO.C,RV39*%
X212000000Y-263150000D03*
%TO.C,RV60*%
X214000000Y-314150000D03*
%TO.C,RV79*%
X214000000Y-391150000D03*
%TO.C,RV39*%
X214500000Y-263150000D03*
%TO.C,RV79*%
X216500000Y-391150000D03*
%TO.C,RV39*%
X217000000Y-263150000D03*
%TO.C,RV79*%
X219000000Y-391150000D03*
%TO.C,RV69*%
X223000000Y-350250000D03*
%TO.C,J25*%
X224000000Y-240500000D03*
X224000000Y-243040000D03*
%TO.C,RV27*%
X225400000Y-102150000D03*
%TO.C,RV29*%
X225400000Y-156150000D03*
%TO.C,RV69*%
X225500000Y-350250000D03*
%TO.C,J25*%
X226540000Y-240500000D03*
X226540000Y-243040000D03*
%TO.C,RV27*%
X227900000Y-102150000D03*
%TO.C,RV29*%
X227900000Y-156150000D03*
%TO.C,RV69*%
X228000000Y-350250000D03*
%TO.C,J25*%
X229080000Y-240500000D03*
X229080000Y-243040000D03*
%TO.C,RV27*%
X230400000Y-102150000D03*
%TO.C,RV29*%
X230400000Y-156150000D03*
%TO.C,J25*%
X231620000Y-240500000D03*
X231620000Y-243040000D03*
X234160000Y-240500000D03*
X234160000Y-243040000D03*
X236700000Y-240500000D03*
X236700000Y-243040000D03*
X239240000Y-240500000D03*
X239240000Y-243040000D03*
%TO.C,RV30*%
X241300000Y-187150000D03*
%TO.C,J25*%
X241780000Y-240500000D03*
X241780000Y-243040000D03*
%TO.C,RV61*%
X243000000Y-297150000D03*
%TO.C,RV30*%
X243800000Y-187150000D03*
%TO.C,RV49*%
X244000000Y-229150000D03*
%TO.C,J25*%
X244320000Y-240500000D03*
X244320000Y-243040000D03*
%TO.C,RV28*%
X245400000Y-129150000D03*
%TO.C,RV61*%
X245500000Y-297150000D03*
%TO.C,RV30*%
X246300000Y-187150000D03*
%TO.C,RV49*%
X246500000Y-229150000D03*
%TO.C,J25*%
X246860000Y-240500000D03*
X246860000Y-243040000D03*
%TO.C,RV28*%
X247900000Y-129150000D03*
%TO.C,RV61*%
X248000000Y-297150000D03*
%TO.C,RV49*%
X249000000Y-229150000D03*
%TO.C,J25*%
X249400000Y-240500000D03*
X249400000Y-243040000D03*
%TO.C,RV80*%
X250000000Y-391150000D03*
%TO.C,RV28*%
X250400000Y-129150000D03*
%TO.C,J25*%
X251940000Y-240500000D03*
X251940000Y-243040000D03*
%TO.C,RV80*%
X252500000Y-391150000D03*
%TO.C,J25*%
X254480000Y-240500000D03*
X254480000Y-243040000D03*
%TO.C,RV80*%
X255000000Y-391150000D03*
%TO.C,J25*%
X257020000Y-240500000D03*
X257020000Y-243040000D03*
%TO.C,RV70*%
X259000000Y-350150000D03*
%TO.C,J25*%
X259560000Y-240500000D03*
X259560000Y-243040000D03*
%TO.C,RV70*%
X261500000Y-350150000D03*
%TO.C,J25*%
X262100000Y-240500000D03*
X262100000Y-243040000D03*
%TO.C,RV70*%
X264000000Y-350150000D03*
%TO.C,J25*%
X264640000Y-240500000D03*
X264640000Y-243040000D03*
D16*
%TO.C,SW4*%
X274500000Y-175000000D02*
X273100000Y-175000000D01*
X274500000Y-179700000D02*
X273100000Y-179700000D01*
X274500000Y-184400000D02*
X273100000Y-184400000D01*
D15*
%TO.C,RV62*%
X275000000Y-314150000D03*
X277500000Y-314150000D03*
%TO.C,RV50*%
X278000000Y-263150000D03*
%TO.C,RV62*%
X280000000Y-314150000D03*
%TO.C,RV50*%
X280500000Y-263150000D03*
X283000000Y-263150000D03*
%TO.C,RV81*%
X291000000Y-391150000D03*
X293500000Y-391150000D03*
%TO.C,RV71*%
X295000000Y-350150000D03*
%TO.C,RV81*%
X296000000Y-391150000D03*
%TO.C,RV71*%
X297500000Y-350150000D03*
X300000000Y-350150000D03*
%TO.C,RV31*%
X307700000Y-102150000D03*
%TO.C,RV33*%
X307700000Y-156150000D03*
%TO.C,RV63*%
X309000000Y-297150000D03*
%TO.C,RV31*%
X310200000Y-102150000D03*
%TO.C,RV33*%
X310200000Y-156150000D03*
%TO.C,RV63*%
X311500000Y-297150000D03*
%TO.C,RV31*%
X312700000Y-102150000D03*
%TO.C,RV33*%
X312700000Y-156150000D03*
%TO.C,RV51*%
X314000000Y-229150000D03*
%TO.C,RV52*%
X314000000Y-263150000D03*
%TO.C,RV63*%
X314000000Y-297150000D03*
%TO.C,RV51*%
X316500000Y-229150000D03*
%TO.C,RV52*%
X316500000Y-263150000D03*
%TO.C,RV51*%
X319000000Y-229150000D03*
%TO.C,RV52*%
X319000000Y-263150000D03*
%TO.C,RV34*%
X323700000Y-187150000D03*
X326200000Y-187150000D03*
%TO.C,RV82*%
X327000000Y-391150000D03*
%TO.C,RV32*%
X327700000Y-129150000D03*
%TO.C,RV34*%
X328700000Y-187150000D03*
%TO.C,RV82*%
X329500000Y-391150000D03*
%TO.C,RV32*%
X330200000Y-129150000D03*
%TO.C,RV82*%
X332000000Y-391150000D03*
%TO.C,RV32*%
X332700000Y-129150000D03*
%TO.C,RV72*%
X335000000Y-350150000D03*
%TO.C,RV1*%
X337000000Y-65150000D03*
%TO.C,RV72*%
X337500000Y-350150000D03*
%TO.C,RV64*%
X338000000Y-314150000D03*
%TO.C,RV1*%
X339500000Y-65150000D03*
%TO.C,RV72*%
X340000000Y-350150000D03*
%TO.C,RV64*%
X340500000Y-314150000D03*
%TO.C,RV1*%
X342000000Y-65150000D03*
%TO.C,RV64*%
X343000000Y-314150000D03*
D16*
%TO.C,SW5*%
X356900000Y-175000000D02*
X355500000Y-175000000D01*
X356900000Y-179700000D02*
X355500000Y-179700000D01*
X356900000Y-184400000D02*
X355500000Y-184400000D01*
D15*
%TO.C,RV53*%
X359000000Y-229250000D03*
%TO.C,RV54*%
X359000000Y-263150000D03*
%TO.C,RV53*%
X361500000Y-229250000D03*
%TO.C,RV54*%
X361500000Y-263150000D03*
%TO.C,RV83*%
X363000000Y-391150000D03*
%TO.C,RV53*%
X364000000Y-229250000D03*
%TO.C,RV54*%
X364000000Y-263150000D03*
%TO.C,RV83*%
X365500000Y-391150000D03*
%TO.C,RV73*%
X367000000Y-350250000D03*
%TO.C,RV83*%
X368000000Y-391150000D03*
%TO.C,RV73*%
X369500000Y-350250000D03*
%TO.C,RV65*%
X372000000Y-297150000D03*
%TO.C,RV73*%
X372000000Y-350250000D03*
%TO.C,RV65*%
X374500000Y-297150000D03*
X377000000Y-297150000D03*
%TO.C,RV2*%
X378000000Y-65150000D03*
X380500000Y-65150000D03*
X383000000Y-65150000D03*
%TO.C,RV35*%
X390000000Y-102150000D03*
%TO.C,RV37*%
X390000000Y-156150000D03*
%TO.C,RV35*%
X392500000Y-102150000D03*
%TO.C,RV37*%
X392500000Y-156150000D03*
%TO.C,RV35*%
X395000000Y-102150000D03*
%TO.C,RV37*%
X395000000Y-156150000D03*
%TO.C,RV3*%
X398500000Y-34150000D03*
%TO.C,RV55*%
X399000000Y-229150000D03*
%TO.C,RV56*%
X399000000Y-263150000D03*
%TO.C,RV74*%
X399000000Y-350150000D03*
%TO.C,RV84*%
X399000000Y-391150000D03*
%TO.C,RV3*%
X401000000Y-34150000D03*
%TO.C,RV55*%
X401500000Y-229150000D03*
%TO.C,RV56*%
X401500000Y-263150000D03*
%TO.C,RV74*%
X401500000Y-350150000D03*
%TO.C,RV84*%
X401500000Y-391150000D03*
D16*
%TO.C,SW9*%
X403200000Y-306000000D02*
X401800000Y-306000000D01*
X403200000Y-310700000D02*
X401800000Y-310700000D01*
X403200000Y-315400000D02*
X401800000Y-315400000D01*
D15*
%TO.C,RV3*%
X403500000Y-34150000D03*
%TO.C,RV55*%
X404000000Y-229150000D03*
%TO.C,RV56*%
X404000000Y-263150000D03*
%TO.C,RV74*%
X404000000Y-350150000D03*
%TO.C,RV84*%
X404000000Y-391150000D03*
%TO.C,RV38*%
X406000000Y-187250000D03*
X408500000Y-187250000D03*
%TO.C,RV36*%
X410000000Y-129150000D03*
%TO.C,RV38*%
X411000000Y-187250000D03*
%TO.C,RV36*%
X412500000Y-129150000D03*
X415000000Y-129150000D03*
D16*
%TO.C,SW10*%
X419200000Y-287000000D02*
X417800000Y-287000000D01*
X419200000Y-291700000D02*
X417800000Y-291700000D01*
X419200000Y-296400000D02*
X417800000Y-296400000D01*
D15*
%TO.C,RV4*%
X419000000Y-65150000D03*
X421500000Y-65150000D03*
X424000000Y-65150000D03*
%TO.C,RV57*%
X431000000Y-229250000D03*
X433500000Y-229250000D03*
D16*
%TO.C,SW8*%
X434200000Y-251000000D02*
X432800000Y-251000000D01*
X434200000Y-255700000D02*
X432800000Y-255700000D01*
X434200000Y-260400000D02*
X432800000Y-260400000D01*
D15*
%TO.C,RV57*%
X436000000Y-229250000D03*
%TO.C,RV5*%
X437000000Y-34250000D03*
%TO.C,RV66*%
X438500000Y-314150000D03*
%TO.C,RV75*%
X438500000Y-350150000D03*
%TO.C,RV85*%
X438500000Y-391150000D03*
D16*
%TO.C,SW6*%
X439233202Y-175000197D02*
X437833202Y-175000197D01*
X439233202Y-179700197D02*
X437833202Y-179700197D01*
X439233202Y-184400197D02*
X437833202Y-184400197D01*
D15*
%TO.C,RV5*%
X439500000Y-34250000D03*
%TO.C,RV66*%
X441000000Y-314150000D03*
%TO.C,RV75*%
X441000000Y-350150000D03*
%TO.C,RV85*%
X441000000Y-391150000D03*
%TO.C,RV5*%
X442000000Y-34250000D03*
%TO.C,RV66*%
X443500000Y-314150000D03*
%TO.C,RV75*%
X443500000Y-350150000D03*
%TO.C,RV85*%
X443500000Y-391150000D03*
D17*
%TO.C,U5*%
X75000000Y-278760000D03*
X75000000Y-281300000D03*
X75000000Y-283840000D03*
X75000000Y-286380000D03*
X75000000Y-288920000D03*
X75000000Y-291460000D03*
X75000000Y-294000000D03*
X75000000Y-296540000D03*
X75000000Y-299080000D03*
X75000000Y-301620000D03*
X75000000Y-304160000D03*
X75000000Y-306700000D03*
X75000000Y-309240000D03*
X75000000Y-311780000D03*
X75000000Y-314320000D03*
X75000000Y-316860000D03*
X90240000Y-288920000D03*
X90240000Y-291460000D03*
X90240000Y-294000000D03*
X90240000Y-296540000D03*
X90240000Y-299080000D03*
X90240000Y-301620000D03*
X90240000Y-304160000D03*
X90240000Y-306700000D03*
%TO.C,U3*%
X227930000Y-164630000D03*
X230470000Y-164630000D03*
X233010000Y-164630000D03*
X235550000Y-164630000D03*
X238090000Y-149390000D03*
X238090000Y-164630000D03*
X240630000Y-149390000D03*
X240630000Y-164630000D03*
X243170000Y-149390000D03*
X243170000Y-164630000D03*
X245710000Y-149390000D03*
X245710000Y-164630000D03*
X248250000Y-149390000D03*
X248250000Y-164630000D03*
X250790000Y-149390000D03*
X250790000Y-164630000D03*
X253330000Y-149390000D03*
X253330000Y-164630000D03*
X255870000Y-149390000D03*
X255870000Y-164630000D03*
X258410000Y-164630000D03*
X260950000Y-164630000D03*
X263490000Y-164630000D03*
X266030000Y-164630000D03*
%TO.C,U4*%
X279750000Y-275125000D03*
X282290000Y-275125000D03*
X284830000Y-275125000D03*
X287370000Y-275125000D03*
X289910000Y-259885000D03*
X289910000Y-275125000D03*
X292450000Y-259885000D03*
X292450000Y-275125000D03*
X294990000Y-259885000D03*
X294990000Y-275125000D03*
%TO.C,U6*%
X297130000Y-367730000D03*
%TO.C,U4*%
X297530000Y-259885000D03*
X297530000Y-275125000D03*
%TO.C,U6*%
X299670000Y-367730000D03*
%TO.C,U4*%
X300070000Y-259885000D03*
X300070000Y-275125000D03*
%TO.C,U6*%
X302210000Y-367730000D03*
%TO.C,U4*%
X302610000Y-259885000D03*
X302610000Y-275125000D03*
%TO.C,U6*%
X304750000Y-367730000D03*
%TO.C,U4*%
X305150000Y-259885000D03*
X305150000Y-275125000D03*
%TO.C,U6*%
X307290000Y-352490000D03*
X307290000Y-367730000D03*
%TO.C,U4*%
X307690000Y-259885000D03*
X307690000Y-275125000D03*
%TO.C,U6*%
X309830000Y-352490000D03*
X309830000Y-367730000D03*
%TO.C,U4*%
X310230000Y-275125000D03*
%TO.C,U6*%
X312370000Y-352490000D03*
X312370000Y-367730000D03*
%TO.C,U4*%
X312770000Y-275125000D03*
%TO.C,U6*%
X314910000Y-352490000D03*
X314910000Y-367730000D03*
%TO.C,U4*%
X315310000Y-275125000D03*
%TO.C,U6*%
X317450000Y-352490000D03*
X317450000Y-367730000D03*
%TO.C,U4*%
X317850000Y-275125000D03*
%TO.C,U6*%
X319990000Y-352490000D03*
X319990000Y-367730000D03*
X322530000Y-352490000D03*
X322530000Y-367730000D03*
X325070000Y-352490000D03*
X325070000Y-367730000D03*
X327610000Y-367730000D03*
X330150000Y-367730000D03*
X332690000Y-367730000D03*
X335230000Y-367730000D03*
%TO.C,U2*%
X341345113Y-72130000D03*
X343885113Y-72130000D03*
X346425113Y-72130000D03*
X348965113Y-72130000D03*
X351505113Y-56890000D03*
X351505113Y-72130000D03*
X354045113Y-56890000D03*
X354045113Y-72130000D03*
X356585113Y-56890000D03*
X356585113Y-72130000D03*
X359125113Y-56890000D03*
X359125113Y-72130000D03*
X361665113Y-56890000D03*
X361665113Y-72130000D03*
X364205113Y-56890000D03*
X364205113Y-72130000D03*
X366745113Y-56890000D03*
X366745113Y-72130000D03*
X369285113Y-56890000D03*
X369285113Y-72130000D03*
X371825113Y-72130000D03*
X374365113Y-72130000D03*
X376905113Y-72130000D03*
X379445113Y-72130000D03*
D18*
%TO.C,IC1*%
X254630000Y-195110000D03*
X254630000Y-210350000D03*
X257170000Y-195110000D03*
X257170000Y-210350000D03*
X259710000Y-195110000D03*
X259710000Y-210350000D03*
X262250000Y-195110000D03*
X262250000Y-210350000D03*
X264790000Y-195110000D03*
X264790000Y-210350000D03*
X267330000Y-195110000D03*
X267330000Y-210350000D03*
X269870000Y-195110000D03*
X269870000Y-210350000D03*
X272410000Y-195110000D03*
X272410000Y-210350000D03*
X274950000Y-195110000D03*
X274950000Y-210350000D03*
X277490000Y-195110000D03*
X277490000Y-210350000D03*
X280030000Y-195110000D03*
X280030000Y-210350000D03*
X282570000Y-195110000D03*
X282570000Y-210350000D03*
X285110000Y-195110000D03*
X285110000Y-210350000D03*
X287650000Y-195110000D03*
X287650000Y-210350000D03*
X290190000Y-195110000D03*
X290190000Y-210350000D03*
X292730000Y-195110000D03*
X292730000Y-210350000D03*
X295270000Y-195110000D03*
X295270000Y-210350000D03*
X297810000Y-195110000D03*
X297810000Y-210350000D03*
X300350000Y-195110000D03*
X300350000Y-210350000D03*
X302890000Y-195110000D03*
X302890000Y-210350000D03*
X305430000Y-195110000D03*
X305430000Y-210350000D03*
X307970000Y-195110000D03*
X307970000Y-210350000D03*
X310510000Y-195110000D03*
X310510000Y-210350000D03*
X313050000Y-195110000D03*
X313050000Y-210350000D03*
D19*
%TO.C,RV6*%
X42100000Y-93000000D02*
X42100000Y-93300000D01*
%TO.C,RV8*%
X42100000Y-149000000D02*
X42100000Y-149300000D01*
%TO.C,RV6*%
X50900000Y-93000000D02*
X50900000Y-93300000D01*
%TO.C,RV8*%
X50900000Y-149000000D02*
X50900000Y-149300000D01*
%TO.C,RV12*%
X51600000Y-209000000D02*
X51600000Y-209300000D01*
%TO.C,RV13*%
X51600000Y-244000000D02*
X51600000Y-244300000D01*
%TO.C,RV14*%
X51600000Y-278000000D02*
X51600000Y-278300000D01*
%TO.C,RV15*%
X51600000Y-312000000D02*
X51600000Y-312300000D01*
%TO.C,RV16*%
X51600000Y-346000000D02*
X51600000Y-346300000D01*
%TO.C,RV17*%
X51600000Y-380000000D02*
X51600000Y-380300000D01*
%TO.C,RV12*%
X60400000Y-209000000D02*
X60400000Y-209300000D01*
%TO.C,RV13*%
X60400000Y-244000000D02*
X60400000Y-244300000D01*
%TO.C,RV14*%
X60400000Y-278000000D02*
X60400000Y-278300000D01*
%TO.C,RV15*%
X60400000Y-312000000D02*
X60400000Y-312300000D01*
%TO.C,RV16*%
X60400000Y-346000000D02*
X60400000Y-346300000D01*
%TO.C,RV17*%
X60400000Y-380000000D02*
X60400000Y-380300000D01*
%TO.C,RV7*%
X62100000Y-121000000D02*
X62100000Y-121300000D01*
X70900000Y-121000000D02*
X70900000Y-121300000D01*
%TO.C,RV9*%
X90100000Y-93000000D02*
X90100000Y-93300000D01*
%TO.C,RV11*%
X90100000Y-149100000D02*
X90100000Y-149400000D01*
%TO.C,RV76*%
X97200000Y-384000000D02*
X97200000Y-384300000D01*
%TO.C,RV9*%
X98900000Y-93000000D02*
X98900000Y-93300000D01*
%TO.C,RV11*%
X98900000Y-149100000D02*
X98900000Y-149400000D01*
%TO.C,RV18*%
X100600000Y-209000000D02*
X100600000Y-209300000D01*
%TO.C,RV19*%
X100600000Y-244000000D02*
X100600000Y-244300000D01*
%TO.C,RV20*%
X100600000Y-278000000D02*
X100600000Y-278300000D01*
%TO.C,RV21*%
X100600000Y-312100000D02*
X100600000Y-312400000D01*
%TO.C,RV22*%
X100600000Y-346000000D02*
X100600000Y-346300000D01*
%TO.C,RV76*%
X106000000Y-384000000D02*
X106000000Y-384300000D01*
%TO.C,RV18*%
X109400000Y-209000000D02*
X109400000Y-209300000D01*
%TO.C,RV19*%
X109400000Y-244000000D02*
X109400000Y-244300000D01*
%TO.C,RV20*%
X109400000Y-278000000D02*
X109400000Y-278300000D01*
%TO.C,RV21*%
X109400000Y-312100000D02*
X109400000Y-312400000D01*
%TO.C,RV22*%
X109400000Y-346000000D02*
X109400000Y-346300000D01*
%TO.C,RV10*%
X110100000Y-121000000D02*
X110100000Y-121300000D01*
X118900000Y-121000000D02*
X118900000Y-121300000D01*
%TO.C,RV77*%
X135100000Y-384100000D02*
X135100000Y-384400000D01*
%TO.C,RV23*%
X141100000Y-95000000D02*
X141100000Y-95300000D01*
%TO.C,RV25*%
X141100000Y-148980000D02*
X141100000Y-149280000D01*
%TO.C,RV58*%
X141100000Y-307000000D02*
X141100000Y-307300000D01*
%TO.C,RV77*%
X143900000Y-384100000D02*
X143900000Y-384400000D01*
%TO.C,RV47*%
X145100000Y-256000000D02*
X145100000Y-256300000D01*
%TO.C,RV67*%
X145100000Y-343000000D02*
X145100000Y-343300000D01*
%TO.C,RV23*%
X149900000Y-95000000D02*
X149900000Y-95300000D01*
%TO.C,RV25*%
X149900000Y-148980000D02*
X149900000Y-149280000D01*
%TO.C,RV58*%
X149900000Y-307000000D02*
X149900000Y-307300000D01*
%TO.C,RV47*%
X153900000Y-256000000D02*
X153900000Y-256300000D01*
%TO.C,RV67*%
X153900000Y-343000000D02*
X153900000Y-343300000D01*
%TO.C,RV26*%
X157100000Y-180000000D02*
X157100000Y-180300000D01*
%TO.C,RV24*%
X161100000Y-122000000D02*
X161100000Y-122300000D01*
%TO.C,RV26*%
X165900000Y-180000000D02*
X165900000Y-180300000D01*
%TO.C,RV24*%
X169900000Y-122000000D02*
X169900000Y-122300000D01*
%TO.C,RV59*%
X175100000Y-290000000D02*
X175100000Y-290300000D01*
%TO.C,RV78*%
X176100000Y-384100000D02*
X176100000Y-384400000D01*
%TO.C,RV48*%
X177100000Y-222000000D02*
X177100000Y-222300000D01*
%TO.C,RV68*%
X181100000Y-343000000D02*
X181100000Y-343300000D01*
%TO.C,RV59*%
X183900000Y-290000000D02*
X183900000Y-290300000D01*
%TO.C,RV78*%
X184900000Y-384100000D02*
X184900000Y-384400000D01*
%TO.C,RV48*%
X185900000Y-222000000D02*
X185900000Y-222300000D01*
%TO.C,RV68*%
X189900000Y-343000000D02*
X189900000Y-343300000D01*
%TO.C,RV60*%
X207100000Y-307000000D02*
X207100000Y-307300000D01*
%TO.C,RV39*%
X210100000Y-256000000D02*
X210100000Y-256300000D01*
%TO.C,RV79*%
X212100000Y-384000000D02*
X212100000Y-384300000D01*
%TO.C,RV60*%
X215900000Y-307000000D02*
X215900000Y-307300000D01*
%TO.C,RV39*%
X218900000Y-256000000D02*
X218900000Y-256300000D01*
%TO.C,RV79*%
X220900000Y-384000000D02*
X220900000Y-384300000D01*
%TO.C,RV69*%
X221100000Y-343100000D02*
X221100000Y-343400000D01*
%TO.C,RV27*%
X223500000Y-95000000D02*
X223500000Y-95300000D01*
%TO.C,RV29*%
X223500000Y-149000000D02*
X223500000Y-149300000D01*
%TO.C,RV69*%
X229900000Y-343100000D02*
X229900000Y-343400000D01*
%TO.C,RV27*%
X232300000Y-95000000D02*
X232300000Y-95300000D01*
%TO.C,RV29*%
X232300000Y-149000000D02*
X232300000Y-149300000D01*
%TO.C,RV30*%
X239400000Y-180000000D02*
X239400000Y-180300000D01*
%TO.C,RV61*%
X241100000Y-290000000D02*
X241100000Y-290300000D01*
%TO.C,RV49*%
X242100000Y-222000000D02*
X242100000Y-222300000D01*
%TO.C,RV28*%
X243500000Y-122000000D02*
X243500000Y-122300000D01*
%TO.C,RV80*%
X248100000Y-384000000D02*
X248100000Y-384300000D01*
%TO.C,RV30*%
X248200000Y-180000000D02*
X248200000Y-180300000D01*
%TO.C,RV61*%
X249900000Y-290000000D02*
X249900000Y-290300000D01*
%TO.C,RV49*%
X250900000Y-222000000D02*
X250900000Y-222300000D01*
%TO.C,RV28*%
X252300000Y-122000000D02*
X252300000Y-122300000D01*
%TO.C,RV80*%
X256900000Y-384000000D02*
X256900000Y-384300000D01*
%TO.C,RV70*%
X257100000Y-343000000D02*
X257100000Y-343300000D01*
X265900000Y-343000000D02*
X265900000Y-343300000D01*
%TO.C,RV62*%
X273100000Y-307000000D02*
X273100000Y-307300000D01*
%TO.C,RV50*%
X276100000Y-256000000D02*
X276100000Y-256300000D01*
%TO.C,RV62*%
X281900000Y-307000000D02*
X281900000Y-307300000D01*
%TO.C,RV50*%
X284900000Y-256000000D02*
X284900000Y-256300000D01*
%TO.C,RV81*%
X289100000Y-384000000D02*
X289100000Y-384300000D01*
%TO.C,RV71*%
X293100000Y-343000000D02*
X293100000Y-343300000D01*
%TO.C,RV81*%
X297900000Y-384000000D02*
X297900000Y-384300000D01*
%TO.C,RV71*%
X301900000Y-343000000D02*
X301900000Y-343300000D01*
%TO.C,RV31*%
X305800000Y-95000000D02*
X305800000Y-95300000D01*
%TO.C,RV33*%
X305800000Y-149000000D02*
X305800000Y-149300000D01*
%TO.C,RV63*%
X307100000Y-290000000D02*
X307100000Y-290300000D01*
%TO.C,RV51*%
X312100000Y-222000000D02*
X312100000Y-222300000D01*
%TO.C,RV52*%
X312100000Y-256000000D02*
X312100000Y-256300000D01*
%TO.C,RV31*%
X314600000Y-95000000D02*
X314600000Y-95300000D01*
%TO.C,RV33*%
X314600000Y-149000000D02*
X314600000Y-149300000D01*
%TO.C,RV63*%
X315900000Y-290000000D02*
X315900000Y-290300000D01*
%TO.C,RV51*%
X320900000Y-222000000D02*
X320900000Y-222300000D01*
%TO.C,RV52*%
X320900000Y-256000000D02*
X320900000Y-256300000D01*
%TO.C,RV34*%
X321800000Y-180000000D02*
X321800000Y-180300000D01*
%TO.C,RV82*%
X325100000Y-384000000D02*
X325100000Y-384300000D01*
%TO.C,RV32*%
X325800000Y-122000000D02*
X325800000Y-122300000D01*
%TO.C,RV34*%
X330600000Y-180000000D02*
X330600000Y-180300000D01*
%TO.C,RV72*%
X333100000Y-343000000D02*
X333100000Y-343300000D01*
%TO.C,RV82*%
X333900000Y-384000000D02*
X333900000Y-384300000D01*
%TO.C,RV32*%
X334600000Y-122000000D02*
X334600000Y-122300000D01*
%TO.C,RV1*%
X335100000Y-58000000D02*
X335100000Y-58300000D01*
%TO.C,RV64*%
X336100000Y-307000000D02*
X336100000Y-307300000D01*
%TO.C,RV72*%
X341900000Y-343000000D02*
X341900000Y-343300000D01*
%TO.C,RV1*%
X343900000Y-58000000D02*
X343900000Y-58300000D01*
%TO.C,RV64*%
X344900000Y-307000000D02*
X344900000Y-307300000D01*
%TO.C,RV53*%
X357100000Y-222100000D02*
X357100000Y-222400000D01*
%TO.C,RV54*%
X357100000Y-256000000D02*
X357100000Y-256300000D01*
%TO.C,RV83*%
X361100000Y-384000000D02*
X361100000Y-384300000D01*
%TO.C,RV73*%
X365100000Y-343100000D02*
X365100000Y-343400000D01*
%TO.C,RV53*%
X365900000Y-222100000D02*
X365900000Y-222400000D01*
%TO.C,RV54*%
X365900000Y-256000000D02*
X365900000Y-256300000D01*
%TO.C,RV83*%
X369900000Y-384000000D02*
X369900000Y-384300000D01*
%TO.C,RV65*%
X370100000Y-290000000D02*
X370100000Y-290300000D01*
%TO.C,RV73*%
X373900000Y-343100000D02*
X373900000Y-343400000D01*
%TO.C,RV2*%
X376100000Y-58000000D02*
X376100000Y-58300000D01*
%TO.C,RV65*%
X378900000Y-290000000D02*
X378900000Y-290300000D01*
%TO.C,RV2*%
X384900000Y-58000000D02*
X384900000Y-58300000D01*
%TO.C,RV35*%
X388100000Y-95000000D02*
X388100000Y-95300000D01*
%TO.C,RV37*%
X388100000Y-149000000D02*
X388100000Y-149300000D01*
%TO.C,RV3*%
X396600000Y-27000000D02*
X396600000Y-27300000D01*
%TO.C,RV35*%
X396900000Y-95000000D02*
X396900000Y-95300000D01*
%TO.C,RV37*%
X396900000Y-149000000D02*
X396900000Y-149300000D01*
%TO.C,RV55*%
X397100000Y-222000000D02*
X397100000Y-222300000D01*
%TO.C,RV56*%
X397100000Y-256000000D02*
X397100000Y-256300000D01*
%TO.C,RV74*%
X397100000Y-343000000D02*
X397100000Y-343300000D01*
%TO.C,RV84*%
X397100000Y-384000000D02*
X397100000Y-384300000D01*
%TO.C,RV38*%
X404100000Y-180100000D02*
X404100000Y-180400000D01*
%TO.C,RV3*%
X405400000Y-27000000D02*
X405400000Y-27300000D01*
%TO.C,RV55*%
X405900000Y-222000000D02*
X405900000Y-222300000D01*
%TO.C,RV56*%
X405900000Y-256000000D02*
X405900000Y-256300000D01*
%TO.C,RV74*%
X405900000Y-343000000D02*
X405900000Y-343300000D01*
%TO.C,RV84*%
X405900000Y-384000000D02*
X405900000Y-384300000D01*
%TO.C,RV36*%
X408100000Y-122000000D02*
X408100000Y-122300000D01*
%TO.C,RV38*%
X412900000Y-180100000D02*
X412900000Y-180400000D01*
%TO.C,RV36*%
X416900000Y-122000000D02*
X416900000Y-122300000D01*
%TO.C,RV4*%
X417100000Y-58000000D02*
X417100000Y-58300000D01*
X425900000Y-58000000D02*
X425900000Y-58300000D01*
%TO.C,RV57*%
X429100000Y-222100000D02*
X429100000Y-222400000D01*
%TO.C,RV5*%
X435100000Y-27100000D02*
X435100000Y-27400000D01*
%TO.C,RV66*%
X436600000Y-307000000D02*
X436600000Y-307300000D01*
%TO.C,RV75*%
X436600000Y-343000000D02*
X436600000Y-343300000D01*
%TO.C,RV85*%
X436600000Y-384000000D02*
X436600000Y-384300000D01*
%TO.C,RV57*%
X437900000Y-222100000D02*
X437900000Y-222400000D01*
%TO.C,RV5*%
X443900000Y-27100000D02*
X443900000Y-27400000D01*
%TO.C,RV66*%
X445400000Y-307000000D02*
X445400000Y-307300000D01*
%TO.C,RV75*%
X445400000Y-343000000D02*
X445400000Y-343300000D01*
%TO.C,RV85*%
X445400000Y-384000000D02*
X445400000Y-384300000D01*
D20*
%TO.C,RASPBERRY PI 4*%
X116500000Y-219500000D03*
X116500000Y-277500000D03*
X165500000Y-219500000D03*
X165500000Y-277500000D03*
M02*
