%TF.GenerationSoftware,KiCad,Pcbnew,8.0.5*%
%TF.CreationDate,2024-10-29T20:02:02+01:00*%
%TF.ProjectId,troublemaker,74726f75-626c-4656-9d61-6b65722e6b69,rev?*%
%TF.SameCoordinates,Original*%
%TF.FileFunction,Copper,L1,Top*%
%TF.FilePolarity,Positive*%
%FSLAX46Y46*%
G04 Gerber Fmt 4.6, Leading zero omitted, Abs format (unit mm)*
G04 Created by KiCad (PCBNEW 8.0.5) date 2024-10-29 20:02:02*
%MOMM*%
%LPD*%
G01*
G04 APERTURE LIST*
G04 Aperture macros list*
%AMRoundRect*
0 Rectangle with rounded corners*
0 $1 Rounding radius*
0 $2 $3 $4 $5 $6 $7 $8 $9 X,Y pos of 4 corners*
0 Add a 4 corners polygon primitive as box body*
4,1,4,$2,$3,$4,$5,$6,$7,$8,$9,$2,$3,0*
0 Add four circle primitives for the rounded corners*
1,1,$1+$1,$2,$3*
1,1,$1+$1,$4,$5*
1,1,$1+$1,$6,$7*
1,1,$1+$1,$8,$9*
0 Add four rect primitives between the rounded corners*
20,1,$1+$1,$2,$3,$4,$5,0*
20,1,$1+$1,$4,$5,$6,$7,0*
20,1,$1+$1,$6,$7,$8,$9,0*
20,1,$1+$1,$8,$9,$2,$3,0*%
G04 Aperture macros list end*
%TA.AperFunction,ComponentPad*%
%ADD10C,1.600000*%
%TD*%
%TA.AperFunction,ComponentPad*%
%ADD11O,1.600000X1.600000*%
%TD*%
%TA.AperFunction,ComponentPad*%
%ADD12R,1.800000X1.800000*%
%TD*%
%TA.AperFunction,ComponentPad*%
%ADD13C,1.800000*%
%TD*%
%TA.AperFunction,ComponentPad*%
%ADD14RoundRect,0.750000X0.750000X-1.250000X0.750000X1.250000X-0.750000X1.250000X-0.750000X-1.250000X0*%
%TD*%
%TA.AperFunction,ComponentPad*%
%ADD15O,3.500000X2.300000*%
%TD*%
%TA.AperFunction,SMDPad,CuDef*%
%ADD16R,1.270000X2.540000*%
%TD*%
%TA.AperFunction,ComponentPad*%
%ADD17O,2.900000X1.600000*%
%TD*%
%TA.AperFunction,ComponentPad*%
%ADD18R,1.350000X1.350000*%
%TD*%
%TA.AperFunction,ComponentPad*%
%ADD19O,1.350000X1.350000*%
%TD*%
%TA.AperFunction,ComponentPad*%
%ADD20RoundRect,0.250000X-0.600000X-0.600000X0.600000X-0.600000X0.600000X0.600000X-0.600000X0.600000X0*%
%TD*%
%TA.AperFunction,ComponentPad*%
%ADD21C,1.700000*%
%TD*%
%TA.AperFunction,ComponentPad*%
%ADD22C,1.665000*%
%TD*%
%TA.AperFunction,ComponentPad*%
%ADD23C,1.879600*%
%TD*%
%TA.AperFunction,ComponentPad*%
%ADD24R,1.879600X1.879600*%
%TD*%
%TA.AperFunction,ComponentPad*%
%ADD25R,0.850000X0.850000*%
%TD*%
%TA.AperFunction,ComponentPad*%
%ADD26O,2.300000X3.500000*%
%TD*%
%TA.AperFunction,ComponentPad*%
%ADD27C,6.200000*%
%TD*%
%TA.AperFunction,ComponentPad*%
%ADD28RoundRect,0.250000X0.600000X-0.600000X0.600000X0.600000X-0.600000X0.600000X-0.600000X-0.600000X0*%
%TD*%
%TA.AperFunction,ViaPad*%
%ADD29C,0.600000*%
%TD*%
%TA.AperFunction,Conductor*%
%ADD30C,0.200000*%
%TD*%
%TA.AperFunction,Conductor*%
%ADD31C,0.256000*%
%TD*%
G04 APERTURE END LIST*
D10*
%TO.P,R1,1*%
%TO.N,taptempo_LED_RPi16*%
X158800000Y-240060000D03*
D11*
%TO.P,R1,2*%
%TO.N,Net-(taptempo_led1-A)*%
X158800000Y-229900000D03*
%TD*%
D12*
%TO.P,RV5,1,1*%
%TO.N,3v3*%
X437000000Y-34250000D03*
D13*
%TO.P,RV5,2,2*%
%TO.N,Net-(U2-I4)*%
X439500000Y-34250000D03*
%TO.P,RV5,3,3*%
%TO.N,XT_GND*%
X442000000Y-34250000D03*
D14*
%TO.P,RV5,MP*%
%TO.N,N/C*%
X435100000Y-27250000D03*
X443900000Y-27250000D03*
%TD*%
D15*
%TO.P,SW10,1,A*%
%TO.N,sw_grain_playback*%
X418500000Y-296400000D03*
%TO.P,SW10,2,B*%
%TO.N,XT_GND*%
X418500000Y-291700000D03*
%TO.P,SW10,3,C*%
%TO.N,unconnected-(SW10-C-Pad3)*%
X418500000Y-287000000D03*
%TD*%
D12*
%TO.P,RV33,1,1*%
%TO.N,3v3*%
X307700000Y-156150000D03*
D13*
%TO.P,RV33,2,2*%
%TO.N,Net-(U3-I5)*%
X310200000Y-156150000D03*
%TO.P,RV33,3,3*%
%TO.N,XT_GND*%
X312700000Y-156150000D03*
D14*
%TO.P,RV33,MP*%
%TO.N,N/C*%
X305800000Y-149150000D03*
X314600000Y-149150000D03*
%TD*%
D12*
%TO.P,RV31,1,1*%
%TO.N,3v3*%
X307700000Y-102150000D03*
D13*
%TO.P,RV31,2,2*%
%TO.N,Net-(U3-I3)*%
X310200000Y-102150000D03*
%TO.P,RV31,3,3*%
%TO.N,XT_GND*%
X312700000Y-102150000D03*
D14*
%TO.P,RV31,MP*%
%TO.N,N/C*%
X305800000Y-95150000D03*
X314600000Y-95150000D03*
%TD*%
D12*
%TO.P,RV74,1,1*%
%TO.N,3v3*%
X399000000Y-350150000D03*
D13*
%TO.P,RV74,2,2*%
%TO.N,Net-(U6-I4)*%
X401500000Y-350150000D03*
%TO.P,RV74,3,3*%
%TO.N,XT_GND*%
X404000000Y-350150000D03*
D14*
%TO.P,RV74,MP*%
%TO.N,N/C*%
X397100000Y-343150000D03*
X405900000Y-343150000D03*
%TD*%
D12*
%TO.P,RV52,1,1*%
%TO.N,3v3*%
X314000000Y-263150000D03*
D13*
%TO.P,RV52,2,2*%
%TO.N,Net-(U4-I1)*%
X316500000Y-263150000D03*
%TO.P,RV52,3,3*%
%TO.N,XT_GND*%
X319000000Y-263150000D03*
D14*
%TO.P,RV52,MP*%
%TO.N,N/C*%
X312100000Y-256150000D03*
X320900000Y-256150000D03*
%TD*%
D12*
%TO.P,RV4,1,1*%
%TO.N,3v3*%
X419000000Y-65150000D03*
D13*
%TO.P,RV4,2,2*%
%TO.N,Net-(U2-I3)*%
X421500000Y-65150000D03*
%TO.P,RV4,3,3*%
%TO.N,XT_GND*%
X424000000Y-65150000D03*
D14*
%TO.P,RV4,MP*%
%TO.N,N/C*%
X417100000Y-58150000D03*
X425900000Y-58150000D03*
%TD*%
D16*
%TO.P,Neopixel_bass_out_level1,1,GND*%
%TO.N,Net-(Neopixel_bass_out_level1-GND-Pad1)*%
X283690000Y-97700000D03*
%TO.P,Neopixel_bass_out_level1,2,DATA_OUT*%
%TO.N,Net-(Neopixel_bass_out_level1-DATA_OUT)*%
X281150000Y-97700000D03*
%TO.P,Neopixel_bass_out_level1,3,VCC*%
%TO.N,Net-(Neopixel_bass_out_level1-VCC-Pad3)*%
X278610000Y-97700000D03*
%TO.P,Neopixel_bass_out_level1,4,GND*%
%TO.N,Net-(Neopixel_bass_out_level1-GND-Pad4)*%
X276070000Y-97700000D03*
%TO.P,Neopixel_bass_out_level1,5,GND*%
%TO.N,Net-(Neopixel_bass_gain_reduction1-GND-Pad1)*%
X283690000Y-145706000D03*
%TO.P,Neopixel_bass_out_level1,6,DATA_IN*%
%TO.N,Net-(Neopixel_bass_gain_reduction1-DATA_OUT)*%
X281150000Y-145706000D03*
%TO.P,Neopixel_bass_out_level1,7,VCC*%
%TO.N,Net-(Neopixel_bass_gain_reduction1-VCC-Pad3)*%
X278610000Y-145706000D03*
%TO.P,Neopixel_bass_out_level1,8,GND*%
%TO.N,Net-(Neopixel_bass_gain_reduction1-GND-Pad4)*%
X276070000Y-145706000D03*
%TD*%
%TO.P,Neopixel_high_gain_reduction1,1,GND*%
%TO.N,Net-(Neopixel_high_gain_reduction1-GND-Pad1)*%
X428710000Y-145600000D03*
%TO.P,Neopixel_high_gain_reduction1,2,DATA_OUT*%
%TO.N,Net-(Neopixel_high_gain_reduction1-DATA_OUT)*%
X431250000Y-145600000D03*
%TO.P,Neopixel_high_gain_reduction1,3,VCC*%
%TO.N,Net-(Neopixel_high_gain_reduction1-VCC-Pad3)*%
X433790000Y-145600000D03*
%TO.P,Neopixel_high_gain_reduction1,4,GND*%
%TO.N,Net-(Neopixel_high_gain_reduction1-GND-Pad4)*%
X436330000Y-145600000D03*
%TO.P,Neopixel_high_gain_reduction1,5,GND*%
%TO.N,Net-(Neopixel_high_gain_reduction1-GND-Pad5)*%
X428710000Y-97594000D03*
%TO.P,Neopixel_high_gain_reduction1,6,DATA_IN*%
%TO.N,Net-(Neopixel_high_gain_reduction1-DATA_IN)*%
X431250000Y-97594000D03*
%TO.P,Neopixel_high_gain_reduction1,7,VCC*%
%TO.N,Net-(Neopixel_high_gain_reduction1-VCC-Pad7)*%
X433790000Y-97594000D03*
%TO.P,Neopixel_high_gain_reduction1,8,GND*%
%TO.N,Net-(Neopixel_high_gain_reduction1-GND-Pad8)*%
X436330000Y-97594000D03*
%TD*%
D12*
%TO.P,RV65,1,1*%
%TO.N,3v3*%
X372000000Y-297150000D03*
D13*
%TO.P,RV65,2,2*%
%TO.N,Net-(U4-I14)*%
X374500000Y-297150000D03*
%TO.P,RV65,3,3*%
%TO.N,XT_GND*%
X377000000Y-297150000D03*
D14*
%TO.P,RV65,MP*%
%TO.N,N/C*%
X370100000Y-290150000D03*
X378900000Y-290150000D03*
%TD*%
D12*
%TO.P,RV1,1,1*%
%TO.N,3v3*%
X337000000Y-65150000D03*
D13*
%TO.P,RV1,2,2*%
%TO.N,Net-(U2-I0)*%
X339500000Y-65150000D03*
%TO.P,RV1,3,3*%
%TO.N,XT_GND*%
X342000000Y-65150000D03*
D14*
%TO.P,RV1,MP*%
%TO.N,N/C*%
X335100000Y-58150000D03*
X343900000Y-58150000D03*
%TD*%
D12*
%TO.P,RV53,1,1*%
%TO.N,3v3*%
X359000000Y-229250000D03*
D13*
%TO.P,RV53,2,2*%
%TO.N,Net-(U4-I2)*%
X361500000Y-229250000D03*
%TO.P,RV53,3,3*%
%TO.N,XT_GND*%
X364000000Y-229250000D03*
D14*
%TO.P,RV53,MP*%
%TO.N,N/C*%
X357100000Y-222250000D03*
X365900000Y-222250000D03*
%TD*%
D16*
%TO.P,Neopixel_mid_out_level1,1,GND*%
%TO.N,Net-(Neopixel_high_gain_reduction1-GND-Pad5)*%
X365990000Y-97700000D03*
%TO.P,Neopixel_mid_out_level1,2,DATA_OUT*%
%TO.N,Net-(Neopixel_high_gain_reduction1-DATA_IN)*%
X363450000Y-97700000D03*
%TO.P,Neopixel_mid_out_level1,3,VCC*%
%TO.N,Net-(Neopixel_high_gain_reduction1-VCC-Pad7)*%
X360910000Y-97700000D03*
%TO.P,Neopixel_mid_out_level1,4,GND*%
%TO.N,Net-(Neopixel_high_gain_reduction1-GND-Pad8)*%
X358370000Y-97700000D03*
%TO.P,Neopixel_mid_out_level1,5,GND*%
%TO.N,Net-(Neopixel_mid_gain_reduction1-GND-Pad1)*%
X365990000Y-145706000D03*
%TO.P,Neopixel_mid_out_level1,6,DATA_IN*%
%TO.N,Net-(Neopixel_mid_gain_reduction1-DATA_OUT)*%
X363450000Y-145706000D03*
%TO.P,Neopixel_mid_out_level1,7,VCC*%
%TO.N,Net-(Neopixel_mid_gain_reduction1-VCC-Pad3)*%
X360910000Y-145706000D03*
%TO.P,Neopixel_mid_out_level1,8,GND*%
%TO.N,Net-(Neopixel_mid_gain_reduction1-GND-Pad4)*%
X358370000Y-145706000D03*
%TD*%
D12*
%TO.P,RV26,1,1*%
%TO.N,3v3*%
X159000000Y-187150000D03*
D13*
%TO.P,RV26,2,2*%
%TO.N,Net-(U2-I14)*%
X161500000Y-187150000D03*
%TO.P,RV26,3,3*%
%TO.N,XT_GND*%
X164000000Y-187150000D03*
D14*
%TO.P,RV26,MP*%
%TO.N,N/C*%
X157100000Y-180150000D03*
X165900000Y-180150000D03*
%TD*%
D12*
%TO.P,RV78,1,1*%
%TO.N,3v3*%
X178000000Y-391250000D03*
D13*
%TO.P,RV78,2,2*%
%TO.N,Net-(U6-I8)*%
X180500000Y-391250000D03*
%TO.P,RV78,3,3*%
%TO.N,XT_GND*%
X183000000Y-391250000D03*
D14*
%TO.P,RV78,MP*%
%TO.N,N/C*%
X176100000Y-384250000D03*
X184900000Y-384250000D03*
%TD*%
D12*
%TO.P,RV51,1,1*%
%TO.N,3v3*%
X314000000Y-229150000D03*
D13*
%TO.P,RV51,2,2*%
%TO.N,Net-(U4-I0)*%
X316500000Y-229150000D03*
%TO.P,RV51,3,3*%
%TO.N,XT_GND*%
X319000000Y-229150000D03*
D14*
%TO.P,RV51,MP*%
%TO.N,N/C*%
X312100000Y-222150000D03*
X320900000Y-222150000D03*
%TD*%
D12*
%TO.P,RV39,1,1*%
%TO.N,3v3*%
X212000000Y-263150000D03*
D13*
%TO.P,RV39,2,2*%
%TO.N,Net-(U3-I12)*%
X214500000Y-263150000D03*
%TO.P,RV39,3,3*%
%TO.N,XT_GND*%
X217000000Y-263150000D03*
D14*
%TO.P,RV39,MP*%
%TO.N,N/C*%
X210100000Y-256150000D03*
X218900000Y-256150000D03*
%TD*%
D12*
%TO.P,RV80,1,1*%
%TO.N,3v3*%
X250000000Y-391150000D03*
D13*
%TO.P,RV80,2,2*%
%TO.N,Net-(U6-I10)*%
X252500000Y-391150000D03*
%TO.P,RV80,3,3*%
%TO.N,XT_GND*%
X255000000Y-391150000D03*
D14*
%TO.P,RV80,MP*%
%TO.N,N/C*%
X248100000Y-384150000D03*
X256900000Y-384150000D03*
%TD*%
D12*
%TO.P,RV49,1,1*%
%TO.N,3v3*%
X244000000Y-229150000D03*
D13*
%TO.P,RV49,2,2*%
%TO.N,Net-(U3-I14)*%
X246500000Y-229150000D03*
%TO.P,RV49,3,3*%
%TO.N,XT_GND*%
X249000000Y-229150000D03*
D14*
%TO.P,RV49,MP*%
%TO.N,N/C*%
X242100000Y-222150000D03*
X250900000Y-222150000D03*
%TD*%
D12*
%TO.P,taptempo_led1,1,K*%
%TO.N,XT_GND*%
X146225000Y-221700000D03*
D13*
%TO.P,taptempo_led1,2,A*%
%TO.N,Net-(taptempo_led1-A)*%
X148765000Y-221700000D03*
%TD*%
D12*
%TO.P,RV57,1,1*%
%TO.N,3v3*%
X431000000Y-229250000D03*
D13*
%TO.P,RV57,2,2*%
%TO.N,Net-(U4-I6)*%
X433500000Y-229250000D03*
%TO.P,RV57,3,3*%
%TO.N,XT_GND*%
X436000000Y-229250000D03*
D14*
%TO.P,RV57,MP*%
%TO.N,N/C*%
X429100000Y-222250000D03*
X437900000Y-222250000D03*
%TD*%
D12*
%TO.P,RV61,1,1*%
%TO.N,3v3*%
X243000000Y-297150000D03*
D13*
%TO.P,RV61,2,2*%
%TO.N,Net-(U4-I10)*%
X245500000Y-297150000D03*
%TO.P,RV61,3,3*%
%TO.N,XT_GND*%
X248000000Y-297150000D03*
D14*
%TO.P,RV61,MP*%
%TO.N,N/C*%
X241100000Y-290150000D03*
X249900000Y-290150000D03*
%TD*%
D12*
%TO.P,RV64,1,1*%
%TO.N,3v3*%
X338000000Y-314150000D03*
D13*
%TO.P,RV64,2,2*%
%TO.N,Net-(U4-I13)*%
X340500000Y-314150000D03*
%TO.P,RV64,3,3*%
%TO.N,XT_GND*%
X343000000Y-314150000D03*
D14*
%TO.P,RV64,MP*%
%TO.N,N/C*%
X336100000Y-307150000D03*
X344900000Y-307150000D03*
%TD*%
D12*
%TO.P,RV81,1,1*%
%TO.N,3v3*%
X291000000Y-391150000D03*
D13*
%TO.P,RV81,2,2*%
%TO.N,Net-(U6-I11)*%
X293500000Y-391150000D03*
%TO.P,RV81,3,3*%
%TO.N,XT_GND*%
X296000000Y-391150000D03*
D14*
%TO.P,RV81,MP*%
%TO.N,N/C*%
X289100000Y-384150000D03*
X297900000Y-384150000D03*
%TD*%
D12*
%TO.P,RV59,1,1*%
%TO.N,3v3*%
X177000000Y-297150000D03*
D13*
%TO.P,RV59,2,2*%
%TO.N,Net-(U4-I8)*%
X179500000Y-297150000D03*
%TO.P,RV59,3,3*%
%TO.N,XT_GND*%
X182000000Y-297150000D03*
D14*
%TO.P,RV59,MP*%
%TO.N,N/C*%
X175100000Y-290150000D03*
X183900000Y-290150000D03*
%TD*%
D16*
%TO.P,Neopixel_high_out_level1,1,GND*%
%TO.N,unconnected-(Neopixel_high_out_level1-GND-Pad1)*%
X448390000Y-97700000D03*
%TO.P,Neopixel_high_out_level1,2,DATA_OUT*%
%TO.N,unconnected-(Neopixel_high_out_level1-DATA_OUT-Pad2)*%
X445850000Y-97700000D03*
%TO.P,Neopixel_high_out_level1,3,VCC*%
%TO.N,unconnected-(Neopixel_high_out_level1-VCC-Pad3)*%
X443310000Y-97700000D03*
%TO.P,Neopixel_high_out_level1,4,GND*%
%TO.N,unconnected-(Neopixel_high_out_level1-GND-Pad4)*%
X440770000Y-97700000D03*
%TO.P,Neopixel_high_out_level1,5,GND*%
%TO.N,Net-(Neopixel_high_gain_reduction1-GND-Pad1)*%
X448390000Y-145706000D03*
%TO.P,Neopixel_high_out_level1,6,DATA_IN*%
%TO.N,Net-(Neopixel_high_gain_reduction1-DATA_OUT)*%
X445850000Y-145706000D03*
%TO.P,Neopixel_high_out_level1,7,VCC*%
%TO.N,Net-(Neopixel_high_gain_reduction1-VCC-Pad3)*%
X443310000Y-145706000D03*
%TO.P,Neopixel_high_out_level1,8,GND*%
%TO.N,Net-(Neopixel_high_gain_reduction1-GND-Pad4)*%
X440770000Y-145706000D03*
%TD*%
D12*
%TO.P,RV24,1,1*%
%TO.N,3v3*%
X163000000Y-129150000D03*
D13*
%TO.P,RV24,2,2*%
%TO.N,Net-(U2-I12)*%
X165500000Y-129150000D03*
%TO.P,RV24,3,3*%
%TO.N,XT_GND*%
X168000000Y-129150000D03*
D14*
%TO.P,RV24,MP*%
%TO.N,N/C*%
X161100000Y-122150000D03*
X169900000Y-122150000D03*
%TD*%
D15*
%TO.P,SW9,1,A*%
%TO.N,sw_grain_type*%
X402500000Y-315400000D03*
%TO.P,SW9,2,B*%
%TO.N,XT_GND*%
X402500000Y-310700000D03*
%TO.P,SW9,3,C*%
%TO.N,unconnected-(SW9-C-Pad3)*%
X402500000Y-306000000D03*
%TD*%
D12*
%TO.P,RV9,1,1*%
%TO.N,3v3*%
X92000000Y-100150000D03*
D13*
%TO.P,RV9,2,2*%
%TO.N,Net-(U2-I8)*%
X94500000Y-100150000D03*
%TO.P,RV9,3,3*%
%TO.N,XT_GND*%
X97000000Y-100150000D03*
D14*
%TO.P,RV9,MP*%
%TO.N,N/C*%
X90100000Y-93150000D03*
X98900000Y-93150000D03*
%TD*%
D12*
%TO.P,RV14,1,1*%
%TO.N,3v3*%
X53500000Y-285150000D03*
D13*
%TO.P,RV14,2,2*%
%TO.N,Net-(U5-I4)*%
X56000000Y-285150000D03*
%TO.P,RV14,3,3*%
%TO.N,XT_GND*%
X58500000Y-285150000D03*
D14*
%TO.P,RV14,MP*%
%TO.N,N/C*%
X51600000Y-278150000D03*
X60400000Y-278150000D03*
%TD*%
D17*
%TO.P,SW7,1,1*%
%TO.N,XT_GND*%
X280500000Y-223450000D03*
%TO.P,SW7,2,2*%
%TO.N,btn_delay_taptempo*%
X280500000Y-219950000D03*
%TD*%
D12*
%TO.P,RV54,1,1*%
%TO.N,3v3*%
X359000000Y-263150000D03*
D13*
%TO.P,RV54,2,2*%
%TO.N,Net-(U4-I3)*%
X361500000Y-263150000D03*
%TO.P,RV54,3,3*%
%TO.N,XT_GND*%
X364000000Y-263150000D03*
D14*
%TO.P,RV54,MP*%
%TO.N,N/C*%
X357100000Y-256150000D03*
X365900000Y-256150000D03*
%TD*%
D12*
%TO.P,RV32,1,1*%
%TO.N,3v3*%
X327700000Y-129150000D03*
D13*
%TO.P,RV32,2,2*%
%TO.N,Net-(U3-I4)*%
X330200000Y-129150000D03*
%TO.P,RV32,3,3*%
%TO.N,XT_GND*%
X332700000Y-129150000D03*
D14*
%TO.P,RV32,MP*%
%TO.N,N/C*%
X325800000Y-122150000D03*
X334600000Y-122150000D03*
%TD*%
D12*
%TO.P,RV8,1,1*%
%TO.N,3v3*%
X44000000Y-156150000D03*
D13*
%TO.P,RV8,2,2*%
%TO.N,Net-(U2-I7)*%
X46500000Y-156150000D03*
%TO.P,RV8,3,3*%
%TO.N,XT_GND*%
X49000000Y-156150000D03*
D14*
%TO.P,RV8,MP*%
%TO.N,N/C*%
X42100000Y-149150000D03*
X50900000Y-149150000D03*
%TD*%
D15*
%TO.P,SW1,1,A*%
%TO.N,sw_eq2*%
X114500000Y-169400000D03*
%TO.P,SW1,2,B*%
%TO.N,XT_GND*%
X114500000Y-164700000D03*
%TO.P,SW1,3,C*%
%TO.N,unconnected-(SW1-C-Pad3)*%
X114500000Y-160000000D03*
%TD*%
D12*
%TO.P,RV25,1,1*%
%TO.N,3v3*%
X143000000Y-156130000D03*
D13*
%TO.P,RV25,2,2*%
%TO.N,Net-(U2-I13)*%
X145500000Y-156130000D03*
%TO.P,RV25,3,3*%
%TO.N,XT_GND*%
X148000000Y-156130000D03*
D14*
%TO.P,RV25,MP*%
%TO.N,N/C*%
X141100000Y-149130000D03*
X149900000Y-149130000D03*
%TD*%
D12*
%TO.P,RV68,1,1*%
%TO.N,3v3*%
X183000000Y-350150000D03*
D13*
%TO.P,RV68,2,2*%
%TO.N,Net-(U5-I12)*%
X185500000Y-350150000D03*
%TO.P,RV68,3,3*%
%TO.N,XT_GND*%
X188000000Y-350150000D03*
D14*
%TO.P,RV68,MP*%
%TO.N,N/C*%
X181100000Y-343150000D03*
X189900000Y-343150000D03*
%TD*%
D15*
%TO.P,SW3,1,A*%
%TO.N,sw_sub*%
X191500000Y-184400000D03*
%TO.P,SW3,2,B*%
%TO.N,XT_GND*%
X191500000Y-179700000D03*
%TO.P,SW3,3,C*%
%TO.N,unconnected-(SW3-C-Pad3)*%
X191500000Y-175000000D03*
%TD*%
%TO.P,SW2,1,A*%
%TO.N,sw_eq1*%
X66500000Y-169400000D03*
%TO.P,SW2,2,B*%
%TO.N,XT_GND*%
X66500000Y-164700000D03*
%TO.P,SW2,3,C*%
%TO.N,unconnected-(SW2-C-Pad3)*%
X66500000Y-160000000D03*
%TD*%
D12*
%TO.P,RV73,1,1*%
%TO.N,3v3*%
X367000000Y-350250000D03*
D13*
%TO.P,RV73,2,2*%
%TO.N,Net-(U6-I3)*%
X369500000Y-350250000D03*
%TO.P,RV73,3,3*%
%TO.N,XT_GND*%
X372000000Y-350250000D03*
D14*
%TO.P,RV73,MP*%
%TO.N,N/C*%
X365100000Y-343250000D03*
X373900000Y-343250000D03*
%TD*%
D12*
%TO.P,RV47,1,1*%
%TO.N,3v3*%
X147000000Y-263150000D03*
D13*
%TO.P,RV47,2,2*%
%TO.N,Net-(U3-I11)*%
X149500000Y-263150000D03*
%TO.P,RV47,3,3*%
%TO.N,XT_GND*%
X152000000Y-263150000D03*
D14*
%TO.P,RV47,MP*%
%TO.N,N/C*%
X145100000Y-256150000D03*
X153900000Y-256150000D03*
%TD*%
D12*
%TO.P,RV66,1,1*%
%TO.N,3v3*%
X438500000Y-314150000D03*
D13*
%TO.P,RV66,2,2*%
%TO.N,Net-(U4-I15)*%
X441000000Y-314150000D03*
%TO.P,RV66,3,3*%
%TO.N,XT_GND*%
X443500000Y-314150000D03*
D14*
%TO.P,RV66,MP*%
%TO.N,N/C*%
X436600000Y-307150000D03*
X445400000Y-307150000D03*
%TD*%
D12*
%TO.P,RV16,1,1*%
%TO.N,3v3*%
X53500000Y-353150000D03*
D13*
%TO.P,RV16,2,2*%
%TO.N,Net-(U5-I8)*%
X56000000Y-353150000D03*
%TO.P,RV16,3,3*%
%TO.N,XT_GND*%
X58500000Y-353150000D03*
D14*
%TO.P,RV16,MP*%
%TO.N,N/C*%
X51600000Y-346150000D03*
X60400000Y-346150000D03*
%TD*%
D12*
%TO.P,RV58,1,1*%
%TO.N,3v3*%
X143000000Y-314150000D03*
D13*
%TO.P,RV58,2,2*%
%TO.N,Net-(U4-I7)*%
X145500000Y-314150000D03*
%TO.P,RV58,3,3*%
%TO.N,XT_GND*%
X148000000Y-314150000D03*
D14*
%TO.P,RV58,MP*%
%TO.N,N/C*%
X141100000Y-307150000D03*
X149900000Y-307150000D03*
%TD*%
D12*
%TO.P,RV6,1,1*%
%TO.N,3v3*%
X44000000Y-100150000D03*
D13*
%TO.P,RV6,2,2*%
%TO.N,Net-(U2-I5)*%
X46500000Y-100150000D03*
%TO.P,RV6,3,3*%
%TO.N,XT_GND*%
X49000000Y-100150000D03*
D14*
%TO.P,RV6,MP*%
%TO.N,N/C*%
X42100000Y-93150000D03*
X50900000Y-93150000D03*
%TD*%
D16*
%TO.P,Neopixel_sub_out_level1,1,GND*%
%TO.N,Net-(Neopixel_bass_gain_reduction1-GND-Pad5)*%
X201390000Y-97600000D03*
%TO.P,Neopixel_sub_out_level1,2,DATA_OUT*%
%TO.N,Net-(Neopixel_bass_gain_reduction1-DATA_IN)*%
X198850000Y-97600000D03*
%TO.P,Neopixel_sub_out_level1,3,VCC*%
%TO.N,Net-(Neopixel_bass_gain_reduction1-VCC-Pad7)*%
X196310000Y-97600000D03*
%TO.P,Neopixel_sub_out_level1,4,GND*%
%TO.N,Net-(Neopixel_bass_gain_reduction1-GND-Pad8)*%
X193770000Y-97600000D03*
%TO.P,Neopixel_sub_out_level1,5,GND*%
%TO.N,Net-(Neopixel_sub_gain_reduction1-GND-Pad1)*%
X201390000Y-145606000D03*
%TO.P,Neopixel_sub_out_level1,6,DATA_IN*%
%TO.N,Net-(Neopixel_sub_gain_reduction1-DATA_OUT)*%
X198850000Y-145606000D03*
%TO.P,Neopixel_sub_out_level1,7,VCC*%
%TO.N,Net-(Neopixel_sub_gain_reduction1-VCC-Pad3)*%
X196310000Y-145606000D03*
%TO.P,Neopixel_sub_out_level1,8,GND*%
%TO.N,Net-(Neopixel_sub_gain_reduction1-GND-Pad4)*%
X193770000Y-145606000D03*
%TD*%
D12*
%TO.P,RV23,1,1*%
%TO.N,3v3*%
X143000000Y-102150000D03*
D13*
%TO.P,RV23,2,2*%
%TO.N,Net-(U2-I11)*%
X145500000Y-102150000D03*
%TO.P,RV23,3,3*%
%TO.N,XT_GND*%
X148000000Y-102150000D03*
D14*
%TO.P,RV23,MP*%
%TO.N,N/C*%
X141100000Y-95150000D03*
X149900000Y-95150000D03*
%TD*%
D12*
%TO.P,RV34,1,1*%
%TO.N,3v3*%
X323700000Y-187150000D03*
D13*
%TO.P,RV34,2,2*%
%TO.N,Net-(U3-I6)*%
X326200000Y-187150000D03*
%TO.P,RV34,3,3*%
%TO.N,XT_GND*%
X328700000Y-187150000D03*
D14*
%TO.P,RV34,MP*%
%TO.N,N/C*%
X321800000Y-180150000D03*
X330600000Y-180150000D03*
%TD*%
D12*
%TO.P,RV70,1,1*%
%TO.N,3v3*%
X259000000Y-350150000D03*
D13*
%TO.P,RV70,2,2*%
%TO.N,Net-(U6-I0)*%
X261500000Y-350150000D03*
%TO.P,RV70,3,3*%
%TO.N,XT_GND*%
X264000000Y-350150000D03*
D14*
%TO.P,RV70,MP*%
%TO.N,N/C*%
X257100000Y-343150000D03*
X265900000Y-343150000D03*
%TD*%
D12*
%TO.P,RV17,1,1*%
%TO.N,3v3*%
X53500000Y-387150000D03*
D13*
%TO.P,RV17,2,2*%
%TO.N,Net-(U5-I10)*%
X56000000Y-387150000D03*
%TO.P,RV17,3,3*%
%TO.N,XT_GND*%
X58500000Y-387150000D03*
D14*
%TO.P,RV17,MP*%
%TO.N,N/C*%
X51600000Y-380150000D03*
X60400000Y-380150000D03*
%TD*%
D12*
%TO.P,RV62,1,1*%
%TO.N,3v3*%
X275000000Y-314150000D03*
D13*
%TO.P,RV62,2,2*%
%TO.N,Net-(U4-I11)*%
X277500000Y-314150000D03*
%TO.P,RV62,3,3*%
%TO.N,XT_GND*%
X280000000Y-314150000D03*
D14*
%TO.P,RV62,MP*%
%TO.N,N/C*%
X273100000Y-307150000D03*
X281900000Y-307150000D03*
%TD*%
D17*
%TO.P,SW11,1,1*%
%TO.N,XT_GND*%
X360000000Y-28450000D03*
%TO.P,SW11,2,2*%
%TO.N,sampler_stop*%
X360000000Y-24950000D03*
%TD*%
D12*
%TO.P,RV50,1,1*%
%TO.N,3v3*%
X278000000Y-263150000D03*
D13*
%TO.P,RV50,2,2*%
%TO.N,Net-(U3-I15)*%
X280500000Y-263150000D03*
%TO.P,RV50,3,3*%
%TO.N,XT_GND*%
X283000000Y-263150000D03*
D14*
%TO.P,RV50,MP*%
%TO.N,N/C*%
X276100000Y-256150000D03*
X284900000Y-256150000D03*
%TD*%
D12*
%TO.P,RV83,1,1*%
%TO.N,3v3*%
X363000000Y-391150000D03*
D13*
%TO.P,RV83,2,2*%
%TO.N,Net-(U6-I13)*%
X365500000Y-391150000D03*
%TO.P,RV83,3,3*%
%TO.N,XT_GND*%
X368000000Y-391150000D03*
D14*
%TO.P,RV83,MP*%
%TO.N,N/C*%
X361100000Y-384150000D03*
X369900000Y-384150000D03*
%TD*%
D12*
%TO.P,RV69,1,1*%
%TO.N,3v3*%
X223000000Y-350250000D03*
D13*
%TO.P,RV69,2,2*%
%TO.N,Net-(U5-I13)*%
X225500000Y-350250000D03*
%TO.P,RV69,3,3*%
%TO.N,XT_GND*%
X228000000Y-350250000D03*
D14*
%TO.P,RV69,MP*%
%TO.N,N/C*%
X221100000Y-343250000D03*
X229900000Y-343250000D03*
%TD*%
D12*
%TO.P,RV13,1,1*%
%TO.N,3v3*%
X53500000Y-251150000D03*
D13*
%TO.P,RV13,2,2*%
%TO.N,Net-(U5-I2)*%
X56000000Y-251150000D03*
%TO.P,RV13,3,3*%
%TO.N,XT_GND*%
X58500000Y-251150000D03*
D14*
%TO.P,RV13,MP*%
%TO.N,N/C*%
X51600000Y-244150000D03*
X60400000Y-244150000D03*
%TD*%
D16*
%TO.P,Neopixel_sub_gain_reduction1,1,GND*%
%TO.N,Net-(Neopixel_sub_gain_reduction1-GND-Pad1)*%
X181710000Y-145600000D03*
%TO.P,Neopixel_sub_gain_reduction1,2,DATA_OUT*%
%TO.N,Net-(Neopixel_sub_gain_reduction1-DATA_OUT)*%
X184250000Y-145600000D03*
%TO.P,Neopixel_sub_gain_reduction1,3,VCC*%
%TO.N,Net-(Neopixel_sub_gain_reduction1-VCC-Pad3)*%
X186790000Y-145600000D03*
%TO.P,Neopixel_sub_gain_reduction1,4,GND*%
%TO.N,Net-(Neopixel_sub_gain_reduction1-GND-Pad4)*%
X189330000Y-145600000D03*
%TO.P,Neopixel_sub_gain_reduction1,5,GND*%
%TO.N,XT_GND*%
X181710000Y-97594000D03*
%TO.P,Neopixel_sub_gain_reduction1,6,DATA_IN*%
%TO.N,neopixel_data*%
X184250000Y-97594000D03*
%TO.P,Neopixel_sub_gain_reduction1,7,VCC*%
%TO.N,XT_RPi_5v*%
X186790000Y-97594000D03*
%TO.P,Neopixel_sub_gain_reduction1,8,GND*%
%TO.N,XT_GND*%
X189330000Y-97594000D03*
%TD*%
D12*
%TO.P,RV28,1,1*%
%TO.N,3v3*%
X245400000Y-129150000D03*
D13*
%TO.P,RV28,2,2*%
%TO.N,Net-(U3-I0)*%
X247900000Y-129150000D03*
%TO.P,RV28,3,3*%
%TO.N,XT_GND*%
X250400000Y-129150000D03*
D14*
%TO.P,RV28,MP*%
%TO.N,N/C*%
X243500000Y-122150000D03*
X252300000Y-122150000D03*
%TD*%
D12*
%TO.P,RV82,1,1*%
%TO.N,3v3*%
X327000000Y-391150000D03*
D13*
%TO.P,RV82,2,2*%
%TO.N,Net-(U6-I12)*%
X329500000Y-391150000D03*
%TO.P,RV82,3,3*%
%TO.N,XT_GND*%
X332000000Y-391150000D03*
D14*
%TO.P,RV82,MP*%
%TO.N,N/C*%
X325100000Y-384150000D03*
X333900000Y-384150000D03*
%TD*%
D12*
%TO.P,RV2,1,1*%
%TO.N,3v3*%
X378000000Y-65150000D03*
D13*
%TO.P,RV2,2,2*%
%TO.N,Net-(U2-I1)*%
X380500000Y-65150000D03*
%TO.P,RV2,3,3*%
%TO.N,XT_GND*%
X383000000Y-65150000D03*
D14*
%TO.P,RV2,MP*%
%TO.N,N/C*%
X376100000Y-58150000D03*
X384900000Y-58150000D03*
%TD*%
D12*
%TO.P,RV71,1,1*%
%TO.N,3v3*%
X295000000Y-350150000D03*
D13*
%TO.P,RV71,2,2*%
%TO.N,Net-(U6-I1)*%
X297500000Y-350150000D03*
%TO.P,RV71,3,3*%
%TO.N,XT_GND*%
X300000000Y-350150000D03*
D14*
%TO.P,RV71,MP*%
%TO.N,N/C*%
X293100000Y-343150000D03*
X301900000Y-343150000D03*
%TD*%
D12*
%TO.P,RV18,1,1*%
%TO.N,3v3*%
X102500000Y-216150000D03*
D13*
%TO.P,RV18,2,2*%
%TO.N,Net-(U5-I1)*%
X105000000Y-216150000D03*
%TO.P,RV18,3,3*%
%TO.N,XT_GND*%
X107500000Y-216150000D03*
D14*
%TO.P,RV18,MP*%
%TO.N,N/C*%
X100600000Y-209150000D03*
X109400000Y-209150000D03*
%TD*%
D12*
%TO.P,RV10,1,1*%
%TO.N,3v3*%
X112000000Y-128150000D03*
D13*
%TO.P,RV10,2,2*%
%TO.N,Net-(U2-I9)*%
X114500000Y-128150000D03*
%TO.P,RV10,3,3*%
%TO.N,XT_GND*%
X117000000Y-128150000D03*
D14*
%TO.P,RV10,MP*%
%TO.N,N/C*%
X110100000Y-121150000D03*
X118900000Y-121150000D03*
%TD*%
D15*
%TO.P,SW5,1,A*%
%TO.N,sw_mid*%
X356200000Y-184400000D03*
%TO.P,SW5,2,B*%
%TO.N,XT_GND*%
X356200000Y-179700000D03*
%TO.P,SW5,3,C*%
%TO.N,unconnected-(SW5-C-Pad3)*%
X356200000Y-175000000D03*
%TD*%
%TO.P,SW8,1,A*%
%TO.N,sw_delay_type*%
X433500000Y-260400000D03*
%TO.P,SW8,2,B*%
%TO.N,XT_GND*%
X433500000Y-255700000D03*
%TO.P,SW8,3,C*%
%TO.N,unconnected-(SW8-C-Pad3)*%
X433500000Y-251000000D03*
%TD*%
D12*
%TO.P,RV79,1,1*%
%TO.N,3v3*%
X214000000Y-391150000D03*
D13*
%TO.P,RV79,2,2*%
%TO.N,Net-(U6-I9)*%
X216500000Y-391150000D03*
%TO.P,RV79,3,3*%
%TO.N,XT_GND*%
X219000000Y-391150000D03*
D14*
%TO.P,RV79,MP*%
%TO.N,N/C*%
X212100000Y-384150000D03*
X220900000Y-384150000D03*
%TD*%
D12*
%TO.P,RV22,1,1*%
%TO.N,3v3*%
X102500000Y-353150000D03*
D13*
%TO.P,RV22,2,2*%
%TO.N,Net-(U5-I9)*%
X105000000Y-353150000D03*
%TO.P,RV22,3,3*%
%TO.N,XT_GND*%
X107500000Y-353150000D03*
D14*
%TO.P,RV22,MP*%
%TO.N,N/C*%
X100600000Y-346150000D03*
X109400000Y-346150000D03*
%TD*%
D12*
%TO.P,RV75,1,1*%
%TO.N,3v3*%
X438500000Y-350150000D03*
D13*
%TO.P,RV75,2,2*%
%TO.N,Net-(U6-I5)*%
X441000000Y-350150000D03*
%TO.P,RV75,3,3*%
%TO.N,XT_GND*%
X443500000Y-350150000D03*
D14*
%TO.P,RV75,MP*%
%TO.N,N/C*%
X436600000Y-343150000D03*
X445400000Y-343150000D03*
%TD*%
D16*
%TO.P,Neopixel_mid_gain_reduction1,1,GND*%
%TO.N,Net-(Neopixel_mid_gain_reduction1-GND-Pad1)*%
X346410000Y-145600000D03*
%TO.P,Neopixel_mid_gain_reduction1,2,DATA_OUT*%
%TO.N,Net-(Neopixel_mid_gain_reduction1-DATA_OUT)*%
X348950000Y-145600000D03*
%TO.P,Neopixel_mid_gain_reduction1,3,VCC*%
%TO.N,Net-(Neopixel_mid_gain_reduction1-VCC-Pad3)*%
X351490000Y-145600000D03*
%TO.P,Neopixel_mid_gain_reduction1,4,GND*%
%TO.N,Net-(Neopixel_mid_gain_reduction1-GND-Pad4)*%
X354030000Y-145600000D03*
%TO.P,Neopixel_mid_gain_reduction1,5,GND*%
%TO.N,Net-(Neopixel_bass_out_level1-GND-Pad1)*%
X346410000Y-97594000D03*
%TO.P,Neopixel_mid_gain_reduction1,6,DATA_IN*%
%TO.N,Net-(Neopixel_bass_out_level1-DATA_OUT)*%
X348950000Y-97594000D03*
%TO.P,Neopixel_mid_gain_reduction1,7,VCC*%
%TO.N,Net-(Neopixel_bass_out_level1-VCC-Pad3)*%
X351490000Y-97594000D03*
%TO.P,Neopixel_mid_gain_reduction1,8,GND*%
%TO.N,Net-(Neopixel_bass_out_level1-GND-Pad4)*%
X354030000Y-97594000D03*
%TD*%
%TO.P,Neopixel_bass_gain_reduction1,1,GND*%
%TO.N,Net-(Neopixel_bass_gain_reduction1-GND-Pad1)*%
X264010000Y-145600000D03*
%TO.P,Neopixel_bass_gain_reduction1,2,DATA_OUT*%
%TO.N,Net-(Neopixel_bass_gain_reduction1-DATA_OUT)*%
X266550000Y-145600000D03*
%TO.P,Neopixel_bass_gain_reduction1,3,VCC*%
%TO.N,Net-(Neopixel_bass_gain_reduction1-VCC-Pad3)*%
X269090000Y-145600000D03*
%TO.P,Neopixel_bass_gain_reduction1,4,GND*%
%TO.N,Net-(Neopixel_bass_gain_reduction1-GND-Pad4)*%
X271630000Y-145600000D03*
%TO.P,Neopixel_bass_gain_reduction1,5,GND*%
%TO.N,Net-(Neopixel_bass_gain_reduction1-GND-Pad5)*%
X264010000Y-97594000D03*
%TO.P,Neopixel_bass_gain_reduction1,6,DATA_IN*%
%TO.N,Net-(Neopixel_bass_gain_reduction1-DATA_IN)*%
X266550000Y-97594000D03*
%TO.P,Neopixel_bass_gain_reduction1,7,VCC*%
%TO.N,Net-(Neopixel_bass_gain_reduction1-VCC-Pad7)*%
X269090000Y-97594000D03*
%TO.P,Neopixel_bass_gain_reduction1,8,GND*%
%TO.N,Net-(Neopixel_bass_gain_reduction1-GND-Pad8)*%
X271630000Y-97594000D03*
%TD*%
D12*
%TO.P,RV77,1,1*%
%TO.N,3v3*%
X137000000Y-391250000D03*
D13*
%TO.P,RV77,2,2*%
%TO.N,Net-(U6-I7)*%
X139500000Y-391250000D03*
%TO.P,RV77,3,3*%
%TO.N,XT_GND*%
X142000000Y-391250000D03*
D14*
%TO.P,RV77,MP*%
%TO.N,N/C*%
X135100000Y-384250000D03*
X143900000Y-384250000D03*
%TD*%
D12*
%TO.P,RV76,1,1*%
%TO.N,3v3*%
X99100000Y-391150000D03*
D13*
%TO.P,RV76,2,2*%
%TO.N,Net-(U6-I6)*%
X101600000Y-391150000D03*
%TO.P,RV76,3,3*%
%TO.N,XT_GND*%
X104100000Y-391150000D03*
D14*
%TO.P,RV76,MP*%
%TO.N,N/C*%
X97200000Y-384150000D03*
X106000000Y-384150000D03*
%TD*%
D12*
%TO.P,RV19,1,1*%
%TO.N,3v3*%
X102500000Y-251150000D03*
D13*
%TO.P,RV19,2,2*%
%TO.N,Net-(U5-I3)*%
X105000000Y-251150000D03*
%TO.P,RV19,3,3*%
%TO.N,XT_GND*%
X107500000Y-251150000D03*
D14*
%TO.P,RV19,MP*%
%TO.N,N/C*%
X100600000Y-244150000D03*
X109400000Y-244150000D03*
%TD*%
D12*
%TO.P,RV55,1,1*%
%TO.N,3v3*%
X399000000Y-229150000D03*
D13*
%TO.P,RV55,2,2*%
%TO.N,Net-(U4-I4)*%
X401500000Y-229150000D03*
%TO.P,RV55,3,3*%
%TO.N,XT_GND*%
X404000000Y-229150000D03*
D14*
%TO.P,RV55,MP*%
%TO.N,N/C*%
X397100000Y-222150000D03*
X405900000Y-222150000D03*
%TD*%
D12*
%TO.P,RV15,1,1*%
%TO.N,3v3*%
X53500000Y-319150000D03*
D13*
%TO.P,RV15,2,2*%
%TO.N,Net-(U5-I6)*%
X56000000Y-319150000D03*
%TO.P,RV15,3,3*%
%TO.N,XT_GND*%
X58500000Y-319150000D03*
D14*
%TO.P,RV15,MP*%
%TO.N,N/C*%
X51600000Y-312150000D03*
X60400000Y-312150000D03*
%TD*%
D12*
%TO.P,RV48,1,1*%
%TO.N,3v3*%
X179000000Y-229150000D03*
D13*
%TO.P,RV48,2,2*%
%TO.N,Net-(U3-I13)*%
X181500000Y-229150000D03*
%TO.P,RV48,3,3*%
%TO.N,XT_GND*%
X184000000Y-229150000D03*
D14*
%TO.P,RV48,MP*%
%TO.N,N/C*%
X177100000Y-222150000D03*
X185900000Y-222150000D03*
%TD*%
D12*
%TO.P,RV72,1,1*%
%TO.N,3v3*%
X335000000Y-350150000D03*
D13*
%TO.P,RV72,2,2*%
%TO.N,Net-(U6-I2)*%
X337500000Y-350150000D03*
%TO.P,RV72,3,3*%
%TO.N,XT_GND*%
X340000000Y-350150000D03*
D14*
%TO.P,RV72,MP*%
%TO.N,N/C*%
X333100000Y-343150000D03*
X341900000Y-343150000D03*
%TD*%
D12*
%TO.P,RV63,1,1*%
%TO.N,3v3*%
X309000000Y-297150000D03*
D13*
%TO.P,RV63,2,2*%
%TO.N,Net-(U4-I12)*%
X311500000Y-297150000D03*
%TO.P,RV63,3,3*%
%TO.N,XT_GND*%
X314000000Y-297150000D03*
D14*
%TO.P,RV63,MP*%
%TO.N,N/C*%
X307100000Y-290150000D03*
X315900000Y-290150000D03*
%TD*%
D12*
%TO.P,RV11,1,1*%
%TO.N,3v3*%
X92000000Y-156250000D03*
D13*
%TO.P,RV11,2,2*%
%TO.N,Net-(U2-I10)*%
X94500000Y-156250000D03*
%TO.P,RV11,3,3*%
%TO.N,XT_GND*%
X97000000Y-156250000D03*
D14*
%TO.P,RV11,MP*%
%TO.N,N/C*%
X90100000Y-149250000D03*
X98900000Y-149250000D03*
%TD*%
D12*
%TO.P,RV27,1,1*%
%TO.N,3v3*%
X225400000Y-102150000D03*
D13*
%TO.P,RV27,2,2*%
%TO.N,Net-(U2-I15)*%
X227900000Y-102150000D03*
%TO.P,RV27,3,3*%
%TO.N,XT_GND*%
X230400000Y-102150000D03*
D14*
%TO.P,RV27,MP*%
%TO.N,N/C*%
X223500000Y-95150000D03*
X232300000Y-95150000D03*
%TD*%
D12*
%TO.P,RV84,1,1*%
%TO.N,3v3*%
X399000000Y-391150000D03*
D13*
%TO.P,RV84,2,2*%
%TO.N,Net-(U6-I14)*%
X401500000Y-391150000D03*
%TO.P,RV84,3,3*%
%TO.N,XT_GND*%
X404000000Y-391150000D03*
D14*
%TO.P,RV84,MP*%
%TO.N,N/C*%
X397100000Y-384150000D03*
X405900000Y-384150000D03*
%TD*%
D12*
%TO.P,RV38,1,1*%
%TO.N,3v3*%
X406000000Y-187250000D03*
D13*
%TO.P,RV38,2,2*%
%TO.N,Net-(U3-I10)*%
X408500000Y-187250000D03*
%TO.P,RV38,3,3*%
%TO.N,XT_GND*%
X411000000Y-187250000D03*
D14*
%TO.P,RV38,MP*%
%TO.N,N/C*%
X404100000Y-180250000D03*
X412900000Y-180250000D03*
%TD*%
D12*
%TO.P,RV7,1,1*%
%TO.N,3v3*%
X64000000Y-128150000D03*
D13*
%TO.P,RV7,2,2*%
%TO.N,Net-(U2-I6)*%
X66500000Y-128150000D03*
%TO.P,RV7,3,3*%
%TO.N,XT_GND*%
X69000000Y-128150000D03*
D14*
%TO.P,RV7,MP*%
%TO.N,N/C*%
X62100000Y-121150000D03*
X70900000Y-121150000D03*
%TD*%
D12*
%TO.P,RV37,1,1*%
%TO.N,3v3*%
X390000000Y-156150000D03*
D13*
%TO.P,RV37,2,2*%
%TO.N,Net-(U3-I9)*%
X392500000Y-156150000D03*
%TO.P,RV37,3,3*%
%TO.N,XT_GND*%
X395000000Y-156150000D03*
D14*
%TO.P,RV37,MP*%
%TO.N,N/C*%
X388100000Y-149150000D03*
X396900000Y-149150000D03*
%TD*%
D12*
%TO.P,RV3,1,1*%
%TO.N,3v3*%
X398500000Y-34150000D03*
D13*
%TO.P,RV3,2,2*%
%TO.N,Net-(U2-I2)*%
X401000000Y-34150000D03*
%TO.P,RV3,3,3*%
%TO.N,XT_GND*%
X403500000Y-34150000D03*
D14*
%TO.P,RV3,MP*%
%TO.N,N/C*%
X396600000Y-27150000D03*
X405400000Y-27150000D03*
%TD*%
D12*
%TO.P,RV36,1,1*%
%TO.N,3v3*%
X410000000Y-129150000D03*
D13*
%TO.P,RV36,2,2*%
%TO.N,Net-(U3-I8)*%
X412500000Y-129150000D03*
%TO.P,RV36,3,3*%
%TO.N,XT_GND*%
X415000000Y-129150000D03*
D14*
%TO.P,RV36,MP*%
%TO.N,N/C*%
X408100000Y-122150000D03*
X416900000Y-122150000D03*
%TD*%
D12*
%TO.P,RV35,1,1*%
%TO.N,3v3*%
X390000000Y-102150000D03*
D13*
%TO.P,RV35,2,2*%
%TO.N,Net-(U3-I7)*%
X392500000Y-102150000D03*
%TO.P,RV35,3,3*%
%TO.N,XT_GND*%
X395000000Y-102150000D03*
D14*
%TO.P,RV35,MP*%
%TO.N,N/C*%
X388100000Y-95150000D03*
X396900000Y-95150000D03*
%TD*%
D12*
%TO.P,RV67,1,1*%
%TO.N,3v3*%
X147000000Y-350150000D03*
D13*
%TO.P,RV67,2,2*%
%TO.N,Net-(U5-I11)*%
X149500000Y-350150000D03*
%TO.P,RV67,3,3*%
%TO.N,XT_GND*%
X152000000Y-350150000D03*
D14*
%TO.P,RV67,MP*%
%TO.N,N/C*%
X145100000Y-343150000D03*
X153900000Y-343150000D03*
%TD*%
D12*
%TO.P,RV85,1,1*%
%TO.N,3v3*%
X438500000Y-391150000D03*
D13*
%TO.P,RV85,2,2*%
%TO.N,Net-(U6-I15)*%
X441000000Y-391150000D03*
%TO.P,RV85,3,3*%
%TO.N,XT_GND*%
X443500000Y-391150000D03*
D14*
%TO.P,RV85,MP*%
%TO.N,N/C*%
X436600000Y-384150000D03*
X445400000Y-384150000D03*
%TD*%
D12*
%TO.P,RV29,1,1*%
%TO.N,3v3*%
X225400000Y-156150000D03*
D13*
%TO.P,RV29,2,2*%
%TO.N,Net-(U3-I1)*%
X227900000Y-156150000D03*
%TO.P,RV29,3,3*%
%TO.N,XT_GND*%
X230400000Y-156150000D03*
D14*
%TO.P,RV29,MP*%
%TO.N,N/C*%
X223500000Y-149150000D03*
X232300000Y-149150000D03*
%TD*%
D12*
%TO.P,RV21,1,1*%
%TO.N,3v3*%
X102500000Y-319250000D03*
D13*
%TO.P,RV21,2,2*%
%TO.N,Net-(U5-I7)*%
X105000000Y-319250000D03*
%TO.P,RV21,3,3*%
%TO.N,XT_GND*%
X107500000Y-319250000D03*
D14*
%TO.P,RV21,MP*%
%TO.N,N/C*%
X100600000Y-312250000D03*
X109400000Y-312250000D03*
%TD*%
D12*
%TO.P,RV56,1,1*%
%TO.N,3v3*%
X399000000Y-263150000D03*
D13*
%TO.P,RV56,2,2*%
%TO.N,Net-(U4-I5)*%
X401500000Y-263150000D03*
%TO.P,RV56,3,3*%
%TO.N,XT_GND*%
X404000000Y-263150000D03*
D14*
%TO.P,RV56,MP*%
%TO.N,N/C*%
X397100000Y-256150000D03*
X405900000Y-256150000D03*
%TD*%
D15*
%TO.P,SW4,1,A*%
%TO.N,sw_bass*%
X273800000Y-184400000D03*
%TO.P,SW4,2,B*%
%TO.N,XT_GND*%
X273800000Y-179700000D03*
%TO.P,SW4,3,C*%
%TO.N,unconnected-(SW4-C-Pad3)*%
X273800000Y-175000000D03*
%TD*%
%TO.P,SW6,1,A*%
%TO.N,sw_high*%
X438533202Y-184400197D03*
%TO.P,SW6,2,B*%
%TO.N,XT_GND*%
X438533202Y-179700197D03*
%TO.P,SW6,3,C*%
%TO.N,unconnected-(SW6-C-Pad3)*%
X438533202Y-175000197D03*
%TD*%
D12*
%TO.P,RV30,1,1*%
%TO.N,3v3*%
X241300000Y-187150000D03*
D13*
%TO.P,RV30,2,2*%
%TO.N,Net-(U3-I2)*%
X243800000Y-187150000D03*
%TO.P,RV30,3,3*%
%TO.N,XT_GND*%
X246300000Y-187150000D03*
D14*
%TO.P,RV30,MP*%
%TO.N,N/C*%
X239400000Y-180150000D03*
X248200000Y-180150000D03*
%TD*%
D12*
%TO.P,RV12,1,1*%
%TO.N,3v3*%
X53500000Y-216150000D03*
D13*
%TO.P,RV12,2,2*%
%TO.N,Net-(U5-I0)*%
X56000000Y-216150000D03*
%TO.P,RV12,3,3*%
%TO.N,XT_GND*%
X58500000Y-216150000D03*
D14*
%TO.P,RV12,MP*%
%TO.N,N/C*%
X51600000Y-209150000D03*
X60400000Y-209150000D03*
%TD*%
D12*
%TO.P,RV20,1,1*%
%TO.N,3v3*%
X102500000Y-285150000D03*
D13*
%TO.P,RV20,2,2*%
%TO.N,Net-(U5-I5)*%
X105000000Y-285150000D03*
%TO.P,RV20,3,3*%
%TO.N,XT_GND*%
X107500000Y-285150000D03*
D14*
%TO.P,RV20,MP*%
%TO.N,N/C*%
X100600000Y-278150000D03*
X109400000Y-278150000D03*
%TD*%
D12*
%TO.P,RV60,1,1*%
%TO.N,3v3*%
X209000000Y-314150000D03*
D13*
%TO.P,RV60,2,2*%
%TO.N,Net-(U4-I9)*%
X211500000Y-314150000D03*
%TO.P,RV60,3,3*%
%TO.N,XT_GND*%
X214000000Y-314150000D03*
D14*
%TO.P,RV60,MP*%
%TO.N,N/C*%
X207100000Y-307150000D03*
X215900000Y-307150000D03*
%TD*%
D18*
%TO.P,J5,1,Pin_1*%
%TO.N,sampler_1*%
X222800000Y-87000000D03*
D19*
%TO.P,J5,2,Pin_2*%
%TO.N,sampler_2*%
X220800000Y-87000000D03*
%TO.P,J5,3,Pin_3*%
%TO.N,sampler_3*%
X218800000Y-87000000D03*
%TO.P,J5,4,Pin_4*%
%TO.N,sampler_4*%
X216800000Y-87000000D03*
%TO.P,J5,5,Pin_5*%
%TO.N,samlper_5*%
X214800000Y-87000000D03*
%TO.P,J5,6,Pin_6*%
%TO.N,sampler_6*%
X212800000Y-87000000D03*
%TO.P,J5,7,Pin_7*%
%TO.N,sampler_7*%
X210800000Y-87000000D03*
%TO.P,J5,8,Pin_8*%
%TO.N,sampler_8*%
X208800000Y-87000000D03*
%TO.P,J5,9,Pin_9*%
%TO.N,sampler_9*%
X206800000Y-87000000D03*
%TO.P,J5,10,Pin_10*%
%TO.N,sampler_10*%
X204800000Y-87000000D03*
%TO.P,J5,11,Pin_11*%
%TO.N,sampler_11*%
X202800000Y-87000000D03*
%TO.P,J5,12,Pin_12*%
%TO.N,XT_GND*%
X200800000Y-87000000D03*
%TD*%
D20*
%TO.P,J1,1,Pin_1*%
%TO.N,unconnected-(J1-Pin_1-Pad1)*%
X196000000Y-272680000D03*
D21*
%TO.P,J1,2,Pin_2*%
%TO.N,XT_RPi_5v*%
X198540000Y-272680000D03*
%TO.P,J1,3,Pin_3*%
%TO.N,unconnected-(J1-Pin_3-Pad3)*%
X196000000Y-270140000D03*
%TO.P,J1,4,Pin_4*%
%TO.N,XT_RPi_5v*%
X198540000Y-270140000D03*
%TO.P,J1,5,Pin_5*%
%TO.N,unconnected-(J1-Pin_5-Pad5)*%
X196000000Y-267600000D03*
%TO.P,J1,6,Pin_6*%
%TO.N,XT_GND*%
X198540000Y-267600000D03*
%TO.P,J1,7,Pin_7*%
%TO.N,XT_RPi7*%
X196000000Y-265060000D03*
%TO.P,J1,8,Pin_8*%
%TO.N,XT_RPi8*%
X198540000Y-265060000D03*
%TO.P,J1,9,Pin_9*%
%TO.N,XT_GND*%
X196000000Y-262520000D03*
%TO.P,J1,10,Pin_10*%
%TO.N,XT_RPi10*%
X198540000Y-262520000D03*
%TO.P,J1,11,Pin_11*%
%TO.N,XT_RPi11*%
X196000000Y-259980000D03*
%TO.P,J1,12,Pin_12*%
%TO.N,unconnected-(J1-Pin_12-Pad12)*%
X198540000Y-259980000D03*
%TO.P,J1,13,Pin_13*%
%TO.N,XT_RPi13*%
X196000000Y-257440000D03*
%TO.P,J1,14,Pin_14*%
%TO.N,XT_GND*%
X198540000Y-257440000D03*
%TO.P,J1,15,Pin_15*%
%TO.N,XT_RPi15*%
X196000000Y-254900000D03*
%TO.P,J1,16,Pin_16*%
%TO.N,taptempo_LED_RPi16*%
X198540000Y-254900000D03*
%TO.P,J1,17,Pin_17*%
%TO.N,unconnected-(J1-Pin_17-Pad17)*%
X196000000Y-252360000D03*
%TO.P,J1,18,Pin_18*%
%TO.N,XT_RPi18*%
X198540000Y-252360000D03*
%TO.P,J1,19,Pin_19*%
%TO.N,neopixel_data*%
X196000000Y-249820000D03*
%TO.P,J1,20,Pin_20*%
%TO.N,XT_GND*%
X198540000Y-249820000D03*
%TO.P,J1,21,Pin_21*%
%TO.N,sw_input_mode_RPi21*%
X196000000Y-247280000D03*
%TO.P,J1,22,Pin_22*%
%TO.N,unconnected-(J1-Pin_22-Pad22)*%
X198540000Y-247280000D03*
%TO.P,J1,23,Pin_23*%
%TO.N,XT_RPi23*%
X196000000Y-244740000D03*
%TO.P,J1,24,Pin_24*%
%TO.N,unconnected-(J1-Pin_24-Pad24)*%
X198540000Y-244740000D03*
%TO.P,J1,25,Pin_25*%
%TO.N,XT_GND*%
X196000000Y-242200000D03*
%TO.P,J1,26,Pin_26*%
%TO.N,unconnected-(J1-Pin_26-Pad26)*%
X198540000Y-242200000D03*
%TO.P,J1,27,Pin_27*%
%TO.N,unconnected-(J1-Pin_27-Pad27)*%
X196000000Y-239660000D03*
%TO.P,J1,28,Pin_28*%
%TO.N,unconnected-(J1-Pin_28-Pad28)*%
X198540000Y-239660000D03*
%TO.P,J1,29,Pin_29*%
%TO.N,XT_RPi29*%
X196000000Y-237120000D03*
%TO.P,J1,30,Pin_30*%
%TO.N,XT_GND*%
X198540000Y-237120000D03*
%TO.P,J1,31,Pin_31*%
%TO.N,XT_RPi31*%
X196000000Y-234580000D03*
%TO.P,J1,32,Pin_32*%
%TO.N,XT_RPi32*%
X198540000Y-234580000D03*
%TO.P,J1,33,Pin_33*%
%TO.N,XT_RPi33*%
X196000000Y-232040000D03*
%TO.P,J1,34,Pin_34*%
%TO.N,XT_GND*%
X198540000Y-232040000D03*
%TO.P,J1,35,Pin_35*%
%TO.N,unconnected-(J1-Pin_35-Pad35)*%
X196000000Y-229500000D03*
%TO.P,J1,36,Pin_36*%
%TO.N,XT_RPi36*%
X198540000Y-229500000D03*
%TO.P,J1,37,Pin_37*%
%TO.N,XT_RPi37*%
X196000000Y-226960000D03*
%TO.P,J1,38,Pin_38*%
%TO.N,unconnected-(J1-Pin_38-Pad38)*%
X198540000Y-226960000D03*
%TO.P,J1,39,Pin_39*%
%TO.N,XT_GND*%
X196000000Y-224420000D03*
%TO.P,J1,40,Pin_40*%
%TO.N,unconnected-(J1-Pin_40-Pad40)*%
X198540000Y-224420000D03*
%TD*%
D22*
%TO.P,IC1,1,TX1*%
%TO.N,unconnected-(IC1-TX1-Pad1)*%
X307970000Y-210350000D03*
%TO.P,IC1,2,OUT2*%
%TO.N,mux_s0*%
X305430000Y-210350000D03*
%TO.P,IC1,3,LRCLK2*%
%TO.N,mux_s1*%
X302890000Y-210350000D03*
%TO.P,IC1,4,BCLK2*%
%TO.N,mux_s2*%
X300350000Y-210350000D03*
%TO.P,IC1,5,IN2*%
%TO.N,mux_s3*%
X297810000Y-210350000D03*
%TO.P,IC1,6,OUT1D*%
%TO.N,mux1_enable*%
X295270000Y-210350000D03*
%TO.P,IC1,7,RX2*%
%TO.N,mux2_enable*%
X292730000Y-210350000D03*
%TO.P,IC1,8,TX2*%
%TO.N,mux3_enable*%
X290190000Y-210350000D03*
%TO.P,IC1,9,OUT1C*%
%TO.N,mux4_enable*%
X287650000Y-210350000D03*
%TO.P,IC1,10,CS_1*%
%TO.N,mux5_enable*%
X285110000Y-210350000D03*
%TO.P,IC1,11,MOSI*%
%TO.N,sampler_1*%
X282570000Y-210350000D03*
%TO.P,IC1,12,MISO*%
%TO.N,sampler_2*%
X280030000Y-210350000D03*
%TO.P,IC1,13,SCK*%
%TO.N,unconnected-(IC1-SCK-Pad13)*%
X280030000Y-195110000D03*
%TO.P,IC1,14,A0*%
%TO.N,mux_signal*%
X282570000Y-195110000D03*
%TO.P,IC1,15,A1*%
%TO.N,sw_eq1*%
X285110000Y-195110000D03*
%TO.P,IC1,16,A2*%
%TO.N,sw_eq2*%
X287650000Y-195110000D03*
%TO.P,IC1,17,A3*%
%TO.N,sw_sub*%
X290190000Y-195110000D03*
%TO.P,IC1,18,A4*%
%TO.N,sw_bass*%
X292730000Y-195110000D03*
%TO.P,IC1,19,A5*%
%TO.N,sw_mid*%
X295270000Y-195110000D03*
%TO.P,IC1,20,A6*%
%TO.N,sw_high*%
X297810000Y-195110000D03*
%TO.P,IC1,21,A7*%
%TO.N,btn_delay_taptempo*%
X300350000Y-195110000D03*
%TO.P,IC1,22,A8*%
%TO.N,sw_delay_type*%
X302890000Y-195110000D03*
%TO.P,IC1,23,A9*%
%TO.N,sampler_stop*%
X305430000Y-195110000D03*
%TO.P,IC1,24,A10*%
%TO.N,sampler_3*%
X274950000Y-210350000D03*
%TO.P,IC1,25,A11*%
%TO.N,sampler_4*%
X272410000Y-210350000D03*
%TO.P,IC1,26,A12*%
%TO.N,samlper_5*%
X269870000Y-210350000D03*
%TO.P,IC1,27,A13*%
%TO.N,sampler_6*%
X267330000Y-210350000D03*
%TO.P,IC1,28,RX7*%
%TO.N,sampler_7*%
X264790000Y-210350000D03*
%TO.P,IC1,29,TX7*%
%TO.N,sampler_8*%
X262250000Y-210350000D03*
%TO.P,IC1,30,CRX3*%
%TO.N,sampler_9*%
X259710000Y-210350000D03*
%TO.P,IC1,31,CTX3*%
%TO.N,sampler_10*%
X257170000Y-210350000D03*
%TO.P,IC1,32,OUT1B*%
%TO.N,sampler_11*%
X254630000Y-210350000D03*
%TO.P,IC1,33,MCLK2*%
%TO.N,XT_Teensy33*%
X254630000Y-195110000D03*
%TO.P,IC1,34,RX8*%
%TO.N,XT_Teensy34*%
X257170000Y-195110000D03*
%TO.P,IC1,35,TX8*%
%TO.N,XT_Teensy35*%
X259710000Y-195110000D03*
%TO.P,IC1,36,CS_2*%
%TO.N,XT_Teensy36*%
X262250000Y-195110000D03*
%TO.P,IC1,37,CS_3*%
%TO.N,XT_Teensy37*%
X264790000Y-195110000D03*
%TO.P,IC1,38,A14*%
%TO.N,sw_grain_type*%
X267330000Y-195110000D03*
%TO.P,IC1,39,A15*%
%TO.N,sw_grain_playback*%
X269870000Y-195110000D03*
%TO.P,IC1,40,A16*%
%TO.N,XT_Teensy40*%
X272410000Y-195110000D03*
%TO.P,IC1,41,A17*%
%TO.N,XT_Teensy41*%
X274950000Y-195110000D03*
%TO.P,IC1,42,3.3V_1*%
%TO.N,unconnected-(IC1-3.3V_1-Pad42)*%
X277490000Y-210350000D03*
%TO.P,IC1,53,3.3V_(250_M_A_MAX)*%
%TO.N,3v3*%
X307970000Y-195110000D03*
%TO.P,IC1,55,VIN_(3.6_TO_5.5_VOLTS)*%
%TO.N,unconnected-(IC1-VIN_(3.6_TO_5.5_VOLTS)-Pad55)*%
X313050000Y-195110000D03*
%TO.P,IC1,57,RX1*%
%TO.N,unconnected-(IC1-RX1-Pad57)*%
X310510000Y-210350000D03*
%TO.P,IC1,69,GND_4*%
%TO.N,XT_GND*%
X277490000Y-195110000D03*
%TO.P,IC1,70,GND_5*%
X310510000Y-195110000D03*
%TO.P,IC1,71,GND_6*%
X313050000Y-210350000D03*
%TD*%
D23*
%TO.P,U5,1,COM*%
%TO.N,mux_signal*%
X90240000Y-306700000D03*
%TO.P,U5,2,I7*%
%TO.N,Net-(U5-I7)*%
X75000000Y-296540000D03*
%TO.P,U5,3,I6*%
%TO.N,Net-(U5-I6)*%
X75000000Y-294000000D03*
%TO.P,U5,4,I5*%
%TO.N,Net-(U5-I5)*%
X75000000Y-291460000D03*
%TO.P,U5,5,I4*%
%TO.N,Net-(U5-I4)*%
X75000000Y-288920000D03*
%TO.P,U5,6,I3*%
%TO.N,Net-(U5-I3)*%
X75000000Y-286380000D03*
%TO.P,U5,7,I2*%
%TO.N,Net-(U5-I2)*%
X75000000Y-283840000D03*
%TO.P,U5,8,I1*%
%TO.N,Net-(U5-I1)*%
X75000000Y-281300000D03*
%TO.P,U5,9,I0*%
%TO.N,Net-(U5-I0)*%
X75000000Y-278760000D03*
%TO.P,U5,10,S0*%
%TO.N,mux_s0*%
X90240000Y-296540000D03*
%TO.P,U5,11,S1*%
%TO.N,mux_s1*%
X90240000Y-299080000D03*
D24*
%TO.P,U5,12,GND*%
%TO.N,XT_GND*%
X90240000Y-288920000D03*
D23*
%TO.P,U5,13,S3*%
%TO.N,mux_s3*%
X90240000Y-304160000D03*
%TO.P,U5,14,S2*%
%TO.N,mux_s2*%
X90240000Y-301620000D03*
%TO.P,U5,15,~{E}*%
%TO.N,mux4_enable*%
X90240000Y-294000000D03*
%TO.P,U5,16,I15*%
%TO.N,unconnected-(U5-I15-Pad16)*%
X75000000Y-316860000D03*
%TO.P,U5,17,I14*%
%TO.N,unconnected-(U5-I14-Pad17)*%
X75000000Y-314320000D03*
%TO.P,U5,18,I13*%
%TO.N,Net-(U5-I13)*%
X75000000Y-311780000D03*
%TO.P,U5,19,I12*%
%TO.N,Net-(U5-I12)*%
X75000000Y-309240000D03*
%TO.P,U5,20,I11*%
%TO.N,Net-(U5-I11)*%
X75000000Y-306700000D03*
%TO.P,U5,21,I10*%
%TO.N,Net-(U5-I10)*%
X75000000Y-304160000D03*
%TO.P,U5,22,I9*%
%TO.N,Net-(U5-I9)*%
X75000000Y-301620000D03*
%TO.P,U5,23,I8*%
%TO.N,Net-(U5-I8)*%
X75000000Y-299080000D03*
%TO.P,U5,24,VCC*%
%TO.N,3v3*%
X90240000Y-291460000D03*
%TD*%
D25*
%TO.P,J4,1,Pin_1*%
%TO.N,XT_GND*%
X174500000Y-263750000D03*
%TD*%
D23*
%TO.P,U4,1,COM*%
%TO.N,mux_signal*%
X307690000Y-259885000D03*
%TO.P,U4,2,I7*%
%TO.N,Net-(U4-I7)*%
X297530000Y-275125000D03*
%TO.P,U4,3,I6*%
%TO.N,Net-(U4-I6)*%
X294990000Y-275125000D03*
%TO.P,U4,4,I5*%
%TO.N,Net-(U4-I5)*%
X292450000Y-275125000D03*
%TO.P,U4,5,I4*%
%TO.N,Net-(U4-I4)*%
X289910000Y-275125000D03*
%TO.P,U4,6,I3*%
%TO.N,Net-(U4-I3)*%
X287370000Y-275125000D03*
%TO.P,U4,7,I2*%
%TO.N,Net-(U4-I2)*%
X284830000Y-275125000D03*
%TO.P,U4,8,I1*%
%TO.N,Net-(U4-I1)*%
X282290000Y-275125000D03*
%TO.P,U4,9,I0*%
%TO.N,Net-(U4-I0)*%
X279750000Y-275125000D03*
%TO.P,U4,10,S0*%
%TO.N,mux_s0*%
X297530000Y-259885000D03*
%TO.P,U4,11,S1*%
%TO.N,mux_s1*%
X300070000Y-259885000D03*
D24*
%TO.P,U4,12,GND*%
%TO.N,XT_GND*%
X289910000Y-259885000D03*
D23*
%TO.P,U4,13,S3*%
%TO.N,mux_s3*%
X305150000Y-259885000D03*
%TO.P,U4,14,S2*%
%TO.N,mux_s2*%
X302610000Y-259885000D03*
%TO.P,U4,15,~{E}*%
%TO.N,mux3_enable*%
X294990000Y-259885000D03*
%TO.P,U4,16,I15*%
%TO.N,Net-(U4-I15)*%
X317850000Y-275125000D03*
%TO.P,U4,17,I14*%
%TO.N,Net-(U4-I14)*%
X315310000Y-275125000D03*
%TO.P,U4,18,I13*%
%TO.N,Net-(U4-I13)*%
X312770000Y-275125000D03*
%TO.P,U4,19,I12*%
%TO.N,Net-(U4-I12)*%
X310230000Y-275125000D03*
%TO.P,U4,20,I11*%
%TO.N,Net-(U4-I11)*%
X307690000Y-275125000D03*
%TO.P,U4,21,I10*%
%TO.N,Net-(U4-I10)*%
X305150000Y-275125000D03*
%TO.P,U4,22,I9*%
%TO.N,Net-(U4-I9)*%
X302610000Y-275125000D03*
%TO.P,U4,23,I8*%
%TO.N,Net-(U4-I8)*%
X300070000Y-275125000D03*
%TO.P,U4,24,VCC*%
%TO.N,3v3*%
X292450000Y-259885000D03*
%TD*%
D25*
%TO.P,J3,1,Pin_1*%
%TO.N,XT_RPi_5v*%
X178500000Y-271000000D03*
%TD*%
D26*
%TO.P,SW12,1,A*%
%TO.N,sw_input_mode_RPi21*%
X192950000Y-201820000D03*
%TO.P,SW12,2,B*%
%TO.N,XT_GND*%
X197650000Y-201820000D03*
%TO.P,SW12,3,C*%
%TO.N,unconnected-(SW12-C-Pad3)*%
X202350000Y-201820000D03*
%TD*%
D23*
%TO.P,U2,1,COM*%
%TO.N,mux_signal*%
X369285113Y-56890000D03*
%TO.P,U2,2,I7*%
%TO.N,Net-(U2-I7)*%
X359125113Y-72130000D03*
%TO.P,U2,3,I6*%
%TO.N,Net-(U2-I6)*%
X356585113Y-72130000D03*
%TO.P,U2,4,I5*%
%TO.N,Net-(U2-I5)*%
X354045113Y-72130000D03*
%TO.P,U2,5,I4*%
%TO.N,Net-(U2-I4)*%
X351505113Y-72130000D03*
%TO.P,U2,6,I3*%
%TO.N,Net-(U2-I3)*%
X348965113Y-72130000D03*
%TO.P,U2,7,I2*%
%TO.N,Net-(U2-I2)*%
X346425113Y-72130000D03*
%TO.P,U2,8,I1*%
%TO.N,Net-(U2-I1)*%
X343885113Y-72130000D03*
%TO.P,U2,9,I0*%
%TO.N,Net-(U2-I0)*%
X341345113Y-72130000D03*
%TO.P,U2,10,S0*%
%TO.N,mux_s0*%
X359125113Y-56890000D03*
%TO.P,U2,11,S1*%
%TO.N,mux_s1*%
X361665113Y-56890000D03*
D24*
%TO.P,U2,12,GND*%
%TO.N,XT_GND*%
X351505113Y-56890000D03*
D23*
%TO.P,U2,13,S3*%
%TO.N,mux_s3*%
X366745113Y-56890000D03*
%TO.P,U2,14,S2*%
%TO.N,mux_s2*%
X364205113Y-56890000D03*
%TO.P,U2,15,~{E}*%
%TO.N,mux1_enable*%
X356585113Y-56890000D03*
%TO.P,U2,16,I15*%
%TO.N,Net-(U2-I15)*%
X379445113Y-72130000D03*
%TO.P,U2,17,I14*%
%TO.N,Net-(U2-I14)*%
X376905113Y-72130000D03*
%TO.P,U2,18,I13*%
%TO.N,Net-(U2-I13)*%
X374365113Y-72130000D03*
%TO.P,U2,19,I12*%
%TO.N,Net-(U2-I12)*%
X371825113Y-72130000D03*
%TO.P,U2,20,I11*%
%TO.N,Net-(U2-I11)*%
X369285113Y-72130000D03*
%TO.P,U2,21,I10*%
%TO.N,Net-(U2-I10)*%
X366745113Y-72130000D03*
%TO.P,U2,22,I9*%
%TO.N,Net-(U2-I9)*%
X364205113Y-72130000D03*
%TO.P,U2,23,I8*%
%TO.N,Net-(U2-I8)*%
X361665113Y-72130000D03*
%TO.P,U2,24,VCC*%
%TO.N,3v3*%
X354045113Y-56890000D03*
%TD*%
D27*
%TO.P,RASPBERRY PI 4,S1*%
%TO.N,N/C*%
X165500000Y-277500000D03*
%TO.P,RASPBERRY PI 4,S2*%
X165500000Y-219500000D03*
%TO.P,RASPBERRY PI 4,S3*%
X116500000Y-219500000D03*
%TO.P,RASPBERRY PI 4,S4*%
X116500000Y-277500000D03*
%TD*%
D25*
%TO.P,J4,1,Pin_1*%
%TO.N,XT_GND*%
X178500000Y-263750000D03*
%TD*%
D23*
%TO.P,U3,1,COM*%
%TO.N,mux_signal*%
X255870000Y-149390000D03*
%TO.P,U3,2,I7*%
%TO.N,Net-(U3-I7)*%
X245710000Y-164630000D03*
%TO.P,U3,3,I6*%
%TO.N,Net-(U3-I6)*%
X243170000Y-164630000D03*
%TO.P,U3,4,I5*%
%TO.N,Net-(U3-I5)*%
X240630000Y-164630000D03*
%TO.P,U3,5,I4*%
%TO.N,Net-(U3-I4)*%
X238090000Y-164630000D03*
%TO.P,U3,6,I3*%
%TO.N,Net-(U3-I3)*%
X235550000Y-164630000D03*
%TO.P,U3,7,I2*%
%TO.N,Net-(U3-I2)*%
X233010000Y-164630000D03*
%TO.P,U3,8,I1*%
%TO.N,Net-(U3-I1)*%
X230470000Y-164630000D03*
%TO.P,U3,9,I0*%
%TO.N,Net-(U3-I0)*%
X227930000Y-164630000D03*
%TO.P,U3,10,S0*%
%TO.N,mux_s0*%
X245710000Y-149390000D03*
%TO.P,U3,11,S1*%
%TO.N,mux_s1*%
X248250000Y-149390000D03*
D24*
%TO.P,U3,12,GND*%
%TO.N,XT_GND*%
X238090000Y-149390000D03*
D23*
%TO.P,U3,13,S3*%
%TO.N,mux_s3*%
X253330000Y-149390000D03*
%TO.P,U3,14,S2*%
%TO.N,mux_s2*%
X250790000Y-149390000D03*
%TO.P,U3,15,~{E}*%
%TO.N,mux2_enable*%
X243170000Y-149390000D03*
%TO.P,U3,16,I15*%
%TO.N,Net-(U3-I15)*%
X266030000Y-164630000D03*
%TO.P,U3,17,I14*%
%TO.N,Net-(U3-I14)*%
X263490000Y-164630000D03*
%TO.P,U3,18,I13*%
%TO.N,Net-(U3-I13)*%
X260950000Y-164630000D03*
%TO.P,U3,19,I12*%
%TO.N,Net-(U3-I12)*%
X258410000Y-164630000D03*
%TO.P,U3,20,I11*%
%TO.N,Net-(U3-I11)*%
X255870000Y-164630000D03*
%TO.P,U3,21,I10*%
%TO.N,Net-(U3-I10)*%
X253330000Y-164630000D03*
%TO.P,U3,22,I9*%
%TO.N,Net-(U3-I9)*%
X250790000Y-164630000D03*
%TO.P,U3,23,I8*%
%TO.N,Net-(U3-I8)*%
X248250000Y-164630000D03*
%TO.P,U3,24,VCC*%
%TO.N,3v3*%
X240630000Y-149390000D03*
%TD*%
D25*
%TO.P,J3,1,Pin_1*%
%TO.N,XT_RPi_5v*%
X174500000Y-271000000D03*
%TD*%
D23*
%TO.P,U6,1,COM*%
%TO.N,mux_signal*%
X325070000Y-352490000D03*
%TO.P,U6,2,I7*%
%TO.N,Net-(U6-I7)*%
X314910000Y-367730000D03*
%TO.P,U6,3,I6*%
%TO.N,Net-(U6-I6)*%
X312370000Y-367730000D03*
%TO.P,U6,4,I5*%
%TO.N,Net-(U6-I5)*%
X309830000Y-367730000D03*
%TO.P,U6,5,I4*%
%TO.N,Net-(U6-I4)*%
X307290000Y-367730000D03*
%TO.P,U6,6,I3*%
%TO.N,Net-(U6-I3)*%
X304750000Y-367730000D03*
%TO.P,U6,7,I2*%
%TO.N,Net-(U6-I2)*%
X302210000Y-367730000D03*
%TO.P,U6,8,I1*%
%TO.N,Net-(U6-I1)*%
X299670000Y-367730000D03*
%TO.P,U6,9,I0*%
%TO.N,Net-(U6-I0)*%
X297130000Y-367730000D03*
%TO.P,U6,10,S0*%
%TO.N,mux_s0*%
X314910000Y-352490000D03*
%TO.P,U6,11,S1*%
%TO.N,mux_s1*%
X317450000Y-352490000D03*
D24*
%TO.P,U6,12,GND*%
%TO.N,XT_GND*%
X307290000Y-352490000D03*
D23*
%TO.P,U6,13,S3*%
%TO.N,mux_s3*%
X322530000Y-352490000D03*
%TO.P,U6,14,S2*%
%TO.N,mux_s2*%
X319990000Y-352490000D03*
%TO.P,U6,15,~{E}*%
%TO.N,mux5_enable*%
X312370000Y-352490000D03*
%TO.P,U6,16,I15*%
%TO.N,Net-(U6-I15)*%
X335230000Y-367730000D03*
%TO.P,U6,17,I14*%
%TO.N,Net-(U6-I14)*%
X332690000Y-367730000D03*
%TO.P,U6,18,I13*%
%TO.N,Net-(U6-I13)*%
X330150000Y-367730000D03*
%TO.P,U6,19,I12*%
%TO.N,Net-(U6-I12)*%
X327610000Y-367730000D03*
%TO.P,U6,20,I11*%
%TO.N,Net-(U6-I11)*%
X325070000Y-367730000D03*
%TO.P,U6,21,I10*%
%TO.N,Net-(U6-I10)*%
X322530000Y-367730000D03*
%TO.P,U6,22,I9*%
%TO.N,Net-(U6-I9)*%
X319990000Y-367730000D03*
%TO.P,U6,23,I8*%
%TO.N,Net-(U6-I8)*%
X317450000Y-367730000D03*
%TO.P,U6,24,VCC*%
%TO.N,3v3*%
X309830000Y-352490000D03*
%TD*%
D28*
%TO.P,J25,1,Pin_1*%
%TO.N,mux_s0*%
X264640000Y-243040000D03*
D21*
%TO.P,J25,2,Pin_2*%
%TO.N,XT_GND*%
X264640000Y-240500000D03*
%TO.P,J25,3,Pin_3*%
%TO.N,mux_s1*%
X262100000Y-243040000D03*
%TO.P,J25,4,Pin_4*%
%TO.N,XT_GND*%
X262100000Y-240500000D03*
%TO.P,J25,5,Pin_5*%
%TO.N,mux_s2*%
X259560000Y-243040000D03*
%TO.P,J25,6,Pin_6*%
%TO.N,XT_RPi_5v*%
X259560000Y-240500000D03*
%TO.P,J25,7,Pin_7*%
%TO.N,mux_s3*%
X257020000Y-243040000D03*
%TO.P,J25,8,Pin_8*%
%TO.N,3v3*%
X257020000Y-240500000D03*
%TO.P,J25,9,Pin_9*%
%TO.N,mux_signal*%
X254480000Y-243040000D03*
%TO.P,J25,10,Pin_10*%
%TO.N,XT_Teensy41*%
X254480000Y-240500000D03*
%TO.P,J25,11,Pin_11*%
%TO.N,XT_RPi36*%
X251940000Y-243040000D03*
%TO.P,J25,12,Pin_12*%
%TO.N,XT_Teensy40*%
X251940000Y-240500000D03*
%TO.P,J25,13,Pin_13*%
%TO.N,XT_RPi33*%
X249400000Y-243040000D03*
%TO.P,J25,14,Pin_14*%
%TO.N,XT_Teensy37*%
X249400000Y-240500000D03*
%TO.P,J25,15,Pin_15*%
%TO.N,XT_RPi32*%
X246860000Y-243040000D03*
%TO.P,J25,16,Pin_16*%
%TO.N,XT_Teensy36*%
X246860000Y-240500000D03*
%TO.P,J25,17,Pin_17*%
%TO.N,XT_RPi31*%
X244320000Y-243040000D03*
%TO.P,J25,18,Pin_18*%
%TO.N,XT_Teensy35*%
X244320000Y-240500000D03*
%TO.P,J25,19,Pin_19*%
%TO.N,XT_RPi29*%
X241780000Y-243040000D03*
%TO.P,J25,20,Pin_20*%
%TO.N,XT_Teensy34*%
X241780000Y-240500000D03*
%TO.P,J25,21,Pin_21*%
%TO.N,XT_RPi10*%
X239240000Y-243040000D03*
%TO.P,J25,22,Pin_22*%
%TO.N,XT_Teensy33*%
X239240000Y-240500000D03*
%TO.P,J25,23,Pin_23*%
%TO.N,XT_RPi8*%
X236700000Y-243040000D03*
%TO.P,J25,24,Pin_24*%
%TO.N,XT_RPi37*%
X236700000Y-240500000D03*
%TO.P,J25,25,Pin_25*%
%TO.N,XT_RPi7*%
X234160000Y-243040000D03*
%TO.P,J25,26,Pin_26*%
%TO.N,sw_input_mode_RPi21*%
X234160000Y-240500000D03*
%TO.P,J25,27,Pin_27*%
%TO.N,XT_RPi11*%
X231620000Y-243040000D03*
%TO.P,J25,28,Pin_28*%
%TO.N,XT_RPi23*%
X231620000Y-240500000D03*
%TO.P,J25,29,Pin_29*%
%TO.N,XT_RPi13*%
X229080000Y-243040000D03*
%TO.P,J25,30,Pin_30*%
%TO.N,XT_RPi26*%
X229080000Y-240500000D03*
%TO.P,J25,31,Pin_31*%
%TO.N,XT_RPi15*%
X226540000Y-243040000D03*
%TO.P,J25,32,Pin_32*%
%TO.N,XT_RPi24*%
X226540000Y-240500000D03*
%TO.P,J25,33,Pin_33*%
%TO.N,XT_RPi18*%
X224000000Y-243040000D03*
%TO.P,J25,34,Pin_34*%
%TO.N,XT_RPi22*%
X224000000Y-240500000D03*
%TD*%
D29*
%TO.N,3v3*%
X315475735Y-207024265D03*
X232500000Y-153300000D03*
X359000000Y-241700000D03*
X294800000Y-150000000D03*
X163000000Y-104100000D03*
X163000000Y-100700000D03*
X315500000Y-210800000D03*
X235600000Y-153300000D03*
%TO.N,Net-(U2-I15)*%
X227900000Y-90400000D03*
X227900000Y-93700000D03*
%TO.N,Net-(U3-I6)*%
X282300000Y-170500000D03*
X288800000Y-170500000D03*
%TO.N,Net-(U3-I10)*%
X281100000Y-169300000D03*
X287600000Y-169300000D03*
%TO.N,Net-(U3-I11)*%
X255900000Y-172000000D03*
%TO.N,Net-(U3-I12)*%
X258400000Y-172000000D03*
%TO.N,Net-(U3-I13)*%
X261000000Y-172000000D03*
X215900000Y-227900000D03*
X213300000Y-230500000D03*
%TO.N,Net-(U3-I14)*%
X263500000Y-172000000D03*
%TO.N,Net-(U3-I15)*%
X263500000Y-225000000D03*
X266000000Y-172000000D03*
X241500000Y-225000000D03*
%TO.N,mux5_enable*%
X290000000Y-290400000D03*
X286000000Y-286400000D03*
X276150000Y-235900000D03*
X272000000Y-271000000D03*
%TO.N,mux3_enable*%
X294990000Y-255900000D03*
X292000000Y-238600000D03*
X295000000Y-251300000D03*
%TO.N,mux1_enable*%
X327200000Y-78500000D03*
X320500000Y-161500000D03*
X294000000Y-186527000D03*
X321000000Y-157400000D03*
X294000000Y-184981009D03*
X294000000Y-201900000D03*
X327200000Y-94000000D03*
X318500000Y-163500000D03*
%TO.N,sw_grain_playback*%
X293900000Y-234600000D03*
X292400000Y-220600000D03*
X287400000Y-215700000D03*
X289200000Y-217500000D03*
X316200000Y-243800000D03*
X335400000Y-267200000D03*
X335400000Y-281500000D03*
%TO.N,mux2_enable*%
X295000000Y-187400000D03*
X296400000Y-200300000D03*
X274600000Y-156751000D03*
X274585421Y-161912149D03*
%TO.N,mux4_enable*%
X276900000Y-233700000D03*
X273100000Y-237500000D03*
%TO.N,sw_eq2*%
X251100000Y-189700000D03*
X256800000Y-189700000D03*
%TO.N,mux_s0*%
X285100000Y-265700000D03*
X305987500Y-201912500D03*
X264600000Y-266000000D03*
X289000000Y-265200000D03*
X298800000Y-283000000D03*
X297530000Y-264500000D03*
X275200000Y-161400000D03*
X295900000Y-188200000D03*
X275300000Y-156100000D03*
X305400000Y-241000000D03*
X305424265Y-243324265D03*
%TO.N,mux_signal*%
X282600000Y-186527000D03*
X280975735Y-269975735D03*
X254500000Y-270000000D03*
X291600000Y-268065000D03*
X307690000Y-264600000D03*
X282600000Y-185000000D03*
X307600000Y-238800000D03*
X308900000Y-282900000D03*
X307600000Y-241800000D03*
X292000000Y-199300000D03*
%TO.N,sw_grain_type*%
X291300000Y-220500000D03*
X292900000Y-234700000D03*
X288200000Y-217500000D03*
X286400000Y-215700000D03*
X315050000Y-243750000D03*
X334100000Y-267200000D03*
X334100000Y-281472500D03*
%TO.N,mux_s2*%
X259500000Y-268000000D03*
X303900000Y-283000000D03*
X297800000Y-189700000D03*
X300670000Y-249800000D03*
X276600000Y-160400000D03*
X290300000Y-266700000D03*
X276500000Y-154900000D03*
X302610000Y-264500000D03*
X300500000Y-243700000D03*
X300975000Y-201825000D03*
X283400000Y-267500000D03*
%TO.N,mux_s1*%
X284200000Y-266600000D03*
X262000000Y-267000000D03*
X302924265Y-243700000D03*
X302924265Y-247300000D03*
X289700000Y-265900000D03*
X303450000Y-201750000D03*
X275900000Y-155500000D03*
X296800000Y-188900000D03*
X275900000Y-160900000D03*
X301300000Y-283000000D03*
X300070000Y-264500000D03*
%TO.N,sw_sub*%
X257400000Y-189100000D03*
X251700000Y-189100000D03*
%TO.N,mux_s3*%
X306400000Y-282900000D03*
X291000000Y-267400000D03*
X298700000Y-190500000D03*
X297800000Y-200300000D03*
X305150000Y-252500000D03*
X257000000Y-269000000D03*
X282500000Y-268400000D03*
X277200000Y-159754000D03*
X305150000Y-264600000D03*
X297800000Y-243700000D03*
X277065687Y-154334313D03*
%TO.N,sw_eq1*%
X256200000Y-190300000D03*
X250500000Y-190300000D03*
%TO.N,XT_RPi8*%
X233000000Y-250500000D03*
X235500000Y-248000000D03*
%TO.N,neopixel_data*%
X177900000Y-209000000D03*
X177900000Y-184600000D03*
X177900000Y-191200000D03*
%TO.N,XT_GND*%
X361700000Y-53500000D03*
X445625368Y-68500000D03*
X58500000Y-349000000D03*
X443000000Y-66000000D03*
X328700000Y-192500000D03*
X330700000Y-267900000D03*
X277500000Y-187100000D03*
X330700000Y-265100000D03*
%TO.N,XT_RPi_5v*%
X177100000Y-186100000D03*
X177000000Y-209000000D03*
X177000000Y-191200000D03*
%TO.N,sw_input_mode_RPi21*%
X184500000Y-209500000D03*
X213900000Y-237000000D03*
%TO.N,XT_RPi23*%
X213000000Y-238500000D03*
%TD*%
D30*
%TO.N,mux_s0*%
X92700000Y-299000000D02*
X90240000Y-296540000D01*
X103000000Y-299000000D02*
X92700000Y-299000000D01*
X215750000Y-282000000D02*
X120000000Y-282000000D01*
X284800000Y-266000000D02*
X285100000Y-265700000D01*
X120000000Y-282000000D02*
X103000000Y-299000000D01*
X264600000Y-266000000D02*
X284800000Y-266000000D01*
X231750000Y-266000000D02*
X215750000Y-282000000D01*
X264600000Y-266000000D02*
X231750000Y-266000000D01*
%TO.N,3v3*%
X292400000Y-147600000D02*
X294800000Y-150000000D01*
X240630000Y-149390000D02*
X242420000Y-147600000D01*
X163000000Y-104100000D02*
X163000000Y-100700000D01*
X235600000Y-153300000D02*
X232500000Y-153300000D01*
X305340000Y-348000000D02*
X297150000Y-348000000D01*
X359000000Y-241700000D02*
X359000000Y-229250000D01*
X315500000Y-207048530D02*
X315475735Y-207024265D01*
X309830000Y-352490000D02*
X305340000Y-348000000D01*
X315500000Y-210800000D02*
X315500000Y-207048530D01*
X242420000Y-147600000D02*
X292400000Y-147600000D01*
X297150000Y-348000000D02*
X295000000Y-350150000D01*
D31*
%TO.N,Net-(U2-I0)*%
X339500000Y-68400000D02*
X339500000Y-65150000D01*
X341345113Y-70245113D02*
X339500000Y-68400000D01*
X341345113Y-72130000D02*
X341345113Y-70245113D01*
D30*
%TO.N,Net-(U2-I1)*%
X349515113Y-66500000D02*
X379150000Y-66500000D01*
X343885113Y-72130000D02*
X349515113Y-66500000D01*
X379150000Y-66500000D02*
X380500000Y-65150000D01*
%TO.N,Net-(U2-I2)*%
X383700000Y-67000000D02*
X401000000Y-49700000D01*
X351555113Y-67000000D02*
X383700000Y-67000000D01*
X401000000Y-49700000D02*
X401000000Y-34150000D01*
X346425113Y-72130000D02*
X351555113Y-67000000D01*
%TO.N,Net-(U2-I3)*%
X353595113Y-67500000D02*
X419150000Y-67500000D01*
X419150000Y-67500000D02*
X421500000Y-65150000D01*
X348965113Y-72130000D02*
X353595113Y-67500000D01*
%TO.N,Net-(U2-I4)*%
X355635113Y-68000000D02*
X422886655Y-68000000D01*
X351505113Y-72130000D02*
X355635113Y-68000000D01*
X422886655Y-68000000D02*
X439500000Y-51386655D01*
X439500000Y-51386655D02*
X439500000Y-34250000D01*
%TO.N,Net-(U2-I5)*%
X345675113Y-80500000D02*
X50200000Y-80500000D01*
X354045113Y-72130000D02*
X345675113Y-80500000D01*
X46500000Y-84200000D02*
X46500000Y-100150000D01*
X50200000Y-80500000D02*
X46500000Y-84200000D01*
%TO.N,Net-(U2-I6)*%
X73500000Y-81000000D02*
X347715113Y-81000000D01*
X347715113Y-81000000D02*
X356585113Y-72130000D01*
X66500000Y-128150000D02*
X66500000Y-88000000D01*
X66500000Y-88000000D02*
X73500000Y-81000000D01*
%TO.N,Net-(U2-I7)*%
X53100000Y-139600000D02*
X46500000Y-146200000D01*
X46500000Y-146200000D02*
X46500000Y-156150000D01*
X75700000Y-128000000D02*
X64100000Y-139600000D01*
X64100000Y-139600000D02*
X53100000Y-139600000D01*
X75700000Y-88441644D02*
X75700000Y-128000000D01*
X359125113Y-72130000D02*
X349755113Y-81500000D01*
X349755113Y-81500000D02*
X82641644Y-81500000D01*
X82641644Y-81500000D02*
X75700000Y-88441644D01*
%TO.N,Net-(U2-I8)*%
X94500000Y-86000000D02*
X98500000Y-82000000D01*
X94500000Y-100150000D02*
X94500000Y-86000000D01*
X98500000Y-82000000D02*
X351795113Y-82000000D01*
X351795113Y-82000000D02*
X361665113Y-72130000D01*
%TO.N,Net-(U2-I9)*%
X353835113Y-82500000D02*
X364205113Y-72130000D01*
X114500000Y-88000000D02*
X120000000Y-82500000D01*
X120000000Y-82500000D02*
X353835113Y-82500000D01*
X114500000Y-128150000D02*
X114500000Y-88000000D01*
%TO.N,Net-(U2-I10)*%
X94500000Y-141400000D02*
X104150000Y-131750000D01*
X94500000Y-156250000D02*
X94500000Y-141400000D01*
X128500000Y-123000000D02*
X128500000Y-88141644D01*
X119750000Y-131750000D02*
X128500000Y-123000000D01*
X133641644Y-83000000D02*
X355875113Y-83000000D01*
X355875113Y-83000000D02*
X366745113Y-72130000D01*
X104150000Y-131750000D02*
X119750000Y-131750000D01*
X128500000Y-88141644D02*
X133641644Y-83000000D01*
%TO.N,Net-(U2-I11)*%
X357915113Y-83500000D02*
X369285113Y-72130000D01*
X145500000Y-88366000D02*
X150366000Y-83500000D01*
X145500000Y-102150000D02*
X145500000Y-88366000D01*
X150366000Y-83500000D02*
X357915113Y-83500000D01*
%TO.N,Net-(U2-I12)*%
X170449000Y-84000000D02*
X359955113Y-84000000D01*
X359955113Y-84000000D02*
X371825113Y-72130000D01*
X165500000Y-129150000D02*
X165500000Y-88949000D01*
X165500000Y-88949000D02*
X170449000Y-84000000D01*
%TO.N,Net-(U2-I13)*%
X145500000Y-156130000D02*
X145500000Y-140100000D01*
X176800000Y-84500000D02*
X361995113Y-84500000D01*
X168100000Y-136800000D02*
X172200000Y-132700000D01*
X148800000Y-136800000D02*
X168100000Y-136800000D01*
X361995113Y-84500000D02*
X374365113Y-72130000D01*
X145500000Y-140100000D02*
X148800000Y-136800000D01*
X172200000Y-89100000D02*
X176800000Y-84500000D01*
X172200000Y-132700000D02*
X172200000Y-89100000D01*
%TO.N,Net-(U2-I14)*%
X364035113Y-85000000D02*
X179500000Y-85000000D01*
X179500000Y-85000000D02*
X175000000Y-89500000D01*
X175000000Y-132000000D02*
X161500000Y-145500000D01*
X376905113Y-72130000D02*
X364035113Y-85000000D01*
X161500000Y-145500000D02*
X161500000Y-187150000D01*
X175000000Y-89500000D02*
X175000000Y-132000000D01*
%TO.N,Net-(U2-I15)*%
X365075113Y-86500000D02*
X229200000Y-86500000D01*
X227900000Y-87800000D02*
X227900000Y-90400000D01*
X379445113Y-72130000D02*
X365075113Y-86500000D01*
X229200000Y-86500000D02*
X227900000Y-87800000D01*
D31*
X227900000Y-102150000D02*
X227900000Y-93700000D01*
%TO.N,Net-(U3-I0)*%
X227100000Y-167700000D02*
X222500000Y-167700000D01*
X224400000Y-138100000D02*
X242800000Y-138100000D01*
X227930000Y-164630000D02*
X227930000Y-166870000D01*
X242800000Y-138100000D02*
X247900000Y-133000000D01*
X247900000Y-133000000D02*
X247900000Y-129150000D01*
X221300000Y-141200000D02*
X224400000Y-138100000D01*
X227930000Y-166870000D02*
X227100000Y-167700000D01*
X222500000Y-167700000D02*
X221300000Y-166500000D01*
X221300000Y-166500000D02*
X221300000Y-141200000D01*
%TO.N,Net-(U3-I1)*%
X227900000Y-159000000D02*
X230500000Y-161600000D01*
X227900000Y-156150000D02*
X227900000Y-159000000D01*
X230500000Y-161600000D02*
X230470000Y-161630000D01*
X230470000Y-161630000D02*
X230470000Y-164630000D01*
%TO.N,Net-(U3-I2)*%
X233010000Y-167310000D02*
X236700000Y-171000000D01*
X243800000Y-172800000D02*
X243800000Y-187150000D01*
X236700000Y-171000000D02*
X242000000Y-171000000D01*
X242000000Y-171000000D02*
X243800000Y-172800000D01*
X233010000Y-164630000D02*
X233010000Y-167310000D01*
%TO.N,Net-(U3-I3)*%
X239621000Y-157379000D02*
X289179356Y-157379000D01*
X310200000Y-136358356D02*
X310200000Y-102150000D01*
X235550000Y-164630000D02*
X235550000Y-161450000D01*
X289179356Y-157379000D02*
X310200000Y-136358356D01*
X235550000Y-161450000D02*
X239621000Y-157379000D01*
%TO.N,Net-(U3-I4)*%
X322750000Y-136600000D02*
X330200000Y-129150000D01*
X238090000Y-164630000D02*
X238090000Y-161510000D01*
X310500000Y-136600000D02*
X322750000Y-136600000D01*
X289338000Y-157762000D02*
X310500000Y-136600000D01*
X241838000Y-157762000D02*
X289338000Y-157762000D01*
X238090000Y-161510000D02*
X241838000Y-157762000D01*
%TO.N,Net-(U3-I5)*%
X309655000Y-158145000D02*
X310200000Y-157600000D01*
X310200000Y-157600000D02*
X310200000Y-156150000D01*
X240630000Y-164630000D02*
X240630000Y-161870000D01*
X240630000Y-161870000D02*
X244355000Y-158145000D01*
X244355000Y-158145000D02*
X309655000Y-158145000D01*
D30*
%TO.N,Net-(U3-I6)*%
X314900000Y-190000000D02*
X325300000Y-190000000D01*
X288800000Y-170500000D02*
X310200000Y-170500000D01*
X249040000Y-170500000D02*
X243170000Y-164630000D01*
X249040000Y-170500000D02*
X282300000Y-170500000D01*
X313300000Y-188400000D02*
X314900000Y-190000000D01*
X326200000Y-189100000D02*
X326200000Y-187150000D01*
X310200000Y-170500000D02*
X313300000Y-173600000D01*
X325300000Y-190000000D02*
X326200000Y-189100000D01*
X313300000Y-173600000D02*
X313300000Y-188400000D01*
%TO.N,Net-(U3-I7)*%
X363600000Y-158500000D02*
X392500000Y-129600000D01*
X245710000Y-164630000D02*
X245710000Y-162490000D01*
X249700000Y-158500000D02*
X363600000Y-158500000D01*
X245710000Y-162490000D02*
X249700000Y-158500000D01*
X392500000Y-129600000D02*
X392500000Y-102150000D01*
%TO.N,Net-(U3-I8)*%
X252073000Y-158827000D02*
X248250000Y-162650000D01*
X405850000Y-135800000D02*
X405818776Y-135831224D01*
X412500000Y-131200000D02*
X407900000Y-135800000D01*
X386731224Y-135831224D02*
X363735448Y-158827000D01*
X363735448Y-158827000D02*
X252073000Y-158827000D01*
X412500000Y-129150000D02*
X412500000Y-131200000D01*
X407900000Y-135800000D02*
X405850000Y-135800000D01*
X248250000Y-162650000D02*
X248250000Y-164630000D01*
X405818776Y-135831224D02*
X386731224Y-135831224D01*
%TO.N,Net-(U3-I9)*%
X392500000Y-157900000D02*
X392500000Y-156150000D01*
X250790000Y-162710000D02*
X254346000Y-159154000D01*
X250790000Y-164630000D02*
X250790000Y-162710000D01*
X391246000Y-159154000D02*
X392500000Y-157900000D01*
X254346000Y-159154000D02*
X391246000Y-159154000D01*
%TO.N,Net-(U3-I10)*%
X398600000Y-190200000D02*
X407600000Y-190200000D01*
X255400000Y-169300000D02*
X253330000Y-167230000D01*
X377700000Y-169300000D02*
X398600000Y-190200000D01*
X407600000Y-190200000D02*
X408500000Y-189300000D01*
X253330000Y-167230000D02*
X253330000Y-164630000D01*
X408500000Y-189300000D02*
X408500000Y-187250000D01*
X287600000Y-169300000D02*
X377700000Y-169300000D01*
X281100000Y-169300000D02*
X255400000Y-169300000D01*
%TO.N,Net-(U3-I11)*%
X255917753Y-186917753D02*
X255917753Y-172017753D01*
X149500000Y-263150000D02*
X149500000Y-265500000D01*
X140600000Y-218000000D02*
X147700000Y-210900000D01*
X231935506Y-210900000D02*
X255917753Y-186917753D01*
X144200000Y-266500000D02*
X140600000Y-262900000D01*
X148500000Y-266500000D02*
X144200000Y-266500000D01*
X147700000Y-210900000D02*
X231935506Y-210900000D01*
X255917753Y-172017753D02*
X255900000Y-172000000D01*
X149500000Y-265500000D02*
X148500000Y-266500000D01*
X140600000Y-262900000D02*
X140600000Y-218000000D01*
%TO.N,Net-(U3-I12)*%
X215651471Y-227300000D02*
X214500000Y-228451471D01*
X217600000Y-248900000D02*
X221400000Y-248900000D01*
X214500000Y-228451471D02*
X214500000Y-245800000D01*
X215250000Y-265250000D02*
X214500000Y-264500000D01*
X216037552Y-227300000D02*
X215651471Y-227300000D01*
X221400000Y-248900000D02*
X223000000Y-250500000D01*
X223000000Y-250500000D02*
X223000000Y-263500000D01*
X221250000Y-265250000D02*
X215250000Y-265250000D01*
X214500000Y-245800000D02*
X217600000Y-248900000D01*
X258400000Y-172000000D02*
X258400000Y-184937552D01*
X214500000Y-264500000D02*
X214500000Y-263150000D01*
X223000000Y-263500000D02*
X221250000Y-265250000D01*
X258400000Y-184937552D02*
X216037552Y-227300000D01*
%TO.N,Net-(U3-I13)*%
X213150000Y-230650000D02*
X213300000Y-230500000D01*
X183000000Y-230650000D02*
X213150000Y-230650000D01*
X261000000Y-182800000D02*
X215900000Y-227900000D01*
X261000000Y-172000000D02*
X261000000Y-182800000D01*
X181500000Y-229150000D02*
X183000000Y-230650000D01*
%TO.N,Net-(U3-I14)*%
X263500000Y-172000000D02*
X263500000Y-180762448D01*
X246500000Y-231200000D02*
X246500000Y-229150000D01*
X235200000Y-227600000D02*
X239800000Y-232200000D01*
X235200000Y-209062448D02*
X235200000Y-227600000D01*
X239800000Y-232200000D02*
X245500000Y-232200000D01*
X263500000Y-180762448D02*
X235200000Y-209062448D01*
X245500000Y-232200000D02*
X246500000Y-231200000D01*
%TO.N,Net-(U3-I15)*%
X235527000Y-220044463D02*
X240482537Y-225000000D01*
X263500000Y-225000000D02*
X264000000Y-225000000D01*
X266000000Y-172000000D02*
X266000000Y-178724896D01*
X240482537Y-225000000D02*
X241500000Y-225000000D01*
X266000000Y-178724896D02*
X235527000Y-209197896D01*
X280500000Y-241500000D02*
X280500000Y-263150000D01*
X264000000Y-225000000D02*
X280500000Y-241500000D01*
X235527000Y-209197896D02*
X235527000Y-220044463D01*
%TO.N,Net-(U4-I0)*%
X286900000Y-264900000D02*
X286900000Y-250000000D01*
X316500000Y-231400000D02*
X316500000Y-229150000D01*
X279750000Y-275125000D02*
X279750000Y-272050000D01*
X292300000Y-244600000D02*
X303300000Y-244600000D01*
X286900000Y-250000000D02*
X292300000Y-244600000D01*
X279750000Y-272050000D02*
X286900000Y-264900000D01*
X303300000Y-244600000D02*
X316500000Y-231400000D01*
%TO.N,Net-(U4-I1)*%
X282290000Y-273010000D02*
X286635000Y-268665000D01*
X282290000Y-275125000D02*
X282290000Y-273010000D01*
X310985000Y-268665000D02*
X316500000Y-263150000D01*
X286635000Y-268665000D02*
X310985000Y-268665000D01*
%TO.N,Net-(U4-I2)*%
X334908000Y-268992000D02*
X361500000Y-242400000D01*
X284830000Y-275125000D02*
X284830000Y-273070000D01*
X361500000Y-242400000D02*
X361500000Y-229250000D01*
X288908000Y-268992000D02*
X334908000Y-268992000D01*
X284830000Y-273070000D02*
X288908000Y-268992000D01*
%TO.N,Net-(U4-I3)*%
X291281000Y-269319000D02*
X355331000Y-269319000D01*
X287370000Y-275125000D02*
X287370000Y-273230000D01*
X287370000Y-273230000D02*
X291281000Y-269319000D01*
X355331000Y-269319000D02*
X361500000Y-263150000D01*
%TO.N,Net-(U4-I4)*%
X293454000Y-269646000D02*
X363454000Y-269646000D01*
X401500000Y-231600000D02*
X401500000Y-229150000D01*
X289910000Y-273190000D02*
X293454000Y-269646000D01*
X363454000Y-269646000D02*
X401500000Y-231600000D01*
X289910000Y-275125000D02*
X289910000Y-273190000D01*
%TO.N,Net-(U4-I5)*%
X401500000Y-265200000D02*
X401500000Y-263150000D01*
X396727000Y-269973000D02*
X401500000Y-265200000D01*
X292450000Y-273350000D02*
X295827000Y-269973000D01*
X295827000Y-269973000D02*
X396727000Y-269973000D01*
X292450000Y-275125000D02*
X292450000Y-273350000D01*
%TO.N,Net-(U4-I6)*%
X294990000Y-275125000D02*
X294990000Y-273410000D01*
X433500000Y-242873528D02*
X433500000Y-229250000D01*
X298100000Y-270300000D02*
X406073528Y-270300000D01*
X406073528Y-270300000D02*
X433500000Y-242873528D01*
X294990000Y-273410000D02*
X298100000Y-270300000D01*
D31*
%TO.N,Net-(U4-I7)*%
X280899424Y-293734000D02*
X215082712Y-293734000D01*
X145500000Y-299300000D02*
X145500000Y-314150000D01*
X297530000Y-279170000D02*
X296532000Y-280168000D01*
X215082712Y-293734000D02*
X213799712Y-295017000D01*
X149783000Y-295017000D02*
X145500000Y-299300000D01*
X213799712Y-295017000D02*
X149783000Y-295017000D01*
X297530000Y-275125000D02*
X297530000Y-279170000D01*
X294465424Y-280168000D02*
X280899424Y-293734000D01*
X296532000Y-280168000D02*
X294465424Y-280168000D01*
%TO.N,Net-(U4-I8)*%
X213958356Y-295400000D02*
X181250000Y-295400000D01*
X299149000Y-280551000D02*
X294624068Y-280551000D01*
X300070000Y-275125000D02*
X300070000Y-279630000D01*
X181250000Y-295400000D02*
X179500000Y-297150000D01*
X281058068Y-294117000D02*
X215241356Y-294117000D01*
X294624068Y-280551000D02*
X281058068Y-294117000D01*
X300070000Y-279630000D02*
X299149000Y-280551000D01*
X215241356Y-294117000D02*
X213958356Y-295400000D01*
%TO.N,Net-(U4-I9)*%
X294782712Y-280934000D02*
X281216712Y-294500000D01*
X302610000Y-275125000D02*
X302610000Y-279590000D01*
X281216712Y-294500000D02*
X215400000Y-294500000D01*
X301266000Y-280934000D02*
X294782712Y-280934000D01*
X302610000Y-279590000D02*
X301266000Y-280934000D01*
X211500000Y-298400000D02*
X211500000Y-314150000D01*
X215400000Y-294500000D02*
X211500000Y-298400000D01*
%TO.N,Net-(U4-I10)*%
X247767000Y-294883000D02*
X281375356Y-294883000D01*
X245500000Y-297150000D02*
X247767000Y-294883000D01*
X294941356Y-281317000D02*
X303741356Y-281317000D01*
X303741356Y-281317000D02*
X305150000Y-279908356D01*
X281375356Y-294883000D02*
X294941356Y-281317000D01*
X305150000Y-279908356D02*
X305150000Y-275125000D01*
%TO.N,Net-(U4-I11)*%
X295100000Y-281700000D02*
X281534000Y-295266000D01*
X277500000Y-296800000D02*
X277500000Y-314150000D01*
X279034000Y-295266000D02*
X277500000Y-296800000D01*
X307690000Y-277910000D02*
X303900000Y-281700000D01*
X307690000Y-275125000D02*
X307690000Y-277910000D01*
X281534000Y-295266000D02*
X279034000Y-295266000D01*
X303900000Y-281700000D02*
X295100000Y-281700000D01*
%TO.N,Net-(U4-I12)*%
X319300000Y-298600000D02*
X318300000Y-299600000D01*
X310230000Y-277730000D02*
X314110500Y-281610500D01*
X314110500Y-281610500D02*
X318610500Y-281610500D01*
X318610500Y-281610500D02*
X319300000Y-282300000D01*
X318300000Y-299600000D02*
X312300000Y-299600000D01*
X312300000Y-299600000D02*
X311500000Y-298800000D01*
X310230000Y-275125000D02*
X310230000Y-277730000D01*
X319300000Y-282300000D02*
X319300000Y-298600000D01*
X311500000Y-298800000D02*
X311500000Y-297150000D01*
%TO.N,Net-(U4-I13)*%
X340500000Y-315900000D02*
X339400000Y-317000000D01*
X314269144Y-281227500D02*
X312770000Y-279728356D01*
X312770000Y-279728356D02*
X312770000Y-275125000D01*
X339400000Y-317000000D02*
X333400000Y-317000000D01*
X329100000Y-312700000D02*
X329100000Y-283900000D01*
X340500000Y-314150000D02*
X340500000Y-315900000D01*
X326427500Y-281227500D02*
X314269144Y-281227500D01*
X329100000Y-283900000D02*
X326427500Y-281227500D01*
X333400000Y-317000000D02*
X329100000Y-312700000D01*
%TO.N,Net-(U4-I14)*%
X315310000Y-279410000D02*
X316744500Y-280844500D01*
X364400000Y-298700000D02*
X366400000Y-300700000D01*
X358844500Y-280844500D02*
X364400000Y-286400000D01*
X364400000Y-286400000D02*
X364400000Y-298700000D01*
X315310000Y-275125000D02*
X315310000Y-279410000D01*
X316744500Y-280844500D02*
X358844500Y-280844500D01*
X372800000Y-300700000D02*
X374500000Y-299000000D01*
X374500000Y-299000000D02*
X374500000Y-297150000D01*
X366400000Y-300700000D02*
X372800000Y-300700000D01*
%TO.N,Net-(U4-I15)*%
X441000000Y-316400000D02*
X441000000Y-314150000D01*
X428900000Y-315300000D02*
X431300000Y-317700000D01*
X428900000Y-289200000D02*
X428900000Y-315300000D01*
X439700000Y-317700000D02*
X441000000Y-316400000D01*
X317850000Y-275125000D02*
X317850000Y-279250000D01*
X319061500Y-280461500D02*
X420161500Y-280461500D01*
X420161500Y-280461500D02*
X428900000Y-289200000D01*
X317850000Y-279250000D02*
X319061500Y-280461500D01*
X431300000Y-317700000D02*
X439700000Y-317700000D01*
%TO.N,Net-(U5-I0)*%
X75000000Y-278760000D02*
X75000000Y-248800000D01*
X74950000Y-239050000D02*
X70700000Y-234800000D01*
X74950000Y-248750000D02*
X74950000Y-239050000D01*
X61000000Y-234800000D02*
X56000000Y-229800000D01*
X75000000Y-248800000D02*
X74950000Y-248750000D01*
X70700000Y-234800000D02*
X61000000Y-234800000D01*
X56000000Y-229800000D02*
X56000000Y-216150000D01*
%TO.N,Net-(U5-I1)*%
X88800000Y-238900000D02*
X92900000Y-234800000D01*
X78600000Y-281300000D02*
X88800000Y-271100000D01*
X101100000Y-234800000D02*
X105000000Y-230900000D01*
X92900000Y-234800000D02*
X101100000Y-234800000D01*
X75000000Y-281300000D02*
X78600000Y-281300000D01*
X88800000Y-271100000D02*
X88800000Y-238900000D01*
X105000000Y-230900000D02*
X105000000Y-216150000D01*
%TO.N,Net-(U5-I2)*%
X70440000Y-283840000D02*
X75000000Y-283840000D01*
X56000000Y-251150000D02*
X56000000Y-259200000D01*
X56000000Y-259200000D02*
X60100000Y-263300000D01*
X60100000Y-263300000D02*
X64100000Y-263300000D01*
X67500000Y-266700000D02*
X67500000Y-280900000D01*
X67500000Y-280900000D02*
X70440000Y-283840000D01*
X64100000Y-263300000D02*
X67500000Y-266700000D01*
%TO.N,Net-(U5-I3)*%
X105000000Y-253900000D02*
X105000000Y-251150000D01*
X93650000Y-265250000D02*
X105000000Y-253900000D01*
X78720000Y-286380000D02*
X93650000Y-271450000D01*
X93650000Y-271450000D02*
X93650000Y-265250000D01*
X75000000Y-286380000D02*
X78720000Y-286380000D01*
%TO.N,Net-(U5-I4)*%
X75000000Y-288920000D02*
X57220000Y-288920000D01*
X57220000Y-288920000D02*
X56000000Y-287700000D01*
X56000000Y-287700000D02*
X56000000Y-285150000D01*
%TO.N,Net-(U5-I5)*%
X78740000Y-291460000D02*
X82800000Y-287400000D01*
X82800000Y-287400000D02*
X104400000Y-287400000D01*
X105000000Y-286800000D02*
X105000000Y-285150000D01*
X75000000Y-291460000D02*
X78740000Y-291460000D01*
X104400000Y-287400000D02*
X105000000Y-286800000D01*
%TO.N,Net-(U5-I6)*%
X66434000Y-322700000D02*
X69834000Y-319300000D01*
X56000000Y-321100000D02*
X57600000Y-322700000D01*
X56000000Y-319150000D02*
X56000000Y-321100000D01*
X57600000Y-322700000D02*
X66434000Y-322700000D01*
X72700000Y-294000000D02*
X75000000Y-294000000D01*
X69834000Y-319300000D02*
X69834000Y-296866000D01*
X69834000Y-296866000D02*
X72700000Y-294000000D01*
%TO.N,Net-(U5-I7)*%
X79632000Y-298632000D02*
X77500000Y-296500000D01*
X103400000Y-322700000D02*
X82600000Y-322700000D01*
X105000000Y-321100000D02*
X103400000Y-322700000D01*
X105000000Y-319250000D02*
X105000000Y-321100000D01*
X82600000Y-322700000D02*
X79632000Y-319732000D01*
X77500000Y-296500000D02*
X75040000Y-296500000D01*
X79632000Y-319732000D02*
X79632000Y-298632000D01*
X75040000Y-296500000D02*
X75000000Y-296540000D01*
%TO.N,Net-(U5-I8)*%
X56000000Y-353150000D02*
X56000000Y-355500000D01*
X56000000Y-355500000D02*
X57250000Y-356750000D01*
X57250000Y-356750000D02*
X66550000Y-356750000D01*
X70217000Y-301583000D02*
X72720000Y-299080000D01*
X72720000Y-299080000D02*
X75000000Y-299080000D01*
X70217000Y-353083000D02*
X70217000Y-301583000D01*
X66550000Y-356750000D02*
X70217000Y-353083000D01*
%TO.N,Net-(U5-I9)*%
X105000000Y-353150000D02*
X105000000Y-355600000D01*
X77320000Y-301620000D02*
X75000000Y-301620000D01*
X79249000Y-303549000D02*
X77320000Y-301620000D01*
X103200000Y-357400000D02*
X83024932Y-357400000D01*
X83024932Y-357400000D02*
X79249000Y-353624068D01*
X79249000Y-353624068D02*
X79249000Y-303549000D01*
X105000000Y-355600000D02*
X103200000Y-357400000D01*
%TO.N,Net-(U5-I10)*%
X68100000Y-391500000D02*
X58100000Y-391500000D01*
X56000000Y-389400000D02*
X56000000Y-387150000D01*
X70600000Y-306000000D02*
X70600000Y-389000000D01*
X70600000Y-389000000D02*
X68100000Y-391500000D01*
X75000000Y-304160000D02*
X72440000Y-304160000D01*
X58100000Y-391500000D02*
X56000000Y-389400000D01*
X72440000Y-304160000D02*
X70600000Y-306000000D01*
%TO.N,Net-(U5-I11)*%
X78866000Y-353782712D02*
X83083288Y-358000000D01*
X77000000Y-306700000D02*
X78866000Y-308566000D01*
X75000000Y-306700000D02*
X77000000Y-306700000D01*
X149500000Y-355600000D02*
X149500000Y-350150000D01*
X83083288Y-358000000D02*
X147100000Y-358000000D01*
X78866000Y-308566000D02*
X78866000Y-353782712D01*
X147100000Y-358000000D02*
X149500000Y-355600000D01*
%TO.N,Net-(U5-I12)*%
X75000000Y-309240000D02*
X76740000Y-309240000D01*
X78483000Y-310983000D02*
X78483000Y-353941356D01*
X78483000Y-353941356D02*
X82941644Y-358400000D01*
X182700000Y-358400000D02*
X185500000Y-355600000D01*
X76740000Y-309240000D02*
X78483000Y-310983000D01*
X185500000Y-355600000D02*
X185500000Y-350150000D01*
X82941644Y-358400000D02*
X182700000Y-358400000D01*
%TO.N,Net-(U5-I13)*%
X78100000Y-354100000D02*
X82783000Y-358783000D01*
X75000000Y-311780000D02*
X76680000Y-311780000D01*
X225500000Y-356000000D02*
X225500000Y-350250000D01*
X222717000Y-358783000D02*
X225500000Y-356000000D01*
X82783000Y-358783000D02*
X222717000Y-358783000D01*
X78100000Y-313200000D02*
X78100000Y-354100000D01*
X76680000Y-311780000D02*
X78100000Y-313200000D01*
D30*
%TO.N,Net-(U6-I14)*%
X333000000Y-367600000D02*
X336573000Y-371173000D01*
X401500000Y-393100000D02*
X401500000Y-391150000D01*
X332690000Y-367730000D02*
X332820000Y-367600000D01*
X332820000Y-367600000D02*
X333000000Y-367600000D01*
X393600000Y-395100000D02*
X399500000Y-395100000D01*
X336573000Y-371173000D02*
X385873000Y-371173000D01*
X399500000Y-395100000D02*
X401500000Y-393100000D01*
X385873000Y-371173000D02*
X390500000Y-375800000D01*
X390500000Y-375800000D02*
X390500000Y-392000000D01*
X390500000Y-392000000D02*
X393600000Y-395100000D01*
%TO.N,Net-(U6-I15)*%
X439300000Y-394800000D02*
X441000000Y-393100000D01*
X432500000Y-394800000D02*
X439300000Y-394800000D01*
X429800000Y-375400000D02*
X429800000Y-392100000D01*
X425246000Y-370846000D02*
X429800000Y-375400000D01*
X335510000Y-367450000D02*
X335550000Y-367450000D01*
X338946000Y-370846000D02*
X425246000Y-370846000D01*
X441000000Y-393100000D02*
X441000000Y-391150000D01*
X335230000Y-367730000D02*
X335510000Y-367450000D01*
X335550000Y-367450000D02*
X338946000Y-370846000D01*
X429800000Y-392100000D02*
X432500000Y-394800000D01*
D31*
%TO.N,Net-(U6-I0)*%
X297130000Y-367730000D02*
X288400000Y-359000000D01*
X266500000Y-359000000D02*
X261500000Y-354000000D01*
X261500000Y-354000000D02*
X261500000Y-350150000D01*
X288400000Y-359000000D02*
X266500000Y-359000000D01*
%TO.N,Net-(U6-I1)*%
X299670000Y-367730000D02*
X299990000Y-367410000D01*
X297500000Y-353500000D02*
X297500000Y-350150000D01*
X299990000Y-355990000D02*
X297500000Y-353500000D01*
X299990000Y-367410000D02*
X299990000Y-355990000D01*
%TO.N,Net-(U6-I2)*%
X303700000Y-354900000D02*
X335000000Y-354900000D01*
X302210000Y-367730000D02*
X302530000Y-367410000D01*
X302530000Y-367410000D02*
X302530000Y-356070000D01*
X335000000Y-354900000D02*
X337500000Y-352400000D01*
X302530000Y-356070000D02*
X303700000Y-354900000D01*
X337500000Y-352400000D02*
X337500000Y-350150000D01*
%TO.N,Net-(U6-I3)*%
X304750000Y-367730000D02*
X304750000Y-356950000D01*
X367117000Y-355283000D02*
X369500000Y-352900000D01*
X304750000Y-356950000D02*
X306417000Y-355283000D01*
X306417000Y-355283000D02*
X367117000Y-355283000D01*
X369500000Y-352900000D02*
X369500000Y-350250000D01*
%TO.N,Net-(U6-I4)*%
X307290000Y-357310000D02*
X307290000Y-367730000D01*
X401500000Y-350150000D02*
X401500000Y-352800000D01*
X308934000Y-355666000D02*
X307290000Y-357310000D01*
X398634000Y-355666000D02*
X308934000Y-355666000D01*
X401500000Y-352800000D02*
X398634000Y-355666000D01*
%TO.N,Net-(U6-I5)*%
X311551000Y-356049000D02*
X309830000Y-357770000D01*
X309830000Y-357770000D02*
X309830000Y-367730000D01*
X435101000Y-356049000D02*
X311551000Y-356049000D01*
X441000000Y-350150000D02*
X435101000Y-356049000D01*
D30*
%TO.N,Net-(U6-I6)*%
X101600000Y-393600000D02*
X101600000Y-391150000D01*
X309400000Y-370200000D02*
X121800000Y-370200000D01*
X121800000Y-370200000D02*
X116100000Y-375900000D01*
X312370000Y-367730000D02*
X311870000Y-367730000D01*
X116100000Y-389900000D02*
X110800000Y-395200000D01*
X110800000Y-395200000D02*
X103200000Y-395200000D01*
X116100000Y-375900000D02*
X116100000Y-389900000D01*
X103200000Y-395200000D02*
X101600000Y-393600000D01*
X311870000Y-367730000D02*
X309400000Y-370200000D01*
%TO.N,Net-(U6-I7)*%
X314570000Y-367730000D02*
X314910000Y-367730000D01*
X149000000Y-395200000D02*
X152300000Y-391900000D01*
X311773000Y-370527000D02*
X314570000Y-367730000D01*
X152300000Y-391900000D02*
X152300000Y-374600000D01*
X156373000Y-370527000D02*
X311773000Y-370527000D01*
X152300000Y-374600000D02*
X156373000Y-370527000D01*
X141500000Y-395200000D02*
X149000000Y-395200000D01*
X139500000Y-393200000D02*
X141500000Y-395200000D01*
X139500000Y-391250000D02*
X139500000Y-393200000D01*
%TO.N,Net-(U6-I8)*%
X317170000Y-367730000D02*
X317450000Y-367730000D01*
X180500000Y-391250000D02*
X180500000Y-393100000D01*
X182700000Y-395300000D02*
X190800000Y-395300000D01*
X203646000Y-370854000D02*
X314046000Y-370854000D01*
X180500000Y-393100000D02*
X182700000Y-395300000D01*
X194100000Y-380400000D02*
X203646000Y-370854000D01*
X314046000Y-370854000D02*
X317170000Y-367730000D01*
X194100000Y-392000000D02*
X194100000Y-380400000D01*
X190800000Y-395300000D02*
X194100000Y-392000000D01*
%TO.N,Net-(U6-I9)*%
X216500000Y-391150000D02*
X216500000Y-392900000D01*
X218800000Y-395200000D02*
X227300000Y-395200000D01*
X227300000Y-395200000D02*
X230400000Y-392100000D01*
X216500000Y-392900000D02*
X218800000Y-395200000D01*
X319970000Y-367730000D02*
X319990000Y-367730000D01*
X230400000Y-392100000D02*
X230400000Y-379800000D01*
X239019000Y-371181000D02*
X316519000Y-371181000D01*
X230400000Y-379800000D02*
X239019000Y-371181000D01*
X316519000Y-371181000D02*
X319970000Y-367730000D01*
%TO.N,Net-(U6-I10)*%
X264800000Y-380000000D02*
X273292000Y-371508000D01*
X318792000Y-371508000D02*
X322530000Y-367770000D01*
X261800000Y-395200000D02*
X264800000Y-392200000D01*
X273292000Y-371508000D02*
X318792000Y-371508000D01*
X322530000Y-367770000D02*
X322530000Y-367730000D01*
X254400000Y-395200000D02*
X261800000Y-395200000D01*
X252500000Y-393300000D02*
X254400000Y-395200000D01*
X252500000Y-391150000D02*
X252500000Y-393300000D01*
X264800000Y-392200000D02*
X264800000Y-380000000D01*
%TO.N,Net-(U6-I11)*%
X306000000Y-373900000D02*
X308065000Y-371835000D01*
X293500000Y-391150000D02*
X293500000Y-393400000D01*
X295400000Y-395300000D02*
X303000000Y-395300000D01*
X303000000Y-395300000D02*
X306000000Y-392300000D01*
X320965000Y-371835000D02*
X325070000Y-367730000D01*
X306000000Y-392300000D02*
X306000000Y-373900000D01*
X293500000Y-393400000D02*
X295400000Y-395300000D01*
X308065000Y-371835000D02*
X320965000Y-371835000D01*
%TO.N,Net-(U6-I12)*%
X332327000Y-371827000D02*
X338027000Y-371827000D01*
X338600000Y-372400000D02*
X338600000Y-393300000D01*
X338600000Y-393300000D02*
X337000000Y-394900000D01*
X327930000Y-367430000D02*
X332327000Y-371827000D01*
X327910000Y-367430000D02*
X327930000Y-367430000D01*
X331300000Y-394900000D02*
X329500000Y-393100000D01*
X329500000Y-393100000D02*
X329500000Y-391150000D01*
X327610000Y-367730000D02*
X327910000Y-367430000D01*
X338027000Y-371827000D02*
X338600000Y-372400000D01*
X337000000Y-394900000D02*
X331300000Y-394900000D01*
%TO.N,mux5_enable*%
X272000000Y-271000000D02*
X272000000Y-272400000D01*
X276150000Y-235900000D02*
X276200000Y-235850000D01*
X276200000Y-235850000D02*
X276200000Y-219260000D01*
X272000000Y-272400000D02*
X286000000Y-286400000D01*
X291915074Y-345450000D02*
X305330000Y-345450000D01*
X276200000Y-219260000D02*
X285110000Y-210350000D01*
X290000000Y-290400000D02*
X290000000Y-343534926D01*
X290000000Y-343534926D02*
X291915074Y-345450000D01*
X305330000Y-345450000D02*
X312370000Y-352490000D01*
%TO.N,XT_Teensy37*%
X264790000Y-199210000D02*
X263382500Y-200617500D01*
X263382500Y-210819097D02*
X261169500Y-213032097D01*
X263382500Y-200617500D02*
X263382500Y-210819097D01*
X264790000Y-195110000D02*
X264790000Y-199210000D01*
X261169500Y-226652948D02*
X249400000Y-238422448D01*
X261169500Y-213032097D02*
X261169500Y-226652948D01*
X249400000Y-238422448D02*
X249400000Y-240500000D01*
%TO.N,XT_Teensy41*%
X254480000Y-234267344D02*
X254480000Y-240500000D01*
X268462500Y-201597500D02*
X268462500Y-211037500D01*
X268462500Y-211037500D02*
X261823500Y-217676500D01*
X261823500Y-226923844D02*
X254480000Y-234267344D01*
X261823500Y-217676500D02*
X261823500Y-226923844D01*
X274950000Y-195110000D02*
X268462500Y-201597500D01*
%TO.N,sw_high*%
X438533202Y-184400197D02*
X431033399Y-191900000D01*
X298700000Y-191900000D02*
X297810000Y-192790000D01*
X431033399Y-191900000D02*
X298700000Y-191900000D01*
X297810000Y-192790000D02*
X297810000Y-195110000D01*
%TO.N,XT_Teensy34*%
X242000000Y-240500000D02*
X244173000Y-238327000D01*
X256037500Y-210819097D02*
X256037500Y-196242500D01*
X246030552Y-238327000D02*
X258173000Y-226184552D01*
X258173000Y-212954597D02*
X256037500Y-210819097D01*
X244173000Y-238327000D02*
X246030552Y-238327000D01*
X241780000Y-240500000D02*
X242000000Y-240500000D01*
X258173000Y-226184552D02*
X258173000Y-212954597D01*
X256037500Y-196242500D02*
X257170000Y-195110000D01*
%TO.N,XT_Teensy40*%
X251940000Y-236344896D02*
X261496500Y-226788396D01*
X251940000Y-240500000D02*
X251940000Y-236344896D01*
X265922500Y-201597500D02*
X272410000Y-195110000D01*
X265922500Y-210819097D02*
X265922500Y-201597500D01*
X261496500Y-226788396D02*
X261496500Y-215245097D01*
X261496500Y-215245097D02*
X265922500Y-210819097D01*
%TO.N,XT_Teensy36*%
X260842500Y-226517500D02*
X260842500Y-196517500D01*
X246860000Y-240500000D02*
X260842500Y-226517500D01*
X260842500Y-196517500D02*
X262250000Y-195110000D01*
%TO.N,XT_Teensy35*%
X259710000Y-195110000D02*
X258500000Y-196320000D01*
X258500000Y-196320000D02*
X258500000Y-226320000D01*
X258500000Y-226320000D02*
X244320000Y-240500000D01*
%TO.N,XT_RPi7*%
X224000000Y-270750000D02*
X203316346Y-270750000D01*
X197190000Y-266250000D02*
X196000000Y-265060000D01*
X203316346Y-270750000D02*
X198816346Y-266250000D01*
X198816346Y-266250000D02*
X197190000Y-266250000D01*
X234160000Y-260590000D02*
X224000000Y-270750000D01*
X234160000Y-243040000D02*
X234160000Y-260590000D01*
%TO.N,mux3_enable*%
X294990000Y-255900000D02*
X295000000Y-255890000D01*
X290190000Y-236790000D02*
X290190000Y-210350000D01*
X292000000Y-238600000D02*
X290190000Y-236790000D01*
X295000000Y-255890000D02*
X295000000Y-251300000D01*
%TO.N,mux1_enable*%
X295270000Y-208270000D02*
X295270000Y-210350000D01*
X339300000Y-60450000D02*
X353025113Y-60450000D01*
X294000000Y-201900000D02*
X294000000Y-207000000D01*
X320500000Y-161500000D02*
X318500000Y-163500000D01*
X327200000Y-78500000D02*
X327200000Y-72550000D01*
X333900000Y-140200000D02*
X321000000Y-153100000D01*
X353025113Y-60450000D02*
X356585113Y-56890000D01*
X321000000Y-153100000D02*
X321000000Y-157400000D01*
X294000000Y-207000000D02*
X295270000Y-208270000D01*
X327200000Y-94000000D02*
X327200000Y-120065074D01*
X327200000Y-120065074D02*
X333900000Y-126765074D01*
X333900000Y-126765074D02*
X333900000Y-140200000D01*
X327200000Y-72550000D02*
X339300000Y-60450000D01*
X294000000Y-184981009D02*
X294000000Y-186527000D01*
%TO.N,XT_RPi11*%
X230500000Y-244160000D02*
X230500000Y-261250000D01*
X199130000Y-261130000D02*
X197150000Y-261130000D01*
X197150000Y-261130000D02*
X196000000Y-259980000D01*
X206500000Y-268500000D02*
X199130000Y-261130000D01*
X230500000Y-261250000D02*
X223250000Y-268500000D01*
X231620000Y-243040000D02*
X230500000Y-244160000D01*
X223250000Y-268500000D02*
X206500000Y-268500000D01*
%TO.N,sw_grain_playback*%
X335400000Y-263000000D02*
X316200000Y-243800000D01*
X293900000Y-234600000D02*
X292427000Y-233127000D01*
X335400000Y-267200000D02*
X335400000Y-263000000D01*
X418500000Y-296400000D02*
X413845000Y-301055000D01*
X354955000Y-301055000D02*
X335400000Y-281500000D01*
X292427000Y-220627000D02*
X292400000Y-220600000D01*
X292427000Y-233127000D02*
X292427000Y-220627000D01*
X289200000Y-217500000D02*
X287400000Y-215700000D01*
X413845000Y-301055000D02*
X354955000Y-301055000D01*
%TO.N,mux2_enable*%
X295000000Y-182326728D02*
X274585421Y-161912149D01*
X274600000Y-156751000D02*
X272357000Y-154508000D01*
X292730000Y-202070000D02*
X292730000Y-210350000D01*
X295000000Y-187400000D02*
X295000000Y-182326728D01*
X248288000Y-154508000D02*
X243170000Y-149390000D01*
X272357000Y-154508000D02*
X248288000Y-154508000D01*
X294500000Y-200300000D02*
X292730000Y-202070000D01*
X296400000Y-200300000D02*
X294500000Y-200300000D01*
%TO.N,mux4_enable*%
X283600000Y-214400000D02*
X287650000Y-210350000D01*
X271373000Y-239227000D02*
X273100000Y-237500000D01*
X281900000Y-214400000D02*
X283600000Y-214400000D01*
X276900000Y-219400000D02*
X281900000Y-214400000D01*
X276900000Y-233700000D02*
X276900000Y-219400000D01*
X103000000Y-298000000D02*
X119500000Y-281500000D01*
X271373000Y-262727000D02*
X271373000Y-239227000D01*
X119500000Y-281500000D02*
X215250000Y-281500000D01*
X215250000Y-281500000D02*
X231750000Y-265000000D01*
X90240000Y-294000000D02*
X94240000Y-298000000D01*
X269100000Y-265000000D02*
X271373000Y-262727000D01*
X231750000Y-265000000D02*
X269100000Y-265000000D01*
X94240000Y-298000000D02*
X103000000Y-298000000D01*
%TO.N,sw_delay_type*%
X436700000Y-263500000D02*
X434600000Y-263500000D01*
X437800000Y-262400000D02*
X436700000Y-263500000D01*
X436200000Y-226300000D02*
X437800000Y-227900000D01*
X302890000Y-196890000D02*
X304700000Y-198700000D01*
X434600000Y-263500000D02*
X433500000Y-262400000D01*
X433500000Y-262400000D02*
X433500000Y-260400000D01*
X308000000Y-198700000D02*
X335600000Y-226300000D01*
X304700000Y-198700000D02*
X308000000Y-198700000D01*
X437800000Y-227900000D02*
X437800000Y-262400000D01*
X335600000Y-226300000D02*
X436200000Y-226300000D01*
X302890000Y-195110000D02*
X302890000Y-196890000D01*
%TO.N,sw_mid*%
X356200000Y-187200000D02*
X352273000Y-191127000D01*
X295270000Y-192730000D02*
X295270000Y-195110000D01*
X296873000Y-191127000D02*
X295270000Y-192730000D01*
X356200000Y-184400000D02*
X356200000Y-187200000D01*
X352273000Y-191127000D02*
X296873000Y-191127000D01*
%TO.N,XT_RPi13*%
X208250000Y-267750000D02*
X199090000Y-258590000D01*
X229080000Y-261420000D02*
X222750000Y-267750000D01*
X197150000Y-258590000D02*
X196000000Y-257440000D01*
X222750000Y-267750000D02*
X208250000Y-267750000D01*
X229080000Y-243040000D02*
X229080000Y-261420000D01*
X199090000Y-258590000D02*
X197150000Y-258590000D01*
%TO.N,sw_eq2*%
X251100000Y-189700000D02*
X131100000Y-189700000D01*
X287650000Y-193350000D02*
X287600000Y-193300000D01*
X284000000Y-189700000D02*
X256800000Y-189700000D01*
X114500000Y-173100000D02*
X114500000Y-169400000D01*
X287600000Y-193300000D02*
X284000000Y-189700000D01*
X131100000Y-189700000D02*
X114500000Y-173100000D01*
X287650000Y-195110000D02*
X287650000Y-193350000D01*
%TO.N,XT_RPi15*%
X222250000Y-267000000D02*
X210500000Y-267000000D01*
X199550000Y-256050000D02*
X197150000Y-256050000D01*
X197150000Y-256050000D02*
X196000000Y-254900000D01*
X210500000Y-267000000D02*
X199550000Y-256050000D01*
X226540000Y-262710000D02*
X222250000Y-267000000D01*
X226540000Y-243040000D02*
X226540000Y-262710000D01*
%TO.N,mux_s0*%
X273381000Y-154181000D02*
X250501000Y-154181000D01*
X305987500Y-201912500D02*
X305430000Y-202470000D01*
X296830000Y-265200000D02*
X297530000Y-264500000D01*
X305430000Y-202470000D02*
X305430000Y-210350000D01*
X289000000Y-265200000D02*
X296830000Y-265200000D01*
X315230000Y-352170000D02*
X314910000Y-352490000D01*
X295900000Y-182100000D02*
X275200000Y-161400000D01*
X297530000Y-248370000D02*
X297530000Y-259885000D01*
X302848530Y-245900000D02*
X300000000Y-245900000D01*
X298800000Y-283000000D02*
X297500000Y-284300000D01*
X275300000Y-156100000D02*
X273381000Y-154181000D01*
X295900000Y-188200000D02*
X295900000Y-182100000D01*
X305400000Y-241000000D02*
X305430000Y-240970000D01*
X297530000Y-264500000D02*
X297530000Y-259885000D01*
X297500000Y-322262448D02*
X315230000Y-339992448D01*
X305430000Y-240970000D02*
X305430000Y-210350000D01*
X250501000Y-154181000D02*
X245710000Y-149390000D01*
X305424265Y-243324265D02*
X302848530Y-245900000D01*
X300000000Y-245900000D02*
X297530000Y-248370000D01*
X315230000Y-339992448D02*
X315230000Y-352170000D01*
X297500000Y-284300000D02*
X297500000Y-322262448D01*
%TO.N,mux_signal*%
X291600000Y-268065000D02*
X304225000Y-268065000D01*
X309102500Y-201402500D02*
X309102500Y-237297500D01*
X231750000Y-270000000D02*
X217750000Y-284000000D01*
X254500000Y-270000000D02*
X231750000Y-270000000D01*
X217750000Y-284000000D02*
X122000000Y-284000000D01*
X325390000Y-340290000D02*
X325390000Y-352170000D01*
X307000000Y-199300000D02*
X309102500Y-201402500D01*
X307690000Y-264600000D02*
X307690000Y-259885000D01*
X292000000Y-199300000D02*
X307000000Y-199300000D01*
X307500000Y-322400000D02*
X325390000Y-340290000D01*
X304225000Y-268065000D02*
X307690000Y-264600000D01*
X307690000Y-259885000D02*
X307690000Y-241890000D01*
X103000000Y-303000000D02*
X93940000Y-303000000D01*
X325390000Y-352170000D02*
X325070000Y-352490000D01*
X309102500Y-237297500D02*
X307600000Y-238800000D01*
X280951470Y-270000000D02*
X280975735Y-269975735D01*
X307500000Y-293400000D02*
X307500000Y-322400000D01*
X122000000Y-284000000D02*
X103000000Y-303000000D01*
X254500000Y-270000000D02*
X280951470Y-270000000D01*
X308900000Y-282900000D02*
X309600000Y-283600000D01*
X309600000Y-283600000D02*
X309600000Y-291300000D01*
X93940000Y-303000000D02*
X90240000Y-306700000D01*
X309600000Y-291300000D02*
X307500000Y-293400000D01*
X282600000Y-186527000D02*
X282600000Y-185000000D01*
X307690000Y-241890000D02*
X307600000Y-241800000D01*
%TO.N,sw_grain_type*%
X334100000Y-262800000D02*
X334100000Y-267200000D01*
X292100000Y-233900000D02*
X292100000Y-221300000D01*
X292100000Y-221300000D02*
X291400000Y-220600000D01*
X292900000Y-234700000D02*
X292100000Y-233900000D01*
X368027500Y-315400000D02*
X334100000Y-281472500D01*
X286400000Y-215700000D02*
X288200000Y-217500000D01*
X315050000Y-243750000D02*
X334100000Y-262800000D01*
X402500000Y-315400000D02*
X368027500Y-315400000D01*
%TO.N,mux_s2*%
X320310000Y-340310000D02*
X320310000Y-352170000D01*
X300350000Y-202450000D02*
X300350000Y-210350000D01*
X275127000Y-153527000D02*
X254927000Y-153527000D01*
X290300000Y-266700000D02*
X290500000Y-266500000D01*
X320310000Y-352170000D02*
X319990000Y-352490000D01*
X259500000Y-268000000D02*
X231750000Y-268000000D01*
X254927000Y-153527000D02*
X250790000Y-149390000D01*
X300610000Y-266500000D02*
X302610000Y-264500000D01*
X103024896Y-301000000D02*
X90860000Y-301000000D01*
X302400000Y-284500000D02*
X302400000Y-322400000D01*
X302610000Y-251740000D02*
X302610000Y-259885000D01*
X276500000Y-154900000D02*
X275127000Y-153527000D01*
X300500000Y-231400000D02*
X300350000Y-231250000D01*
X282551471Y-267500000D02*
X283400000Y-267500000D01*
X300500000Y-243700000D02*
X300500000Y-231400000D01*
X231750000Y-268000000D02*
X216750000Y-283000000D01*
X302400000Y-322400000D02*
X320310000Y-340310000D01*
X300670000Y-249800000D02*
X302610000Y-251740000D01*
X297800000Y-181600000D02*
X276600000Y-160400000D01*
X290500000Y-266500000D02*
X300610000Y-266500000D01*
X297800000Y-189700000D02*
X297800000Y-181600000D01*
X300975000Y-201825000D02*
X300350000Y-202450000D01*
X303900000Y-283000000D02*
X302400000Y-284500000D01*
X300350000Y-231250000D02*
X300350000Y-210350000D01*
X90860000Y-301000000D02*
X90240000Y-301620000D01*
X302610000Y-264500000D02*
X302610000Y-259885000D01*
X259500000Y-268000000D02*
X282051471Y-268000000D01*
X282051471Y-268000000D02*
X282551471Y-267500000D01*
X121024896Y-283000000D02*
X103024896Y-301000000D01*
X216750000Y-283000000D02*
X121024896Y-283000000D01*
%TO.N,mux_s1*%
X300070000Y-248530000D02*
X300070000Y-259885000D01*
X91160000Y-300000000D02*
X90240000Y-299080000D01*
X302924265Y-232224265D02*
X302890000Y-232190000D01*
X120500000Y-282500000D02*
X103000000Y-300000000D01*
X283451471Y-266600000D02*
X284200000Y-266600000D01*
X302890000Y-232190000D02*
X302890000Y-210350000D01*
X262000000Y-267000000D02*
X283051471Y-267000000D01*
X303450000Y-201750000D02*
X302890000Y-202310000D01*
X302890000Y-202310000D02*
X302890000Y-210350000D01*
X299800000Y-284500000D02*
X299800000Y-322062448D01*
X317770000Y-352170000D02*
X317450000Y-352490000D01*
X274254000Y-153854000D02*
X252714000Y-153854000D01*
X252714000Y-153854000D02*
X248250000Y-149390000D01*
X296800000Y-188900000D02*
X296800000Y-181800000D01*
X317770000Y-340032448D02*
X317770000Y-352170000D01*
X275900000Y-155500000D02*
X274254000Y-153854000D01*
X231750000Y-267000000D02*
X216250000Y-282500000D01*
X302924265Y-247300000D02*
X301300000Y-247300000D01*
X262000000Y-267000000D02*
X231750000Y-267000000D01*
X302924265Y-243700000D02*
X302924265Y-232224265D01*
X301300000Y-247300000D02*
X300070000Y-248530000D01*
X299800000Y-322062448D02*
X317770000Y-340032448D01*
X103000000Y-300000000D02*
X91160000Y-300000000D01*
X301300000Y-283000000D02*
X299800000Y-284500000D01*
X289700000Y-265900000D02*
X298670000Y-265900000D01*
X216250000Y-282500000D02*
X120500000Y-282500000D01*
X300070000Y-264500000D02*
X300070000Y-259885000D01*
X296800000Y-181800000D02*
X275900000Y-160900000D01*
X298670000Y-265900000D02*
X300070000Y-264500000D01*
X283051471Y-267000000D02*
X283451471Y-266600000D01*
%TO.N,sw_sub*%
X251700000Y-189100000D02*
X196200000Y-189100000D01*
X257400000Y-189100000D02*
X285400000Y-189100000D01*
X196200000Y-189100000D02*
X191500000Y-184400000D01*
X285400000Y-189100000D02*
X290190000Y-193890000D01*
X290190000Y-193890000D02*
X290190000Y-195110000D01*
%TO.N,btn_delay_taptempo*%
X288900000Y-211550000D02*
X288900000Y-200800000D01*
X298500000Y-198700000D02*
X300350000Y-196850000D01*
X300350000Y-196850000D02*
X300350000Y-195110000D01*
X288900000Y-200800000D02*
X291000000Y-198700000D01*
X280500000Y-219950000D02*
X288900000Y-211550000D01*
X291000000Y-198700000D02*
X298500000Y-198700000D01*
%TO.N,XT_RPi18*%
X212430000Y-266250000D02*
X198540000Y-252360000D01*
X221750000Y-266250000D02*
X212430000Y-266250000D01*
X224000000Y-243040000D02*
X224000000Y-264000000D01*
X224000000Y-264000000D02*
X221750000Y-266250000D01*
%TO.N,sw_bass*%
X273800000Y-184400000D02*
X273800000Y-187100000D01*
X273800000Y-187100000D02*
X275200000Y-188500000D01*
X292730000Y-193730000D02*
X292730000Y-195110000D01*
X287500000Y-188500000D02*
X292730000Y-193730000D01*
X275200000Y-188500000D02*
X287500000Y-188500000D01*
%TO.N,sampler_stop*%
X437982500Y-196517500D02*
X450900000Y-183600000D01*
X450900000Y-183600000D02*
X450900000Y-25300000D01*
X306837500Y-196517500D02*
X437982500Y-196517500D01*
X364150000Y-20800000D02*
X360000000Y-24950000D01*
X305430000Y-195110000D02*
X306837500Y-196517500D01*
X446400000Y-20800000D02*
X364150000Y-20800000D01*
X450900000Y-25300000D02*
X446400000Y-20800000D01*
%TO.N,mux_s3*%
X257140000Y-153200000D02*
X253330000Y-149390000D01*
X305000000Y-284300000D02*
X305000000Y-322500000D01*
X297810000Y-243690000D02*
X297810000Y-210350000D01*
X291000000Y-267400000D02*
X302350000Y-267400000D01*
X281900000Y-269000000D02*
X282500000Y-268400000D01*
X231750000Y-269000000D02*
X217250000Y-283500000D01*
X257000000Y-269000000D02*
X231750000Y-269000000D01*
X322850000Y-340350000D02*
X322850000Y-352170000D01*
X297810000Y-210350000D02*
X297810000Y-200310000D01*
X277065687Y-154334313D02*
X275931374Y-153200000D01*
X217250000Y-283500000D02*
X121500000Y-283500000D01*
X121500000Y-283500000D02*
X103000000Y-302000000D01*
X305000000Y-322500000D02*
X322850000Y-340350000D01*
X322850000Y-352170000D02*
X322530000Y-352490000D01*
X297800000Y-243700000D02*
X297810000Y-243690000D01*
X306400000Y-282900000D02*
X305000000Y-284300000D01*
X297810000Y-200310000D02*
X297800000Y-200300000D01*
X305150000Y-264600000D02*
X305150000Y-259885000D01*
X103000000Y-302000000D02*
X92400000Y-302000000D01*
X257000000Y-269000000D02*
X281900000Y-269000000D01*
X298700000Y-181254000D02*
X277200000Y-159754000D01*
X275931374Y-153200000D02*
X257140000Y-153200000D01*
X298700000Y-190500000D02*
X298700000Y-181254000D01*
X92400000Y-302000000D02*
X90240000Y-304160000D01*
X302350000Y-267400000D02*
X305150000Y-264600000D01*
X305150000Y-252500000D02*
X305150000Y-259885000D01*
%TO.N,sw_eq1*%
X285110000Y-195110000D02*
X285110000Y-193410000D01*
X285110000Y-193410000D02*
X285100000Y-193400000D01*
X84000000Y-190300000D02*
X66500000Y-172800000D01*
X285100000Y-193400000D02*
X282000000Y-190300000D01*
X250500000Y-190300000D02*
X84000000Y-190300000D01*
X282000000Y-190300000D02*
X256200000Y-190300000D01*
X66500000Y-172800000D02*
X66500000Y-169400000D01*
%TO.N,XT_RPi8*%
X232400000Y-261350000D02*
X223750000Y-270000000D01*
X233000000Y-250500000D02*
X232400000Y-251100000D01*
X236700000Y-243040000D02*
X236700000Y-246800000D01*
X223750000Y-270000000D02*
X203480000Y-270000000D01*
X203480000Y-270000000D02*
X198540000Y-265060000D01*
X232400000Y-251100000D02*
X232400000Y-261350000D01*
X236700000Y-246800000D02*
X235500000Y-248000000D01*
%TO.N,neopixel_data*%
X177900000Y-191200000D02*
X177900000Y-209000000D01*
X177900000Y-103944000D02*
X184250000Y-97594000D01*
X177900000Y-184600000D02*
X177900000Y-103944000D01*
%TO.N,Net-(taptempo_led1-A)*%
X148765000Y-221700000D02*
X155100000Y-221700000D01*
X158800000Y-229900000D02*
X158800000Y-225400000D01*
X158800000Y-225400000D02*
X155100000Y-221700000D01*
%TO.N,Net-(Neopixel_bass_gain_reduction1-GND-Pad5)*%
X264010000Y-97594000D02*
X258970000Y-92554000D01*
X258970000Y-92554000D02*
X206436000Y-92554000D01*
X206436000Y-92554000D02*
X201390000Y-97600000D01*
%TO.N,Net-(Neopixel_bass_gain_reduction1-VCC-Pad3)*%
X269090000Y-145600000D02*
X270660000Y-144030000D01*
X276934000Y-144030000D02*
X278610000Y-145706000D01*
X270660000Y-144030000D02*
X276934000Y-144030000D01*
%TO.N,Net-(Neopixel_bass_gain_reduction1-GND-Pad8)*%
X193770000Y-97600000D02*
X199797000Y-91573000D01*
X265609000Y-91573000D02*
X271630000Y-97594000D01*
X199797000Y-91573000D02*
X265609000Y-91573000D01*
%TO.N,Net-(Neopixel_bass_gain_reduction1-GND-Pad4)*%
X275964000Y-145600000D02*
X276070000Y-145706000D01*
X271630000Y-145600000D02*
X275964000Y-145600000D01*
%TO.N,Net-(Neopixel_high_gain_reduction1-DATA_IN)*%
X363450000Y-97700000D02*
X368627000Y-92523000D01*
X426179000Y-92523000D02*
X431250000Y-97594000D01*
X368627000Y-92523000D02*
X426179000Y-92523000D01*
%TO.N,Net-(Neopixel_mid_gain_reduction1-DATA_OUT)*%
X350847000Y-143703000D02*
X361447000Y-143703000D01*
X348950000Y-145600000D02*
X350847000Y-143703000D01*
X361447000Y-143703000D02*
X363450000Y-145706000D01*
%TO.N,Net-(Neopixel_bass_gain_reduction1-GND-Pad1)*%
X266234000Y-143376000D02*
X264010000Y-145600000D01*
X283690000Y-145706000D02*
X281360000Y-143376000D01*
X281360000Y-143376000D02*
X266234000Y-143376000D01*
%TO.N,Net-(Neopixel_bass_out_level1-GND-Pad4)*%
X348305000Y-91869000D02*
X281901000Y-91869000D01*
X281901000Y-91869000D02*
X276070000Y-97700000D01*
X354030000Y-97594000D02*
X348305000Y-91869000D01*
%TO.N,Net-(Neopixel_bass_gain_reduction1-DATA_OUT)*%
X279147000Y-143703000D02*
X281150000Y-145706000D01*
X266550000Y-145600000D02*
X268447000Y-143703000D01*
X268447000Y-143703000D02*
X279147000Y-143703000D01*
%TO.N,Net-(Neopixel_bass_out_level1-GND-Pad1)*%
X288540000Y-92850000D02*
X341666000Y-92850000D01*
X341666000Y-92850000D02*
X346410000Y-97594000D01*
X283690000Y-97700000D02*
X288540000Y-92850000D01*
%TO.N,Net-(Neopixel_bass_out_level1-VCC-Pad3)*%
X284114000Y-92196000D02*
X346092000Y-92196000D01*
X346092000Y-92196000D02*
X351490000Y-97594000D01*
X278610000Y-97700000D02*
X284114000Y-92196000D01*
%TO.N,Net-(Neopixel_bass_out_level1-DATA_OUT)*%
X343879000Y-92523000D02*
X286327000Y-92523000D01*
X286327000Y-92523000D02*
X281150000Y-97700000D01*
X348950000Y-97594000D02*
X343879000Y-92523000D01*
%TO.N,Net-(Neopixel_high_gain_reduction1-GND-Pad8)*%
X358370000Y-97700000D02*
X364201000Y-91869000D01*
X364201000Y-91869000D02*
X430605000Y-91869000D01*
X430605000Y-91869000D02*
X436330000Y-97594000D01*
%TO.N,Net-(Neopixel_bass_gain_reduction1-DATA_IN)*%
X198850000Y-97600000D02*
X204223000Y-92227000D01*
X204223000Y-92227000D02*
X261183000Y-92227000D01*
X261183000Y-92227000D02*
X266550000Y-97594000D01*
%TO.N,Net-(Neopixel_bass_gain_reduction1-VCC-Pad7)*%
X202010000Y-91900000D02*
X196310000Y-97600000D01*
X263396000Y-91900000D02*
X202010000Y-91900000D01*
X269090000Y-97594000D02*
X263396000Y-91900000D01*
%TO.N,Net-(Neopixel_high_gain_reduction1-VCC-Pad7)*%
X428392000Y-92196000D02*
X433790000Y-97594000D01*
X360910000Y-97700000D02*
X366414000Y-92196000D01*
X366414000Y-92196000D02*
X428392000Y-92196000D01*
%TO.N,Net-(Neopixel_high_gain_reduction1-GND-Pad5)*%
X423966000Y-92850000D02*
X370850000Y-92850000D01*
X428710000Y-97594000D02*
X423966000Y-92850000D01*
X370850000Y-92850000D02*
X366000000Y-97700000D01*
X366000000Y-97700000D02*
X365990000Y-97700000D01*
%TO.N,Net-(Neopixel_high_gain_reduction1-GND-Pad4)*%
X436436000Y-145706000D02*
X436330000Y-145600000D01*
X440770000Y-145706000D02*
X436436000Y-145706000D01*
%TO.N,Net-(Neopixel_high_gain_reduction1-GND-Pad1)*%
X446060000Y-143376000D02*
X430934000Y-143376000D01*
X448390000Y-145706000D02*
X446060000Y-143376000D01*
X430934000Y-143376000D02*
X428710000Y-145600000D01*
%TO.N,Net-(Neopixel_mid_gain_reduction1-GND-Pad1)*%
X348634000Y-143376000D02*
X363660000Y-143376000D01*
X346410000Y-145600000D02*
X348634000Y-143376000D01*
X363660000Y-143376000D02*
X365990000Y-145706000D01*
%TO.N,Net-(Neopixel_mid_gain_reduction1-GND-Pad4)*%
X354030000Y-145600000D02*
X358264000Y-145600000D01*
X358264000Y-145600000D02*
X358370000Y-145706000D01*
%TO.N,Net-(Neopixel_mid_gain_reduction1-VCC-Pad3)*%
X359234000Y-144030000D02*
X353060000Y-144030000D01*
X360910000Y-145706000D02*
X359234000Y-144030000D01*
X353060000Y-144030000D02*
X351490000Y-145600000D01*
%TO.N,Net-(Neopixel_high_gain_reduction1-VCC-Pad3)*%
X435360000Y-144030000D02*
X441634000Y-144030000D01*
X441634000Y-144030000D02*
X443310000Y-145706000D01*
X433790000Y-145600000D02*
X435360000Y-144030000D01*
%TO.N,Net-(Neopixel_high_gain_reduction1-DATA_OUT)*%
X443847000Y-143703000D02*
X433147000Y-143703000D01*
X433147000Y-143703000D02*
X431250000Y-145600000D01*
X445850000Y-145706000D02*
X443847000Y-143703000D01*
%TO.N,Net-(Neopixel_sub_gain_reduction1-GND-Pad4)*%
X189330000Y-145600000D02*
X193764000Y-145600000D01*
X193764000Y-145600000D02*
X193770000Y-145606000D01*
%TO.N,Net-(Neopixel_sub_gain_reduction1-GND-Pad1)*%
X183964000Y-143346000D02*
X199130000Y-143346000D01*
X181710000Y-145600000D02*
X183964000Y-143346000D01*
X199130000Y-143346000D02*
X201390000Y-145606000D01*
%TO.N,Net-(Neopixel_sub_gain_reduction1-VCC-Pad3)*%
X186790000Y-145600000D02*
X188390000Y-144000000D01*
X188390000Y-144000000D02*
X194704000Y-144000000D01*
X194704000Y-144000000D02*
X196310000Y-145606000D01*
%TO.N,Net-(U6-I13)*%
X358000000Y-395100000D02*
X363575000Y-395100000D01*
X363575000Y-395100000D02*
X365500000Y-393175000D01*
X356600000Y-393700000D02*
X358000000Y-395100000D01*
X356600000Y-375800000D02*
X356600000Y-393700000D01*
X330470000Y-367570000D02*
X334400000Y-371500000D01*
X330150000Y-367730000D02*
X330310000Y-367570000D01*
X365500000Y-393175000D02*
X365500000Y-391150000D01*
X334400000Y-371500000D02*
X352300000Y-371500000D01*
X352300000Y-371500000D02*
X356600000Y-375800000D01*
X330310000Y-367570000D02*
X330470000Y-367570000D01*
%TO.N,Net-(Neopixel_sub_gain_reduction1-DATA_OUT)*%
X186177000Y-143673000D02*
X196917000Y-143673000D01*
X184250000Y-145600000D02*
X186177000Y-143673000D01*
X196917000Y-143673000D02*
X198850000Y-145606000D01*
%TO.N,XT_RPi10*%
X205270000Y-269250000D02*
X198540000Y-262520000D01*
X231500000Y-261349792D02*
X223599792Y-269250000D01*
X231500000Y-245393173D02*
X231500000Y-261349792D01*
X232770000Y-242803654D02*
X232770000Y-244123173D01*
X238090000Y-241890000D02*
X233683654Y-241890000D01*
X239240000Y-243040000D02*
X238090000Y-241890000D01*
X232770000Y-244123173D02*
X231500000Y-245393173D01*
X233683654Y-241890000D02*
X232770000Y-242803654D01*
X223599792Y-269250000D02*
X205270000Y-269250000D01*
%TO.N,XT_GND*%
X181250000Y-266500000D02*
X191500000Y-266500000D01*
X277500000Y-187100000D02*
X277500000Y-185200000D01*
X178500000Y-263750000D02*
X174500000Y-263750000D01*
X107500000Y-251150000D02*
X107500000Y-285150000D01*
X197150000Y-268990000D02*
X198540000Y-267600000D01*
X191500000Y-266500000D02*
X193990000Y-268990000D01*
X191500000Y-179700000D02*
X184100000Y-187100000D01*
X445500000Y-68500000D02*
X443000000Y-66000000D01*
X181710000Y-91890000D02*
X184200000Y-89400000D01*
X58500000Y-353150000D02*
X58500000Y-349000000D01*
X190700000Y-89400000D02*
X198400000Y-89400000D01*
X196476346Y-248670000D02*
X197626346Y-249820000D01*
X189330000Y-97594000D02*
X189330000Y-90770000D01*
X194850000Y-243350000D02*
X194850000Y-247850000D01*
X328700000Y-192500000D02*
X327700000Y-193500000D01*
X197150000Y-238510000D02*
X197150000Y-241050000D01*
X361700000Y-53500000D02*
X354895113Y-53500000D01*
X194850000Y-247850000D02*
X195670000Y-248670000D01*
X184100000Y-187100000D02*
X164050000Y-187100000D01*
X445625368Y-68500000D02*
X445500000Y-68500000D01*
X193990000Y-268990000D02*
X197150000Y-268990000D01*
X277500000Y-185200000D02*
X273800000Y-181500000D01*
X319000000Y-229150000D02*
X319000000Y-216300000D01*
X196000000Y-242200000D02*
X194850000Y-243350000D01*
D31*
X330700000Y-265100000D02*
X330700000Y-267900000D01*
D30*
X164050000Y-187100000D02*
X164000000Y-187150000D01*
X192020000Y-266500000D02*
X196000000Y-262520000D01*
X327700000Y-193500000D02*
X312120000Y-193500000D01*
X184200000Y-89400000D02*
X190700000Y-89400000D01*
X198400000Y-89400000D02*
X200800000Y-87000000D01*
X273800000Y-181500000D02*
X273800000Y-179700000D01*
X178500000Y-263750000D02*
X181250000Y-266500000D01*
X191500000Y-266500000D02*
X192020000Y-266500000D01*
X197150000Y-241050000D02*
X196000000Y-242200000D01*
X319000000Y-216300000D02*
X313050000Y-210350000D01*
X312120000Y-193500000D02*
X310510000Y-195110000D01*
X197626346Y-249820000D02*
X198540000Y-249820000D01*
X189330000Y-90770000D02*
X190700000Y-89400000D01*
X354895113Y-53500000D02*
X351505113Y-56890000D01*
X181710000Y-97594000D02*
X181710000Y-91890000D01*
X198540000Y-237120000D02*
X197150000Y-238510000D01*
X195670000Y-248670000D02*
X196476346Y-248670000D01*
%TO.N,taptempo_LED_RPi16*%
X198540000Y-254900000D02*
X197390000Y-253750000D01*
X172490000Y-253750000D02*
X158800000Y-240060000D01*
X197390000Y-253750000D02*
X172490000Y-253750000D01*
%TO.N,XT_RPi_5v*%
X198540000Y-270140000D02*
X199900000Y-271500000D01*
X248500000Y-248500000D02*
X253330000Y-243670000D01*
X247250000Y-248500000D02*
X248500000Y-248500000D01*
X178500000Y-185255000D02*
X178500000Y-105884000D01*
X177100000Y-186100000D02*
X177655000Y-186100000D01*
X253796827Y-241650000D02*
X258410000Y-241650000D01*
X199900000Y-271500000D02*
X224250000Y-271500000D01*
X253330000Y-242116827D02*
X253796827Y-241650000D01*
X258410000Y-241650000D02*
X259560000Y-240500000D01*
X177655000Y-186100000D02*
X178500000Y-185255000D01*
X178500000Y-105884000D02*
X186790000Y-97594000D01*
X253330000Y-243670000D02*
X253330000Y-242116827D01*
X224250000Y-271500000D02*
X247250000Y-248500000D01*
X177000000Y-209000000D02*
X177000000Y-191200000D01*
%TO.N,XT_Teensy33*%
X245895104Y-238000000D02*
X257846000Y-226049104D01*
X241740000Y-238000000D02*
X245895104Y-238000000D01*
X239240000Y-240500000D02*
X241740000Y-238000000D01*
X257846000Y-215167597D02*
X253497500Y-210819097D01*
X253497500Y-210819097D02*
X253497500Y-198403500D01*
X254630000Y-197271000D02*
X254630000Y-195110000D01*
X253497500Y-198403500D02*
X254630000Y-197271000D01*
X257846000Y-226049104D02*
X257846000Y-215167597D01*
%TO.N,sw_input_mode_RPi21*%
X192950000Y-201820000D02*
X192180000Y-201820000D01*
X197150000Y-248430000D02*
X203918529Y-248430000D01*
X203918529Y-248430000D02*
X213900000Y-238448529D01*
X192180000Y-201820000D02*
X184500000Y-209500000D01*
X196000000Y-247280000D02*
X197150000Y-248430000D01*
X213900000Y-238448529D02*
X213900000Y-237000000D01*
%TO.N,XT_RPi23*%
X196000000Y-244740000D02*
X197390000Y-243350000D01*
X208150000Y-243350000D02*
X213000000Y-238500000D01*
X197390000Y-243350000D02*
X208150000Y-243350000D01*
%TD*%
M02*
