%TF.GenerationSoftware,KiCad,Pcbnew,8.0.5*%
%TF.CreationDate,2024-10-29T20:02:02+01:00*%
%TF.ProjectId,troublemaker,74726f75-626c-4656-9d61-6b65722e6b69,rev?*%
%TF.SameCoordinates,Original*%
%TF.FileFunction,Profile,NP*%
%FSLAX46Y46*%
G04 Gerber Fmt 4.6, Leading zero omitted, Abs format (unit mm)*
G04 Created by KiCad (PCBNEW 8.0.5) date 2024-10-29 20:02:02*
%MOMM*%
%LPD*%
G01*
G04 APERTURE LIST*
%TA.AperFunction,Profile*%
%ADD10C,0.200000*%
%TD*%
G04 APERTURE END LIST*
D10*
X42279200Y-406700200D02*
X445799528Y-406700200D01*
X452033207Y-18509669D02*
G75*
G02*
X453533143Y-20446161I-500007J-1936431D01*
G01*
X445787200Y-12700194D02*
G75*
G02*
X447723699Y-14200203I0J-2000006D01*
G01*
X34533200Y-87700200D02*
G75*
G02*
X44533200Y-77700200I10000000J0D01*
G01*
X447723732Y-405200200D02*
G75*
G02*
X452033208Y-400890730I5809468J-1500000D01*
G01*
X329533205Y-22700200D02*
G75*
G02*
X339533205Y-12700205I9999995J0D01*
G01*
X451954259Y-214532109D02*
G75*
G02*
X451954260Y-199868291I1578941J7331909D01*
G01*
X36114976Y-175738946D02*
G75*
G02*
X34533237Y-173783163I418224J1955746D01*
G01*
X329533205Y-32700200D02*
G75*
G02*
X284561660Y-77700196I-45000005J0D01*
G01*
X447723732Y-405200200D02*
G75*
G02*
X445799528Y-406700201I-1936532J500000D01*
G01*
X284561660Y-77700195D02*
X44533200Y-77700195D01*
X451954259Y-214532109D02*
G75*
G02*
X453533207Y-216481300I-421059J-1955191D01*
G01*
X453533207Y-197913100D02*
X453533207Y-20446161D01*
X453533207Y-398954200D02*
G75*
G02*
X452033200Y-400890699I-2000007J0D01*
G01*
X453533207Y-398954200D02*
X453533207Y-216481300D01*
X445787200Y-12700194D02*
X339533205Y-12700194D01*
X42279200Y-406700200D02*
G75*
G02*
X40342706Y-405200192I0J2000000D01*
G01*
X34533200Y-87700200D02*
X34533200Y-173783163D01*
X452033207Y-18509669D02*
G75*
G02*
X447723731Y-14200194I1499993J5809469D01*
G01*
X34533200Y-192488660D02*
X34533200Y-398965335D01*
X36114976Y-175738946D02*
G75*
G02*
X36114976Y-190532964I-1581776J-7397009D01*
G01*
X34533200Y-192488660D02*
G75*
G02*
X36114975Y-190532958I1999900J0D01*
G01*
X36033200Y-400890725D02*
G75*
G02*
X40342675Y-405200200I-1500000J-5809475D01*
G01*
X329533205Y-22700200D02*
X329533205Y-32700200D01*
X36033200Y-400890725D02*
G75*
G02*
X34533199Y-398965335I500000J1936525D01*
G01*
X453533207Y-197913100D02*
G75*
G02*
X451954258Y-199868282I-2000007J0D01*
G01*
M02*
