%TF.GenerationSoftware,KiCad,Pcbnew,8.0.5*%
%TF.CreationDate,2024-10-29T20:02:02+01:00*%
%TF.ProjectId,troublemaker,74726f75-626c-4656-9d61-6b65722e6b69,rev?*%
%TF.SameCoordinates,Original*%
%TF.FileFunction,Legend,Bot*%
%TF.FilePolarity,Positive*%
%FSLAX46Y46*%
G04 Gerber Fmt 4.6, Leading zero omitted, Abs format (unit mm)*
G04 Created by KiCad (PCBNEW 8.0.5) date 2024-10-29 20:02:02*
%MOMM*%
%LPD*%
G01*
G04 APERTURE LIST*
%ADD10C,0.100000*%
%ADD11C,0.300000*%
%ADD12C,0.500000*%
%ADD13C,0.150000*%
%ADD14C,0.120000*%
%ADD15C,0.200000*%
%ADD16C,0.127000*%
G04 APERTURE END LIST*
D10*
X178862782Y-273848609D02*
X179196115Y-273848609D01*
X179196115Y-274372419D02*
X179196115Y-273372419D01*
X179196115Y-273372419D02*
X178719925Y-273372419D01*
X178386591Y-274086704D02*
X177910401Y-274086704D01*
X178481829Y-274372419D02*
X178148496Y-273372419D01*
X178148496Y-273372419D02*
X177815163Y-274372419D01*
X177481829Y-274372419D02*
X177481829Y-273372419D01*
X177481829Y-273372419D02*
X176910401Y-274372419D01*
X176910401Y-274372419D02*
X176910401Y-273372419D01*
X176672306Y-274467657D02*
X175910401Y-274467657D01*
X175196115Y-273372419D02*
X175672305Y-273372419D01*
X175672305Y-273372419D02*
X175719924Y-273848609D01*
X175719924Y-273848609D02*
X175672305Y-273800990D01*
X175672305Y-273800990D02*
X175577067Y-273753371D01*
X175577067Y-273753371D02*
X175338972Y-273753371D01*
X175338972Y-273753371D02*
X175243734Y-273800990D01*
X175243734Y-273800990D02*
X175196115Y-273848609D01*
X175196115Y-273848609D02*
X175148496Y-273943847D01*
X175148496Y-273943847D02*
X175148496Y-274181942D01*
X175148496Y-274181942D02*
X175196115Y-274277180D01*
X175196115Y-274277180D02*
X175243734Y-274324800D01*
X175243734Y-274324800D02*
X175338972Y-274372419D01*
X175338972Y-274372419D02*
X175577067Y-274372419D01*
X175577067Y-274372419D02*
X175672305Y-274324800D01*
X175672305Y-274324800D02*
X175719924Y-274277180D01*
X174862781Y-273372419D02*
X174529448Y-274372419D01*
X174529448Y-274372419D02*
X174196115Y-273372419D01*
D11*
X205506900Y-82083082D02*
X205578328Y-82225939D01*
X205578328Y-82225939D02*
X205578328Y-82511653D01*
X205578328Y-82511653D02*
X205506900Y-82654510D01*
X205506900Y-82654510D02*
X205364042Y-82725939D01*
X205364042Y-82725939D02*
X205292614Y-82725939D01*
X205292614Y-82725939D02*
X205149757Y-82654510D01*
X205149757Y-82654510D02*
X205078328Y-82511653D01*
X205078328Y-82511653D02*
X205078328Y-82297368D01*
X205078328Y-82297368D02*
X205006900Y-82154510D01*
X205006900Y-82154510D02*
X204864042Y-82083082D01*
X204864042Y-82083082D02*
X204792614Y-82083082D01*
X204792614Y-82083082D02*
X204649757Y-82154510D01*
X204649757Y-82154510D02*
X204578328Y-82297368D01*
X204578328Y-82297368D02*
X204578328Y-82511653D01*
X204578328Y-82511653D02*
X204649757Y-82654510D01*
X205578328Y-84154511D02*
X205578328Y-83297368D01*
X205578328Y-83725939D02*
X204078328Y-83725939D01*
X204078328Y-83725939D02*
X204292614Y-83583082D01*
X204292614Y-83583082D02*
X204435471Y-83440225D01*
X204435471Y-83440225D02*
X204506900Y-83297368D01*
X204078328Y-85083082D02*
X204078328Y-85225939D01*
X204078328Y-85225939D02*
X204149757Y-85368796D01*
X204149757Y-85368796D02*
X204221185Y-85440225D01*
X204221185Y-85440225D02*
X204364042Y-85511653D01*
X204364042Y-85511653D02*
X204649757Y-85583082D01*
X204649757Y-85583082D02*
X205006900Y-85583082D01*
X205006900Y-85583082D02*
X205292614Y-85511653D01*
X205292614Y-85511653D02*
X205435471Y-85440225D01*
X205435471Y-85440225D02*
X205506900Y-85368796D01*
X205506900Y-85368796D02*
X205578328Y-85225939D01*
X205578328Y-85225939D02*
X205578328Y-85083082D01*
X205578328Y-85083082D02*
X205506900Y-84940225D01*
X205506900Y-84940225D02*
X205435471Y-84868796D01*
X205435471Y-84868796D02*
X205292614Y-84797367D01*
X205292614Y-84797367D02*
X205006900Y-84725939D01*
X205006900Y-84725939D02*
X204649757Y-84725939D01*
X204649757Y-84725939D02*
X204364042Y-84797367D01*
X204364042Y-84797367D02*
X204221185Y-84868796D01*
X204221185Y-84868796D02*
X204149757Y-84940225D01*
X204149757Y-84940225D02*
X204078328Y-85083082D01*
X223306900Y-83583082D02*
X223378328Y-83725939D01*
X223378328Y-83725939D02*
X223378328Y-84011653D01*
X223378328Y-84011653D02*
X223306900Y-84154510D01*
X223306900Y-84154510D02*
X223164042Y-84225939D01*
X223164042Y-84225939D02*
X223092614Y-84225939D01*
X223092614Y-84225939D02*
X222949757Y-84154510D01*
X222949757Y-84154510D02*
X222878328Y-84011653D01*
X222878328Y-84011653D02*
X222878328Y-83797368D01*
X222878328Y-83797368D02*
X222806900Y-83654510D01*
X222806900Y-83654510D02*
X222664042Y-83583082D01*
X222664042Y-83583082D02*
X222592614Y-83583082D01*
X222592614Y-83583082D02*
X222449757Y-83654510D01*
X222449757Y-83654510D02*
X222378328Y-83797368D01*
X222378328Y-83797368D02*
X222378328Y-84011653D01*
X222378328Y-84011653D02*
X222449757Y-84154510D01*
X223378328Y-85654511D02*
X223378328Y-84797368D01*
X223378328Y-85225939D02*
X221878328Y-85225939D01*
X221878328Y-85225939D02*
X222092614Y-85083082D01*
X222092614Y-85083082D02*
X222235471Y-84940225D01*
X222235471Y-84940225D02*
X222306900Y-84797368D01*
D12*
X443035713Y-398606857D02*
X441321428Y-398606857D01*
X442178570Y-401606857D02*
X442178570Y-398606857D01*
X438607142Y-401606857D02*
X439607142Y-400178285D01*
X440321428Y-401606857D02*
X440321428Y-398606857D01*
X440321428Y-398606857D02*
X439178571Y-398606857D01*
X439178571Y-398606857D02*
X438892856Y-398749714D01*
X438892856Y-398749714D02*
X438749999Y-398892571D01*
X438749999Y-398892571D02*
X438607142Y-399178285D01*
X438607142Y-399178285D02*
X438607142Y-399606857D01*
X438607142Y-399606857D02*
X438749999Y-399892571D01*
X438749999Y-399892571D02*
X438892856Y-400035428D01*
X438892856Y-400035428D02*
X439178571Y-400178285D01*
X439178571Y-400178285D02*
X440321428Y-400178285D01*
X436749999Y-398606857D02*
X436178571Y-398606857D01*
X436178571Y-398606857D02*
X435892856Y-398749714D01*
X435892856Y-398749714D02*
X435607142Y-399035428D01*
X435607142Y-399035428D02*
X435464285Y-399606857D01*
X435464285Y-399606857D02*
X435464285Y-400606857D01*
X435464285Y-400606857D02*
X435607142Y-401178285D01*
X435607142Y-401178285D02*
X435892856Y-401464000D01*
X435892856Y-401464000D02*
X436178571Y-401606857D01*
X436178571Y-401606857D02*
X436749999Y-401606857D01*
X436749999Y-401606857D02*
X437035714Y-401464000D01*
X437035714Y-401464000D02*
X437321428Y-401178285D01*
X437321428Y-401178285D02*
X437464285Y-400606857D01*
X437464285Y-400606857D02*
X437464285Y-399606857D01*
X437464285Y-399606857D02*
X437321428Y-399035428D01*
X437321428Y-399035428D02*
X437035714Y-398749714D01*
X437035714Y-398749714D02*
X436749999Y-398606857D01*
X434178571Y-398606857D02*
X434178571Y-401035428D01*
X434178571Y-401035428D02*
X434035714Y-401321142D01*
X434035714Y-401321142D02*
X433892857Y-401464000D01*
X433892857Y-401464000D02*
X433607142Y-401606857D01*
X433607142Y-401606857D02*
X433035714Y-401606857D01*
X433035714Y-401606857D02*
X432749999Y-401464000D01*
X432749999Y-401464000D02*
X432607142Y-401321142D01*
X432607142Y-401321142D02*
X432464285Y-401035428D01*
X432464285Y-401035428D02*
X432464285Y-398606857D01*
X430035714Y-400035428D02*
X429607142Y-400178285D01*
X429607142Y-400178285D02*
X429464285Y-400321142D01*
X429464285Y-400321142D02*
X429321428Y-400606857D01*
X429321428Y-400606857D02*
X429321428Y-401035428D01*
X429321428Y-401035428D02*
X429464285Y-401321142D01*
X429464285Y-401321142D02*
X429607142Y-401464000D01*
X429607142Y-401464000D02*
X429892857Y-401606857D01*
X429892857Y-401606857D02*
X431035714Y-401606857D01*
X431035714Y-401606857D02*
X431035714Y-398606857D01*
X431035714Y-398606857D02*
X430035714Y-398606857D01*
X430035714Y-398606857D02*
X429750000Y-398749714D01*
X429750000Y-398749714D02*
X429607142Y-398892571D01*
X429607142Y-398892571D02*
X429464285Y-399178285D01*
X429464285Y-399178285D02*
X429464285Y-399464000D01*
X429464285Y-399464000D02*
X429607142Y-399749714D01*
X429607142Y-399749714D02*
X429750000Y-399892571D01*
X429750000Y-399892571D02*
X430035714Y-400035428D01*
X430035714Y-400035428D02*
X431035714Y-400035428D01*
X426607142Y-401606857D02*
X428035714Y-401606857D01*
X428035714Y-401606857D02*
X428035714Y-398606857D01*
X425607143Y-400035428D02*
X424607143Y-400035428D01*
X424178571Y-401606857D02*
X425607143Y-401606857D01*
X425607143Y-401606857D02*
X425607143Y-398606857D01*
X425607143Y-398606857D02*
X424178571Y-398606857D01*
X422892857Y-401606857D02*
X422892857Y-398606857D01*
X422892857Y-398606857D02*
X421892857Y-400749714D01*
X421892857Y-400749714D02*
X420892857Y-398606857D01*
X420892857Y-398606857D02*
X420892857Y-401606857D01*
X419607143Y-400749714D02*
X418178572Y-400749714D01*
X419892857Y-401606857D02*
X418892857Y-398606857D01*
X418892857Y-398606857D02*
X417892857Y-401606857D01*
X416892857Y-401606857D02*
X416892857Y-398606857D01*
X415178571Y-401606857D02*
X416464285Y-399892571D01*
X415178571Y-398606857D02*
X416892857Y-400321142D01*
X413892857Y-400035428D02*
X412892857Y-400035428D01*
X412464285Y-401606857D02*
X413892857Y-401606857D01*
X413892857Y-401606857D02*
X413892857Y-398606857D01*
X413892857Y-398606857D02*
X412464285Y-398606857D01*
X409464285Y-401606857D02*
X410464285Y-400178285D01*
X411178571Y-401606857D02*
X411178571Y-398606857D01*
X411178571Y-398606857D02*
X410035714Y-398606857D01*
X410035714Y-398606857D02*
X409749999Y-398749714D01*
X409749999Y-398749714D02*
X409607142Y-398892571D01*
X409607142Y-398892571D02*
X409464285Y-399178285D01*
X409464285Y-399178285D02*
X409464285Y-399606857D01*
X409464285Y-399606857D02*
X409607142Y-399892571D01*
X409607142Y-399892571D02*
X409749999Y-400035428D01*
X409749999Y-400035428D02*
X410035714Y-400178285D01*
X410035714Y-400178285D02*
X411178571Y-400178285D01*
X406321428Y-398606857D02*
X405321428Y-401606857D01*
X405321428Y-401606857D02*
X404321428Y-398606857D01*
X401749999Y-401606857D02*
X403464285Y-401606857D01*
X402607142Y-401606857D02*
X402607142Y-398606857D01*
X402607142Y-398606857D02*
X402892856Y-399035428D01*
X402892856Y-399035428D02*
X403178571Y-399321142D01*
X403178571Y-399321142D02*
X403464285Y-399464000D01*
D11*
X213406900Y-83583082D02*
X213478328Y-83725939D01*
X213478328Y-83725939D02*
X213478328Y-84011653D01*
X213478328Y-84011653D02*
X213406900Y-84154510D01*
X213406900Y-84154510D02*
X213264042Y-84225939D01*
X213264042Y-84225939D02*
X213192614Y-84225939D01*
X213192614Y-84225939D02*
X213049757Y-84154510D01*
X213049757Y-84154510D02*
X212978328Y-84011653D01*
X212978328Y-84011653D02*
X212978328Y-83797368D01*
X212978328Y-83797368D02*
X212906900Y-83654510D01*
X212906900Y-83654510D02*
X212764042Y-83583082D01*
X212764042Y-83583082D02*
X212692614Y-83583082D01*
X212692614Y-83583082D02*
X212549757Y-83654510D01*
X212549757Y-83654510D02*
X212478328Y-83797368D01*
X212478328Y-83797368D02*
X212478328Y-84011653D01*
X212478328Y-84011653D02*
X212549757Y-84154510D01*
X211978328Y-85511654D02*
X211978328Y-85225939D01*
X211978328Y-85225939D02*
X212049757Y-85083082D01*
X212049757Y-85083082D02*
X212121185Y-85011654D01*
X212121185Y-85011654D02*
X212335471Y-84868796D01*
X212335471Y-84868796D02*
X212621185Y-84797368D01*
X212621185Y-84797368D02*
X213192614Y-84797368D01*
X213192614Y-84797368D02*
X213335471Y-84868796D01*
X213335471Y-84868796D02*
X213406900Y-84940225D01*
X213406900Y-84940225D02*
X213478328Y-85083082D01*
X213478328Y-85083082D02*
X213478328Y-85368796D01*
X213478328Y-85368796D02*
X213406900Y-85511654D01*
X213406900Y-85511654D02*
X213335471Y-85583082D01*
X213335471Y-85583082D02*
X213192614Y-85654511D01*
X213192614Y-85654511D02*
X212835471Y-85654511D01*
X212835471Y-85654511D02*
X212692614Y-85583082D01*
X212692614Y-85583082D02*
X212621185Y-85511654D01*
X212621185Y-85511654D02*
X212549757Y-85368796D01*
X212549757Y-85368796D02*
X212549757Y-85083082D01*
X212549757Y-85083082D02*
X212621185Y-84940225D01*
X212621185Y-84940225D02*
X212692614Y-84868796D01*
X212692614Y-84868796D02*
X212835471Y-84797368D01*
X200049757Y-82440225D02*
X199978328Y-82297368D01*
X199978328Y-82297368D02*
X199978328Y-82083082D01*
X199978328Y-82083082D02*
X200049757Y-81868796D01*
X200049757Y-81868796D02*
X200192614Y-81725939D01*
X200192614Y-81725939D02*
X200335471Y-81654510D01*
X200335471Y-81654510D02*
X200621185Y-81583082D01*
X200621185Y-81583082D02*
X200835471Y-81583082D01*
X200835471Y-81583082D02*
X201121185Y-81654510D01*
X201121185Y-81654510D02*
X201264042Y-81725939D01*
X201264042Y-81725939D02*
X201406900Y-81868796D01*
X201406900Y-81868796D02*
X201478328Y-82083082D01*
X201478328Y-82083082D02*
X201478328Y-82225939D01*
X201478328Y-82225939D02*
X201406900Y-82440225D01*
X201406900Y-82440225D02*
X201335471Y-82511653D01*
X201335471Y-82511653D02*
X200835471Y-82511653D01*
X200835471Y-82511653D02*
X200835471Y-82225939D01*
X201478328Y-83154510D02*
X199978328Y-83154510D01*
X199978328Y-83154510D02*
X201478328Y-84011653D01*
X201478328Y-84011653D02*
X199978328Y-84011653D01*
X201478328Y-84725939D02*
X199978328Y-84725939D01*
X199978328Y-84725939D02*
X199978328Y-85083082D01*
X199978328Y-85083082D02*
X200049757Y-85297368D01*
X200049757Y-85297368D02*
X200192614Y-85440225D01*
X200192614Y-85440225D02*
X200335471Y-85511654D01*
X200335471Y-85511654D02*
X200621185Y-85583082D01*
X200621185Y-85583082D02*
X200835471Y-85583082D01*
X200835471Y-85583082D02*
X201121185Y-85511654D01*
X201121185Y-85511654D02*
X201264042Y-85440225D01*
X201264042Y-85440225D02*
X201406900Y-85297368D01*
X201406900Y-85297368D02*
X201478328Y-85083082D01*
X201478328Y-85083082D02*
X201478328Y-84725939D01*
X207506900Y-83583082D02*
X207578328Y-83725939D01*
X207578328Y-83725939D02*
X207578328Y-84011653D01*
X207578328Y-84011653D02*
X207506900Y-84154510D01*
X207506900Y-84154510D02*
X207364042Y-84225939D01*
X207364042Y-84225939D02*
X207292614Y-84225939D01*
X207292614Y-84225939D02*
X207149757Y-84154510D01*
X207149757Y-84154510D02*
X207078328Y-84011653D01*
X207078328Y-84011653D02*
X207078328Y-83797368D01*
X207078328Y-83797368D02*
X207006900Y-83654510D01*
X207006900Y-83654510D02*
X206864042Y-83583082D01*
X206864042Y-83583082D02*
X206792614Y-83583082D01*
X206792614Y-83583082D02*
X206649757Y-83654510D01*
X206649757Y-83654510D02*
X206578328Y-83797368D01*
X206578328Y-83797368D02*
X206578328Y-84011653D01*
X206578328Y-84011653D02*
X206649757Y-84154510D01*
X207578328Y-84940225D02*
X207578328Y-85225939D01*
X207578328Y-85225939D02*
X207506900Y-85368796D01*
X207506900Y-85368796D02*
X207435471Y-85440225D01*
X207435471Y-85440225D02*
X207221185Y-85583082D01*
X207221185Y-85583082D02*
X206935471Y-85654511D01*
X206935471Y-85654511D02*
X206364042Y-85654511D01*
X206364042Y-85654511D02*
X206221185Y-85583082D01*
X206221185Y-85583082D02*
X206149757Y-85511654D01*
X206149757Y-85511654D02*
X206078328Y-85368796D01*
X206078328Y-85368796D02*
X206078328Y-85083082D01*
X206078328Y-85083082D02*
X206149757Y-84940225D01*
X206149757Y-84940225D02*
X206221185Y-84868796D01*
X206221185Y-84868796D02*
X206364042Y-84797368D01*
X206364042Y-84797368D02*
X206721185Y-84797368D01*
X206721185Y-84797368D02*
X206864042Y-84868796D01*
X206864042Y-84868796D02*
X206935471Y-84940225D01*
X206935471Y-84940225D02*
X207006900Y-85083082D01*
X207006900Y-85083082D02*
X207006900Y-85368796D01*
X207006900Y-85368796D02*
X206935471Y-85511654D01*
X206935471Y-85511654D02*
X206864042Y-85583082D01*
X206864042Y-85583082D02*
X206721185Y-85654511D01*
X221306900Y-83583082D02*
X221378328Y-83725939D01*
X221378328Y-83725939D02*
X221378328Y-84011653D01*
X221378328Y-84011653D02*
X221306900Y-84154510D01*
X221306900Y-84154510D02*
X221164042Y-84225939D01*
X221164042Y-84225939D02*
X221092614Y-84225939D01*
X221092614Y-84225939D02*
X220949757Y-84154510D01*
X220949757Y-84154510D02*
X220878328Y-84011653D01*
X220878328Y-84011653D02*
X220878328Y-83797368D01*
X220878328Y-83797368D02*
X220806900Y-83654510D01*
X220806900Y-83654510D02*
X220664042Y-83583082D01*
X220664042Y-83583082D02*
X220592614Y-83583082D01*
X220592614Y-83583082D02*
X220449757Y-83654510D01*
X220449757Y-83654510D02*
X220378328Y-83797368D01*
X220378328Y-83797368D02*
X220378328Y-84011653D01*
X220378328Y-84011653D02*
X220449757Y-84154510D01*
X220021185Y-84797368D02*
X219949757Y-84868796D01*
X219949757Y-84868796D02*
X219878328Y-85011654D01*
X219878328Y-85011654D02*
X219878328Y-85368796D01*
X219878328Y-85368796D02*
X219949757Y-85511654D01*
X219949757Y-85511654D02*
X220021185Y-85583082D01*
X220021185Y-85583082D02*
X220164042Y-85654511D01*
X220164042Y-85654511D02*
X220306900Y-85654511D01*
X220306900Y-85654511D02*
X220521185Y-85583082D01*
X220521185Y-85583082D02*
X221378328Y-84725939D01*
X221378328Y-84725939D02*
X221378328Y-85654511D01*
X215406900Y-83583082D02*
X215478328Y-83725939D01*
X215478328Y-83725939D02*
X215478328Y-84011653D01*
X215478328Y-84011653D02*
X215406900Y-84154510D01*
X215406900Y-84154510D02*
X215264042Y-84225939D01*
X215264042Y-84225939D02*
X215192614Y-84225939D01*
X215192614Y-84225939D02*
X215049757Y-84154510D01*
X215049757Y-84154510D02*
X214978328Y-84011653D01*
X214978328Y-84011653D02*
X214978328Y-83797368D01*
X214978328Y-83797368D02*
X214906900Y-83654510D01*
X214906900Y-83654510D02*
X214764042Y-83583082D01*
X214764042Y-83583082D02*
X214692614Y-83583082D01*
X214692614Y-83583082D02*
X214549757Y-83654510D01*
X214549757Y-83654510D02*
X214478328Y-83797368D01*
X214478328Y-83797368D02*
X214478328Y-84011653D01*
X214478328Y-84011653D02*
X214549757Y-84154510D01*
X213978328Y-85583082D02*
X213978328Y-84868796D01*
X213978328Y-84868796D02*
X214692614Y-84797368D01*
X214692614Y-84797368D02*
X214621185Y-84868796D01*
X214621185Y-84868796D02*
X214549757Y-85011654D01*
X214549757Y-85011654D02*
X214549757Y-85368796D01*
X214549757Y-85368796D02*
X214621185Y-85511654D01*
X214621185Y-85511654D02*
X214692614Y-85583082D01*
X214692614Y-85583082D02*
X214835471Y-85654511D01*
X214835471Y-85654511D02*
X215192614Y-85654511D01*
X215192614Y-85654511D02*
X215335471Y-85583082D01*
X215335471Y-85583082D02*
X215406900Y-85511654D01*
X215406900Y-85511654D02*
X215478328Y-85368796D01*
X215478328Y-85368796D02*
X215478328Y-85011654D01*
X215478328Y-85011654D02*
X215406900Y-84868796D01*
X215406900Y-84868796D02*
X215335471Y-84797368D01*
X219406900Y-83583082D02*
X219478328Y-83725939D01*
X219478328Y-83725939D02*
X219478328Y-84011653D01*
X219478328Y-84011653D02*
X219406900Y-84154510D01*
X219406900Y-84154510D02*
X219264042Y-84225939D01*
X219264042Y-84225939D02*
X219192614Y-84225939D01*
X219192614Y-84225939D02*
X219049757Y-84154510D01*
X219049757Y-84154510D02*
X218978328Y-84011653D01*
X218978328Y-84011653D02*
X218978328Y-83797368D01*
X218978328Y-83797368D02*
X218906900Y-83654510D01*
X218906900Y-83654510D02*
X218764042Y-83583082D01*
X218764042Y-83583082D02*
X218692614Y-83583082D01*
X218692614Y-83583082D02*
X218549757Y-83654510D01*
X218549757Y-83654510D02*
X218478328Y-83797368D01*
X218478328Y-83797368D02*
X218478328Y-84011653D01*
X218478328Y-84011653D02*
X218549757Y-84154510D01*
X217978328Y-84725939D02*
X217978328Y-85654511D01*
X217978328Y-85654511D02*
X218549757Y-85154511D01*
X218549757Y-85154511D02*
X218549757Y-85368796D01*
X218549757Y-85368796D02*
X218621185Y-85511654D01*
X218621185Y-85511654D02*
X218692614Y-85583082D01*
X218692614Y-85583082D02*
X218835471Y-85654511D01*
X218835471Y-85654511D02*
X219192614Y-85654511D01*
X219192614Y-85654511D02*
X219335471Y-85583082D01*
X219335471Y-85583082D02*
X219406900Y-85511654D01*
X219406900Y-85511654D02*
X219478328Y-85368796D01*
X219478328Y-85368796D02*
X219478328Y-84940225D01*
X219478328Y-84940225D02*
X219406900Y-84797368D01*
X219406900Y-84797368D02*
X219335471Y-84725939D01*
D10*
X179112782Y-266598609D02*
X179446115Y-266598609D01*
X179446115Y-267122419D02*
X179446115Y-266122419D01*
X179446115Y-266122419D02*
X178969925Y-266122419D01*
X178636591Y-266836704D02*
X178160401Y-266836704D01*
X178731829Y-267122419D02*
X178398496Y-266122419D01*
X178398496Y-266122419D02*
X178065163Y-267122419D01*
X177731829Y-267122419D02*
X177731829Y-266122419D01*
X177731829Y-266122419D02*
X177160401Y-267122419D01*
X177160401Y-267122419D02*
X177160401Y-266122419D01*
X176922306Y-267217657D02*
X176160401Y-267217657D01*
X175398496Y-266170038D02*
X175493734Y-266122419D01*
X175493734Y-266122419D02*
X175636591Y-266122419D01*
X175636591Y-266122419D02*
X175779448Y-266170038D01*
X175779448Y-266170038D02*
X175874686Y-266265276D01*
X175874686Y-266265276D02*
X175922305Y-266360514D01*
X175922305Y-266360514D02*
X175969924Y-266550990D01*
X175969924Y-266550990D02*
X175969924Y-266693847D01*
X175969924Y-266693847D02*
X175922305Y-266884323D01*
X175922305Y-266884323D02*
X175874686Y-266979561D01*
X175874686Y-266979561D02*
X175779448Y-267074800D01*
X175779448Y-267074800D02*
X175636591Y-267122419D01*
X175636591Y-267122419D02*
X175541353Y-267122419D01*
X175541353Y-267122419D02*
X175398496Y-267074800D01*
X175398496Y-267074800D02*
X175350877Y-267027180D01*
X175350877Y-267027180D02*
X175350877Y-266693847D01*
X175350877Y-266693847D02*
X175541353Y-266693847D01*
X174922305Y-267122419D02*
X174922305Y-266122419D01*
X174922305Y-266122419D02*
X174350877Y-267122419D01*
X174350877Y-267122419D02*
X174350877Y-266122419D01*
X173874686Y-267122419D02*
X173874686Y-266122419D01*
X173874686Y-266122419D02*
X173636591Y-266122419D01*
X173636591Y-266122419D02*
X173493734Y-266170038D01*
X173493734Y-266170038D02*
X173398496Y-266265276D01*
X173398496Y-266265276D02*
X173350877Y-266360514D01*
X173350877Y-266360514D02*
X173303258Y-266550990D01*
X173303258Y-266550990D02*
X173303258Y-266693847D01*
X173303258Y-266693847D02*
X173350877Y-266884323D01*
X173350877Y-266884323D02*
X173398496Y-266979561D01*
X173398496Y-266979561D02*
X173493734Y-267074800D01*
X173493734Y-267074800D02*
X173636591Y-267122419D01*
X173636591Y-267122419D02*
X173874686Y-267122419D01*
D11*
X209406900Y-83583082D02*
X209478328Y-83725939D01*
X209478328Y-83725939D02*
X209478328Y-84011653D01*
X209478328Y-84011653D02*
X209406900Y-84154510D01*
X209406900Y-84154510D02*
X209264042Y-84225939D01*
X209264042Y-84225939D02*
X209192614Y-84225939D01*
X209192614Y-84225939D02*
X209049757Y-84154510D01*
X209049757Y-84154510D02*
X208978328Y-84011653D01*
X208978328Y-84011653D02*
X208978328Y-83797368D01*
X208978328Y-83797368D02*
X208906900Y-83654510D01*
X208906900Y-83654510D02*
X208764042Y-83583082D01*
X208764042Y-83583082D02*
X208692614Y-83583082D01*
X208692614Y-83583082D02*
X208549757Y-83654510D01*
X208549757Y-83654510D02*
X208478328Y-83797368D01*
X208478328Y-83797368D02*
X208478328Y-84011653D01*
X208478328Y-84011653D02*
X208549757Y-84154510D01*
X208621185Y-85083082D02*
X208549757Y-84940225D01*
X208549757Y-84940225D02*
X208478328Y-84868796D01*
X208478328Y-84868796D02*
X208335471Y-84797368D01*
X208335471Y-84797368D02*
X208264042Y-84797368D01*
X208264042Y-84797368D02*
X208121185Y-84868796D01*
X208121185Y-84868796D02*
X208049757Y-84940225D01*
X208049757Y-84940225D02*
X207978328Y-85083082D01*
X207978328Y-85083082D02*
X207978328Y-85368796D01*
X207978328Y-85368796D02*
X208049757Y-85511654D01*
X208049757Y-85511654D02*
X208121185Y-85583082D01*
X208121185Y-85583082D02*
X208264042Y-85654511D01*
X208264042Y-85654511D02*
X208335471Y-85654511D01*
X208335471Y-85654511D02*
X208478328Y-85583082D01*
X208478328Y-85583082D02*
X208549757Y-85511654D01*
X208549757Y-85511654D02*
X208621185Y-85368796D01*
X208621185Y-85368796D02*
X208621185Y-85083082D01*
X208621185Y-85083082D02*
X208692614Y-84940225D01*
X208692614Y-84940225D02*
X208764042Y-84868796D01*
X208764042Y-84868796D02*
X208906900Y-84797368D01*
X208906900Y-84797368D02*
X209192614Y-84797368D01*
X209192614Y-84797368D02*
X209335471Y-84868796D01*
X209335471Y-84868796D02*
X209406900Y-84940225D01*
X209406900Y-84940225D02*
X209478328Y-85083082D01*
X209478328Y-85083082D02*
X209478328Y-85368796D01*
X209478328Y-85368796D02*
X209406900Y-85511654D01*
X209406900Y-85511654D02*
X209335471Y-85583082D01*
X209335471Y-85583082D02*
X209192614Y-85654511D01*
X209192614Y-85654511D02*
X208906900Y-85654511D01*
X208906900Y-85654511D02*
X208764042Y-85583082D01*
X208764042Y-85583082D02*
X208692614Y-85511654D01*
X208692614Y-85511654D02*
X208621185Y-85368796D01*
X203406900Y-82083082D02*
X203478328Y-82225939D01*
X203478328Y-82225939D02*
X203478328Y-82511653D01*
X203478328Y-82511653D02*
X203406900Y-82654510D01*
X203406900Y-82654510D02*
X203264042Y-82725939D01*
X203264042Y-82725939D02*
X203192614Y-82725939D01*
X203192614Y-82725939D02*
X203049757Y-82654510D01*
X203049757Y-82654510D02*
X202978328Y-82511653D01*
X202978328Y-82511653D02*
X202978328Y-82297368D01*
X202978328Y-82297368D02*
X202906900Y-82154510D01*
X202906900Y-82154510D02*
X202764042Y-82083082D01*
X202764042Y-82083082D02*
X202692614Y-82083082D01*
X202692614Y-82083082D02*
X202549757Y-82154510D01*
X202549757Y-82154510D02*
X202478328Y-82297368D01*
X202478328Y-82297368D02*
X202478328Y-82511653D01*
X202478328Y-82511653D02*
X202549757Y-82654510D01*
X203478328Y-84154511D02*
X203478328Y-83297368D01*
X203478328Y-83725939D02*
X201978328Y-83725939D01*
X201978328Y-83725939D02*
X202192614Y-83583082D01*
X202192614Y-83583082D02*
X202335471Y-83440225D01*
X202335471Y-83440225D02*
X202406900Y-83297368D01*
X203478328Y-85583082D02*
X203478328Y-84725939D01*
X203478328Y-85154510D02*
X201978328Y-85154510D01*
X201978328Y-85154510D02*
X202192614Y-85011653D01*
X202192614Y-85011653D02*
X202335471Y-84868796D01*
X202335471Y-84868796D02*
X202406900Y-84725939D01*
D10*
X249404762Y-247348609D02*
X249071429Y-247348609D01*
X248928572Y-247872419D02*
X249404762Y-247872419D01*
X249404762Y-247872419D02*
X249404762Y-246872419D01*
X249404762Y-246872419D02*
X248928572Y-246872419D01*
X248595238Y-247872419D02*
X248071429Y-247205752D01*
X248595238Y-247205752D02*
X248071429Y-247872419D01*
X247690476Y-247205752D02*
X247690476Y-248205752D01*
X247690476Y-247253371D02*
X247595238Y-247205752D01*
X247595238Y-247205752D02*
X247404762Y-247205752D01*
X247404762Y-247205752D02*
X247309524Y-247253371D01*
X247309524Y-247253371D02*
X247261905Y-247300990D01*
X247261905Y-247300990D02*
X247214286Y-247396228D01*
X247214286Y-247396228D02*
X247214286Y-247681942D01*
X247214286Y-247681942D02*
X247261905Y-247777180D01*
X247261905Y-247777180D02*
X247309524Y-247824800D01*
X247309524Y-247824800D02*
X247404762Y-247872419D01*
X247404762Y-247872419D02*
X247595238Y-247872419D01*
X247595238Y-247872419D02*
X247690476Y-247824800D01*
X246357143Y-247872419D02*
X246357143Y-247348609D01*
X246357143Y-247348609D02*
X246404762Y-247253371D01*
X246404762Y-247253371D02*
X246500000Y-247205752D01*
X246500000Y-247205752D02*
X246690476Y-247205752D01*
X246690476Y-247205752D02*
X246785714Y-247253371D01*
X246357143Y-247824800D02*
X246452381Y-247872419D01*
X246452381Y-247872419D02*
X246690476Y-247872419D01*
X246690476Y-247872419D02*
X246785714Y-247824800D01*
X246785714Y-247824800D02*
X246833333Y-247729561D01*
X246833333Y-247729561D02*
X246833333Y-247634323D01*
X246833333Y-247634323D02*
X246785714Y-247539085D01*
X246785714Y-247539085D02*
X246690476Y-247491466D01*
X246690476Y-247491466D02*
X246452381Y-247491466D01*
X246452381Y-247491466D02*
X246357143Y-247443847D01*
X245880952Y-247205752D02*
X245880952Y-247872419D01*
X245880952Y-247300990D02*
X245833333Y-247253371D01*
X245833333Y-247253371D02*
X245738095Y-247205752D01*
X245738095Y-247205752D02*
X245595238Y-247205752D01*
X245595238Y-247205752D02*
X245500000Y-247253371D01*
X245500000Y-247253371D02*
X245452381Y-247348609D01*
X245452381Y-247348609D02*
X245452381Y-247872419D01*
X245023809Y-247824800D02*
X244928571Y-247872419D01*
X244928571Y-247872419D02*
X244738095Y-247872419D01*
X244738095Y-247872419D02*
X244642857Y-247824800D01*
X244642857Y-247824800D02*
X244595238Y-247729561D01*
X244595238Y-247729561D02*
X244595238Y-247681942D01*
X244595238Y-247681942D02*
X244642857Y-247586704D01*
X244642857Y-247586704D02*
X244738095Y-247539085D01*
X244738095Y-247539085D02*
X244880952Y-247539085D01*
X244880952Y-247539085D02*
X244976190Y-247491466D01*
X244976190Y-247491466D02*
X245023809Y-247396228D01*
X245023809Y-247396228D02*
X245023809Y-247348609D01*
X245023809Y-247348609D02*
X244976190Y-247253371D01*
X244976190Y-247253371D02*
X244880952Y-247205752D01*
X244880952Y-247205752D02*
X244738095Y-247205752D01*
X244738095Y-247205752D02*
X244642857Y-247253371D01*
X244166666Y-247872419D02*
X244166666Y-247205752D01*
X244166666Y-246872419D02*
X244214285Y-246920038D01*
X244214285Y-246920038D02*
X244166666Y-246967657D01*
X244166666Y-246967657D02*
X244119047Y-246920038D01*
X244119047Y-246920038D02*
X244166666Y-246872419D01*
X244166666Y-246872419D02*
X244166666Y-246967657D01*
X243547619Y-247872419D02*
X243642857Y-247824800D01*
X243642857Y-247824800D02*
X243690476Y-247777180D01*
X243690476Y-247777180D02*
X243738095Y-247681942D01*
X243738095Y-247681942D02*
X243738095Y-247396228D01*
X243738095Y-247396228D02*
X243690476Y-247300990D01*
X243690476Y-247300990D02*
X243642857Y-247253371D01*
X243642857Y-247253371D02*
X243547619Y-247205752D01*
X243547619Y-247205752D02*
X243404762Y-247205752D01*
X243404762Y-247205752D02*
X243309524Y-247253371D01*
X243309524Y-247253371D02*
X243261905Y-247300990D01*
X243261905Y-247300990D02*
X243214286Y-247396228D01*
X243214286Y-247396228D02*
X243214286Y-247681942D01*
X243214286Y-247681942D02*
X243261905Y-247777180D01*
X243261905Y-247777180D02*
X243309524Y-247824800D01*
X243309524Y-247824800D02*
X243404762Y-247872419D01*
X243404762Y-247872419D02*
X243547619Y-247872419D01*
X242785714Y-247205752D02*
X242785714Y-247872419D01*
X242785714Y-247300990D02*
X242738095Y-247253371D01*
X242738095Y-247253371D02*
X242642857Y-247205752D01*
X242642857Y-247205752D02*
X242500000Y-247205752D01*
X242500000Y-247205752D02*
X242404762Y-247253371D01*
X242404762Y-247253371D02*
X242357143Y-247348609D01*
X242357143Y-247348609D02*
X242357143Y-247872419D01*
X241119047Y-247205752D02*
X241119047Y-248205752D01*
X241119047Y-247253371D02*
X241023809Y-247205752D01*
X241023809Y-247205752D02*
X240833333Y-247205752D01*
X240833333Y-247205752D02*
X240738095Y-247253371D01*
X240738095Y-247253371D02*
X240690476Y-247300990D01*
X240690476Y-247300990D02*
X240642857Y-247396228D01*
X240642857Y-247396228D02*
X240642857Y-247681942D01*
X240642857Y-247681942D02*
X240690476Y-247777180D01*
X240690476Y-247777180D02*
X240738095Y-247824800D01*
X240738095Y-247824800D02*
X240833333Y-247872419D01*
X240833333Y-247872419D02*
X241023809Y-247872419D01*
X241023809Y-247872419D02*
X241119047Y-247824800D01*
X240071428Y-247872419D02*
X240166666Y-247824800D01*
X240166666Y-247824800D02*
X240214285Y-247777180D01*
X240214285Y-247777180D02*
X240261904Y-247681942D01*
X240261904Y-247681942D02*
X240261904Y-247396228D01*
X240261904Y-247396228D02*
X240214285Y-247300990D01*
X240214285Y-247300990D02*
X240166666Y-247253371D01*
X240166666Y-247253371D02*
X240071428Y-247205752D01*
X240071428Y-247205752D02*
X239928571Y-247205752D01*
X239928571Y-247205752D02*
X239833333Y-247253371D01*
X239833333Y-247253371D02*
X239785714Y-247300990D01*
X239785714Y-247300990D02*
X239738095Y-247396228D01*
X239738095Y-247396228D02*
X239738095Y-247681942D01*
X239738095Y-247681942D02*
X239785714Y-247777180D01*
X239785714Y-247777180D02*
X239833333Y-247824800D01*
X239833333Y-247824800D02*
X239928571Y-247872419D01*
X239928571Y-247872419D02*
X240071428Y-247872419D01*
X239309523Y-247872419D02*
X239309523Y-247205752D01*
X239309523Y-247396228D02*
X239261904Y-247300990D01*
X239261904Y-247300990D02*
X239214285Y-247253371D01*
X239214285Y-247253371D02*
X239119047Y-247205752D01*
X239119047Y-247205752D02*
X239023809Y-247205752D01*
X238833332Y-247205752D02*
X238452380Y-247205752D01*
X238690475Y-246872419D02*
X238690475Y-247729561D01*
X238690475Y-247729561D02*
X238642856Y-247824800D01*
X238642856Y-247824800D02*
X238547618Y-247872419D01*
X238547618Y-247872419D02*
X238452380Y-247872419D01*
D11*
X217406900Y-83483082D02*
X217478328Y-83625939D01*
X217478328Y-83625939D02*
X217478328Y-83911653D01*
X217478328Y-83911653D02*
X217406900Y-84054510D01*
X217406900Y-84054510D02*
X217264042Y-84125939D01*
X217264042Y-84125939D02*
X217192614Y-84125939D01*
X217192614Y-84125939D02*
X217049757Y-84054510D01*
X217049757Y-84054510D02*
X216978328Y-83911653D01*
X216978328Y-83911653D02*
X216978328Y-83697368D01*
X216978328Y-83697368D02*
X216906900Y-83554510D01*
X216906900Y-83554510D02*
X216764042Y-83483082D01*
X216764042Y-83483082D02*
X216692614Y-83483082D01*
X216692614Y-83483082D02*
X216549757Y-83554510D01*
X216549757Y-83554510D02*
X216478328Y-83697368D01*
X216478328Y-83697368D02*
X216478328Y-83911653D01*
X216478328Y-83911653D02*
X216549757Y-84054510D01*
X216478328Y-85411654D02*
X217478328Y-85411654D01*
X215906900Y-85054511D02*
X216978328Y-84697368D01*
X216978328Y-84697368D02*
X216978328Y-85625939D01*
D10*
X190627580Y-254624687D02*
X191103771Y-254958020D01*
X190627580Y-255196115D02*
X191627580Y-255196115D01*
X191627580Y-255196115D02*
X191627580Y-254815163D01*
X191627580Y-254815163D02*
X191579961Y-254719925D01*
X191579961Y-254719925D02*
X191532342Y-254672306D01*
X191532342Y-254672306D02*
X191437104Y-254624687D01*
X191437104Y-254624687D02*
X191294247Y-254624687D01*
X191294247Y-254624687D02*
X191199009Y-254672306D01*
X191199009Y-254672306D02*
X191151390Y-254719925D01*
X191151390Y-254719925D02*
X191103771Y-254815163D01*
X191103771Y-254815163D02*
X191103771Y-255196115D01*
X190627580Y-253767544D02*
X191151390Y-253767544D01*
X191151390Y-253767544D02*
X191246628Y-253815163D01*
X191246628Y-253815163D02*
X191294247Y-253910401D01*
X191294247Y-253910401D02*
X191294247Y-254100877D01*
X191294247Y-254100877D02*
X191246628Y-254196115D01*
X190675200Y-253767544D02*
X190627580Y-253862782D01*
X190627580Y-253862782D02*
X190627580Y-254100877D01*
X190627580Y-254100877D02*
X190675200Y-254196115D01*
X190675200Y-254196115D02*
X190770438Y-254243734D01*
X190770438Y-254243734D02*
X190865676Y-254243734D01*
X190865676Y-254243734D02*
X190960914Y-254196115D01*
X190960914Y-254196115D02*
X191008533Y-254100877D01*
X191008533Y-254100877D02*
X191008533Y-253862782D01*
X191008533Y-253862782D02*
X191056152Y-253767544D01*
X190675200Y-253338972D02*
X190627580Y-253243734D01*
X190627580Y-253243734D02*
X190627580Y-253053258D01*
X190627580Y-253053258D02*
X190675200Y-252958020D01*
X190675200Y-252958020D02*
X190770438Y-252910401D01*
X190770438Y-252910401D02*
X190818057Y-252910401D01*
X190818057Y-252910401D02*
X190913295Y-252958020D01*
X190913295Y-252958020D02*
X190960914Y-253053258D01*
X190960914Y-253053258D02*
X190960914Y-253196115D01*
X190960914Y-253196115D02*
X191008533Y-253291353D01*
X191008533Y-253291353D02*
X191103771Y-253338972D01*
X191103771Y-253338972D02*
X191151390Y-253338972D01*
X191151390Y-253338972D02*
X191246628Y-253291353D01*
X191246628Y-253291353D02*
X191294247Y-253196115D01*
X191294247Y-253196115D02*
X191294247Y-253053258D01*
X191294247Y-253053258D02*
X191246628Y-252958020D01*
X191294247Y-252481829D02*
X190294247Y-252481829D01*
X191246628Y-252481829D02*
X191294247Y-252386591D01*
X191294247Y-252386591D02*
X191294247Y-252196115D01*
X191294247Y-252196115D02*
X191246628Y-252100877D01*
X191246628Y-252100877D02*
X191199009Y-252053258D01*
X191199009Y-252053258D02*
X191103771Y-252005639D01*
X191103771Y-252005639D02*
X190818057Y-252005639D01*
X190818057Y-252005639D02*
X190722819Y-252053258D01*
X190722819Y-252053258D02*
X190675200Y-252100877D01*
X190675200Y-252100877D02*
X190627580Y-252196115D01*
X190627580Y-252196115D02*
X190627580Y-252386591D01*
X190627580Y-252386591D02*
X190675200Y-252481829D01*
X190627580Y-251577067D02*
X191627580Y-251577067D01*
X191246628Y-251577067D02*
X191294247Y-251481829D01*
X191294247Y-251481829D02*
X191294247Y-251291353D01*
X191294247Y-251291353D02*
X191246628Y-251196115D01*
X191246628Y-251196115D02*
X191199009Y-251148496D01*
X191199009Y-251148496D02*
X191103771Y-251100877D01*
X191103771Y-251100877D02*
X190818057Y-251100877D01*
X190818057Y-251100877D02*
X190722819Y-251148496D01*
X190722819Y-251148496D02*
X190675200Y-251196115D01*
X190675200Y-251196115D02*
X190627580Y-251291353D01*
X190627580Y-251291353D02*
X190627580Y-251481829D01*
X190627580Y-251481829D02*
X190675200Y-251577067D01*
X190675200Y-250291353D02*
X190627580Y-250386591D01*
X190627580Y-250386591D02*
X190627580Y-250577067D01*
X190627580Y-250577067D02*
X190675200Y-250672305D01*
X190675200Y-250672305D02*
X190770438Y-250719924D01*
X190770438Y-250719924D02*
X191151390Y-250719924D01*
X191151390Y-250719924D02*
X191246628Y-250672305D01*
X191246628Y-250672305D02*
X191294247Y-250577067D01*
X191294247Y-250577067D02*
X191294247Y-250386591D01*
X191294247Y-250386591D02*
X191246628Y-250291353D01*
X191246628Y-250291353D02*
X191151390Y-250243734D01*
X191151390Y-250243734D02*
X191056152Y-250243734D01*
X191056152Y-250243734D02*
X190960914Y-250719924D01*
X190627580Y-249815162D02*
X191294247Y-249815162D01*
X191103771Y-249815162D02*
X191199009Y-249767543D01*
X191199009Y-249767543D02*
X191246628Y-249719924D01*
X191246628Y-249719924D02*
X191294247Y-249624686D01*
X191294247Y-249624686D02*
X191294247Y-249529448D01*
X190627580Y-249196114D02*
X191294247Y-249196114D01*
X191103771Y-249196114D02*
X191199009Y-249148495D01*
X191199009Y-249148495D02*
X191246628Y-249100876D01*
X191246628Y-249100876D02*
X191294247Y-249005638D01*
X191294247Y-249005638D02*
X191294247Y-248910400D01*
X191294247Y-248672304D02*
X190627580Y-248434209D01*
X191294247Y-248196114D02*
X190627580Y-248434209D01*
X190627580Y-248434209D02*
X190389485Y-248529447D01*
X190389485Y-248529447D02*
X190341866Y-248577066D01*
X190341866Y-248577066D02*
X190294247Y-248672304D01*
X190627580Y-247053256D02*
X191627580Y-247053256D01*
X191627580Y-247053256D02*
X191627580Y-246672304D01*
X191627580Y-246672304D02*
X191579961Y-246577066D01*
X191579961Y-246577066D02*
X191532342Y-246529447D01*
X191532342Y-246529447D02*
X191437104Y-246481828D01*
X191437104Y-246481828D02*
X191294247Y-246481828D01*
X191294247Y-246481828D02*
X191199009Y-246529447D01*
X191199009Y-246529447D02*
X191151390Y-246577066D01*
X191151390Y-246577066D02*
X191103771Y-246672304D01*
X191103771Y-246672304D02*
X191103771Y-247053256D01*
X190627580Y-246053256D02*
X191294247Y-246053256D01*
X191627580Y-246053256D02*
X191579961Y-246100875D01*
X191579961Y-246100875D02*
X191532342Y-246053256D01*
X191532342Y-246053256D02*
X191579961Y-246005637D01*
X191579961Y-246005637D02*
X191627580Y-246053256D01*
X191627580Y-246053256D02*
X191532342Y-246053256D01*
X191579961Y-244291352D02*
X191627580Y-244386590D01*
X191627580Y-244386590D02*
X191627580Y-244529447D01*
X191627580Y-244529447D02*
X191579961Y-244672304D01*
X191579961Y-244672304D02*
X191484723Y-244767542D01*
X191484723Y-244767542D02*
X191389485Y-244815161D01*
X191389485Y-244815161D02*
X191199009Y-244862780D01*
X191199009Y-244862780D02*
X191056152Y-244862780D01*
X191056152Y-244862780D02*
X190865676Y-244815161D01*
X190865676Y-244815161D02*
X190770438Y-244767542D01*
X190770438Y-244767542D02*
X190675200Y-244672304D01*
X190675200Y-244672304D02*
X190627580Y-244529447D01*
X190627580Y-244529447D02*
X190627580Y-244434209D01*
X190627580Y-244434209D02*
X190675200Y-244291352D01*
X190675200Y-244291352D02*
X190722819Y-244243733D01*
X190722819Y-244243733D02*
X191056152Y-244243733D01*
X191056152Y-244243733D02*
X191056152Y-244434209D01*
X190627580Y-243815161D02*
X191627580Y-243815161D01*
X191627580Y-243815161D02*
X191627580Y-243434209D01*
X191627580Y-243434209D02*
X191579961Y-243338971D01*
X191579961Y-243338971D02*
X191532342Y-243291352D01*
X191532342Y-243291352D02*
X191437104Y-243243733D01*
X191437104Y-243243733D02*
X191294247Y-243243733D01*
X191294247Y-243243733D02*
X191199009Y-243291352D01*
X191199009Y-243291352D02*
X191151390Y-243338971D01*
X191151390Y-243338971D02*
X191103771Y-243434209D01*
X191103771Y-243434209D02*
X191103771Y-243815161D01*
X190627580Y-242815161D02*
X191627580Y-242815161D01*
X191627580Y-242148495D02*
X191627580Y-241958019D01*
X191627580Y-241958019D02*
X191579961Y-241862781D01*
X191579961Y-241862781D02*
X191484723Y-241767543D01*
X191484723Y-241767543D02*
X191294247Y-241719924D01*
X191294247Y-241719924D02*
X190960914Y-241719924D01*
X190960914Y-241719924D02*
X190770438Y-241767543D01*
X190770438Y-241767543D02*
X190675200Y-241862781D01*
X190675200Y-241862781D02*
X190627580Y-241958019D01*
X190627580Y-241958019D02*
X190627580Y-242148495D01*
X190627580Y-242148495D02*
X190675200Y-242243733D01*
X190675200Y-242243733D02*
X190770438Y-242338971D01*
X190770438Y-242338971D02*
X190960914Y-242386590D01*
X190960914Y-242386590D02*
X191294247Y-242386590D01*
X191294247Y-242386590D02*
X191484723Y-242338971D01*
X191484723Y-242338971D02*
X191579961Y-242243733D01*
X191579961Y-242243733D02*
X191627580Y-242148495D01*
D11*
X211406900Y-83483082D02*
X211478328Y-83625939D01*
X211478328Y-83625939D02*
X211478328Y-83911653D01*
X211478328Y-83911653D02*
X211406900Y-84054510D01*
X211406900Y-84054510D02*
X211264042Y-84125939D01*
X211264042Y-84125939D02*
X211192614Y-84125939D01*
X211192614Y-84125939D02*
X211049757Y-84054510D01*
X211049757Y-84054510D02*
X210978328Y-83911653D01*
X210978328Y-83911653D02*
X210978328Y-83697368D01*
X210978328Y-83697368D02*
X210906900Y-83554510D01*
X210906900Y-83554510D02*
X210764042Y-83483082D01*
X210764042Y-83483082D02*
X210692614Y-83483082D01*
X210692614Y-83483082D02*
X210549757Y-83554510D01*
X210549757Y-83554510D02*
X210478328Y-83697368D01*
X210478328Y-83697368D02*
X210478328Y-83911653D01*
X210478328Y-83911653D02*
X210549757Y-84054510D01*
X209978328Y-84625939D02*
X209978328Y-85625939D01*
X209978328Y-85625939D02*
X211478328Y-84983082D01*
D13*
X224314819Y-86666666D02*
X225029104Y-86666666D01*
X225029104Y-86666666D02*
X225171961Y-86619047D01*
X225171961Y-86619047D02*
X225267200Y-86523809D01*
X225267200Y-86523809D02*
X225314819Y-86380952D01*
X225314819Y-86380952D02*
X225314819Y-86285714D01*
X224314819Y-87619047D02*
X224314819Y-87142857D01*
X224314819Y-87142857D02*
X224791009Y-87095238D01*
X224791009Y-87095238D02*
X224743390Y-87142857D01*
X224743390Y-87142857D02*
X224695771Y-87238095D01*
X224695771Y-87238095D02*
X224695771Y-87476190D01*
X224695771Y-87476190D02*
X224743390Y-87571428D01*
X224743390Y-87571428D02*
X224791009Y-87619047D01*
X224791009Y-87619047D02*
X224886247Y-87666666D01*
X224886247Y-87666666D02*
X225124342Y-87666666D01*
X225124342Y-87666666D02*
X225219580Y-87619047D01*
X225219580Y-87619047D02*
X225267200Y-87571428D01*
X225267200Y-87571428D02*
X225314819Y-87476190D01*
X225314819Y-87476190D02*
X225314819Y-87238095D01*
X225314819Y-87238095D02*
X225267200Y-87142857D01*
X225267200Y-87142857D02*
X225219580Y-87095238D01*
X197603333Y-278234819D02*
X197603333Y-278949104D01*
X197603333Y-278949104D02*
X197650952Y-279091961D01*
X197650952Y-279091961D02*
X197746190Y-279187200D01*
X197746190Y-279187200D02*
X197889047Y-279234819D01*
X197889047Y-279234819D02*
X197984285Y-279234819D01*
X196603333Y-279234819D02*
X197174761Y-279234819D01*
X196889047Y-279234819D02*
X196889047Y-278234819D01*
X196889047Y-278234819D02*
X196984285Y-278377676D01*
X196984285Y-278377676D02*
X197079523Y-278472914D01*
X197079523Y-278472914D02*
X197174761Y-278520533D01*
X284626189Y-204574819D02*
X284626189Y-203574819D01*
X283578571Y-204479580D02*
X283626190Y-204527200D01*
X283626190Y-204527200D02*
X283769047Y-204574819D01*
X283769047Y-204574819D02*
X283864285Y-204574819D01*
X283864285Y-204574819D02*
X284007142Y-204527200D01*
X284007142Y-204527200D02*
X284102380Y-204431961D01*
X284102380Y-204431961D02*
X284149999Y-204336723D01*
X284149999Y-204336723D02*
X284197618Y-204146247D01*
X284197618Y-204146247D02*
X284197618Y-204003390D01*
X284197618Y-204003390D02*
X284149999Y-203812914D01*
X284149999Y-203812914D02*
X284102380Y-203717676D01*
X284102380Y-203717676D02*
X284007142Y-203622438D01*
X284007142Y-203622438D02*
X283864285Y-203574819D01*
X283864285Y-203574819D02*
X283769047Y-203574819D01*
X283769047Y-203574819D02*
X283626190Y-203622438D01*
X283626190Y-203622438D02*
X283578571Y-203670057D01*
X282626190Y-204574819D02*
X283197618Y-204574819D01*
X282911904Y-204574819D02*
X282911904Y-203574819D01*
X282911904Y-203574819D02*
X283007142Y-203717676D01*
X283007142Y-203717676D02*
X283102380Y-203812914D01*
X283102380Y-203812914D02*
X283197618Y-203860533D01*
D10*
X83991904Y-296587419D02*
X83991904Y-297396942D01*
X83991904Y-297396942D02*
X83944285Y-297492180D01*
X83944285Y-297492180D02*
X83896666Y-297539800D01*
X83896666Y-297539800D02*
X83801428Y-297587419D01*
X83801428Y-297587419D02*
X83610952Y-297587419D01*
X83610952Y-297587419D02*
X83515714Y-297539800D01*
X83515714Y-297539800D02*
X83468095Y-297492180D01*
X83468095Y-297492180D02*
X83420476Y-297396942D01*
X83420476Y-297396942D02*
X83420476Y-296587419D01*
X82468095Y-296587419D02*
X82944285Y-296587419D01*
X82944285Y-296587419D02*
X82991904Y-297063609D01*
X82991904Y-297063609D02*
X82944285Y-297015990D01*
X82944285Y-297015990D02*
X82849047Y-296968371D01*
X82849047Y-296968371D02*
X82610952Y-296968371D01*
X82610952Y-296968371D02*
X82515714Y-297015990D01*
X82515714Y-297015990D02*
X82468095Y-297063609D01*
X82468095Y-297063609D02*
X82420476Y-297158847D01*
X82420476Y-297158847D02*
X82420476Y-297396942D01*
X82420476Y-297396942D02*
X82468095Y-297492180D01*
X82468095Y-297492180D02*
X82515714Y-297539800D01*
X82515714Y-297539800D02*
X82610952Y-297587419D01*
X82610952Y-297587419D02*
X82849047Y-297587419D01*
X82849047Y-297587419D02*
X82944285Y-297539800D01*
X82944285Y-297539800D02*
X82991904Y-297492180D01*
D13*
X87872857Y-299489580D02*
X87920476Y-299537200D01*
X87920476Y-299537200D02*
X88063333Y-299584819D01*
X88063333Y-299584819D02*
X88158571Y-299584819D01*
X88158571Y-299584819D02*
X88301428Y-299537200D01*
X88301428Y-299537200D02*
X88396666Y-299441961D01*
X88396666Y-299441961D02*
X88444285Y-299346723D01*
X88444285Y-299346723D02*
X88491904Y-299156247D01*
X88491904Y-299156247D02*
X88491904Y-299013390D01*
X88491904Y-299013390D02*
X88444285Y-298822914D01*
X88444285Y-298822914D02*
X88396666Y-298727676D01*
X88396666Y-298727676D02*
X88301428Y-298632438D01*
X88301428Y-298632438D02*
X88158571Y-298584819D01*
X88158571Y-298584819D02*
X88063333Y-298584819D01*
X88063333Y-298584819D02*
X87920476Y-298632438D01*
X87920476Y-298632438D02*
X87872857Y-298680057D01*
X87444285Y-299584819D02*
X87444285Y-298584819D01*
X87444285Y-298584819D02*
X87206190Y-298584819D01*
X87206190Y-298584819D02*
X87063333Y-298632438D01*
X87063333Y-298632438D02*
X86968095Y-298727676D01*
X86968095Y-298727676D02*
X86920476Y-298822914D01*
X86920476Y-298822914D02*
X86872857Y-299013390D01*
X86872857Y-299013390D02*
X86872857Y-299156247D01*
X86872857Y-299156247D02*
X86920476Y-299346723D01*
X86920476Y-299346723D02*
X86968095Y-299441961D01*
X86968095Y-299441961D02*
X87063333Y-299537200D01*
X87063333Y-299537200D02*
X87206190Y-299584819D01*
X87206190Y-299584819D02*
X87444285Y-299584819D01*
X86539523Y-298584819D02*
X85872857Y-298584819D01*
X85872857Y-298584819D02*
X86301428Y-299584819D01*
X85063333Y-298918152D02*
X85063333Y-299584819D01*
X85301428Y-298537200D02*
X85539523Y-299251485D01*
X85539523Y-299251485D02*
X84920476Y-299251485D01*
X84539523Y-299584819D02*
X84539523Y-298584819D01*
X84539523Y-299061009D02*
X83968095Y-299061009D01*
X83968095Y-299584819D02*
X83968095Y-298584819D01*
X82920476Y-299489580D02*
X82968095Y-299537200D01*
X82968095Y-299537200D02*
X83110952Y-299584819D01*
X83110952Y-299584819D02*
X83206190Y-299584819D01*
X83206190Y-299584819D02*
X83349047Y-299537200D01*
X83349047Y-299537200D02*
X83444285Y-299441961D01*
X83444285Y-299441961D02*
X83491904Y-299346723D01*
X83491904Y-299346723D02*
X83539523Y-299156247D01*
X83539523Y-299156247D02*
X83539523Y-299013390D01*
X83539523Y-299013390D02*
X83491904Y-298822914D01*
X83491904Y-298822914D02*
X83444285Y-298727676D01*
X83444285Y-298727676D02*
X83349047Y-298632438D01*
X83349047Y-298632438D02*
X83206190Y-298584819D01*
X83206190Y-298584819D02*
X83110952Y-298584819D01*
X83110952Y-298584819D02*
X82968095Y-298632438D01*
X82968095Y-298632438D02*
X82920476Y-298680057D01*
X82063333Y-298918152D02*
X82063333Y-299584819D01*
X82301428Y-298537200D02*
X82539523Y-299251485D01*
X82539523Y-299251485D02*
X81920476Y-299251485D01*
X81349047Y-298584819D02*
X81253809Y-298584819D01*
X81253809Y-298584819D02*
X81158571Y-298632438D01*
X81158571Y-298632438D02*
X81110952Y-298680057D01*
X81110952Y-298680057D02*
X81063333Y-298775295D01*
X81063333Y-298775295D02*
X81015714Y-298965771D01*
X81015714Y-298965771D02*
X81015714Y-299203866D01*
X81015714Y-299203866D02*
X81063333Y-299394342D01*
X81063333Y-299394342D02*
X81110952Y-299489580D01*
X81110952Y-299489580D02*
X81158571Y-299537200D01*
X81158571Y-299537200D02*
X81253809Y-299584819D01*
X81253809Y-299584819D02*
X81349047Y-299584819D01*
X81349047Y-299584819D02*
X81444285Y-299537200D01*
X81444285Y-299537200D02*
X81491904Y-299489580D01*
X81491904Y-299489580D02*
X81539523Y-299394342D01*
X81539523Y-299394342D02*
X81587142Y-299203866D01*
X81587142Y-299203866D02*
X81587142Y-298965771D01*
X81587142Y-298965771D02*
X81539523Y-298775295D01*
X81539523Y-298775295D02*
X81491904Y-298680057D01*
X81491904Y-298680057D02*
X81444285Y-298632438D01*
X81444285Y-298632438D02*
X81349047Y-298584819D01*
X80158571Y-298584819D02*
X80349047Y-298584819D01*
X80349047Y-298584819D02*
X80444285Y-298632438D01*
X80444285Y-298632438D02*
X80491904Y-298680057D01*
X80491904Y-298680057D02*
X80587142Y-298822914D01*
X80587142Y-298822914D02*
X80634761Y-299013390D01*
X80634761Y-299013390D02*
X80634761Y-299394342D01*
X80634761Y-299394342D02*
X80587142Y-299489580D01*
X80587142Y-299489580D02*
X80539523Y-299537200D01*
X80539523Y-299537200D02*
X80444285Y-299584819D01*
X80444285Y-299584819D02*
X80253809Y-299584819D01*
X80253809Y-299584819D02*
X80158571Y-299537200D01*
X80158571Y-299537200D02*
X80110952Y-299489580D01*
X80110952Y-299489580D02*
X80063333Y-299394342D01*
X80063333Y-299394342D02*
X80063333Y-299156247D01*
X80063333Y-299156247D02*
X80110952Y-299061009D01*
X80110952Y-299061009D02*
X80158571Y-299013390D01*
X80158571Y-299013390D02*
X80253809Y-298965771D01*
X80253809Y-298965771D02*
X80444285Y-298965771D01*
X80444285Y-298965771D02*
X80539523Y-299013390D01*
X80539523Y-299013390D02*
X80587142Y-299061009D01*
X80587142Y-299061009D02*
X80634761Y-299156247D01*
X79729999Y-298584819D02*
X79063333Y-298584819D01*
X79063333Y-298584819D02*
X79491904Y-299584819D01*
X78682380Y-299584819D02*
X78682380Y-298584819D01*
X78682380Y-298584819D02*
X78349047Y-299299104D01*
X78349047Y-299299104D02*
X78015714Y-298584819D01*
X78015714Y-298584819D02*
X78015714Y-299584819D01*
D10*
X77476115Y-293662419D02*
X77476115Y-294471942D01*
X77476115Y-294471942D02*
X77428496Y-294567180D01*
X77428496Y-294567180D02*
X77380877Y-294614800D01*
X77380877Y-294614800D02*
X77285639Y-294662419D01*
X77285639Y-294662419D02*
X77095163Y-294662419D01*
X77095163Y-294662419D02*
X76999925Y-294614800D01*
X76999925Y-294614800D02*
X76952306Y-294567180D01*
X76952306Y-294567180D02*
X76904687Y-294471942D01*
X76904687Y-294471942D02*
X76904687Y-293662419D01*
X75952306Y-293662419D02*
X76428496Y-293662419D01*
X76428496Y-293662419D02*
X76476115Y-294138609D01*
X76476115Y-294138609D02*
X76428496Y-294090990D01*
X76428496Y-294090990D02*
X76333258Y-294043371D01*
X76333258Y-294043371D02*
X76095163Y-294043371D01*
X76095163Y-294043371D02*
X75999925Y-294090990D01*
X75999925Y-294090990D02*
X75952306Y-294138609D01*
X75952306Y-294138609D02*
X75904687Y-294233847D01*
X75904687Y-294233847D02*
X75904687Y-294471942D01*
X75904687Y-294471942D02*
X75952306Y-294567180D01*
X75952306Y-294567180D02*
X75999925Y-294614800D01*
X75999925Y-294614800D02*
X76095163Y-294662419D01*
X76095163Y-294662419D02*
X76333258Y-294662419D01*
X76333258Y-294662419D02*
X76428496Y-294614800D01*
X76428496Y-294614800D02*
X76476115Y-294567180D01*
D13*
X174833333Y-264764819D02*
X174833333Y-265479104D01*
X174833333Y-265479104D02*
X174880952Y-265621961D01*
X174880952Y-265621961D02*
X174976190Y-265717200D01*
X174976190Y-265717200D02*
X175119047Y-265764819D01*
X175119047Y-265764819D02*
X175214285Y-265764819D01*
X173928571Y-265098152D02*
X173928571Y-265764819D01*
X174166666Y-264717200D02*
X174404761Y-265431485D01*
X174404761Y-265431485D02*
X173785714Y-265431485D01*
D10*
X297577419Y-266133095D02*
X298386942Y-266133095D01*
X298386942Y-266133095D02*
X298482180Y-266180714D01*
X298482180Y-266180714D02*
X298529800Y-266228333D01*
X298529800Y-266228333D02*
X298577419Y-266323571D01*
X298577419Y-266323571D02*
X298577419Y-266514047D01*
X298577419Y-266514047D02*
X298529800Y-266609285D01*
X298529800Y-266609285D02*
X298482180Y-266656904D01*
X298482180Y-266656904D02*
X298386942Y-266704523D01*
X298386942Y-266704523D02*
X297577419Y-266704523D01*
X297910752Y-267609285D02*
X298577419Y-267609285D01*
X297529800Y-267371190D02*
X298244085Y-267133095D01*
X298244085Y-267133095D02*
X298244085Y-267752142D01*
D13*
X300479580Y-262252142D02*
X300527200Y-262204523D01*
X300527200Y-262204523D02*
X300574819Y-262061666D01*
X300574819Y-262061666D02*
X300574819Y-261966428D01*
X300574819Y-261966428D02*
X300527200Y-261823571D01*
X300527200Y-261823571D02*
X300431961Y-261728333D01*
X300431961Y-261728333D02*
X300336723Y-261680714D01*
X300336723Y-261680714D02*
X300146247Y-261633095D01*
X300146247Y-261633095D02*
X300003390Y-261633095D01*
X300003390Y-261633095D02*
X299812914Y-261680714D01*
X299812914Y-261680714D02*
X299717676Y-261728333D01*
X299717676Y-261728333D02*
X299622438Y-261823571D01*
X299622438Y-261823571D02*
X299574819Y-261966428D01*
X299574819Y-261966428D02*
X299574819Y-262061666D01*
X299574819Y-262061666D02*
X299622438Y-262204523D01*
X299622438Y-262204523D02*
X299670057Y-262252142D01*
X300574819Y-262680714D02*
X299574819Y-262680714D01*
X299574819Y-262680714D02*
X299574819Y-262918809D01*
X299574819Y-262918809D02*
X299622438Y-263061666D01*
X299622438Y-263061666D02*
X299717676Y-263156904D01*
X299717676Y-263156904D02*
X299812914Y-263204523D01*
X299812914Y-263204523D02*
X300003390Y-263252142D01*
X300003390Y-263252142D02*
X300146247Y-263252142D01*
X300146247Y-263252142D02*
X300336723Y-263204523D01*
X300336723Y-263204523D02*
X300431961Y-263156904D01*
X300431961Y-263156904D02*
X300527200Y-263061666D01*
X300527200Y-263061666D02*
X300574819Y-262918809D01*
X300574819Y-262918809D02*
X300574819Y-262680714D01*
X299574819Y-263585476D02*
X299574819Y-264252142D01*
X299574819Y-264252142D02*
X300574819Y-263823571D01*
X299908152Y-265061666D02*
X300574819Y-265061666D01*
X299527200Y-264823571D02*
X300241485Y-264585476D01*
X300241485Y-264585476D02*
X300241485Y-265204523D01*
X300574819Y-265585476D02*
X299574819Y-265585476D01*
X300051009Y-265585476D02*
X300051009Y-266156904D01*
X300574819Y-266156904D02*
X299574819Y-266156904D01*
X300479580Y-267204523D02*
X300527200Y-267156904D01*
X300527200Y-267156904D02*
X300574819Y-267014047D01*
X300574819Y-267014047D02*
X300574819Y-266918809D01*
X300574819Y-266918809D02*
X300527200Y-266775952D01*
X300527200Y-266775952D02*
X300431961Y-266680714D01*
X300431961Y-266680714D02*
X300336723Y-266633095D01*
X300336723Y-266633095D02*
X300146247Y-266585476D01*
X300146247Y-266585476D02*
X300003390Y-266585476D01*
X300003390Y-266585476D02*
X299812914Y-266633095D01*
X299812914Y-266633095D02*
X299717676Y-266680714D01*
X299717676Y-266680714D02*
X299622438Y-266775952D01*
X299622438Y-266775952D02*
X299574819Y-266918809D01*
X299574819Y-266918809D02*
X299574819Y-267014047D01*
X299574819Y-267014047D02*
X299622438Y-267156904D01*
X299622438Y-267156904D02*
X299670057Y-267204523D01*
X299908152Y-268061666D02*
X300574819Y-268061666D01*
X299527200Y-267823571D02*
X300241485Y-267585476D01*
X300241485Y-267585476D02*
X300241485Y-268204523D01*
X299574819Y-268775952D02*
X299574819Y-268871190D01*
X299574819Y-268871190D02*
X299622438Y-268966428D01*
X299622438Y-268966428D02*
X299670057Y-269014047D01*
X299670057Y-269014047D02*
X299765295Y-269061666D01*
X299765295Y-269061666D02*
X299955771Y-269109285D01*
X299955771Y-269109285D02*
X300193866Y-269109285D01*
X300193866Y-269109285D02*
X300384342Y-269061666D01*
X300384342Y-269061666D02*
X300479580Y-269014047D01*
X300479580Y-269014047D02*
X300527200Y-268966428D01*
X300527200Y-268966428D02*
X300574819Y-268871190D01*
X300574819Y-268871190D02*
X300574819Y-268775952D01*
X300574819Y-268775952D02*
X300527200Y-268680714D01*
X300527200Y-268680714D02*
X300479580Y-268633095D01*
X300479580Y-268633095D02*
X300384342Y-268585476D01*
X300384342Y-268585476D02*
X300193866Y-268537857D01*
X300193866Y-268537857D02*
X299955771Y-268537857D01*
X299955771Y-268537857D02*
X299765295Y-268585476D01*
X299765295Y-268585476D02*
X299670057Y-268633095D01*
X299670057Y-268633095D02*
X299622438Y-268680714D01*
X299622438Y-268680714D02*
X299574819Y-268775952D01*
X299574819Y-269966428D02*
X299574819Y-269775952D01*
X299574819Y-269775952D02*
X299622438Y-269680714D01*
X299622438Y-269680714D02*
X299670057Y-269633095D01*
X299670057Y-269633095D02*
X299812914Y-269537857D01*
X299812914Y-269537857D02*
X300003390Y-269490238D01*
X300003390Y-269490238D02*
X300384342Y-269490238D01*
X300384342Y-269490238D02*
X300479580Y-269537857D01*
X300479580Y-269537857D02*
X300527200Y-269585476D01*
X300527200Y-269585476D02*
X300574819Y-269680714D01*
X300574819Y-269680714D02*
X300574819Y-269871190D01*
X300574819Y-269871190D02*
X300527200Y-269966428D01*
X300527200Y-269966428D02*
X300479580Y-270014047D01*
X300479580Y-270014047D02*
X300384342Y-270061666D01*
X300384342Y-270061666D02*
X300146247Y-270061666D01*
X300146247Y-270061666D02*
X300051009Y-270014047D01*
X300051009Y-270014047D02*
X300003390Y-269966428D01*
X300003390Y-269966428D02*
X299955771Y-269871190D01*
X299955771Y-269871190D02*
X299955771Y-269680714D01*
X299955771Y-269680714D02*
X300003390Y-269585476D01*
X300003390Y-269585476D02*
X300051009Y-269537857D01*
X300051009Y-269537857D02*
X300146247Y-269490238D01*
X299574819Y-270395000D02*
X299574819Y-271061666D01*
X299574819Y-271061666D02*
X300574819Y-270633095D01*
X300574819Y-271442619D02*
X299574819Y-271442619D01*
X299574819Y-271442619D02*
X300289104Y-271775952D01*
X300289104Y-271775952D02*
X299574819Y-272109285D01*
X299574819Y-272109285D02*
X300574819Y-272109285D01*
D10*
X294652419Y-272648884D02*
X295461942Y-272648884D01*
X295461942Y-272648884D02*
X295557180Y-272696503D01*
X295557180Y-272696503D02*
X295604800Y-272744122D01*
X295604800Y-272744122D02*
X295652419Y-272839360D01*
X295652419Y-272839360D02*
X295652419Y-273029836D01*
X295652419Y-273029836D02*
X295604800Y-273125074D01*
X295604800Y-273125074D02*
X295557180Y-273172693D01*
X295557180Y-273172693D02*
X295461942Y-273220312D01*
X295461942Y-273220312D02*
X294652419Y-273220312D01*
X294985752Y-274125074D02*
X295652419Y-274125074D01*
X294604800Y-273886979D02*
X295319085Y-273648884D01*
X295319085Y-273648884D02*
X295319085Y-274267931D01*
D13*
X178833333Y-272014819D02*
X178833333Y-272729104D01*
X178833333Y-272729104D02*
X178880952Y-272871961D01*
X178880952Y-272871961D02*
X178976190Y-272967200D01*
X178976190Y-272967200D02*
X179119047Y-273014819D01*
X179119047Y-273014819D02*
X179214285Y-273014819D01*
X178452380Y-272014819D02*
X177833333Y-272014819D01*
X177833333Y-272014819D02*
X178166666Y-272395771D01*
X178166666Y-272395771D02*
X178023809Y-272395771D01*
X178023809Y-272395771D02*
X177928571Y-272443390D01*
X177928571Y-272443390D02*
X177880952Y-272491009D01*
X177880952Y-272491009D02*
X177833333Y-272586247D01*
X177833333Y-272586247D02*
X177833333Y-272824342D01*
X177833333Y-272824342D02*
X177880952Y-272919580D01*
X177880952Y-272919580D02*
X177928571Y-272967200D01*
X177928571Y-272967200D02*
X178023809Y-273014819D01*
X178023809Y-273014819D02*
X178309523Y-273014819D01*
X178309523Y-273014819D02*
X178404761Y-272967200D01*
X178404761Y-272967200D02*
X178452380Y-272919580D01*
D10*
X204500200Y-203599523D02*
X204452580Y-203456666D01*
X204452580Y-203456666D02*
X204452580Y-203218571D01*
X204452580Y-203218571D02*
X204500200Y-203123333D01*
X204500200Y-203123333D02*
X204547819Y-203075714D01*
X204547819Y-203075714D02*
X204643057Y-203028095D01*
X204643057Y-203028095D02*
X204738295Y-203028095D01*
X204738295Y-203028095D02*
X204833533Y-203075714D01*
X204833533Y-203075714D02*
X204881152Y-203123333D01*
X204881152Y-203123333D02*
X204928771Y-203218571D01*
X204928771Y-203218571D02*
X204976390Y-203409047D01*
X204976390Y-203409047D02*
X205024009Y-203504285D01*
X205024009Y-203504285D02*
X205071628Y-203551904D01*
X205071628Y-203551904D02*
X205166866Y-203599523D01*
X205166866Y-203599523D02*
X205262104Y-203599523D01*
X205262104Y-203599523D02*
X205357342Y-203551904D01*
X205357342Y-203551904D02*
X205404961Y-203504285D01*
X205404961Y-203504285D02*
X205452580Y-203409047D01*
X205452580Y-203409047D02*
X205452580Y-203170952D01*
X205452580Y-203170952D02*
X205404961Y-203028095D01*
X205452580Y-202694761D02*
X204452580Y-202456666D01*
X204452580Y-202456666D02*
X205166866Y-202266190D01*
X205166866Y-202266190D02*
X204452580Y-202075714D01*
X204452580Y-202075714D02*
X205452580Y-201837619D01*
X204452580Y-200932857D02*
X204452580Y-201504285D01*
X204452580Y-201218571D02*
X205452580Y-201218571D01*
X205452580Y-201218571D02*
X205309723Y-201313809D01*
X205309723Y-201313809D02*
X205214485Y-201409047D01*
X205214485Y-201409047D02*
X205166866Y-201504285D01*
X205357342Y-200551904D02*
X205404961Y-200504285D01*
X205404961Y-200504285D02*
X205452580Y-200409047D01*
X205452580Y-200409047D02*
X205452580Y-200170952D01*
X205452580Y-200170952D02*
X205404961Y-200075714D01*
X205404961Y-200075714D02*
X205357342Y-200028095D01*
X205357342Y-200028095D02*
X205262104Y-199980476D01*
X205262104Y-199980476D02*
X205166866Y-199980476D01*
X205166866Y-199980476D02*
X205024009Y-200028095D01*
X205024009Y-200028095D02*
X204452580Y-200599523D01*
X204452580Y-200599523D02*
X204452580Y-199980476D01*
X359172532Y-63138095D02*
X359982055Y-63138095D01*
X359982055Y-63138095D02*
X360077293Y-63185714D01*
X360077293Y-63185714D02*
X360124913Y-63233333D01*
X360124913Y-63233333D02*
X360172532Y-63328571D01*
X360172532Y-63328571D02*
X360172532Y-63519047D01*
X360172532Y-63519047D02*
X360124913Y-63614285D01*
X360124913Y-63614285D02*
X360077293Y-63661904D01*
X360077293Y-63661904D02*
X359982055Y-63709523D01*
X359982055Y-63709523D02*
X359172532Y-63709523D01*
X359267770Y-64138095D02*
X359220151Y-64185714D01*
X359220151Y-64185714D02*
X359172532Y-64280952D01*
X359172532Y-64280952D02*
X359172532Y-64519047D01*
X359172532Y-64519047D02*
X359220151Y-64614285D01*
X359220151Y-64614285D02*
X359267770Y-64661904D01*
X359267770Y-64661904D02*
X359363008Y-64709523D01*
X359363008Y-64709523D02*
X359458246Y-64709523D01*
X359458246Y-64709523D02*
X359601103Y-64661904D01*
X359601103Y-64661904D02*
X360172532Y-64090476D01*
X360172532Y-64090476D02*
X360172532Y-64709523D01*
D13*
X362074693Y-59257142D02*
X362122313Y-59209523D01*
X362122313Y-59209523D02*
X362169932Y-59066666D01*
X362169932Y-59066666D02*
X362169932Y-58971428D01*
X362169932Y-58971428D02*
X362122313Y-58828571D01*
X362122313Y-58828571D02*
X362027074Y-58733333D01*
X362027074Y-58733333D02*
X361931836Y-58685714D01*
X361931836Y-58685714D02*
X361741360Y-58638095D01*
X361741360Y-58638095D02*
X361598503Y-58638095D01*
X361598503Y-58638095D02*
X361408027Y-58685714D01*
X361408027Y-58685714D02*
X361312789Y-58733333D01*
X361312789Y-58733333D02*
X361217551Y-58828571D01*
X361217551Y-58828571D02*
X361169932Y-58971428D01*
X361169932Y-58971428D02*
X361169932Y-59066666D01*
X361169932Y-59066666D02*
X361217551Y-59209523D01*
X361217551Y-59209523D02*
X361265170Y-59257142D01*
X362169932Y-59685714D02*
X361169932Y-59685714D01*
X361169932Y-59685714D02*
X361169932Y-59923809D01*
X361169932Y-59923809D02*
X361217551Y-60066666D01*
X361217551Y-60066666D02*
X361312789Y-60161904D01*
X361312789Y-60161904D02*
X361408027Y-60209523D01*
X361408027Y-60209523D02*
X361598503Y-60257142D01*
X361598503Y-60257142D02*
X361741360Y-60257142D01*
X361741360Y-60257142D02*
X361931836Y-60209523D01*
X361931836Y-60209523D02*
X362027074Y-60161904D01*
X362027074Y-60161904D02*
X362122313Y-60066666D01*
X362122313Y-60066666D02*
X362169932Y-59923809D01*
X362169932Y-59923809D02*
X362169932Y-59685714D01*
X361169932Y-60590476D02*
X361169932Y-61257142D01*
X361169932Y-61257142D02*
X362169932Y-60828571D01*
X361503265Y-62066666D02*
X362169932Y-62066666D01*
X361122313Y-61828571D02*
X361836598Y-61590476D01*
X361836598Y-61590476D02*
X361836598Y-62209523D01*
X362169932Y-62590476D02*
X361169932Y-62590476D01*
X361646122Y-62590476D02*
X361646122Y-63161904D01*
X362169932Y-63161904D02*
X361169932Y-63161904D01*
X362074693Y-64209523D02*
X362122313Y-64161904D01*
X362122313Y-64161904D02*
X362169932Y-64019047D01*
X362169932Y-64019047D02*
X362169932Y-63923809D01*
X362169932Y-63923809D02*
X362122313Y-63780952D01*
X362122313Y-63780952D02*
X362027074Y-63685714D01*
X362027074Y-63685714D02*
X361931836Y-63638095D01*
X361931836Y-63638095D02*
X361741360Y-63590476D01*
X361741360Y-63590476D02*
X361598503Y-63590476D01*
X361598503Y-63590476D02*
X361408027Y-63638095D01*
X361408027Y-63638095D02*
X361312789Y-63685714D01*
X361312789Y-63685714D02*
X361217551Y-63780952D01*
X361217551Y-63780952D02*
X361169932Y-63923809D01*
X361169932Y-63923809D02*
X361169932Y-64019047D01*
X361169932Y-64019047D02*
X361217551Y-64161904D01*
X361217551Y-64161904D02*
X361265170Y-64209523D01*
X361503265Y-65066666D02*
X362169932Y-65066666D01*
X361122313Y-64828571D02*
X361836598Y-64590476D01*
X361836598Y-64590476D02*
X361836598Y-65209523D01*
X361169932Y-65780952D02*
X361169932Y-65876190D01*
X361169932Y-65876190D02*
X361217551Y-65971428D01*
X361217551Y-65971428D02*
X361265170Y-66019047D01*
X361265170Y-66019047D02*
X361360408Y-66066666D01*
X361360408Y-66066666D02*
X361550884Y-66114285D01*
X361550884Y-66114285D02*
X361788979Y-66114285D01*
X361788979Y-66114285D02*
X361979455Y-66066666D01*
X361979455Y-66066666D02*
X362074693Y-66019047D01*
X362074693Y-66019047D02*
X362122313Y-65971428D01*
X362122313Y-65971428D02*
X362169932Y-65876190D01*
X362169932Y-65876190D02*
X362169932Y-65780952D01*
X362169932Y-65780952D02*
X362122313Y-65685714D01*
X362122313Y-65685714D02*
X362074693Y-65638095D01*
X362074693Y-65638095D02*
X361979455Y-65590476D01*
X361979455Y-65590476D02*
X361788979Y-65542857D01*
X361788979Y-65542857D02*
X361550884Y-65542857D01*
X361550884Y-65542857D02*
X361360408Y-65590476D01*
X361360408Y-65590476D02*
X361265170Y-65638095D01*
X361265170Y-65638095D02*
X361217551Y-65685714D01*
X361217551Y-65685714D02*
X361169932Y-65780952D01*
X361169932Y-66971428D02*
X361169932Y-66780952D01*
X361169932Y-66780952D02*
X361217551Y-66685714D01*
X361217551Y-66685714D02*
X361265170Y-66638095D01*
X361265170Y-66638095D02*
X361408027Y-66542857D01*
X361408027Y-66542857D02*
X361598503Y-66495238D01*
X361598503Y-66495238D02*
X361979455Y-66495238D01*
X361979455Y-66495238D02*
X362074693Y-66542857D01*
X362074693Y-66542857D02*
X362122313Y-66590476D01*
X362122313Y-66590476D02*
X362169932Y-66685714D01*
X362169932Y-66685714D02*
X362169932Y-66876190D01*
X362169932Y-66876190D02*
X362122313Y-66971428D01*
X362122313Y-66971428D02*
X362074693Y-67019047D01*
X362074693Y-67019047D02*
X361979455Y-67066666D01*
X361979455Y-67066666D02*
X361741360Y-67066666D01*
X361741360Y-67066666D02*
X361646122Y-67019047D01*
X361646122Y-67019047D02*
X361598503Y-66971428D01*
X361598503Y-66971428D02*
X361550884Y-66876190D01*
X361550884Y-66876190D02*
X361550884Y-66685714D01*
X361550884Y-66685714D02*
X361598503Y-66590476D01*
X361598503Y-66590476D02*
X361646122Y-66542857D01*
X361646122Y-66542857D02*
X361741360Y-66495238D01*
X361169932Y-67400000D02*
X361169932Y-68066666D01*
X361169932Y-68066666D02*
X362169932Y-67638095D01*
X362169932Y-68447619D02*
X361169932Y-68447619D01*
X361169932Y-68447619D02*
X361884217Y-68780952D01*
X361884217Y-68780952D02*
X361169932Y-69114285D01*
X361169932Y-69114285D02*
X362169932Y-69114285D01*
D10*
X356247532Y-69653884D02*
X357057055Y-69653884D01*
X357057055Y-69653884D02*
X357152293Y-69701503D01*
X357152293Y-69701503D02*
X357199913Y-69749122D01*
X357199913Y-69749122D02*
X357247532Y-69844360D01*
X357247532Y-69844360D02*
X357247532Y-70034836D01*
X357247532Y-70034836D02*
X357199913Y-70130074D01*
X357199913Y-70130074D02*
X357152293Y-70177693D01*
X357152293Y-70177693D02*
X357057055Y-70225312D01*
X357057055Y-70225312D02*
X356247532Y-70225312D01*
X356342770Y-70653884D02*
X356295151Y-70701503D01*
X356295151Y-70701503D02*
X356247532Y-70796741D01*
X356247532Y-70796741D02*
X356247532Y-71034836D01*
X356247532Y-71034836D02*
X356295151Y-71130074D01*
X356295151Y-71130074D02*
X356342770Y-71177693D01*
X356342770Y-71177693D02*
X356438008Y-71225312D01*
X356438008Y-71225312D02*
X356533246Y-71225312D01*
X356533246Y-71225312D02*
X356676103Y-71177693D01*
X356676103Y-71177693D02*
X357247532Y-70606265D01*
X357247532Y-70606265D02*
X357247532Y-71225312D01*
D13*
X171089819Y-272622618D02*
X170613628Y-272289285D01*
X171089819Y-272051190D02*
X170089819Y-272051190D01*
X170089819Y-272051190D02*
X170089819Y-272432142D01*
X170089819Y-272432142D02*
X170137438Y-272527380D01*
X170137438Y-272527380D02*
X170185057Y-272574999D01*
X170185057Y-272574999D02*
X170280295Y-272622618D01*
X170280295Y-272622618D02*
X170423152Y-272622618D01*
X170423152Y-272622618D02*
X170518390Y-272574999D01*
X170518390Y-272574999D02*
X170566009Y-272527380D01*
X170566009Y-272527380D02*
X170613628Y-272432142D01*
X170613628Y-272432142D02*
X170613628Y-272051190D01*
X170804104Y-273003571D02*
X170804104Y-273479761D01*
X171089819Y-272908333D02*
X170089819Y-273241666D01*
X170089819Y-273241666D02*
X171089819Y-273574999D01*
X171042200Y-273860714D02*
X171089819Y-274003571D01*
X171089819Y-274003571D02*
X171089819Y-274241666D01*
X171089819Y-274241666D02*
X171042200Y-274336904D01*
X171042200Y-274336904D02*
X170994580Y-274384523D01*
X170994580Y-274384523D02*
X170899342Y-274432142D01*
X170899342Y-274432142D02*
X170804104Y-274432142D01*
X170804104Y-274432142D02*
X170708866Y-274384523D01*
X170708866Y-274384523D02*
X170661247Y-274336904D01*
X170661247Y-274336904D02*
X170613628Y-274241666D01*
X170613628Y-274241666D02*
X170566009Y-274051190D01*
X170566009Y-274051190D02*
X170518390Y-273955952D01*
X170518390Y-273955952D02*
X170470771Y-273908333D01*
X170470771Y-273908333D02*
X170375533Y-273860714D01*
X170375533Y-273860714D02*
X170280295Y-273860714D01*
X170280295Y-273860714D02*
X170185057Y-273908333D01*
X170185057Y-273908333D02*
X170137438Y-273955952D01*
X170137438Y-273955952D02*
X170089819Y-274051190D01*
X170089819Y-274051190D02*
X170089819Y-274289285D01*
X170089819Y-274289285D02*
X170137438Y-274432142D01*
X171089819Y-274860714D02*
X170089819Y-274860714D01*
X170089819Y-274860714D02*
X170089819Y-275241666D01*
X170089819Y-275241666D02*
X170137438Y-275336904D01*
X170137438Y-275336904D02*
X170185057Y-275384523D01*
X170185057Y-275384523D02*
X170280295Y-275432142D01*
X170280295Y-275432142D02*
X170423152Y-275432142D01*
X170423152Y-275432142D02*
X170518390Y-275384523D01*
X170518390Y-275384523D02*
X170566009Y-275336904D01*
X170566009Y-275336904D02*
X170613628Y-275241666D01*
X170613628Y-275241666D02*
X170613628Y-274860714D01*
X170566009Y-276194047D02*
X170613628Y-276336904D01*
X170613628Y-276336904D02*
X170661247Y-276384523D01*
X170661247Y-276384523D02*
X170756485Y-276432142D01*
X170756485Y-276432142D02*
X170899342Y-276432142D01*
X170899342Y-276432142D02*
X170994580Y-276384523D01*
X170994580Y-276384523D02*
X171042200Y-276336904D01*
X171042200Y-276336904D02*
X171089819Y-276241666D01*
X171089819Y-276241666D02*
X171089819Y-275860714D01*
X171089819Y-275860714D02*
X170089819Y-275860714D01*
X170089819Y-275860714D02*
X170089819Y-276194047D01*
X170089819Y-276194047D02*
X170137438Y-276289285D01*
X170137438Y-276289285D02*
X170185057Y-276336904D01*
X170185057Y-276336904D02*
X170280295Y-276384523D01*
X170280295Y-276384523D02*
X170375533Y-276384523D01*
X170375533Y-276384523D02*
X170470771Y-276336904D01*
X170470771Y-276336904D02*
X170518390Y-276289285D01*
X170518390Y-276289285D02*
X170566009Y-276194047D01*
X170566009Y-276194047D02*
X170566009Y-275860714D01*
X170566009Y-276860714D02*
X170566009Y-277194047D01*
X171089819Y-277336904D02*
X171089819Y-276860714D01*
X171089819Y-276860714D02*
X170089819Y-276860714D01*
X170089819Y-276860714D02*
X170089819Y-277336904D01*
X171089819Y-278336904D02*
X170613628Y-278003571D01*
X171089819Y-277765476D02*
X170089819Y-277765476D01*
X170089819Y-277765476D02*
X170089819Y-278146428D01*
X170089819Y-278146428D02*
X170137438Y-278241666D01*
X170137438Y-278241666D02*
X170185057Y-278289285D01*
X170185057Y-278289285D02*
X170280295Y-278336904D01*
X170280295Y-278336904D02*
X170423152Y-278336904D01*
X170423152Y-278336904D02*
X170518390Y-278289285D01*
X170518390Y-278289285D02*
X170566009Y-278241666D01*
X170566009Y-278241666D02*
X170613628Y-278146428D01*
X170613628Y-278146428D02*
X170613628Y-277765476D01*
X171089819Y-279336904D02*
X170613628Y-279003571D01*
X171089819Y-278765476D02*
X170089819Y-278765476D01*
X170089819Y-278765476D02*
X170089819Y-279146428D01*
X170089819Y-279146428D02*
X170137438Y-279241666D01*
X170137438Y-279241666D02*
X170185057Y-279289285D01*
X170185057Y-279289285D02*
X170280295Y-279336904D01*
X170280295Y-279336904D02*
X170423152Y-279336904D01*
X170423152Y-279336904D02*
X170518390Y-279289285D01*
X170518390Y-279289285D02*
X170566009Y-279241666D01*
X170566009Y-279241666D02*
X170613628Y-279146428D01*
X170613628Y-279146428D02*
X170613628Y-278765476D01*
X170613628Y-279955952D02*
X171089819Y-279955952D01*
X170089819Y-279622619D02*
X170613628Y-279955952D01*
X170613628Y-279955952D02*
X170089819Y-280289285D01*
X171089819Y-281384524D02*
X170089819Y-281384524D01*
X170089819Y-281384524D02*
X170089819Y-281765476D01*
X170089819Y-281765476D02*
X170137438Y-281860714D01*
X170137438Y-281860714D02*
X170185057Y-281908333D01*
X170185057Y-281908333D02*
X170280295Y-281955952D01*
X170280295Y-281955952D02*
X170423152Y-281955952D01*
X170423152Y-281955952D02*
X170518390Y-281908333D01*
X170518390Y-281908333D02*
X170566009Y-281860714D01*
X170566009Y-281860714D02*
X170613628Y-281765476D01*
X170613628Y-281765476D02*
X170613628Y-281384524D01*
X171089819Y-282384524D02*
X170089819Y-282384524D01*
X170423152Y-284051190D02*
X171089819Y-284051190D01*
X170042200Y-283813095D02*
X170756485Y-283575000D01*
X170756485Y-283575000D02*
X170756485Y-284194047D01*
D10*
X168797580Y-230269523D02*
X168797580Y-229650476D01*
X168797580Y-229650476D02*
X168416628Y-229983809D01*
X168416628Y-229983809D02*
X168416628Y-229840952D01*
X168416628Y-229840952D02*
X168369009Y-229745714D01*
X168369009Y-229745714D02*
X168321390Y-229698095D01*
X168321390Y-229698095D02*
X168226152Y-229650476D01*
X168226152Y-229650476D02*
X167988057Y-229650476D01*
X167988057Y-229650476D02*
X167892819Y-229698095D01*
X167892819Y-229698095D02*
X167845200Y-229745714D01*
X167845200Y-229745714D02*
X167797580Y-229840952D01*
X167797580Y-229840952D02*
X167797580Y-230126666D01*
X167797580Y-230126666D02*
X167845200Y-230221904D01*
X167845200Y-230221904D02*
X167892819Y-230269523D01*
X168797580Y-228793333D02*
X168797580Y-228983809D01*
X168797580Y-228983809D02*
X168749961Y-229079047D01*
X168749961Y-229079047D02*
X168702342Y-229126666D01*
X168702342Y-229126666D02*
X168559485Y-229221904D01*
X168559485Y-229221904D02*
X168369009Y-229269523D01*
X168369009Y-229269523D02*
X167988057Y-229269523D01*
X167988057Y-229269523D02*
X167892819Y-229221904D01*
X167892819Y-229221904D02*
X167845200Y-229174285D01*
X167845200Y-229174285D02*
X167797580Y-229079047D01*
X167797580Y-229079047D02*
X167797580Y-228888571D01*
X167797580Y-228888571D02*
X167845200Y-228793333D01*
X167845200Y-228793333D02*
X167892819Y-228745714D01*
X167892819Y-228745714D02*
X167988057Y-228698095D01*
X167988057Y-228698095D02*
X168226152Y-228698095D01*
X168226152Y-228698095D02*
X168321390Y-228745714D01*
X168321390Y-228745714D02*
X168369009Y-228793333D01*
X168369009Y-228793333D02*
X168416628Y-228888571D01*
X168416628Y-228888571D02*
X168416628Y-229079047D01*
X168416628Y-229079047D02*
X168369009Y-229174285D01*
X168369009Y-229174285D02*
X168321390Y-229221904D01*
X168321390Y-229221904D02*
X168226152Y-229269523D01*
X163237580Y-265343332D02*
X163237580Y-264676666D01*
X163237580Y-264676666D02*
X162237580Y-265105237D01*
X163237580Y-232779523D02*
X163237580Y-232160476D01*
X163237580Y-232160476D02*
X162856628Y-232493809D01*
X162856628Y-232493809D02*
X162856628Y-232350952D01*
X162856628Y-232350952D02*
X162809009Y-232255714D01*
X162809009Y-232255714D02*
X162761390Y-232208095D01*
X162761390Y-232208095D02*
X162666152Y-232160476D01*
X162666152Y-232160476D02*
X162428057Y-232160476D01*
X162428057Y-232160476D02*
X162332819Y-232208095D01*
X162332819Y-232208095D02*
X162285200Y-232255714D01*
X162285200Y-232255714D02*
X162237580Y-232350952D01*
X162237580Y-232350952D02*
X162237580Y-232636666D01*
X162237580Y-232636666D02*
X162285200Y-232731904D01*
X162285200Y-232731904D02*
X162332819Y-232779523D01*
X163237580Y-231827142D02*
X163237580Y-231208095D01*
X163237580Y-231208095D02*
X162856628Y-231541428D01*
X162856628Y-231541428D02*
X162856628Y-231398571D01*
X162856628Y-231398571D02*
X162809009Y-231303333D01*
X162809009Y-231303333D02*
X162761390Y-231255714D01*
X162761390Y-231255714D02*
X162666152Y-231208095D01*
X162666152Y-231208095D02*
X162428057Y-231208095D01*
X162428057Y-231208095D02*
X162332819Y-231255714D01*
X162332819Y-231255714D02*
X162285200Y-231303333D01*
X162285200Y-231303333D02*
X162237580Y-231398571D01*
X162237580Y-231398571D02*
X162237580Y-231684285D01*
X162237580Y-231684285D02*
X162285200Y-231779523D01*
X162285200Y-231779523D02*
X162332819Y-231827142D01*
X167797580Y-260100476D02*
X167797580Y-260671904D01*
X167797580Y-260386190D02*
X168797580Y-260386190D01*
X168797580Y-260386190D02*
X168654723Y-260481428D01*
X168654723Y-260481428D02*
X168559485Y-260576666D01*
X168559485Y-260576666D02*
X168511866Y-260671904D01*
X168702342Y-259719523D02*
X168749961Y-259671904D01*
X168749961Y-259671904D02*
X168797580Y-259576666D01*
X168797580Y-259576666D02*
X168797580Y-259338571D01*
X168797580Y-259338571D02*
X168749961Y-259243333D01*
X168749961Y-259243333D02*
X168702342Y-259195714D01*
X168702342Y-259195714D02*
X168607104Y-259148095D01*
X168607104Y-259148095D02*
X168511866Y-259148095D01*
X168511866Y-259148095D02*
X168369009Y-259195714D01*
X168369009Y-259195714D02*
X167797580Y-259767142D01*
X167797580Y-259767142D02*
X167797580Y-259148095D01*
X163237580Y-227729523D02*
X163237580Y-227110476D01*
X163237580Y-227110476D02*
X162856628Y-227443809D01*
X162856628Y-227443809D02*
X162856628Y-227300952D01*
X162856628Y-227300952D02*
X162809009Y-227205714D01*
X162809009Y-227205714D02*
X162761390Y-227158095D01*
X162761390Y-227158095D02*
X162666152Y-227110476D01*
X162666152Y-227110476D02*
X162428057Y-227110476D01*
X162428057Y-227110476D02*
X162332819Y-227158095D01*
X162332819Y-227158095D02*
X162285200Y-227205714D01*
X162285200Y-227205714D02*
X162237580Y-227300952D01*
X162237580Y-227300952D02*
X162237580Y-227586666D01*
X162237580Y-227586666D02*
X162285200Y-227681904D01*
X162285200Y-227681904D02*
X162332819Y-227729523D01*
X163237580Y-226777142D02*
X163237580Y-226110476D01*
X163237580Y-226110476D02*
X162237580Y-226539047D01*
X162237580Y-252550476D02*
X162237580Y-253121904D01*
X162237580Y-252836190D02*
X163237580Y-252836190D01*
X163237580Y-252836190D02*
X163094723Y-252931428D01*
X163094723Y-252931428D02*
X162999485Y-253026666D01*
X162999485Y-253026666D02*
X162951866Y-253121904D01*
X163237580Y-252217142D02*
X163237580Y-251550476D01*
X163237580Y-251550476D02*
X162237580Y-251979047D01*
X168797580Y-267349523D02*
X168797580Y-267539999D01*
X168797580Y-267539999D02*
X168749961Y-267635237D01*
X168749961Y-267635237D02*
X168702342Y-267682856D01*
X168702342Y-267682856D02*
X168559485Y-267778094D01*
X168559485Y-267778094D02*
X168369009Y-267825713D01*
X168369009Y-267825713D02*
X167988057Y-267825713D01*
X167988057Y-267825713D02*
X167892819Y-267778094D01*
X167892819Y-267778094D02*
X167845200Y-267730475D01*
X167845200Y-267730475D02*
X167797580Y-267635237D01*
X167797580Y-267635237D02*
X167797580Y-267444761D01*
X167797580Y-267444761D02*
X167845200Y-267349523D01*
X167845200Y-267349523D02*
X167892819Y-267301904D01*
X167892819Y-267301904D02*
X167988057Y-267254285D01*
X167988057Y-267254285D02*
X168226152Y-267254285D01*
X168226152Y-267254285D02*
X168321390Y-267301904D01*
X168321390Y-267301904D02*
X168369009Y-267349523D01*
X168369009Y-267349523D02*
X168416628Y-267444761D01*
X168416628Y-267444761D02*
X168416628Y-267635237D01*
X168416628Y-267635237D02*
X168369009Y-267730475D01*
X168369009Y-267730475D02*
X168321390Y-267778094D01*
X168321390Y-267778094D02*
X168226152Y-267825713D01*
X167797580Y-227100476D02*
X167797580Y-227671904D01*
X167797580Y-227386190D02*
X168797580Y-227386190D01*
X168797580Y-227386190D02*
X168654723Y-227481428D01*
X168654723Y-227481428D02*
X168559485Y-227576666D01*
X168559485Y-227576666D02*
X168511866Y-227671904D01*
X168797580Y-226481428D02*
X168797580Y-226386190D01*
X168797580Y-226386190D02*
X168749961Y-226290952D01*
X168749961Y-226290952D02*
X168702342Y-226243333D01*
X168702342Y-226243333D02*
X168607104Y-226195714D01*
X168607104Y-226195714D02*
X168416628Y-226148095D01*
X168416628Y-226148095D02*
X168178533Y-226148095D01*
X168178533Y-226148095D02*
X167988057Y-226195714D01*
X167988057Y-226195714D02*
X167892819Y-226243333D01*
X167892819Y-226243333D02*
X167845200Y-226290952D01*
X167845200Y-226290952D02*
X167797580Y-226386190D01*
X167797580Y-226386190D02*
X167797580Y-226481428D01*
X167797580Y-226481428D02*
X167845200Y-226576666D01*
X167845200Y-226576666D02*
X167892819Y-226624285D01*
X167892819Y-226624285D02*
X167988057Y-226671904D01*
X167988057Y-226671904D02*
X168178533Y-226719523D01*
X168178533Y-226719523D02*
X168416628Y-226719523D01*
X168416628Y-226719523D02*
X168607104Y-226671904D01*
X168607104Y-226671904D02*
X168702342Y-226624285D01*
X168702342Y-226624285D02*
X168749961Y-226576666D01*
X168749961Y-226576666D02*
X168797580Y-226481428D01*
X167797580Y-257590476D02*
X167797580Y-258161904D01*
X167797580Y-257876190D02*
X168797580Y-257876190D01*
X168797580Y-257876190D02*
X168654723Y-257971428D01*
X168654723Y-257971428D02*
X168559485Y-258066666D01*
X168559485Y-258066666D02*
X168511866Y-258161904D01*
X168464247Y-256733333D02*
X167797580Y-256733333D01*
X168845200Y-256971428D02*
X168130914Y-257209523D01*
X168130914Y-257209523D02*
X168130914Y-256590476D01*
X163237580Y-270383332D02*
X163237580Y-269764285D01*
X163237580Y-269764285D02*
X162856628Y-270097618D01*
X162856628Y-270097618D02*
X162856628Y-269954761D01*
X162856628Y-269954761D02*
X162809009Y-269859523D01*
X162809009Y-269859523D02*
X162761390Y-269811904D01*
X162761390Y-269811904D02*
X162666152Y-269764285D01*
X162666152Y-269764285D02*
X162428057Y-269764285D01*
X162428057Y-269764285D02*
X162332819Y-269811904D01*
X162332819Y-269811904D02*
X162285200Y-269859523D01*
X162285200Y-269859523D02*
X162237580Y-269954761D01*
X162237580Y-269954761D02*
X162237580Y-270240475D01*
X162237580Y-270240475D02*
X162285200Y-270335713D01*
X162285200Y-270335713D02*
X162332819Y-270383332D01*
X163142342Y-242911904D02*
X163189961Y-242864285D01*
X163189961Y-242864285D02*
X163237580Y-242769047D01*
X163237580Y-242769047D02*
X163237580Y-242530952D01*
X163237580Y-242530952D02*
X163189961Y-242435714D01*
X163189961Y-242435714D02*
X163142342Y-242388095D01*
X163142342Y-242388095D02*
X163047104Y-242340476D01*
X163047104Y-242340476D02*
X162951866Y-242340476D01*
X162951866Y-242340476D02*
X162809009Y-242388095D01*
X162809009Y-242388095D02*
X162237580Y-242959523D01*
X162237580Y-242959523D02*
X162237580Y-242340476D01*
X163237580Y-241435714D02*
X163237580Y-241911904D01*
X163237580Y-241911904D02*
X162761390Y-241959523D01*
X162761390Y-241959523D02*
X162809009Y-241911904D01*
X162809009Y-241911904D02*
X162856628Y-241816666D01*
X162856628Y-241816666D02*
X162856628Y-241578571D01*
X162856628Y-241578571D02*
X162809009Y-241483333D01*
X162809009Y-241483333D02*
X162761390Y-241435714D01*
X162761390Y-241435714D02*
X162666152Y-241388095D01*
X162666152Y-241388095D02*
X162428057Y-241388095D01*
X162428057Y-241388095D02*
X162332819Y-241435714D01*
X162332819Y-241435714D02*
X162285200Y-241483333D01*
X162285200Y-241483333D02*
X162237580Y-241578571D01*
X162237580Y-241578571D02*
X162237580Y-241816666D01*
X162237580Y-241816666D02*
X162285200Y-241911904D01*
X162285200Y-241911904D02*
X162332819Y-241959523D01*
X167797580Y-262650476D02*
X167797580Y-263221904D01*
X167797580Y-262936190D02*
X168797580Y-262936190D01*
X168797580Y-262936190D02*
X168654723Y-263031428D01*
X168654723Y-263031428D02*
X168559485Y-263126666D01*
X168559485Y-263126666D02*
X168511866Y-263221904D01*
X168797580Y-262031428D02*
X168797580Y-261936190D01*
X168797580Y-261936190D02*
X168749961Y-261840952D01*
X168749961Y-261840952D02*
X168702342Y-261793333D01*
X168702342Y-261793333D02*
X168607104Y-261745714D01*
X168607104Y-261745714D02*
X168416628Y-261698095D01*
X168416628Y-261698095D02*
X168178533Y-261698095D01*
X168178533Y-261698095D02*
X167988057Y-261745714D01*
X167988057Y-261745714D02*
X167892819Y-261793333D01*
X167892819Y-261793333D02*
X167845200Y-261840952D01*
X167845200Y-261840952D02*
X167797580Y-261936190D01*
X167797580Y-261936190D02*
X167797580Y-262031428D01*
X167797580Y-262031428D02*
X167845200Y-262126666D01*
X167845200Y-262126666D02*
X167892819Y-262174285D01*
X167892819Y-262174285D02*
X167988057Y-262221904D01*
X167988057Y-262221904D02*
X168178533Y-262269523D01*
X168178533Y-262269523D02*
X168416628Y-262269523D01*
X168416628Y-262269523D02*
X168607104Y-262221904D01*
X168607104Y-262221904D02*
X168702342Y-262174285D01*
X168702342Y-262174285D02*
X168749961Y-262126666D01*
X168749961Y-262126666D02*
X168797580Y-262031428D01*
X162237580Y-260110476D02*
X162237580Y-260681904D01*
X162237580Y-260396190D02*
X163237580Y-260396190D01*
X163237580Y-260396190D02*
X163094723Y-260491428D01*
X163094723Y-260491428D02*
X162999485Y-260586666D01*
X162999485Y-260586666D02*
X162951866Y-260681904D01*
X162237580Y-259158095D02*
X162237580Y-259729523D01*
X162237580Y-259443809D02*
X163237580Y-259443809D01*
X163237580Y-259443809D02*
X163094723Y-259539047D01*
X163094723Y-259539047D02*
X162999485Y-259634285D01*
X162999485Y-259634285D02*
X162951866Y-259729523D01*
X168702342Y-240371904D02*
X168749961Y-240324285D01*
X168749961Y-240324285D02*
X168797580Y-240229047D01*
X168797580Y-240229047D02*
X168797580Y-239990952D01*
X168797580Y-239990952D02*
X168749961Y-239895714D01*
X168749961Y-239895714D02*
X168702342Y-239848095D01*
X168702342Y-239848095D02*
X168607104Y-239800476D01*
X168607104Y-239800476D02*
X168511866Y-239800476D01*
X168511866Y-239800476D02*
X168369009Y-239848095D01*
X168369009Y-239848095D02*
X167797580Y-240419523D01*
X167797580Y-240419523D02*
X167797580Y-239800476D01*
X168369009Y-239229047D02*
X168416628Y-239324285D01*
X168416628Y-239324285D02*
X168464247Y-239371904D01*
X168464247Y-239371904D02*
X168559485Y-239419523D01*
X168559485Y-239419523D02*
X168607104Y-239419523D01*
X168607104Y-239419523D02*
X168702342Y-239371904D01*
X168702342Y-239371904D02*
X168749961Y-239324285D01*
X168749961Y-239324285D02*
X168797580Y-239229047D01*
X168797580Y-239229047D02*
X168797580Y-239038571D01*
X168797580Y-239038571D02*
X168749961Y-238943333D01*
X168749961Y-238943333D02*
X168702342Y-238895714D01*
X168702342Y-238895714D02*
X168607104Y-238848095D01*
X168607104Y-238848095D02*
X168559485Y-238848095D01*
X168559485Y-238848095D02*
X168464247Y-238895714D01*
X168464247Y-238895714D02*
X168416628Y-238943333D01*
X168416628Y-238943333D02*
X168369009Y-239038571D01*
X168369009Y-239038571D02*
X168369009Y-239229047D01*
X168369009Y-239229047D02*
X168321390Y-239324285D01*
X168321390Y-239324285D02*
X168273771Y-239371904D01*
X168273771Y-239371904D02*
X168178533Y-239419523D01*
X168178533Y-239419523D02*
X167988057Y-239419523D01*
X167988057Y-239419523D02*
X167892819Y-239371904D01*
X167892819Y-239371904D02*
X167845200Y-239324285D01*
X167845200Y-239324285D02*
X167797580Y-239229047D01*
X167797580Y-239229047D02*
X167797580Y-239038571D01*
X167797580Y-239038571D02*
X167845200Y-238943333D01*
X167845200Y-238943333D02*
X167892819Y-238895714D01*
X167892819Y-238895714D02*
X167988057Y-238848095D01*
X167988057Y-238848095D02*
X168178533Y-238848095D01*
X168178533Y-238848095D02*
X168273771Y-238895714D01*
X168273771Y-238895714D02*
X168321390Y-238943333D01*
X168321390Y-238943333D02*
X168369009Y-239038571D01*
X163237580Y-225179523D02*
X163237580Y-224560476D01*
X163237580Y-224560476D02*
X162856628Y-224893809D01*
X162856628Y-224893809D02*
X162856628Y-224750952D01*
X162856628Y-224750952D02*
X162809009Y-224655714D01*
X162809009Y-224655714D02*
X162761390Y-224608095D01*
X162761390Y-224608095D02*
X162666152Y-224560476D01*
X162666152Y-224560476D02*
X162428057Y-224560476D01*
X162428057Y-224560476D02*
X162332819Y-224608095D01*
X162332819Y-224608095D02*
X162285200Y-224655714D01*
X162285200Y-224655714D02*
X162237580Y-224750952D01*
X162237580Y-224750952D02*
X162237580Y-225036666D01*
X162237580Y-225036666D02*
X162285200Y-225131904D01*
X162285200Y-225131904D02*
X162332819Y-225179523D01*
X162237580Y-224084285D02*
X162237580Y-223893809D01*
X162237580Y-223893809D02*
X162285200Y-223798571D01*
X162285200Y-223798571D02*
X162332819Y-223750952D01*
X162332819Y-223750952D02*
X162475676Y-223655714D01*
X162475676Y-223655714D02*
X162666152Y-223608095D01*
X162666152Y-223608095D02*
X163047104Y-223608095D01*
X163047104Y-223608095D02*
X163142342Y-223655714D01*
X163142342Y-223655714D02*
X163189961Y-223703333D01*
X163189961Y-223703333D02*
X163237580Y-223798571D01*
X163237580Y-223798571D02*
X163237580Y-223989047D01*
X163237580Y-223989047D02*
X163189961Y-224084285D01*
X163189961Y-224084285D02*
X163142342Y-224131904D01*
X163142342Y-224131904D02*
X163047104Y-224179523D01*
X163047104Y-224179523D02*
X162809009Y-224179523D01*
X162809009Y-224179523D02*
X162713771Y-224131904D01*
X162713771Y-224131904D02*
X162666152Y-224084285D01*
X162666152Y-224084285D02*
X162618533Y-223989047D01*
X162618533Y-223989047D02*
X162618533Y-223798571D01*
X162618533Y-223798571D02*
X162666152Y-223703333D01*
X162666152Y-223703333D02*
X162713771Y-223655714D01*
X162713771Y-223655714D02*
X162809009Y-223608095D01*
X168464247Y-224645714D02*
X167797580Y-224645714D01*
X168845200Y-224883809D02*
X168130914Y-225121904D01*
X168130914Y-225121904D02*
X168130914Y-224502857D01*
X168797580Y-223931428D02*
X168797580Y-223836190D01*
X168797580Y-223836190D02*
X168749961Y-223740952D01*
X168749961Y-223740952D02*
X168702342Y-223693333D01*
X168702342Y-223693333D02*
X168607104Y-223645714D01*
X168607104Y-223645714D02*
X168416628Y-223598095D01*
X168416628Y-223598095D02*
X168178533Y-223598095D01*
X168178533Y-223598095D02*
X167988057Y-223645714D01*
X167988057Y-223645714D02*
X167892819Y-223693333D01*
X167892819Y-223693333D02*
X167845200Y-223740952D01*
X167845200Y-223740952D02*
X167797580Y-223836190D01*
X167797580Y-223836190D02*
X167797580Y-223931428D01*
X167797580Y-223931428D02*
X167845200Y-224026666D01*
X167845200Y-224026666D02*
X167892819Y-224074285D01*
X167892819Y-224074285D02*
X167988057Y-224121904D01*
X167988057Y-224121904D02*
X168178533Y-224169523D01*
X168178533Y-224169523D02*
X168416628Y-224169523D01*
X168416628Y-224169523D02*
X168607104Y-224121904D01*
X168607104Y-224121904D02*
X168702342Y-224074285D01*
X168702342Y-224074285D02*
X168749961Y-224026666D01*
X168749961Y-224026666D02*
X168797580Y-223931428D01*
X167797580Y-252540476D02*
X167797580Y-253111904D01*
X167797580Y-252826190D02*
X168797580Y-252826190D01*
X168797580Y-252826190D02*
X168654723Y-252921428D01*
X168654723Y-252921428D02*
X168559485Y-253016666D01*
X168559485Y-253016666D02*
X168511866Y-253111904D01*
X168369009Y-251969047D02*
X168416628Y-252064285D01*
X168416628Y-252064285D02*
X168464247Y-252111904D01*
X168464247Y-252111904D02*
X168559485Y-252159523D01*
X168559485Y-252159523D02*
X168607104Y-252159523D01*
X168607104Y-252159523D02*
X168702342Y-252111904D01*
X168702342Y-252111904D02*
X168749961Y-252064285D01*
X168749961Y-252064285D02*
X168797580Y-251969047D01*
X168797580Y-251969047D02*
X168797580Y-251778571D01*
X168797580Y-251778571D02*
X168749961Y-251683333D01*
X168749961Y-251683333D02*
X168702342Y-251635714D01*
X168702342Y-251635714D02*
X168607104Y-251588095D01*
X168607104Y-251588095D02*
X168559485Y-251588095D01*
X168559485Y-251588095D02*
X168464247Y-251635714D01*
X168464247Y-251635714D02*
X168416628Y-251683333D01*
X168416628Y-251683333D02*
X168369009Y-251778571D01*
X168369009Y-251778571D02*
X168369009Y-251969047D01*
X168369009Y-251969047D02*
X168321390Y-252064285D01*
X168321390Y-252064285D02*
X168273771Y-252111904D01*
X168273771Y-252111904D02*
X168178533Y-252159523D01*
X168178533Y-252159523D02*
X167988057Y-252159523D01*
X167988057Y-252159523D02*
X167892819Y-252111904D01*
X167892819Y-252111904D02*
X167845200Y-252064285D01*
X167845200Y-252064285D02*
X167797580Y-251969047D01*
X167797580Y-251969047D02*
X167797580Y-251778571D01*
X167797580Y-251778571D02*
X167845200Y-251683333D01*
X167845200Y-251683333D02*
X167892819Y-251635714D01*
X167892819Y-251635714D02*
X167988057Y-251588095D01*
X167988057Y-251588095D02*
X168178533Y-251588095D01*
X168178533Y-251588095D02*
X168273771Y-251635714D01*
X168273771Y-251635714D02*
X168321390Y-251683333D01*
X168321390Y-251683333D02*
X168369009Y-251778571D01*
X163142342Y-237851904D02*
X163189961Y-237804285D01*
X163189961Y-237804285D02*
X163237580Y-237709047D01*
X163237580Y-237709047D02*
X163237580Y-237470952D01*
X163237580Y-237470952D02*
X163189961Y-237375714D01*
X163189961Y-237375714D02*
X163142342Y-237328095D01*
X163142342Y-237328095D02*
X163047104Y-237280476D01*
X163047104Y-237280476D02*
X162951866Y-237280476D01*
X162951866Y-237280476D02*
X162809009Y-237328095D01*
X162809009Y-237328095D02*
X162237580Y-237899523D01*
X162237580Y-237899523D02*
X162237580Y-237280476D01*
X162237580Y-236804285D02*
X162237580Y-236613809D01*
X162237580Y-236613809D02*
X162285200Y-236518571D01*
X162285200Y-236518571D02*
X162332819Y-236470952D01*
X162332819Y-236470952D02*
X162475676Y-236375714D01*
X162475676Y-236375714D02*
X162666152Y-236328095D01*
X162666152Y-236328095D02*
X163047104Y-236328095D01*
X163047104Y-236328095D02*
X163142342Y-236375714D01*
X163142342Y-236375714D02*
X163189961Y-236423333D01*
X163189961Y-236423333D02*
X163237580Y-236518571D01*
X163237580Y-236518571D02*
X163237580Y-236709047D01*
X163237580Y-236709047D02*
X163189961Y-236804285D01*
X163189961Y-236804285D02*
X163142342Y-236851904D01*
X163142342Y-236851904D02*
X163047104Y-236899523D01*
X163047104Y-236899523D02*
X162809009Y-236899523D01*
X162809009Y-236899523D02*
X162713771Y-236851904D01*
X162713771Y-236851904D02*
X162666152Y-236804285D01*
X162666152Y-236804285D02*
X162618533Y-236709047D01*
X162618533Y-236709047D02*
X162618533Y-236518571D01*
X162618533Y-236518571D02*
X162666152Y-236423333D01*
X162666152Y-236423333D02*
X162713771Y-236375714D01*
X162713771Y-236375714D02*
X162809009Y-236328095D01*
X163142342Y-245451904D02*
X163189961Y-245404285D01*
X163189961Y-245404285D02*
X163237580Y-245309047D01*
X163237580Y-245309047D02*
X163237580Y-245070952D01*
X163237580Y-245070952D02*
X163189961Y-244975714D01*
X163189961Y-244975714D02*
X163142342Y-244928095D01*
X163142342Y-244928095D02*
X163047104Y-244880476D01*
X163047104Y-244880476D02*
X162951866Y-244880476D01*
X162951866Y-244880476D02*
X162809009Y-244928095D01*
X162809009Y-244928095D02*
X162237580Y-245499523D01*
X162237580Y-245499523D02*
X162237580Y-244880476D01*
X163237580Y-244547142D02*
X163237580Y-243928095D01*
X163237580Y-243928095D02*
X162856628Y-244261428D01*
X162856628Y-244261428D02*
X162856628Y-244118571D01*
X162856628Y-244118571D02*
X162809009Y-244023333D01*
X162809009Y-244023333D02*
X162761390Y-243975714D01*
X162761390Y-243975714D02*
X162666152Y-243928095D01*
X162666152Y-243928095D02*
X162428057Y-243928095D01*
X162428057Y-243928095D02*
X162332819Y-243975714D01*
X162332819Y-243975714D02*
X162285200Y-244023333D01*
X162285200Y-244023333D02*
X162237580Y-244118571D01*
X162237580Y-244118571D02*
X162237580Y-244404285D01*
X162237580Y-244404285D02*
X162285200Y-244499523D01*
X162285200Y-244499523D02*
X162332819Y-244547142D01*
X163237580Y-267311904D02*
X163237580Y-267788094D01*
X163237580Y-267788094D02*
X162761390Y-267835713D01*
X162761390Y-267835713D02*
X162809009Y-267788094D01*
X162809009Y-267788094D02*
X162856628Y-267692856D01*
X162856628Y-267692856D02*
X162856628Y-267454761D01*
X162856628Y-267454761D02*
X162809009Y-267359523D01*
X162809009Y-267359523D02*
X162761390Y-267311904D01*
X162761390Y-267311904D02*
X162666152Y-267264285D01*
X162666152Y-267264285D02*
X162428057Y-267264285D01*
X162428057Y-267264285D02*
X162332819Y-267311904D01*
X162332819Y-267311904D02*
X162285200Y-267359523D01*
X162285200Y-267359523D02*
X162237580Y-267454761D01*
X162237580Y-267454761D02*
X162237580Y-267692856D01*
X162237580Y-267692856D02*
X162285200Y-267788094D01*
X162285200Y-267788094D02*
X162332819Y-267835713D01*
X163237580Y-230279523D02*
X163237580Y-229660476D01*
X163237580Y-229660476D02*
X162856628Y-229993809D01*
X162856628Y-229993809D02*
X162856628Y-229850952D01*
X162856628Y-229850952D02*
X162809009Y-229755714D01*
X162809009Y-229755714D02*
X162761390Y-229708095D01*
X162761390Y-229708095D02*
X162666152Y-229660476D01*
X162666152Y-229660476D02*
X162428057Y-229660476D01*
X162428057Y-229660476D02*
X162332819Y-229708095D01*
X162332819Y-229708095D02*
X162285200Y-229755714D01*
X162285200Y-229755714D02*
X162237580Y-229850952D01*
X162237580Y-229850952D02*
X162237580Y-230136666D01*
X162237580Y-230136666D02*
X162285200Y-230231904D01*
X162285200Y-230231904D02*
X162332819Y-230279523D01*
X163237580Y-228755714D02*
X163237580Y-229231904D01*
X163237580Y-229231904D02*
X162761390Y-229279523D01*
X162761390Y-229279523D02*
X162809009Y-229231904D01*
X162809009Y-229231904D02*
X162856628Y-229136666D01*
X162856628Y-229136666D02*
X162856628Y-228898571D01*
X162856628Y-228898571D02*
X162809009Y-228803333D01*
X162809009Y-228803333D02*
X162761390Y-228755714D01*
X162761390Y-228755714D02*
X162666152Y-228708095D01*
X162666152Y-228708095D02*
X162428057Y-228708095D01*
X162428057Y-228708095D02*
X162332819Y-228755714D01*
X162332819Y-228755714D02*
X162285200Y-228803333D01*
X162285200Y-228803333D02*
X162237580Y-228898571D01*
X162237580Y-228898571D02*
X162237580Y-229136666D01*
X162237580Y-229136666D02*
X162285200Y-229231904D01*
X162285200Y-229231904D02*
X162332819Y-229279523D01*
X168702342Y-242901904D02*
X168749961Y-242854285D01*
X168749961Y-242854285D02*
X168797580Y-242759047D01*
X168797580Y-242759047D02*
X168797580Y-242520952D01*
X168797580Y-242520952D02*
X168749961Y-242425714D01*
X168749961Y-242425714D02*
X168702342Y-242378095D01*
X168702342Y-242378095D02*
X168607104Y-242330476D01*
X168607104Y-242330476D02*
X168511866Y-242330476D01*
X168511866Y-242330476D02*
X168369009Y-242378095D01*
X168369009Y-242378095D02*
X167797580Y-242949523D01*
X167797580Y-242949523D02*
X167797580Y-242330476D01*
X168797580Y-241473333D02*
X168797580Y-241663809D01*
X168797580Y-241663809D02*
X168749961Y-241759047D01*
X168749961Y-241759047D02*
X168702342Y-241806666D01*
X168702342Y-241806666D02*
X168559485Y-241901904D01*
X168559485Y-241901904D02*
X168369009Y-241949523D01*
X168369009Y-241949523D02*
X167988057Y-241949523D01*
X167988057Y-241949523D02*
X167892819Y-241901904D01*
X167892819Y-241901904D02*
X167845200Y-241854285D01*
X167845200Y-241854285D02*
X167797580Y-241759047D01*
X167797580Y-241759047D02*
X167797580Y-241568571D01*
X167797580Y-241568571D02*
X167845200Y-241473333D01*
X167845200Y-241473333D02*
X167892819Y-241425714D01*
X167892819Y-241425714D02*
X167988057Y-241378095D01*
X167988057Y-241378095D02*
X168226152Y-241378095D01*
X168226152Y-241378095D02*
X168321390Y-241425714D01*
X168321390Y-241425714D02*
X168369009Y-241473333D01*
X168369009Y-241473333D02*
X168416628Y-241568571D01*
X168416628Y-241568571D02*
X168416628Y-241759047D01*
X168416628Y-241759047D02*
X168369009Y-241854285D01*
X168369009Y-241854285D02*
X168321390Y-241901904D01*
X168321390Y-241901904D02*
X168226152Y-241949523D01*
X162237580Y-255050476D02*
X162237580Y-255621904D01*
X162237580Y-255336190D02*
X163237580Y-255336190D01*
X163237580Y-255336190D02*
X163094723Y-255431428D01*
X163094723Y-255431428D02*
X162999485Y-255526666D01*
X162999485Y-255526666D02*
X162951866Y-255621904D01*
X163237580Y-254145714D02*
X163237580Y-254621904D01*
X163237580Y-254621904D02*
X162761390Y-254669523D01*
X162761390Y-254669523D02*
X162809009Y-254621904D01*
X162809009Y-254621904D02*
X162856628Y-254526666D01*
X162856628Y-254526666D02*
X162856628Y-254288571D01*
X162856628Y-254288571D02*
X162809009Y-254193333D01*
X162809009Y-254193333D02*
X162761390Y-254145714D01*
X162761390Y-254145714D02*
X162666152Y-254098095D01*
X162666152Y-254098095D02*
X162428057Y-254098095D01*
X162428057Y-254098095D02*
X162332819Y-254145714D01*
X162332819Y-254145714D02*
X162285200Y-254193333D01*
X162285200Y-254193333D02*
X162237580Y-254288571D01*
X162237580Y-254288571D02*
X162237580Y-254526666D01*
X162237580Y-254526666D02*
X162285200Y-254621904D01*
X162285200Y-254621904D02*
X162332819Y-254669523D01*
X162237580Y-257600476D02*
X162237580Y-258171904D01*
X162237580Y-257886190D02*
X163237580Y-257886190D01*
X163237580Y-257886190D02*
X163094723Y-257981428D01*
X163094723Y-257981428D02*
X162999485Y-258076666D01*
X162999485Y-258076666D02*
X162951866Y-258171904D01*
X163237580Y-257267142D02*
X163237580Y-256648095D01*
X163237580Y-256648095D02*
X162856628Y-256981428D01*
X162856628Y-256981428D02*
X162856628Y-256838571D01*
X162856628Y-256838571D02*
X162809009Y-256743333D01*
X162809009Y-256743333D02*
X162761390Y-256695714D01*
X162761390Y-256695714D02*
X162666152Y-256648095D01*
X162666152Y-256648095D02*
X162428057Y-256648095D01*
X162428057Y-256648095D02*
X162332819Y-256695714D01*
X162332819Y-256695714D02*
X162285200Y-256743333D01*
X162285200Y-256743333D02*
X162237580Y-256838571D01*
X162237580Y-256838571D02*
X162237580Y-257124285D01*
X162237580Y-257124285D02*
X162285200Y-257219523D01*
X162285200Y-257219523D02*
X162332819Y-257267142D01*
X168369009Y-265095237D02*
X168416628Y-265190475D01*
X168416628Y-265190475D02*
X168464247Y-265238094D01*
X168464247Y-265238094D02*
X168559485Y-265285713D01*
X168559485Y-265285713D02*
X168607104Y-265285713D01*
X168607104Y-265285713D02*
X168702342Y-265238094D01*
X168702342Y-265238094D02*
X168749961Y-265190475D01*
X168749961Y-265190475D02*
X168797580Y-265095237D01*
X168797580Y-265095237D02*
X168797580Y-264904761D01*
X168797580Y-264904761D02*
X168749961Y-264809523D01*
X168749961Y-264809523D02*
X168702342Y-264761904D01*
X168702342Y-264761904D02*
X168607104Y-264714285D01*
X168607104Y-264714285D02*
X168559485Y-264714285D01*
X168559485Y-264714285D02*
X168464247Y-264761904D01*
X168464247Y-264761904D02*
X168416628Y-264809523D01*
X168416628Y-264809523D02*
X168369009Y-264904761D01*
X168369009Y-264904761D02*
X168369009Y-265095237D01*
X168369009Y-265095237D02*
X168321390Y-265190475D01*
X168321390Y-265190475D02*
X168273771Y-265238094D01*
X168273771Y-265238094D02*
X168178533Y-265285713D01*
X168178533Y-265285713D02*
X167988057Y-265285713D01*
X167988057Y-265285713D02*
X167892819Y-265238094D01*
X167892819Y-265238094D02*
X167845200Y-265190475D01*
X167845200Y-265190475D02*
X167797580Y-265095237D01*
X167797580Y-265095237D02*
X167797580Y-264904761D01*
X167797580Y-264904761D02*
X167845200Y-264809523D01*
X167845200Y-264809523D02*
X167892819Y-264761904D01*
X167892819Y-264761904D02*
X167988057Y-264714285D01*
X167988057Y-264714285D02*
X168178533Y-264714285D01*
X168178533Y-264714285D02*
X168273771Y-264761904D01*
X168273771Y-264761904D02*
X168321390Y-264809523D01*
X168321390Y-264809523D02*
X168369009Y-264904761D01*
X168702342Y-247951904D02*
X168749961Y-247904285D01*
X168749961Y-247904285D02*
X168797580Y-247809047D01*
X168797580Y-247809047D02*
X168797580Y-247570952D01*
X168797580Y-247570952D02*
X168749961Y-247475714D01*
X168749961Y-247475714D02*
X168702342Y-247428095D01*
X168702342Y-247428095D02*
X168607104Y-247380476D01*
X168607104Y-247380476D02*
X168511866Y-247380476D01*
X168511866Y-247380476D02*
X168369009Y-247428095D01*
X168369009Y-247428095D02*
X167797580Y-247999523D01*
X167797580Y-247999523D02*
X167797580Y-247380476D01*
X168702342Y-246999523D02*
X168749961Y-246951904D01*
X168749961Y-246951904D02*
X168797580Y-246856666D01*
X168797580Y-246856666D02*
X168797580Y-246618571D01*
X168797580Y-246618571D02*
X168749961Y-246523333D01*
X168749961Y-246523333D02*
X168702342Y-246475714D01*
X168702342Y-246475714D02*
X168607104Y-246428095D01*
X168607104Y-246428095D02*
X168511866Y-246428095D01*
X168511866Y-246428095D02*
X168369009Y-246475714D01*
X168369009Y-246475714D02*
X167797580Y-247047142D01*
X167797580Y-247047142D02*
X167797580Y-246428095D01*
X163142342Y-240381904D02*
X163189961Y-240334285D01*
X163189961Y-240334285D02*
X163237580Y-240239047D01*
X163237580Y-240239047D02*
X163237580Y-240000952D01*
X163237580Y-240000952D02*
X163189961Y-239905714D01*
X163189961Y-239905714D02*
X163142342Y-239858095D01*
X163142342Y-239858095D02*
X163047104Y-239810476D01*
X163047104Y-239810476D02*
X162951866Y-239810476D01*
X162951866Y-239810476D02*
X162809009Y-239858095D01*
X162809009Y-239858095D02*
X162237580Y-240429523D01*
X162237580Y-240429523D02*
X162237580Y-239810476D01*
X163237580Y-239477142D02*
X163237580Y-238810476D01*
X163237580Y-238810476D02*
X162237580Y-239239047D01*
X162237580Y-249990476D02*
X162237580Y-250561904D01*
X162237580Y-250276190D02*
X163237580Y-250276190D01*
X163237580Y-250276190D02*
X163094723Y-250371428D01*
X163094723Y-250371428D02*
X162999485Y-250466666D01*
X162999485Y-250466666D02*
X162951866Y-250561904D01*
X162237580Y-249514285D02*
X162237580Y-249323809D01*
X162237580Y-249323809D02*
X162285200Y-249228571D01*
X162285200Y-249228571D02*
X162332819Y-249180952D01*
X162332819Y-249180952D02*
X162475676Y-249085714D01*
X162475676Y-249085714D02*
X162666152Y-249038095D01*
X162666152Y-249038095D02*
X163047104Y-249038095D01*
X163047104Y-249038095D02*
X163142342Y-249085714D01*
X163142342Y-249085714D02*
X163189961Y-249133333D01*
X163189961Y-249133333D02*
X163237580Y-249228571D01*
X163237580Y-249228571D02*
X163237580Y-249419047D01*
X163237580Y-249419047D02*
X163189961Y-249514285D01*
X163189961Y-249514285D02*
X163142342Y-249561904D01*
X163142342Y-249561904D02*
X163047104Y-249609523D01*
X163047104Y-249609523D02*
X162809009Y-249609523D01*
X162809009Y-249609523D02*
X162713771Y-249561904D01*
X162713771Y-249561904D02*
X162666152Y-249514285D01*
X162666152Y-249514285D02*
X162618533Y-249419047D01*
X162618533Y-249419047D02*
X162618533Y-249228571D01*
X162618533Y-249228571D02*
X162666152Y-249133333D01*
X162666152Y-249133333D02*
X162713771Y-249085714D01*
X162713771Y-249085714D02*
X162809009Y-249038095D01*
X168797580Y-235389523D02*
X168797580Y-234770476D01*
X168797580Y-234770476D02*
X168416628Y-235103809D01*
X168416628Y-235103809D02*
X168416628Y-234960952D01*
X168416628Y-234960952D02*
X168369009Y-234865714D01*
X168369009Y-234865714D02*
X168321390Y-234818095D01*
X168321390Y-234818095D02*
X168226152Y-234770476D01*
X168226152Y-234770476D02*
X167988057Y-234770476D01*
X167988057Y-234770476D02*
X167892819Y-234818095D01*
X167892819Y-234818095D02*
X167845200Y-234865714D01*
X167845200Y-234865714D02*
X167797580Y-234960952D01*
X167797580Y-234960952D02*
X167797580Y-235246666D01*
X167797580Y-235246666D02*
X167845200Y-235341904D01*
X167845200Y-235341904D02*
X167892819Y-235389523D01*
X168702342Y-234389523D02*
X168749961Y-234341904D01*
X168749961Y-234341904D02*
X168797580Y-234246666D01*
X168797580Y-234246666D02*
X168797580Y-234008571D01*
X168797580Y-234008571D02*
X168749961Y-233913333D01*
X168749961Y-233913333D02*
X168702342Y-233865714D01*
X168702342Y-233865714D02*
X168607104Y-233818095D01*
X168607104Y-233818095D02*
X168511866Y-233818095D01*
X168511866Y-233818095D02*
X168369009Y-233865714D01*
X168369009Y-233865714D02*
X167797580Y-234437142D01*
X167797580Y-234437142D02*
X167797580Y-233818095D01*
X163142342Y-247961904D02*
X163189961Y-247914285D01*
X163189961Y-247914285D02*
X163237580Y-247819047D01*
X163237580Y-247819047D02*
X163237580Y-247580952D01*
X163237580Y-247580952D02*
X163189961Y-247485714D01*
X163189961Y-247485714D02*
X163142342Y-247438095D01*
X163142342Y-247438095D02*
X163047104Y-247390476D01*
X163047104Y-247390476D02*
X162951866Y-247390476D01*
X162951866Y-247390476D02*
X162809009Y-247438095D01*
X162809009Y-247438095D02*
X162237580Y-248009523D01*
X162237580Y-248009523D02*
X162237580Y-247390476D01*
X162237580Y-246438095D02*
X162237580Y-247009523D01*
X162237580Y-246723809D02*
X163237580Y-246723809D01*
X163237580Y-246723809D02*
X163094723Y-246819047D01*
X163094723Y-246819047D02*
X162999485Y-246914285D01*
X162999485Y-246914285D02*
X162951866Y-247009523D01*
X162237580Y-262660475D02*
X162237580Y-262469999D01*
X162237580Y-262469999D02*
X162285200Y-262374761D01*
X162285200Y-262374761D02*
X162332819Y-262327142D01*
X162332819Y-262327142D02*
X162475676Y-262231904D01*
X162475676Y-262231904D02*
X162666152Y-262184285D01*
X162666152Y-262184285D02*
X163047104Y-262184285D01*
X163047104Y-262184285D02*
X163142342Y-262231904D01*
X163142342Y-262231904D02*
X163189961Y-262279523D01*
X163189961Y-262279523D02*
X163237580Y-262374761D01*
X163237580Y-262374761D02*
X163237580Y-262565237D01*
X163237580Y-262565237D02*
X163189961Y-262660475D01*
X163189961Y-262660475D02*
X163142342Y-262708094D01*
X163142342Y-262708094D02*
X163047104Y-262755713D01*
X163047104Y-262755713D02*
X162809009Y-262755713D01*
X162809009Y-262755713D02*
X162713771Y-262708094D01*
X162713771Y-262708094D02*
X162666152Y-262660475D01*
X162666152Y-262660475D02*
X162618533Y-262565237D01*
X162618533Y-262565237D02*
X162618533Y-262374761D01*
X162618533Y-262374761D02*
X162666152Y-262279523D01*
X162666152Y-262279523D02*
X162713771Y-262231904D01*
X162713771Y-262231904D02*
X162809009Y-262184285D01*
X168797580Y-232769523D02*
X168797580Y-232150476D01*
X168797580Y-232150476D02*
X168416628Y-232483809D01*
X168416628Y-232483809D02*
X168416628Y-232340952D01*
X168416628Y-232340952D02*
X168369009Y-232245714D01*
X168369009Y-232245714D02*
X168321390Y-232198095D01*
X168321390Y-232198095D02*
X168226152Y-232150476D01*
X168226152Y-232150476D02*
X167988057Y-232150476D01*
X167988057Y-232150476D02*
X167892819Y-232198095D01*
X167892819Y-232198095D02*
X167845200Y-232245714D01*
X167845200Y-232245714D02*
X167797580Y-232340952D01*
X167797580Y-232340952D02*
X167797580Y-232626666D01*
X167797580Y-232626666D02*
X167845200Y-232721904D01*
X167845200Y-232721904D02*
X167892819Y-232769523D01*
X168464247Y-231293333D02*
X167797580Y-231293333D01*
X168845200Y-231531428D02*
X168130914Y-231769523D01*
X168130914Y-231769523D02*
X168130914Y-231150476D01*
X168464247Y-269849523D02*
X167797580Y-269849523D01*
X168845200Y-270087618D02*
X168130914Y-270325713D01*
X168130914Y-270325713D02*
X168130914Y-269706666D01*
X167797580Y-255040476D02*
X167797580Y-255611904D01*
X167797580Y-255326190D02*
X168797580Y-255326190D01*
X168797580Y-255326190D02*
X168654723Y-255421428D01*
X168654723Y-255421428D02*
X168559485Y-255516666D01*
X168559485Y-255516666D02*
X168511866Y-255611904D01*
X168797580Y-254183333D02*
X168797580Y-254373809D01*
X168797580Y-254373809D02*
X168749961Y-254469047D01*
X168749961Y-254469047D02*
X168702342Y-254516666D01*
X168702342Y-254516666D02*
X168559485Y-254611904D01*
X168559485Y-254611904D02*
X168369009Y-254659523D01*
X168369009Y-254659523D02*
X167988057Y-254659523D01*
X167988057Y-254659523D02*
X167892819Y-254611904D01*
X167892819Y-254611904D02*
X167845200Y-254564285D01*
X167845200Y-254564285D02*
X167797580Y-254469047D01*
X167797580Y-254469047D02*
X167797580Y-254278571D01*
X167797580Y-254278571D02*
X167845200Y-254183333D01*
X167845200Y-254183333D02*
X167892819Y-254135714D01*
X167892819Y-254135714D02*
X167988057Y-254088095D01*
X167988057Y-254088095D02*
X168226152Y-254088095D01*
X168226152Y-254088095D02*
X168321390Y-254135714D01*
X168321390Y-254135714D02*
X168369009Y-254183333D01*
X168369009Y-254183333D02*
X168416628Y-254278571D01*
X168416628Y-254278571D02*
X168416628Y-254469047D01*
X168416628Y-254469047D02*
X168369009Y-254564285D01*
X168369009Y-254564285D02*
X168321390Y-254611904D01*
X168321390Y-254611904D02*
X168226152Y-254659523D01*
X168797580Y-237889523D02*
X168797580Y-237270476D01*
X168797580Y-237270476D02*
X168416628Y-237603809D01*
X168416628Y-237603809D02*
X168416628Y-237460952D01*
X168416628Y-237460952D02*
X168369009Y-237365714D01*
X168369009Y-237365714D02*
X168321390Y-237318095D01*
X168321390Y-237318095D02*
X168226152Y-237270476D01*
X168226152Y-237270476D02*
X167988057Y-237270476D01*
X167988057Y-237270476D02*
X167892819Y-237318095D01*
X167892819Y-237318095D02*
X167845200Y-237365714D01*
X167845200Y-237365714D02*
X167797580Y-237460952D01*
X167797580Y-237460952D02*
X167797580Y-237746666D01*
X167797580Y-237746666D02*
X167845200Y-237841904D01*
X167845200Y-237841904D02*
X167892819Y-237889523D01*
X168797580Y-236651428D02*
X168797580Y-236556190D01*
X168797580Y-236556190D02*
X168749961Y-236460952D01*
X168749961Y-236460952D02*
X168702342Y-236413333D01*
X168702342Y-236413333D02*
X168607104Y-236365714D01*
X168607104Y-236365714D02*
X168416628Y-236318095D01*
X168416628Y-236318095D02*
X168178533Y-236318095D01*
X168178533Y-236318095D02*
X167988057Y-236365714D01*
X167988057Y-236365714D02*
X167892819Y-236413333D01*
X167892819Y-236413333D02*
X167845200Y-236460952D01*
X167845200Y-236460952D02*
X167797580Y-236556190D01*
X167797580Y-236556190D02*
X167797580Y-236651428D01*
X167797580Y-236651428D02*
X167845200Y-236746666D01*
X167845200Y-236746666D02*
X167892819Y-236794285D01*
X167892819Y-236794285D02*
X167988057Y-236841904D01*
X167988057Y-236841904D02*
X168178533Y-236889523D01*
X168178533Y-236889523D02*
X168416628Y-236889523D01*
X168416628Y-236889523D02*
X168607104Y-236841904D01*
X168607104Y-236841904D02*
X168702342Y-236794285D01*
X168702342Y-236794285D02*
X168749961Y-236746666D01*
X168749961Y-236746666D02*
X168797580Y-236651428D01*
X168702342Y-245441904D02*
X168749961Y-245394285D01*
X168749961Y-245394285D02*
X168797580Y-245299047D01*
X168797580Y-245299047D02*
X168797580Y-245060952D01*
X168797580Y-245060952D02*
X168749961Y-244965714D01*
X168749961Y-244965714D02*
X168702342Y-244918095D01*
X168702342Y-244918095D02*
X168607104Y-244870476D01*
X168607104Y-244870476D02*
X168511866Y-244870476D01*
X168511866Y-244870476D02*
X168369009Y-244918095D01*
X168369009Y-244918095D02*
X167797580Y-245489523D01*
X167797580Y-245489523D02*
X167797580Y-244870476D01*
X168464247Y-244013333D02*
X167797580Y-244013333D01*
X168845200Y-244251428D02*
X168130914Y-244489523D01*
X168130914Y-244489523D02*
X168130914Y-243870476D01*
X162237580Y-272354285D02*
X162237580Y-272925713D01*
X162237580Y-272639999D02*
X163237580Y-272639999D01*
X163237580Y-272639999D02*
X163094723Y-272735237D01*
X163094723Y-272735237D02*
X162999485Y-272830475D01*
X162999485Y-272830475D02*
X162951866Y-272925713D01*
X163237580Y-235399523D02*
X163237580Y-234780476D01*
X163237580Y-234780476D02*
X162856628Y-235113809D01*
X162856628Y-235113809D02*
X162856628Y-234970952D01*
X162856628Y-234970952D02*
X162809009Y-234875714D01*
X162809009Y-234875714D02*
X162761390Y-234828095D01*
X162761390Y-234828095D02*
X162666152Y-234780476D01*
X162666152Y-234780476D02*
X162428057Y-234780476D01*
X162428057Y-234780476D02*
X162332819Y-234828095D01*
X162332819Y-234828095D02*
X162285200Y-234875714D01*
X162285200Y-234875714D02*
X162237580Y-234970952D01*
X162237580Y-234970952D02*
X162237580Y-235256666D01*
X162237580Y-235256666D02*
X162285200Y-235351904D01*
X162285200Y-235351904D02*
X162332819Y-235399523D01*
X162237580Y-233828095D02*
X162237580Y-234399523D01*
X162237580Y-234113809D02*
X163237580Y-234113809D01*
X163237580Y-234113809D02*
X163094723Y-234209047D01*
X163094723Y-234209047D02*
X162999485Y-234304285D01*
X162999485Y-234304285D02*
X162951866Y-234399523D01*
X168702342Y-272915713D02*
X168749961Y-272868094D01*
X168749961Y-272868094D02*
X168797580Y-272772856D01*
X168797580Y-272772856D02*
X168797580Y-272534761D01*
X168797580Y-272534761D02*
X168749961Y-272439523D01*
X168749961Y-272439523D02*
X168702342Y-272391904D01*
X168702342Y-272391904D02*
X168607104Y-272344285D01*
X168607104Y-272344285D02*
X168511866Y-272344285D01*
X168511866Y-272344285D02*
X168369009Y-272391904D01*
X168369009Y-272391904D02*
X167797580Y-272963332D01*
X167797580Y-272963332D02*
X167797580Y-272344285D01*
X168702342Y-250551904D02*
X168749961Y-250504285D01*
X168749961Y-250504285D02*
X168797580Y-250409047D01*
X168797580Y-250409047D02*
X168797580Y-250170952D01*
X168797580Y-250170952D02*
X168749961Y-250075714D01*
X168749961Y-250075714D02*
X168702342Y-250028095D01*
X168702342Y-250028095D02*
X168607104Y-249980476D01*
X168607104Y-249980476D02*
X168511866Y-249980476D01*
X168511866Y-249980476D02*
X168369009Y-250028095D01*
X168369009Y-250028095D02*
X167797580Y-250599523D01*
X167797580Y-250599523D02*
X167797580Y-249980476D01*
X168797580Y-249361428D02*
X168797580Y-249266190D01*
X168797580Y-249266190D02*
X168749961Y-249170952D01*
X168749961Y-249170952D02*
X168702342Y-249123333D01*
X168702342Y-249123333D02*
X168607104Y-249075714D01*
X168607104Y-249075714D02*
X168416628Y-249028095D01*
X168416628Y-249028095D02*
X168178533Y-249028095D01*
X168178533Y-249028095D02*
X167988057Y-249075714D01*
X167988057Y-249075714D02*
X167892819Y-249123333D01*
X167892819Y-249123333D02*
X167845200Y-249170952D01*
X167845200Y-249170952D02*
X167797580Y-249266190D01*
X167797580Y-249266190D02*
X167797580Y-249361428D01*
X167797580Y-249361428D02*
X167845200Y-249456666D01*
X167845200Y-249456666D02*
X167892819Y-249504285D01*
X167892819Y-249504285D02*
X167988057Y-249551904D01*
X167988057Y-249551904D02*
X168178533Y-249599523D01*
X168178533Y-249599523D02*
X168416628Y-249599523D01*
X168416628Y-249599523D02*
X168607104Y-249551904D01*
X168607104Y-249551904D02*
X168702342Y-249504285D01*
X168702342Y-249504285D02*
X168749961Y-249456666D01*
X168749961Y-249456666D02*
X168797580Y-249361428D01*
D13*
X178833333Y-264764819D02*
X178833333Y-265479104D01*
X178833333Y-265479104D02*
X178880952Y-265621961D01*
X178880952Y-265621961D02*
X178976190Y-265717200D01*
X178976190Y-265717200D02*
X179119047Y-265764819D01*
X179119047Y-265764819D02*
X179214285Y-265764819D01*
X177928571Y-265098152D02*
X177928571Y-265764819D01*
X178166666Y-264717200D02*
X178404761Y-265431485D01*
X178404761Y-265431485D02*
X177785714Y-265431485D01*
D10*
X245757419Y-155638095D02*
X246566942Y-155638095D01*
X246566942Y-155638095D02*
X246662180Y-155685714D01*
X246662180Y-155685714D02*
X246709800Y-155733333D01*
X246709800Y-155733333D02*
X246757419Y-155828571D01*
X246757419Y-155828571D02*
X246757419Y-156019047D01*
X246757419Y-156019047D02*
X246709800Y-156114285D01*
X246709800Y-156114285D02*
X246662180Y-156161904D01*
X246662180Y-156161904D02*
X246566942Y-156209523D01*
X246566942Y-156209523D02*
X245757419Y-156209523D01*
X245757419Y-156590476D02*
X245757419Y-157209523D01*
X245757419Y-157209523D02*
X246138371Y-156876190D01*
X246138371Y-156876190D02*
X246138371Y-157019047D01*
X246138371Y-157019047D02*
X246185990Y-157114285D01*
X246185990Y-157114285D02*
X246233609Y-157161904D01*
X246233609Y-157161904D02*
X246328847Y-157209523D01*
X246328847Y-157209523D02*
X246566942Y-157209523D01*
X246566942Y-157209523D02*
X246662180Y-157161904D01*
X246662180Y-157161904D02*
X246709800Y-157114285D01*
X246709800Y-157114285D02*
X246757419Y-157019047D01*
X246757419Y-157019047D02*
X246757419Y-156733333D01*
X246757419Y-156733333D02*
X246709800Y-156638095D01*
X246709800Y-156638095D02*
X246662180Y-156590476D01*
D13*
X248659580Y-151757142D02*
X248707200Y-151709523D01*
X248707200Y-151709523D02*
X248754819Y-151566666D01*
X248754819Y-151566666D02*
X248754819Y-151471428D01*
X248754819Y-151471428D02*
X248707200Y-151328571D01*
X248707200Y-151328571D02*
X248611961Y-151233333D01*
X248611961Y-151233333D02*
X248516723Y-151185714D01*
X248516723Y-151185714D02*
X248326247Y-151138095D01*
X248326247Y-151138095D02*
X248183390Y-151138095D01*
X248183390Y-151138095D02*
X247992914Y-151185714D01*
X247992914Y-151185714D02*
X247897676Y-151233333D01*
X247897676Y-151233333D02*
X247802438Y-151328571D01*
X247802438Y-151328571D02*
X247754819Y-151471428D01*
X247754819Y-151471428D02*
X247754819Y-151566666D01*
X247754819Y-151566666D02*
X247802438Y-151709523D01*
X247802438Y-151709523D02*
X247850057Y-151757142D01*
X248754819Y-152185714D02*
X247754819Y-152185714D01*
X247754819Y-152185714D02*
X247754819Y-152423809D01*
X247754819Y-152423809D02*
X247802438Y-152566666D01*
X247802438Y-152566666D02*
X247897676Y-152661904D01*
X247897676Y-152661904D02*
X247992914Y-152709523D01*
X247992914Y-152709523D02*
X248183390Y-152757142D01*
X248183390Y-152757142D02*
X248326247Y-152757142D01*
X248326247Y-152757142D02*
X248516723Y-152709523D01*
X248516723Y-152709523D02*
X248611961Y-152661904D01*
X248611961Y-152661904D02*
X248707200Y-152566666D01*
X248707200Y-152566666D02*
X248754819Y-152423809D01*
X248754819Y-152423809D02*
X248754819Y-152185714D01*
X247754819Y-153090476D02*
X247754819Y-153757142D01*
X247754819Y-153757142D02*
X248754819Y-153328571D01*
X248088152Y-154566666D02*
X248754819Y-154566666D01*
X247707200Y-154328571D02*
X248421485Y-154090476D01*
X248421485Y-154090476D02*
X248421485Y-154709523D01*
X248754819Y-155090476D02*
X247754819Y-155090476D01*
X248231009Y-155090476D02*
X248231009Y-155661904D01*
X248754819Y-155661904D02*
X247754819Y-155661904D01*
X248659580Y-156709523D02*
X248707200Y-156661904D01*
X248707200Y-156661904D02*
X248754819Y-156519047D01*
X248754819Y-156519047D02*
X248754819Y-156423809D01*
X248754819Y-156423809D02*
X248707200Y-156280952D01*
X248707200Y-156280952D02*
X248611961Y-156185714D01*
X248611961Y-156185714D02*
X248516723Y-156138095D01*
X248516723Y-156138095D02*
X248326247Y-156090476D01*
X248326247Y-156090476D02*
X248183390Y-156090476D01*
X248183390Y-156090476D02*
X247992914Y-156138095D01*
X247992914Y-156138095D02*
X247897676Y-156185714D01*
X247897676Y-156185714D02*
X247802438Y-156280952D01*
X247802438Y-156280952D02*
X247754819Y-156423809D01*
X247754819Y-156423809D02*
X247754819Y-156519047D01*
X247754819Y-156519047D02*
X247802438Y-156661904D01*
X247802438Y-156661904D02*
X247850057Y-156709523D01*
X248088152Y-157566666D02*
X248754819Y-157566666D01*
X247707200Y-157328571D02*
X248421485Y-157090476D01*
X248421485Y-157090476D02*
X248421485Y-157709523D01*
X247754819Y-158280952D02*
X247754819Y-158376190D01*
X247754819Y-158376190D02*
X247802438Y-158471428D01*
X247802438Y-158471428D02*
X247850057Y-158519047D01*
X247850057Y-158519047D02*
X247945295Y-158566666D01*
X247945295Y-158566666D02*
X248135771Y-158614285D01*
X248135771Y-158614285D02*
X248373866Y-158614285D01*
X248373866Y-158614285D02*
X248564342Y-158566666D01*
X248564342Y-158566666D02*
X248659580Y-158519047D01*
X248659580Y-158519047D02*
X248707200Y-158471428D01*
X248707200Y-158471428D02*
X248754819Y-158376190D01*
X248754819Y-158376190D02*
X248754819Y-158280952D01*
X248754819Y-158280952D02*
X248707200Y-158185714D01*
X248707200Y-158185714D02*
X248659580Y-158138095D01*
X248659580Y-158138095D02*
X248564342Y-158090476D01*
X248564342Y-158090476D02*
X248373866Y-158042857D01*
X248373866Y-158042857D02*
X248135771Y-158042857D01*
X248135771Y-158042857D02*
X247945295Y-158090476D01*
X247945295Y-158090476D02*
X247850057Y-158138095D01*
X247850057Y-158138095D02*
X247802438Y-158185714D01*
X247802438Y-158185714D02*
X247754819Y-158280952D01*
X247754819Y-159471428D02*
X247754819Y-159280952D01*
X247754819Y-159280952D02*
X247802438Y-159185714D01*
X247802438Y-159185714D02*
X247850057Y-159138095D01*
X247850057Y-159138095D02*
X247992914Y-159042857D01*
X247992914Y-159042857D02*
X248183390Y-158995238D01*
X248183390Y-158995238D02*
X248564342Y-158995238D01*
X248564342Y-158995238D02*
X248659580Y-159042857D01*
X248659580Y-159042857D02*
X248707200Y-159090476D01*
X248707200Y-159090476D02*
X248754819Y-159185714D01*
X248754819Y-159185714D02*
X248754819Y-159376190D01*
X248754819Y-159376190D02*
X248707200Y-159471428D01*
X248707200Y-159471428D02*
X248659580Y-159519047D01*
X248659580Y-159519047D02*
X248564342Y-159566666D01*
X248564342Y-159566666D02*
X248326247Y-159566666D01*
X248326247Y-159566666D02*
X248231009Y-159519047D01*
X248231009Y-159519047D02*
X248183390Y-159471428D01*
X248183390Y-159471428D02*
X248135771Y-159376190D01*
X248135771Y-159376190D02*
X248135771Y-159185714D01*
X248135771Y-159185714D02*
X248183390Y-159090476D01*
X248183390Y-159090476D02*
X248231009Y-159042857D01*
X248231009Y-159042857D02*
X248326247Y-158995238D01*
X247754819Y-159900000D02*
X247754819Y-160566666D01*
X247754819Y-160566666D02*
X248754819Y-160138095D01*
X248754819Y-160947619D02*
X247754819Y-160947619D01*
X247754819Y-160947619D02*
X248469104Y-161280952D01*
X248469104Y-161280952D02*
X247754819Y-161614285D01*
X247754819Y-161614285D02*
X248754819Y-161614285D01*
D10*
X242832419Y-162153884D02*
X243641942Y-162153884D01*
X243641942Y-162153884D02*
X243737180Y-162201503D01*
X243737180Y-162201503D02*
X243784800Y-162249122D01*
X243784800Y-162249122D02*
X243832419Y-162344360D01*
X243832419Y-162344360D02*
X243832419Y-162534836D01*
X243832419Y-162534836D02*
X243784800Y-162630074D01*
X243784800Y-162630074D02*
X243737180Y-162677693D01*
X243737180Y-162677693D02*
X243641942Y-162725312D01*
X243641942Y-162725312D02*
X242832419Y-162725312D01*
X242832419Y-163106265D02*
X242832419Y-163725312D01*
X242832419Y-163725312D02*
X243213371Y-163391979D01*
X243213371Y-163391979D02*
X243213371Y-163534836D01*
X243213371Y-163534836D02*
X243260990Y-163630074D01*
X243260990Y-163630074D02*
X243308609Y-163677693D01*
X243308609Y-163677693D02*
X243403847Y-163725312D01*
X243403847Y-163725312D02*
X243641942Y-163725312D01*
X243641942Y-163725312D02*
X243737180Y-163677693D01*
X243737180Y-163677693D02*
X243784800Y-163630074D01*
X243784800Y-163630074D02*
X243832419Y-163534836D01*
X243832419Y-163534836D02*
X243832419Y-163249122D01*
X243832419Y-163249122D02*
X243784800Y-163153884D01*
X243784800Y-163153884D02*
X243737180Y-163106265D01*
D13*
X174833333Y-272014819D02*
X174833333Y-272729104D01*
X174833333Y-272729104D02*
X174880952Y-272871961D01*
X174880952Y-272871961D02*
X174976190Y-272967200D01*
X174976190Y-272967200D02*
X175119047Y-273014819D01*
X175119047Y-273014819D02*
X175214285Y-273014819D01*
X174452380Y-272014819D02*
X173833333Y-272014819D01*
X173833333Y-272014819D02*
X174166666Y-272395771D01*
X174166666Y-272395771D02*
X174023809Y-272395771D01*
X174023809Y-272395771D02*
X173928571Y-272443390D01*
X173928571Y-272443390D02*
X173880952Y-272491009D01*
X173880952Y-272491009D02*
X173833333Y-272586247D01*
X173833333Y-272586247D02*
X173833333Y-272824342D01*
X173833333Y-272824342D02*
X173880952Y-272919580D01*
X173880952Y-272919580D02*
X173928571Y-272967200D01*
X173928571Y-272967200D02*
X174023809Y-273014819D01*
X174023809Y-273014819D02*
X174309523Y-273014819D01*
X174309523Y-273014819D02*
X174404761Y-272967200D01*
X174404761Y-272967200D02*
X174452380Y-272919580D01*
D10*
X314957419Y-358738095D02*
X315766942Y-358738095D01*
X315766942Y-358738095D02*
X315862180Y-358785714D01*
X315862180Y-358785714D02*
X315909800Y-358833333D01*
X315909800Y-358833333D02*
X315957419Y-358928571D01*
X315957419Y-358928571D02*
X315957419Y-359119047D01*
X315957419Y-359119047D02*
X315909800Y-359214285D01*
X315909800Y-359214285D02*
X315862180Y-359261904D01*
X315862180Y-359261904D02*
X315766942Y-359309523D01*
X315766942Y-359309523D02*
X314957419Y-359309523D01*
X314957419Y-360214285D02*
X314957419Y-360023809D01*
X314957419Y-360023809D02*
X315005038Y-359928571D01*
X315005038Y-359928571D02*
X315052657Y-359880952D01*
X315052657Y-359880952D02*
X315195514Y-359785714D01*
X315195514Y-359785714D02*
X315385990Y-359738095D01*
X315385990Y-359738095D02*
X315766942Y-359738095D01*
X315766942Y-359738095D02*
X315862180Y-359785714D01*
X315862180Y-359785714D02*
X315909800Y-359833333D01*
X315909800Y-359833333D02*
X315957419Y-359928571D01*
X315957419Y-359928571D02*
X315957419Y-360119047D01*
X315957419Y-360119047D02*
X315909800Y-360214285D01*
X315909800Y-360214285D02*
X315862180Y-360261904D01*
X315862180Y-360261904D02*
X315766942Y-360309523D01*
X315766942Y-360309523D02*
X315528847Y-360309523D01*
X315528847Y-360309523D02*
X315433609Y-360261904D01*
X315433609Y-360261904D02*
X315385990Y-360214285D01*
X315385990Y-360214285D02*
X315338371Y-360119047D01*
X315338371Y-360119047D02*
X315338371Y-359928571D01*
X315338371Y-359928571D02*
X315385990Y-359833333D01*
X315385990Y-359833333D02*
X315433609Y-359785714D01*
X315433609Y-359785714D02*
X315528847Y-359738095D01*
D13*
X317859580Y-354857142D02*
X317907200Y-354809523D01*
X317907200Y-354809523D02*
X317954819Y-354666666D01*
X317954819Y-354666666D02*
X317954819Y-354571428D01*
X317954819Y-354571428D02*
X317907200Y-354428571D01*
X317907200Y-354428571D02*
X317811961Y-354333333D01*
X317811961Y-354333333D02*
X317716723Y-354285714D01*
X317716723Y-354285714D02*
X317526247Y-354238095D01*
X317526247Y-354238095D02*
X317383390Y-354238095D01*
X317383390Y-354238095D02*
X317192914Y-354285714D01*
X317192914Y-354285714D02*
X317097676Y-354333333D01*
X317097676Y-354333333D02*
X317002438Y-354428571D01*
X317002438Y-354428571D02*
X316954819Y-354571428D01*
X316954819Y-354571428D02*
X316954819Y-354666666D01*
X316954819Y-354666666D02*
X317002438Y-354809523D01*
X317002438Y-354809523D02*
X317050057Y-354857142D01*
X317954819Y-355285714D02*
X316954819Y-355285714D01*
X316954819Y-355285714D02*
X316954819Y-355523809D01*
X316954819Y-355523809D02*
X317002438Y-355666666D01*
X317002438Y-355666666D02*
X317097676Y-355761904D01*
X317097676Y-355761904D02*
X317192914Y-355809523D01*
X317192914Y-355809523D02*
X317383390Y-355857142D01*
X317383390Y-355857142D02*
X317526247Y-355857142D01*
X317526247Y-355857142D02*
X317716723Y-355809523D01*
X317716723Y-355809523D02*
X317811961Y-355761904D01*
X317811961Y-355761904D02*
X317907200Y-355666666D01*
X317907200Y-355666666D02*
X317954819Y-355523809D01*
X317954819Y-355523809D02*
X317954819Y-355285714D01*
X316954819Y-356190476D02*
X316954819Y-356857142D01*
X316954819Y-356857142D02*
X317954819Y-356428571D01*
X317288152Y-357666666D02*
X317954819Y-357666666D01*
X316907200Y-357428571D02*
X317621485Y-357190476D01*
X317621485Y-357190476D02*
X317621485Y-357809523D01*
X317954819Y-358190476D02*
X316954819Y-358190476D01*
X317431009Y-358190476D02*
X317431009Y-358761904D01*
X317954819Y-358761904D02*
X316954819Y-358761904D01*
X317859580Y-359809523D02*
X317907200Y-359761904D01*
X317907200Y-359761904D02*
X317954819Y-359619047D01*
X317954819Y-359619047D02*
X317954819Y-359523809D01*
X317954819Y-359523809D02*
X317907200Y-359380952D01*
X317907200Y-359380952D02*
X317811961Y-359285714D01*
X317811961Y-359285714D02*
X317716723Y-359238095D01*
X317716723Y-359238095D02*
X317526247Y-359190476D01*
X317526247Y-359190476D02*
X317383390Y-359190476D01*
X317383390Y-359190476D02*
X317192914Y-359238095D01*
X317192914Y-359238095D02*
X317097676Y-359285714D01*
X317097676Y-359285714D02*
X317002438Y-359380952D01*
X317002438Y-359380952D02*
X316954819Y-359523809D01*
X316954819Y-359523809D02*
X316954819Y-359619047D01*
X316954819Y-359619047D02*
X317002438Y-359761904D01*
X317002438Y-359761904D02*
X317050057Y-359809523D01*
X317288152Y-360666666D02*
X317954819Y-360666666D01*
X316907200Y-360428571D02*
X317621485Y-360190476D01*
X317621485Y-360190476D02*
X317621485Y-360809523D01*
X316954819Y-361380952D02*
X316954819Y-361476190D01*
X316954819Y-361476190D02*
X317002438Y-361571428D01*
X317002438Y-361571428D02*
X317050057Y-361619047D01*
X317050057Y-361619047D02*
X317145295Y-361666666D01*
X317145295Y-361666666D02*
X317335771Y-361714285D01*
X317335771Y-361714285D02*
X317573866Y-361714285D01*
X317573866Y-361714285D02*
X317764342Y-361666666D01*
X317764342Y-361666666D02*
X317859580Y-361619047D01*
X317859580Y-361619047D02*
X317907200Y-361571428D01*
X317907200Y-361571428D02*
X317954819Y-361476190D01*
X317954819Y-361476190D02*
X317954819Y-361380952D01*
X317954819Y-361380952D02*
X317907200Y-361285714D01*
X317907200Y-361285714D02*
X317859580Y-361238095D01*
X317859580Y-361238095D02*
X317764342Y-361190476D01*
X317764342Y-361190476D02*
X317573866Y-361142857D01*
X317573866Y-361142857D02*
X317335771Y-361142857D01*
X317335771Y-361142857D02*
X317145295Y-361190476D01*
X317145295Y-361190476D02*
X317050057Y-361238095D01*
X317050057Y-361238095D02*
X317002438Y-361285714D01*
X317002438Y-361285714D02*
X316954819Y-361380952D01*
X316954819Y-362571428D02*
X316954819Y-362380952D01*
X316954819Y-362380952D02*
X317002438Y-362285714D01*
X317002438Y-362285714D02*
X317050057Y-362238095D01*
X317050057Y-362238095D02*
X317192914Y-362142857D01*
X317192914Y-362142857D02*
X317383390Y-362095238D01*
X317383390Y-362095238D02*
X317764342Y-362095238D01*
X317764342Y-362095238D02*
X317859580Y-362142857D01*
X317859580Y-362142857D02*
X317907200Y-362190476D01*
X317907200Y-362190476D02*
X317954819Y-362285714D01*
X317954819Y-362285714D02*
X317954819Y-362476190D01*
X317954819Y-362476190D02*
X317907200Y-362571428D01*
X317907200Y-362571428D02*
X317859580Y-362619047D01*
X317859580Y-362619047D02*
X317764342Y-362666666D01*
X317764342Y-362666666D02*
X317526247Y-362666666D01*
X317526247Y-362666666D02*
X317431009Y-362619047D01*
X317431009Y-362619047D02*
X317383390Y-362571428D01*
X317383390Y-362571428D02*
X317335771Y-362476190D01*
X317335771Y-362476190D02*
X317335771Y-362285714D01*
X317335771Y-362285714D02*
X317383390Y-362190476D01*
X317383390Y-362190476D02*
X317431009Y-362142857D01*
X317431009Y-362142857D02*
X317526247Y-362095238D01*
X316954819Y-363000000D02*
X316954819Y-363666666D01*
X316954819Y-363666666D02*
X317954819Y-363238095D01*
X317954819Y-364047619D02*
X316954819Y-364047619D01*
X316954819Y-364047619D02*
X317669104Y-364380952D01*
X317669104Y-364380952D02*
X316954819Y-364714285D01*
X316954819Y-364714285D02*
X317954819Y-364714285D01*
D10*
X312032419Y-365253884D02*
X312841942Y-365253884D01*
X312841942Y-365253884D02*
X312937180Y-365301503D01*
X312937180Y-365301503D02*
X312984800Y-365349122D01*
X312984800Y-365349122D02*
X313032419Y-365444360D01*
X313032419Y-365444360D02*
X313032419Y-365634836D01*
X313032419Y-365634836D02*
X312984800Y-365730074D01*
X312984800Y-365730074D02*
X312937180Y-365777693D01*
X312937180Y-365777693D02*
X312841942Y-365825312D01*
X312841942Y-365825312D02*
X312032419Y-365825312D01*
X312032419Y-366730074D02*
X312032419Y-366539598D01*
X312032419Y-366539598D02*
X312080038Y-366444360D01*
X312080038Y-366444360D02*
X312127657Y-366396741D01*
X312127657Y-366396741D02*
X312270514Y-366301503D01*
X312270514Y-366301503D02*
X312460990Y-366253884D01*
X312460990Y-366253884D02*
X312841942Y-366253884D01*
X312841942Y-366253884D02*
X312937180Y-366301503D01*
X312937180Y-366301503D02*
X312984800Y-366349122D01*
X312984800Y-366349122D02*
X313032419Y-366444360D01*
X313032419Y-366444360D02*
X313032419Y-366634836D01*
X313032419Y-366634836D02*
X312984800Y-366730074D01*
X312984800Y-366730074D02*
X312937180Y-366777693D01*
X312937180Y-366777693D02*
X312841942Y-366825312D01*
X312841942Y-366825312D02*
X312603847Y-366825312D01*
X312603847Y-366825312D02*
X312508609Y-366777693D01*
X312508609Y-366777693D02*
X312460990Y-366730074D01*
X312460990Y-366730074D02*
X312413371Y-366634836D01*
X312413371Y-366634836D02*
X312413371Y-366444360D01*
X312413371Y-366444360D02*
X312460990Y-366349122D01*
X312460990Y-366349122D02*
X312508609Y-366301503D01*
X312508609Y-366301503D02*
X312603847Y-366253884D01*
D13*
X270194819Y-240960476D02*
X270909104Y-240960476D01*
X270909104Y-240960476D02*
X271051961Y-240912857D01*
X271051961Y-240912857D02*
X271147200Y-240817619D01*
X271147200Y-240817619D02*
X271194819Y-240674762D01*
X271194819Y-240674762D02*
X271194819Y-240579524D01*
X270290057Y-241389048D02*
X270242438Y-241436667D01*
X270242438Y-241436667D02*
X270194819Y-241531905D01*
X270194819Y-241531905D02*
X270194819Y-241770000D01*
X270194819Y-241770000D02*
X270242438Y-241865238D01*
X270242438Y-241865238D02*
X270290057Y-241912857D01*
X270290057Y-241912857D02*
X270385295Y-241960476D01*
X270385295Y-241960476D02*
X270480533Y-241960476D01*
X270480533Y-241960476D02*
X270623390Y-241912857D01*
X270623390Y-241912857D02*
X271194819Y-241341429D01*
X271194819Y-241341429D02*
X271194819Y-241960476D01*
X270194819Y-242865238D02*
X270194819Y-242389048D01*
X270194819Y-242389048D02*
X270671009Y-242341429D01*
X270671009Y-242341429D02*
X270623390Y-242389048D01*
X270623390Y-242389048D02*
X270575771Y-242484286D01*
X270575771Y-242484286D02*
X270575771Y-242722381D01*
X270575771Y-242722381D02*
X270623390Y-242817619D01*
X270623390Y-242817619D02*
X270671009Y-242865238D01*
X270671009Y-242865238D02*
X270766247Y-242912857D01*
X270766247Y-242912857D02*
X271004342Y-242912857D01*
X271004342Y-242912857D02*
X271099580Y-242865238D01*
X271099580Y-242865238D02*
X271147200Y-242817619D01*
X271147200Y-242817619D02*
X271194819Y-242722381D01*
X271194819Y-242722381D02*
X271194819Y-242484286D01*
X271194819Y-242484286D02*
X271147200Y-242389048D01*
X271147200Y-242389048D02*
X271099580Y-242341429D01*
D14*
%TO.C,J5*%
X199740000Y-85940000D02*
X199740000Y-88060000D01*
X199740000Y-85940000D02*
X221800000Y-85940000D01*
X199740000Y-88060000D02*
X221800000Y-88060000D01*
X221800000Y-85940000D02*
X221800000Y-88060000D01*
X223860000Y-87000000D02*
X223860000Y-88060000D01*
X223860000Y-88060000D02*
X222800000Y-88060000D01*
%TO.C,J1*%
X191320000Y-272180000D02*
X191320000Y-273180000D01*
X191320000Y-273180000D02*
X192320000Y-272680000D01*
X192320000Y-272680000D02*
X191320000Y-272180000D01*
X192710000Y-219210000D02*
X201830000Y-219210000D01*
X192710000Y-246500000D02*
X194020000Y-246500000D01*
X192710000Y-277890000D02*
X192710000Y-219210000D01*
X194020000Y-220510000D02*
X200520000Y-220510000D01*
X194020000Y-246500000D02*
X194020000Y-220510000D01*
X194020000Y-246500000D02*
X194020000Y-246500000D01*
X194020000Y-250600000D02*
X192710000Y-250600000D01*
X194020000Y-276590000D02*
X194020000Y-250600000D01*
X200520000Y-220510000D02*
X200520000Y-276590000D01*
X200520000Y-276590000D02*
X194020000Y-276590000D01*
X201830000Y-219210000D02*
X201830000Y-277890000D01*
X201830000Y-277890000D02*
X192710000Y-277890000D01*
D15*
%TO.C,IC1*%
X253360000Y-193840000D02*
X253360000Y-211620000D01*
X253360000Y-211620000D02*
X314320000Y-211620000D01*
X307870000Y-212250000D02*
X307870000Y-212250000D01*
X307970000Y-212250000D02*
X307970000Y-212250000D01*
X307970000Y-212250000D02*
X307970000Y-212250000D01*
X314320000Y-193840000D02*
X253360000Y-193840000D01*
X314320000Y-211620000D02*
X314320000Y-193840000D01*
X307870000Y-212250000D02*
G75*
G02*
X307970000Y-212250000I50000J0D01*
G01*
X307970000Y-212250000D02*
G75*
G02*
X307870000Y-212250000I-50000J0D01*
G01*
X307970000Y-212250000D02*
G75*
G02*
X307870000Y-212250000I-50000J0D01*
G01*
%TO.C,U5*%
D10*
X73730000Y-318130000D02*
X91520000Y-318130000D01*
X91520000Y-277490000D01*
X73730000Y-277490000D01*
X73730000Y-318130000D01*
D14*
%TO.C,J4*%
X173805000Y-263190000D02*
X173805000Y-263065000D01*
X173805000Y-264435000D02*
X173805000Y-263750000D01*
X173891724Y-263065000D02*
X173805000Y-263065000D01*
X174500000Y-264435000D02*
X173805000Y-264435000D01*
X175195000Y-263065000D02*
X173805000Y-263065000D01*
X175195000Y-263065000D02*
X175108276Y-263065000D01*
X175195000Y-263190000D02*
X175195000Y-263065000D01*
%TO.C,U4*%
D10*
X319120000Y-276395000D02*
X278480000Y-276395000D01*
X278480000Y-258605000D01*
X319120000Y-258605000D01*
X319120000Y-276395000D01*
D14*
%TO.C,J3*%
X177805000Y-270440000D02*
X177805000Y-270315000D01*
X177805000Y-271685000D02*
X177805000Y-271000000D01*
X177891724Y-270315000D02*
X177805000Y-270315000D01*
X178500000Y-271685000D02*
X177805000Y-271685000D01*
X179195000Y-270315000D02*
X177805000Y-270315000D01*
X179195000Y-270315000D02*
X179108276Y-270315000D01*
X179195000Y-270440000D02*
X179195000Y-270315000D01*
%TO.C,SW12*%
D10*
X204000000Y-205250000D02*
X191300000Y-205250000D01*
X191300000Y-198390000D01*
X204000000Y-198390000D01*
X204000000Y-205250000D01*
%TO.C,U2*%
X380715113Y-73400000D02*
X340075113Y-73400000D01*
X340075113Y-55610000D01*
X380715113Y-55610000D01*
X380715113Y-73400000D01*
D16*
%TO.C,RASPBERRY PI 4*%
X113000000Y-199000000D02*
X113000000Y-278000000D01*
X116000000Y-281000000D02*
X166000000Y-281000000D01*
X166000000Y-196000000D02*
X116000000Y-196000000D01*
X169000000Y-278000000D02*
X169000000Y-199000000D01*
X113000000Y-199000000D02*
G75*
G02*
X116000000Y-196000000I3000000J0D01*
G01*
X116000000Y-281000000D02*
G75*
G02*
X113000000Y-278000000I1J3000001D01*
G01*
X166000000Y-196000000D02*
G75*
G02*
X169000000Y-199000000I0J-3000000D01*
G01*
X169000000Y-278000000D02*
G75*
G02*
X166000000Y-281000000I-3000001J1D01*
G01*
D10*
X163820000Y-269391233D02*
X163837380Y-269381338D01*
X164220168Y-269280058D02*
X164240168Y-269280063D01*
X164622914Y-269381501D02*
X164640290Y-269391403D01*
X164922673Y-269668972D02*
X164932872Y-269686176D01*
X165040875Y-270067122D02*
X165041223Y-270087118D01*
X164946538Y-270471591D02*
X164936944Y-270489139D01*
X164664389Y-270776364D02*
X164647368Y-270786864D01*
X164268382Y-270901558D02*
X164248395Y-270902258D01*
X163862315Y-270814356D02*
X163844601Y-270805073D01*
X163552621Y-270537617D02*
X163541823Y-270520783D01*
X163420476Y-270143875D02*
X163419424Y-270123903D01*
X163500515Y-269736336D02*
X163509485Y-269718461D01*
X163771759Y-269421818D02*
X163788400Y-269410725D01*
X163830000Y-228741233D02*
X163847380Y-228731338D01*
X164230168Y-228630058D02*
X164250168Y-228630063D01*
X164632914Y-228731501D02*
X164650290Y-228741403D01*
X164932673Y-229018972D02*
X164942872Y-229036176D01*
X165050875Y-229417122D02*
X165051223Y-229437118D01*
X164956538Y-229821591D02*
X164946944Y-229839139D01*
X164674389Y-230126364D02*
X164657368Y-230136864D01*
X164278382Y-230251558D02*
X164258395Y-230252258D01*
X163872315Y-230164356D02*
X163854601Y-230155073D01*
X163562621Y-229887617D02*
X163551823Y-229870783D01*
X163430476Y-229493875D02*
X163429424Y-229473903D01*
X163510515Y-229086336D02*
X163519485Y-229068461D01*
X163781759Y-228771818D02*
X163798400Y-228760725D01*
X163830000Y-231291233D02*
X163847380Y-231281338D01*
X164230168Y-231180058D02*
X164250168Y-231180063D01*
X164632914Y-231281501D02*
X164650290Y-231291403D01*
X164932673Y-231568972D02*
X164942872Y-231586176D01*
X165050875Y-231967122D02*
X165051223Y-231987118D01*
X164956538Y-232371591D02*
X164946944Y-232389139D01*
X164674389Y-232676364D02*
X164657368Y-232686864D01*
X164278382Y-232801558D02*
X164258395Y-232802258D01*
X163872315Y-232714356D02*
X163854601Y-232705073D01*
X163562621Y-232437617D02*
X163551823Y-232420783D01*
X163430476Y-232043875D02*
X163429424Y-232023903D01*
X163510515Y-231636336D02*
X163519485Y-231618461D01*
X163781759Y-231321818D02*
X163798400Y-231310725D01*
X163830000Y-238911233D02*
X163847380Y-238901338D01*
X164230168Y-238800058D02*
X164250168Y-238800063D01*
X164632914Y-238901501D02*
X164650290Y-238911403D01*
X164932673Y-239188972D02*
X164942872Y-239206176D01*
X165050875Y-239587122D02*
X165051223Y-239607118D01*
X164956538Y-239991591D02*
X164946944Y-240009139D01*
X164674389Y-240296364D02*
X164657368Y-240306864D01*
X164278382Y-240421558D02*
X164258395Y-240422258D01*
X163872315Y-240334356D02*
X163854601Y-240325073D01*
X163562621Y-240057617D02*
X163551823Y-240040783D01*
X163430476Y-239663875D02*
X163429424Y-239643903D01*
X163510515Y-239256336D02*
X163519485Y-239238461D01*
X163781759Y-238941818D02*
X163798400Y-238930725D01*
X163830000Y-241461233D02*
X163847380Y-241451338D01*
X164230168Y-241350058D02*
X164250168Y-241350063D01*
X164632914Y-241451501D02*
X164650290Y-241461403D01*
X164932673Y-241738972D02*
X164942872Y-241756176D01*
X165050875Y-242137122D02*
X165051223Y-242157118D01*
X164956538Y-242541591D02*
X164946944Y-242559139D01*
X164674389Y-242846364D02*
X164657368Y-242856864D01*
X164278382Y-242971558D02*
X164258395Y-242972258D01*
X163872315Y-242884356D02*
X163854601Y-242875073D01*
X163562621Y-242607617D02*
X163551823Y-242590783D01*
X163430476Y-242213875D02*
X163429424Y-242193903D01*
X163510515Y-241806336D02*
X163519485Y-241788461D01*
X163781759Y-241491818D02*
X163798400Y-241480725D01*
X163830000Y-243981233D02*
X163847380Y-243971338D01*
X164230168Y-243870058D02*
X164250168Y-243870063D01*
X164632914Y-243971501D02*
X164650290Y-243981403D01*
X164932673Y-244258972D02*
X164942872Y-244276176D01*
X165050875Y-244657122D02*
X165051223Y-244677118D01*
X164956538Y-245061591D02*
X164946944Y-245079139D01*
X164674389Y-245366364D02*
X164657368Y-245376864D01*
X164278382Y-245491558D02*
X164258395Y-245492258D01*
X163872315Y-245404356D02*
X163854601Y-245395073D01*
X163562621Y-245127617D02*
X163551823Y-245110783D01*
X163430476Y-244733875D02*
X163429424Y-244713903D01*
X163510515Y-244326336D02*
X163519485Y-244308461D01*
X163781759Y-244011818D02*
X163798400Y-244000725D01*
X163830000Y-246531233D02*
X163847380Y-246521338D01*
X164230168Y-246420058D02*
X164250168Y-246420063D01*
X164632914Y-246521501D02*
X164650290Y-246531403D01*
X164932673Y-246808972D02*
X164942872Y-246826176D01*
X165050875Y-247207122D02*
X165051223Y-247227118D01*
X164956538Y-247611591D02*
X164946944Y-247629139D01*
X164674389Y-247916364D02*
X164657368Y-247926864D01*
X164278382Y-248041558D02*
X164258395Y-248042258D01*
X163872315Y-247954356D02*
X163854601Y-247945073D01*
X163562621Y-247677617D02*
X163551823Y-247660783D01*
X163430476Y-247283875D02*
X163429424Y-247263903D01*
X163510515Y-246876336D02*
X163519485Y-246858461D01*
X163781759Y-246561818D02*
X163798400Y-246550725D01*
X163830000Y-249061233D02*
X163847380Y-249051338D01*
X164230168Y-248950058D02*
X164250168Y-248950063D01*
X164632914Y-249051501D02*
X164650290Y-249061403D01*
X164932673Y-249338972D02*
X164942872Y-249356176D01*
X165050875Y-249737122D02*
X165051223Y-249757118D01*
X164956538Y-250141591D02*
X164946944Y-250159139D01*
X164674389Y-250446364D02*
X164657368Y-250456864D01*
X164278382Y-250571558D02*
X164258395Y-250572258D01*
X163872315Y-250484356D02*
X163854601Y-250475073D01*
X163562621Y-250207617D02*
X163551823Y-250190783D01*
X163430476Y-249813875D02*
X163429424Y-249793903D01*
X163510515Y-249406336D02*
X163519485Y-249388461D01*
X163781759Y-249091818D02*
X163798400Y-249080725D01*
X163830000Y-251601233D02*
X163847380Y-251591338D01*
X164230168Y-251490058D02*
X164250168Y-251490063D01*
X164632914Y-251591501D02*
X164650290Y-251601403D01*
X164932673Y-251878972D02*
X164942872Y-251896176D01*
X165050875Y-252277122D02*
X165051223Y-252297118D01*
X164956538Y-252681591D02*
X164946944Y-252699139D01*
X164674389Y-252986364D02*
X164657368Y-252996864D01*
X164278382Y-253111558D02*
X164258395Y-253112258D01*
X163872315Y-253024356D02*
X163854601Y-253015073D01*
X163562621Y-252747617D02*
X163551823Y-252730783D01*
X163430476Y-252353875D02*
X163429424Y-252333903D01*
X163510515Y-251946336D02*
X163519485Y-251928461D01*
X163781759Y-251631818D02*
X163798400Y-251620725D01*
X163830000Y-254151233D02*
X163847380Y-254141338D01*
X164230168Y-254040058D02*
X164250168Y-254040063D01*
X164632914Y-254141501D02*
X164650290Y-254151403D01*
X164932673Y-254428972D02*
X164942872Y-254446176D01*
X165050875Y-254827122D02*
X165051223Y-254847118D01*
X164956538Y-255231591D02*
X164946944Y-255249139D01*
X164674389Y-255536364D02*
X164657368Y-255546864D01*
X164278382Y-255661558D02*
X164258395Y-255662258D01*
X163872315Y-255574356D02*
X163854601Y-255565073D01*
X163562621Y-255297617D02*
X163551823Y-255280783D01*
X163430476Y-254903875D02*
X163429424Y-254883903D01*
X163510515Y-254496336D02*
X163519485Y-254478461D01*
X163781759Y-254181818D02*
X163798400Y-254170725D01*
X163830000Y-256691233D02*
X163847380Y-256681338D01*
X164230168Y-256580058D02*
X164250168Y-256580063D01*
X164632914Y-256681501D02*
X164650290Y-256691403D01*
X164932673Y-256968972D02*
X164942872Y-256986176D01*
X165050875Y-257367122D02*
X165051223Y-257387118D01*
X164956538Y-257771591D02*
X164946944Y-257789139D01*
X164674389Y-258076364D02*
X164657368Y-258086864D01*
X164278382Y-258201558D02*
X164258395Y-258202258D01*
X163872315Y-258114356D02*
X163854601Y-258105073D01*
X163562621Y-257837617D02*
X163551823Y-257820783D01*
X163430476Y-257443875D02*
X163429424Y-257423903D01*
X163510515Y-257036336D02*
X163519485Y-257018461D01*
X163781759Y-256721818D02*
X163798400Y-256710725D01*
X163830000Y-259221233D02*
X163847380Y-259211338D01*
X164230168Y-259110058D02*
X164250168Y-259110063D01*
X164632914Y-259211501D02*
X164650290Y-259221403D01*
X164932673Y-259498972D02*
X164942872Y-259516176D01*
X165050875Y-259897122D02*
X165051223Y-259917118D01*
X164956538Y-260301591D02*
X164946944Y-260319139D01*
X164674389Y-260606364D02*
X164657368Y-260616864D01*
X164278382Y-260731558D02*
X164258395Y-260732258D01*
X163872315Y-260644356D02*
X163854601Y-260635073D01*
X163562621Y-260367617D02*
X163551823Y-260350783D01*
X163430476Y-259973875D02*
X163429424Y-259953903D01*
X163510515Y-259566336D02*
X163519485Y-259548461D01*
X163781759Y-259251818D02*
X163798400Y-259240725D01*
X163830000Y-271930000D02*
X163847380Y-271920105D01*
X164230168Y-271818825D02*
X164250168Y-271818830D01*
X164632914Y-271920268D02*
X164650290Y-271930170D01*
X164932673Y-272207739D02*
X164942872Y-272224943D01*
X165050875Y-272605889D02*
X165051223Y-272625885D01*
X164956538Y-273010358D02*
X164946944Y-273027906D01*
X164674389Y-273315131D02*
X164657368Y-273325631D01*
X164278382Y-273440325D02*
X164258395Y-273441025D01*
X163872315Y-273353123D02*
X163854601Y-273343840D01*
X163562621Y-273076384D02*
X163551823Y-273059550D01*
X163430476Y-272682642D02*
X163429424Y-272662670D01*
X163510515Y-272275103D02*
X163519485Y-272257228D01*
X163781759Y-271960585D02*
X163798400Y-271949492D01*
X163840000Y-223671233D02*
X163857380Y-223661338D01*
X164240168Y-223560058D02*
X164260168Y-223560063D01*
X164642914Y-223661501D02*
X164660290Y-223671403D01*
X164942673Y-223948972D02*
X164952872Y-223966176D01*
X165060875Y-224347122D02*
X165061223Y-224367118D01*
X164966538Y-224751591D02*
X164956944Y-224769139D01*
X164684389Y-225056364D02*
X164667368Y-225066864D01*
X164288382Y-225181558D02*
X164268395Y-225182258D01*
X163882315Y-225094356D02*
X163864601Y-225085073D01*
X163572621Y-224817617D02*
X163561823Y-224800783D01*
X163440476Y-224423875D02*
X163439424Y-224403903D01*
X163520515Y-224016336D02*
X163529485Y-223998461D01*
X163791759Y-223701818D02*
X163808400Y-223690725D01*
X163840000Y-226201233D02*
X163857380Y-226191338D01*
X164240168Y-226090058D02*
X164260168Y-226090063D01*
X164642914Y-226191501D02*
X164660290Y-226201403D01*
X164942673Y-226478972D02*
X164952872Y-226496176D01*
X165060875Y-226877122D02*
X165061223Y-226897118D01*
X164966538Y-227281591D02*
X164956944Y-227299139D01*
X164684389Y-227586364D02*
X164667368Y-227596864D01*
X164288382Y-227711558D02*
X164268395Y-227712258D01*
X163882315Y-227624356D02*
X163864601Y-227615073D01*
X163572621Y-227347617D02*
X163561823Y-227330783D01*
X163440476Y-226953875D02*
X163439424Y-226933903D01*
X163520515Y-226546336D02*
X163529485Y-226528461D01*
X163791759Y-226231818D02*
X163808400Y-226220725D01*
X163840000Y-233831233D02*
X163857380Y-233821338D01*
X164240168Y-233720058D02*
X164260168Y-233720063D01*
X164642914Y-233821501D02*
X164660290Y-233831403D01*
X164942673Y-234108972D02*
X164952872Y-234126176D01*
X165060875Y-234507122D02*
X165061223Y-234527118D01*
X164966538Y-234911591D02*
X164956944Y-234929139D01*
X164684389Y-235216364D02*
X164667368Y-235226864D01*
X164288382Y-235341558D02*
X164268395Y-235342258D01*
X163882315Y-235254356D02*
X163864601Y-235245073D01*
X163572621Y-234977617D02*
X163561823Y-234960783D01*
X163440476Y-234583875D02*
X163439424Y-234563903D01*
X163520515Y-234176336D02*
X163529485Y-234158461D01*
X163791759Y-233861818D02*
X163808400Y-233850725D01*
X163840000Y-236371233D02*
X163857380Y-236361338D01*
X164240168Y-236260058D02*
X164260168Y-236260063D01*
X164642914Y-236361501D02*
X164660290Y-236371403D01*
X164942673Y-236648972D02*
X164952872Y-236666176D01*
X165060875Y-237047122D02*
X165061223Y-237067118D01*
X164966538Y-237451591D02*
X164956944Y-237469139D01*
X164684389Y-237756364D02*
X164667368Y-237766864D01*
X164288382Y-237881558D02*
X164268395Y-237882258D01*
X163882315Y-237794356D02*
X163864601Y-237785073D01*
X163572621Y-237517617D02*
X163561823Y-237500783D01*
X163440476Y-237123875D02*
X163439424Y-237103903D01*
X163520515Y-236716336D02*
X163529485Y-236698461D01*
X163791759Y-236401818D02*
X163808400Y-236390725D01*
X163840000Y-261771233D02*
X163857380Y-261761338D01*
X164240168Y-261660058D02*
X164260168Y-261660063D01*
X164642914Y-261761501D02*
X164660290Y-261771403D01*
X164942673Y-262048972D02*
X164952872Y-262066176D01*
X165060875Y-262447122D02*
X165061223Y-262467118D01*
X164966538Y-262851591D02*
X164956944Y-262869139D01*
X164684389Y-263156364D02*
X164667368Y-263166864D01*
X164288382Y-263281558D02*
X164268395Y-263282258D01*
X163882315Y-263194356D02*
X163864601Y-263185073D01*
X163572621Y-262917617D02*
X163561823Y-262900783D01*
X163440476Y-262523875D02*
X163439424Y-262503903D01*
X163520515Y-262116336D02*
X163529485Y-262098461D01*
X163791759Y-261801818D02*
X163808400Y-261790725D01*
X163840000Y-266851233D02*
X163857380Y-266841338D01*
X164240168Y-266740058D02*
X164260168Y-266740063D01*
X164642914Y-266841501D02*
X164660290Y-266851403D01*
X164942673Y-267128972D02*
X164952872Y-267146176D01*
X165060875Y-267527122D02*
X165061223Y-267547118D01*
X164966538Y-267931591D02*
X164956944Y-267949139D01*
X164684389Y-268236364D02*
X164667368Y-268246864D01*
X164288382Y-268361558D02*
X164268395Y-268362258D01*
X163882315Y-268274356D02*
X163864601Y-268265073D01*
X163572621Y-267997617D02*
X163561823Y-267980783D01*
X163440476Y-267603875D02*
X163439424Y-267583903D01*
X163520515Y-267196336D02*
X163529485Y-267178461D01*
X163791759Y-266881818D02*
X163808400Y-266870725D01*
X163850000Y-264311233D02*
X163867380Y-264301338D01*
X164250168Y-264200058D02*
X164270168Y-264200063D01*
X164652914Y-264301501D02*
X164670290Y-264311403D01*
X164952673Y-264588972D02*
X164962872Y-264606176D01*
X165070875Y-264987122D02*
X165071223Y-265007118D01*
X164976538Y-265391591D02*
X164966944Y-265409139D01*
X164694389Y-265696364D02*
X164677368Y-265706864D01*
X164298382Y-265821558D02*
X164278395Y-265822258D01*
X163892315Y-265734356D02*
X163874601Y-265725073D01*
X163582621Y-265457617D02*
X163571823Y-265440783D01*
X163450476Y-265063875D02*
X163449424Y-265043903D01*
X163530515Y-264656336D02*
X163539485Y-264638461D01*
X163801759Y-264341818D02*
X163818400Y-264330725D01*
X166350000Y-269391233D02*
X166367380Y-269381338D01*
X166750168Y-269280058D02*
X166770168Y-269280063D01*
X167152914Y-269381501D02*
X167170290Y-269391403D01*
X167452673Y-269668972D02*
X167462872Y-269686176D01*
X167570875Y-270067122D02*
X167571223Y-270087118D01*
X167476538Y-270471591D02*
X167466944Y-270489139D01*
X167194389Y-270776364D02*
X167177368Y-270786864D01*
X166798382Y-270901558D02*
X166778395Y-270902258D01*
X166392315Y-270814356D02*
X166374601Y-270805073D01*
X166082621Y-270537617D02*
X166071823Y-270520783D01*
X165950476Y-270143875D02*
X165949424Y-270123903D01*
X166030515Y-269736336D02*
X166039485Y-269718461D01*
X166301759Y-269421818D02*
X166318400Y-269410725D01*
X166360000Y-228741233D02*
X166377380Y-228731338D01*
X166760168Y-228630058D02*
X166780168Y-228630063D01*
X167162914Y-228731501D02*
X167180290Y-228741403D01*
X167462673Y-229018972D02*
X167472872Y-229036176D01*
X167580875Y-229417122D02*
X167581223Y-229437118D01*
X167486538Y-229821591D02*
X167476944Y-229839139D01*
X167204389Y-230126364D02*
X167187368Y-230136864D01*
X166808382Y-230251558D02*
X166788395Y-230252258D01*
X166402315Y-230164356D02*
X166384601Y-230155073D01*
X166092621Y-229887617D02*
X166081823Y-229870783D01*
X165960476Y-229493875D02*
X165959424Y-229473903D01*
X166040515Y-229086336D02*
X166049485Y-229068461D01*
X166311759Y-228771818D02*
X166328400Y-228760725D01*
X166360000Y-231291233D02*
X166377380Y-231281338D01*
X166760168Y-231180058D02*
X166780168Y-231180063D01*
X167162914Y-231281501D02*
X167180290Y-231291403D01*
X167462673Y-231568972D02*
X167472872Y-231586176D01*
X167580875Y-231967122D02*
X167581223Y-231987118D01*
X167486538Y-232371591D02*
X167476944Y-232389139D01*
X167204389Y-232676364D02*
X167187368Y-232686864D01*
X166808382Y-232801558D02*
X166788395Y-232802258D01*
X166402315Y-232714356D02*
X166384601Y-232705073D01*
X166092621Y-232437617D02*
X166081823Y-232420783D01*
X165960476Y-232043875D02*
X165959424Y-232023903D01*
X166040515Y-231636336D02*
X166049485Y-231618461D01*
X166311759Y-231321818D02*
X166328400Y-231310725D01*
X166360000Y-238911233D02*
X166377380Y-238901338D01*
X166760168Y-238800058D02*
X166780168Y-238800063D01*
X167162914Y-238901501D02*
X167180290Y-238911403D01*
X167462673Y-239188972D02*
X167472872Y-239206176D01*
X167580875Y-239587122D02*
X167581223Y-239607118D01*
X167486538Y-239991591D02*
X167476944Y-240009139D01*
X167204389Y-240296364D02*
X167187368Y-240306864D01*
X166808382Y-240421558D02*
X166788395Y-240422258D01*
X166402315Y-240334356D02*
X166384601Y-240325073D01*
X166092621Y-240057617D02*
X166081823Y-240040783D01*
X165960476Y-239663875D02*
X165959424Y-239643903D01*
X166040515Y-239256336D02*
X166049485Y-239238461D01*
X166311759Y-238941818D02*
X166328400Y-238930725D01*
X166360000Y-241461233D02*
X166377380Y-241451338D01*
X166760168Y-241350058D02*
X166780168Y-241350063D01*
X167162914Y-241451501D02*
X167180290Y-241461403D01*
X167462673Y-241738972D02*
X167472872Y-241756176D01*
X167580875Y-242137122D02*
X167581223Y-242157118D01*
X167486538Y-242541591D02*
X167476944Y-242559139D01*
X167204389Y-242846364D02*
X167187368Y-242856864D01*
X166808382Y-242971558D02*
X166788395Y-242972258D01*
X166402315Y-242884356D02*
X166384601Y-242875073D01*
X166092621Y-242607617D02*
X166081823Y-242590783D01*
X165960476Y-242213875D02*
X165959424Y-242193903D01*
X166040515Y-241806336D02*
X166049485Y-241788461D01*
X166311759Y-241491818D02*
X166328400Y-241480725D01*
X166360000Y-243981233D02*
X166377380Y-243971338D01*
X166760168Y-243870058D02*
X166780168Y-243870063D01*
X167162914Y-243971501D02*
X167180290Y-243981403D01*
X167462673Y-244258972D02*
X167472872Y-244276176D01*
X167580875Y-244657122D02*
X167581223Y-244677118D01*
X167486538Y-245061591D02*
X167476944Y-245079139D01*
X167204389Y-245366364D02*
X167187368Y-245376864D01*
X166808382Y-245491558D02*
X166788395Y-245492258D01*
X166402315Y-245404356D02*
X166384601Y-245395073D01*
X166092621Y-245127617D02*
X166081823Y-245110783D01*
X165960476Y-244733875D02*
X165959424Y-244713903D01*
X166040515Y-244326336D02*
X166049485Y-244308461D01*
X166311759Y-244011818D02*
X166328400Y-244000725D01*
X166360000Y-246531233D02*
X166377380Y-246521338D01*
X166760168Y-246420058D02*
X166780168Y-246420063D01*
X167162914Y-246521501D02*
X167180290Y-246531403D01*
X167462673Y-246808972D02*
X167472872Y-246826176D01*
X167580875Y-247207122D02*
X167581223Y-247227118D01*
X167486538Y-247611591D02*
X167476944Y-247629139D01*
X167204389Y-247916364D02*
X167187368Y-247926864D01*
X166808382Y-248041558D02*
X166788395Y-248042258D01*
X166402315Y-247954356D02*
X166384601Y-247945073D01*
X166092621Y-247677617D02*
X166081823Y-247660783D01*
X165960476Y-247283875D02*
X165959424Y-247263903D01*
X166040515Y-246876336D02*
X166049485Y-246858461D01*
X166311759Y-246561818D02*
X166328400Y-246550725D01*
X166360000Y-249061233D02*
X166377380Y-249051338D01*
X166760168Y-248950058D02*
X166780168Y-248950063D01*
X167162914Y-249051501D02*
X167180290Y-249061403D01*
X167462673Y-249338972D02*
X167472872Y-249356176D01*
X167580875Y-249737122D02*
X167581223Y-249757118D01*
X167486538Y-250141591D02*
X167476944Y-250159139D01*
X167204389Y-250446364D02*
X167187368Y-250456864D01*
X166808382Y-250571558D02*
X166788395Y-250572258D01*
X166402315Y-250484356D02*
X166384601Y-250475073D01*
X166092621Y-250207617D02*
X166081823Y-250190783D01*
X165960476Y-249813875D02*
X165959424Y-249793903D01*
X166040515Y-249406336D02*
X166049485Y-249388461D01*
X166311759Y-249091818D02*
X166328400Y-249080725D01*
X166360000Y-251601233D02*
X166377380Y-251591338D01*
X166760168Y-251490058D02*
X166780168Y-251490063D01*
X167162914Y-251591501D02*
X167180290Y-251601403D01*
X167462673Y-251878972D02*
X167472872Y-251896176D01*
X167580875Y-252277122D02*
X167581223Y-252297118D01*
X167486538Y-252681591D02*
X167476944Y-252699139D01*
X167204389Y-252986364D02*
X167187368Y-252996864D01*
X166808382Y-253111558D02*
X166788395Y-253112258D01*
X166402315Y-253024356D02*
X166384601Y-253015073D01*
X166092621Y-252747617D02*
X166081823Y-252730783D01*
X165960476Y-252353875D02*
X165959424Y-252333903D01*
X166040515Y-251946336D02*
X166049485Y-251928461D01*
X166311759Y-251631818D02*
X166328400Y-251620725D01*
X166360000Y-254151233D02*
X166377380Y-254141338D01*
X166760168Y-254040058D02*
X166780168Y-254040063D01*
X167162914Y-254141501D02*
X167180290Y-254151403D01*
X167462673Y-254428972D02*
X167472872Y-254446176D01*
X167580875Y-254827122D02*
X167581223Y-254847118D01*
X167486538Y-255231591D02*
X167476944Y-255249139D01*
X167204389Y-255536364D02*
X167187368Y-255546864D01*
X166808382Y-255661558D02*
X166788395Y-255662258D01*
X166402315Y-255574356D02*
X166384601Y-255565073D01*
X166092621Y-255297617D02*
X166081823Y-255280783D01*
X165960476Y-254903875D02*
X165959424Y-254883903D01*
X166040515Y-254496336D02*
X166049485Y-254478461D01*
X166311759Y-254181818D02*
X166328400Y-254170725D01*
X166360000Y-256691233D02*
X166377380Y-256681338D01*
X166760168Y-256580058D02*
X166780168Y-256580063D01*
X167162914Y-256681501D02*
X167180290Y-256691403D01*
X167462673Y-256968972D02*
X167472872Y-256986176D01*
X167580875Y-257367122D02*
X167581223Y-257387118D01*
X167486538Y-257771591D02*
X167476944Y-257789139D01*
X167204389Y-258076364D02*
X167187368Y-258086864D01*
X166808382Y-258201558D02*
X166788395Y-258202258D01*
X166402315Y-258114356D02*
X166384601Y-258105073D01*
X166092621Y-257837617D02*
X166081823Y-257820783D01*
X165960476Y-257443875D02*
X165959424Y-257423903D01*
X166040515Y-257036336D02*
X166049485Y-257018461D01*
X166311759Y-256721818D02*
X166328400Y-256710725D01*
X166360000Y-259221233D02*
X166377380Y-259211338D01*
X166760168Y-259110058D02*
X166780168Y-259110063D01*
X167162914Y-259211501D02*
X167180290Y-259221403D01*
X167462673Y-259498972D02*
X167472872Y-259516176D01*
X167580875Y-259897122D02*
X167581223Y-259917118D01*
X167486538Y-260301591D02*
X167476944Y-260319139D01*
X167204389Y-260606364D02*
X167187368Y-260616864D01*
X166808382Y-260731558D02*
X166788395Y-260732258D01*
X166402315Y-260644356D02*
X166384601Y-260635073D01*
X166092621Y-260367617D02*
X166081823Y-260350783D01*
X165960476Y-259973875D02*
X165959424Y-259953903D01*
X166040515Y-259566336D02*
X166049485Y-259548461D01*
X166311759Y-259251818D02*
X166328400Y-259240725D01*
X166360000Y-271930000D02*
X166377380Y-271920105D01*
X166760168Y-271818825D02*
X166780168Y-271818830D01*
X167162914Y-271920268D02*
X167180290Y-271930170D01*
X167462673Y-272207739D02*
X167472872Y-272224943D01*
X167580875Y-272605889D02*
X167581223Y-272625885D01*
X167486538Y-273010358D02*
X167476944Y-273027906D01*
X167204389Y-273315131D02*
X167187368Y-273325631D01*
X166808382Y-273440325D02*
X166788395Y-273441025D01*
X166402315Y-273353123D02*
X166384601Y-273343840D01*
X166092621Y-273076384D02*
X166081823Y-273059550D01*
X165960476Y-272682642D02*
X165959424Y-272662670D01*
X166040515Y-272275103D02*
X166049485Y-272257228D01*
X166311759Y-271960585D02*
X166328400Y-271949492D01*
X166370000Y-223671233D02*
X166387380Y-223661338D01*
X166770168Y-223560058D02*
X166790168Y-223560063D01*
X167172914Y-223661501D02*
X167190290Y-223671403D01*
X167472673Y-223948972D02*
X167482872Y-223966176D01*
X167590875Y-224347122D02*
X167591223Y-224367118D01*
X167496538Y-224751591D02*
X167486944Y-224769139D01*
X167214389Y-225056364D02*
X167197368Y-225066864D01*
X166818382Y-225181558D02*
X166798395Y-225182258D01*
X166412315Y-225094356D02*
X166394601Y-225085073D01*
X166102621Y-224817617D02*
X166091823Y-224800783D01*
X165970476Y-224423875D02*
X165969424Y-224403903D01*
X166050515Y-224016336D02*
X166059485Y-223998461D01*
X166321759Y-223701818D02*
X166338400Y-223690725D01*
X166370000Y-226201233D02*
X166387380Y-226191338D01*
X166770168Y-226090058D02*
X166790168Y-226090063D01*
X167172914Y-226191501D02*
X167190290Y-226201403D01*
X167472673Y-226478972D02*
X167482872Y-226496176D01*
X167590875Y-226877122D02*
X167591223Y-226897118D01*
X167496538Y-227281591D02*
X167486944Y-227299139D01*
X167214389Y-227586364D02*
X167197368Y-227596864D01*
X166818382Y-227711558D02*
X166798395Y-227712258D01*
X166412315Y-227624356D02*
X166394601Y-227615073D01*
X166102621Y-227347617D02*
X166091823Y-227330783D01*
X165970476Y-226953875D02*
X165969424Y-226933903D01*
X166050515Y-226546336D02*
X166059485Y-226528461D01*
X166321759Y-226231818D02*
X166338400Y-226220725D01*
X166370000Y-233831233D02*
X166387380Y-233821338D01*
X166770168Y-233720058D02*
X166790168Y-233720063D01*
X167172914Y-233821501D02*
X167190290Y-233831403D01*
X167472673Y-234108972D02*
X167482872Y-234126176D01*
X167590875Y-234507122D02*
X167591223Y-234527118D01*
X167496538Y-234911591D02*
X167486944Y-234929139D01*
X167214389Y-235216364D02*
X167197368Y-235226864D01*
X166818382Y-235341558D02*
X166798395Y-235342258D01*
X166412315Y-235254356D02*
X166394601Y-235245073D01*
X166102621Y-234977617D02*
X166091823Y-234960783D01*
X165970476Y-234583875D02*
X165969424Y-234563903D01*
X166050515Y-234176336D02*
X166059485Y-234158461D01*
X166321759Y-233861818D02*
X166338400Y-233850725D01*
X166370000Y-236371233D02*
X166387380Y-236361338D01*
X166770168Y-236260058D02*
X166790168Y-236260063D01*
X167172914Y-236361501D02*
X167190290Y-236371403D01*
X167472673Y-236648972D02*
X167482872Y-236666176D01*
X167590875Y-237047122D02*
X167591223Y-237067118D01*
X167496538Y-237451591D02*
X167486944Y-237469139D01*
X167214389Y-237756364D02*
X167197368Y-237766864D01*
X166818382Y-237881558D02*
X166798395Y-237882258D01*
X166412315Y-237794356D02*
X166394601Y-237785073D01*
X166102621Y-237517617D02*
X166091823Y-237500783D01*
X165970476Y-237123875D02*
X165969424Y-237103903D01*
X166050515Y-236716336D02*
X166059485Y-236698461D01*
X166321759Y-236401818D02*
X166338400Y-236390725D01*
X166370000Y-261771233D02*
X166387380Y-261761338D01*
X166770168Y-261660058D02*
X166790168Y-261660063D01*
X167172914Y-261761501D02*
X167190290Y-261771403D01*
X167472673Y-262048972D02*
X167482872Y-262066176D01*
X167590875Y-262447122D02*
X167591223Y-262467118D01*
X167496538Y-262851591D02*
X167486944Y-262869139D01*
X167214389Y-263156364D02*
X167197368Y-263166864D01*
X166818382Y-263281558D02*
X166798395Y-263282258D01*
X166412315Y-263194356D02*
X166394601Y-263185073D01*
X166102621Y-262917617D02*
X166091823Y-262900783D01*
X165970476Y-262523875D02*
X165969424Y-262503903D01*
X166050515Y-262116336D02*
X166059485Y-262098461D01*
X166321759Y-261801818D02*
X166338400Y-261790725D01*
X166370000Y-266851233D02*
X166387380Y-266841338D01*
X166770168Y-266740058D02*
X166790168Y-266740063D01*
X167172914Y-266841501D02*
X167190290Y-266851403D01*
X167472673Y-267128972D02*
X167482872Y-267146176D01*
X167590875Y-267527122D02*
X167591223Y-267547118D01*
X167496538Y-267931591D02*
X167486944Y-267949139D01*
X167214389Y-268236364D02*
X167197368Y-268246864D01*
X166818382Y-268361558D02*
X166798395Y-268362258D01*
X166412315Y-268274356D02*
X166394601Y-268265073D01*
X166102621Y-267997617D02*
X166091823Y-267980783D01*
X165970476Y-267603875D02*
X165969424Y-267583903D01*
X166050515Y-267196336D02*
X166059485Y-267178461D01*
X166321759Y-266881818D02*
X166338400Y-266870725D01*
X166380000Y-264311233D02*
X166397380Y-264301338D01*
X166780168Y-264200058D02*
X166800168Y-264200063D01*
X167182914Y-264301501D02*
X167200290Y-264311403D01*
X167482673Y-264588972D02*
X167492872Y-264606176D01*
X167600875Y-264987122D02*
X167601223Y-265007118D01*
X167506538Y-265391591D02*
X167496944Y-265409139D01*
X167224389Y-265696364D02*
X167207368Y-265706864D01*
X166828382Y-265821558D02*
X166808395Y-265822258D01*
X166422315Y-265734356D02*
X166404601Y-265725073D01*
X166112621Y-265457617D02*
X166101823Y-265440783D01*
X165980476Y-265063875D02*
X165979424Y-265043903D01*
X166060515Y-264656336D02*
X166069485Y-264638461D01*
X166331759Y-264341818D02*
X166348400Y-264330725D01*
D14*
%TO.C,J4*%
X177805000Y-263190000D02*
X177805000Y-263065000D01*
X177805000Y-264435000D02*
X177805000Y-263750000D01*
X177891724Y-263065000D02*
X177805000Y-263065000D01*
X178500000Y-264435000D02*
X177805000Y-264435000D01*
X179195000Y-263065000D02*
X177805000Y-263065000D01*
X179195000Y-263065000D02*
X179108276Y-263065000D01*
X179195000Y-263190000D02*
X179195000Y-263065000D01*
%TO.C,U3*%
D10*
X267300000Y-165900000D02*
X226660000Y-165900000D01*
X226660000Y-148110000D01*
X267300000Y-148110000D01*
X267300000Y-165900000D01*
D14*
%TO.C,J3*%
X173805000Y-270440000D02*
X173805000Y-270315000D01*
X173805000Y-271685000D02*
X173805000Y-271000000D01*
X173891724Y-270315000D02*
X173805000Y-270315000D01*
X174500000Y-271685000D02*
X173805000Y-271685000D01*
X175195000Y-270315000D02*
X173805000Y-270315000D01*
X175195000Y-270315000D02*
X175108276Y-270315000D01*
X175195000Y-270440000D02*
X175195000Y-270315000D01*
%TO.C,U6*%
D10*
X336500000Y-369000000D02*
X295860000Y-369000000D01*
X295860000Y-351210000D01*
X336500000Y-351210000D01*
X336500000Y-369000000D01*
D14*
%TO.C,J25*%
X218790000Y-237210000D02*
X269850000Y-237210000D01*
X218790000Y-246330000D02*
X218790000Y-237210000D01*
X220090000Y-238520000D02*
X268550000Y-238520000D01*
X220090000Y-245020000D02*
X220090000Y-238520000D01*
X242270000Y-245020000D02*
X220090000Y-245020000D01*
X242270000Y-245020000D02*
X242270000Y-245020000D01*
X242270000Y-246330000D02*
X242270000Y-245020000D01*
X246370000Y-245020000D02*
X246370000Y-246330000D01*
X264140000Y-247720000D02*
X265140000Y-247720000D01*
X264640000Y-246720000D02*
X264140000Y-247720000D01*
X265140000Y-247720000D02*
X264640000Y-246720000D01*
X268550000Y-238520000D02*
X268550000Y-245020000D01*
X268550000Y-245020000D02*
X246370000Y-245020000D01*
X269850000Y-237210000D02*
X269850000Y-246330000D01*
X269850000Y-246330000D02*
X218790000Y-246330000D01*
%TD*%
M02*
